<?xml version="1.0" standalone="no"?>
<!DOCTYPE svg PUBLIC "-//W3C//DTD SVG 20010904//EN"
 "http://www.w3.org/TR/2001/REC-SVG-20010904/DTD/svg10.dtd">
<svg version="1.0" xmlns="http://www.w3.org/2000/svg"
 width="600.000000pt" height="840.000000pt" viewBox="0 0 600.000000 840.000000"
 preserveAspectRatio="xMidYMid meet">

<g transform="translate(0.000000,840.000000) scale(0.100000,-0.100000)"
fill="#000000" stroke="none">
<path d="M3352 8229 c-62 -10 -120 -39 -220 -107 -117 -79 -161 -129 -227
-257 -20 -37 -62 -107 -95 -155 -71 -106 -113 -187 -135 -262 -9 -31 -25 -74
-35 -96 -18 -36 -49 -141 -64 -217 -5 -22 -4 -26 4 -15 7 11 9 -3 6 -50 -8
-120 -10 -125 -16 -55 l-7 70 4 -80 c9 -200 8 -207 -42 -264 -53 -60 -104
-144 -112 -184 -7 -43 -30 -77 -51 -78 -14 0 -14 -2 3 -8 17 -7 14 -11 -25
-31 -56 -28 -103 -61 -97 -67 3 -2 19 3 36 11 46 24 51 20 30 -24 -10 -21 -19
-46 -19 -54 0 -13 -21 -105 -26 -114 0 -1 -37 -9 -80 -17 -179 -32 -224 -66
-419 -319 -142 -183 -169 -209 -244 -240 -74 -30 -81 -43 -52 -108 13 -29 29
-69 37 -90 16 -43 71 -129 136 -215 27 -34 48 -66 48 -72 0 -6 3 -11 8 -11 11
0 52 -95 52 -123 0 -13 -7 -40 -15 -60 -8 -19 -14 -51 -13 -71 1 -21 -6 -43
-15 -54 -10 -10 -17 -30 -17 -44 0 -14 -6 -31 -14 -37 -8 -7 -17 -24 -21 -38
-3 -15 -17 -40 -31 -56 -13 -16 -24 -37 -24 -47 0 -11 -16 -46 -35 -78 -19
-33 -39 -72 -45 -86 -12 -33 -43 -77 -92 -130 -21 -23 -38 -45 -38 -49 0 -24
-46 -46 -85 -41 -22 3 -47 0 -55 -6 -13 -9 -11 -13 10 -30 14 -11 32 -27 41
-35 9 -8 30 -15 47 -15 19 0 40 -8 52 -20 12 -12 24 -19 28 -16 8 5 83 -71
177 -177 104 -118 291 -300 317 -310 10 -4 15 -12 12 -21 -4 -10 6 -16 36 -21
32 -5 45 -13 53 -34 9 -19 18 -25 35 -23 13 2 29 -2 37 -8 8 -6 18 -9 22 -7
10 6 -4 -173 -13 -182 -4 -3 -5 11 -2 32 4 35 -1 45 -15 30 -4 -3 -20 -7 -36
-7 -19 -1 -27 2 -21 9 17 16 11 28 -10 22 -12 -3 -24 1 -29 11 -8 14 -12 15
-22 5 -7 -7 -17 -13 -21 -13 -12 0 -9 34 4 50 11 12 11 13 0 4 -28 -24 -167
33 -183 73 -5 14 -17 23 -31 24 -22 1 -22 1 2 8 l25 8 -25 4 c-15 2 -30 16
-40 34 -8 17 -15 30 -15 31 0 1 -13 4 -29 8 -25 6 -28 5 -23 -13 4 -17 2 -18
-14 -8 -10 6 -19 17 -19 22 0 6 -16 26 -35 45 -36 35 -45 53 -21 44 31 -12 25
18 -11 51 -26 24 -48 35 -69 35 -32 0 -59 22 -65 53 -4 16 -6 17 -24 3 -20
-15 -19 -16 15 -46 l35 -30 -30 2 c-21 2 -34 11 -43 31 -9 18 -24 30 -44 34
-37 7 -153 113 -162 148 -3 13 -14 26 -25 30 -40 12 -50 75 -26 165 8 30 15
74 15 97 0 24 5 43 13 46 9 4 9 6 0 6 -7 1 -13 13 -13 27 0 14 -4 23 -10 19
-5 -3 -6 -13 -3 -22 4 -10 2 -14 -4 -10 -9 6 -31 -65 -62 -205 -14 -60 -14
-131 0 -160 6 -13 81 -77 167 -143 86 -66 224 -173 307 -238 82 -65 227 -169
320 -231 229 -151 253 -166 265 -166 14 0 12 -48 -4 -106 -8 -27 -24 -110 -36
-184 -20 -125 -46 -250 -71 -342 -5 -21 -19 -107 -30 -190 -10 -84 -32 -241
-49 -348 -31 -206 -35 -261 -50 -590 -10 -231 -14 -217 76 -273 51 -32 107
-98 134 -160 20 -46 61 -82 136 -120 32 -16 32 -17 39 -119 4 -57 15 -183 26
-282 10 -98 19 -235 19 -305 0 -69 3 -143 6 -163 l7 -38 362 0 363 0 6 31 c3
17 6 83 6 146 0 117 8 208 37 436 19 146 16 143 121 163 l62 12 0 -27 c0 -32
46 -66 105 -79 39 -8 40 -8 63 -87 42 -145 101 -379 117 -465 9 -47 18 -95 21
-107 l4 -23 296 0 c233 0 294 3 290 13 -3 6 -9 20 -12 30 -4 9 -13 17 -21 17
-11 0 -14 6 -9 22 3 13 6 29 6 36 0 6 7 12 15 12 8 0 15 7 15 15 0 24 -14 17
-34 -16 -23 -38 -27 -34 -16 16 9 41 -9 134 -31 161 -7 8 -9 17 -6 21 3 3 0
21 -8 40 -8 20 -15 49 -15 66 0 20 -8 39 -23 52 -41 35 -43 129 -2 95 13 -11
18 -10 28 3 10 13 40 17 157 22 181 6 288 15 318 26 20 8 22 15 22 91 0 46 10
133 21 193 29 160 34 354 15 587 -9 109 -16 281 -16 384 0 102 -5 250 -10 328
-6 77 -15 292 -20 476 -5 184 -15 376 -20 425 -30 255 -30 268 -13 287 12 14
19 15 30 6 24 -20 35 4 20 48 -17 50 -12 77 16 90 12 5 21 15 20 22 -2 7 1 12
7 12 5 0 7 6 4 13 -5 13 47 100 55 91 3 -2 15 17 27 43 12 27 35 61 51 78 41
43 73 93 73 114 0 10 9 26 21 37 11 10 32 42 46 72 20 43 24 63 20 110 -7 96
-31 173 -95 312 -13 30 -26 64 -28 75 -2 11 -14 53 -28 93 -15 41 -26 85 -26
98 0 13 -4 24 -8 24 -9 0 -8 78 2 87 10 10 7 51 -4 55 -6 2 0 14 13 28 12 14
43 54 69 90 57 81 217 252 228 245 5 -3 11 -22 15 -43 11 -68 21 -70 50 -11
16 30 53 92 85 139 68 102 80 142 47 170 -93 80 -145 135 -187 195 -105 151
-397 496 -449 531 -57 37 -142 63 -252 77 -93 11 -100 13 -95 32 23 94 12 260
-19 278 -8 4 -15 13 -15 20 0 7 4 6 10 -3 5 -8 10 -11 10 -7 0 21 -69 101
-106 123 -23 14 -45 31 -48 39 -3 8 6 47 20 87 22 66 25 87 23 218 -2 173 -15
271 -69 530 -66 312 -96 385 -198 482 -93 89 -151 111 -221 87 -28 -10 -35 -9
-54 9 -23 21 -88 43 -122 41 -11 -1 -44 -5 -73 -10z m213 -205 c121 -11 236
-90 300 -206 l30 -53 -2 -230 c-3 -278 0 -266 -131 -573 -50 -118 -104 -176
-190 -202 -108 -34 -187 -37 -268 -10 -38 13 -82 29 -99 37 -39 20 -95 73 -95
91 0 8 -13 29 -30 48 -42 49 -47 93 -20 176 22 68 23 72 7 147 -17 84 -13 177
10 199 7 7 11 17 8 22 -8 12 36 20 56 9 26 -13 55 -11 69 6 7 8 17 12 24 8 6
-4 32 -9 59 -11 40 -3 50 0 67 20 17 21 19 21 25 5 4 -9 5 -27 2 -39 -6 -20
-5 -20 10 -5 17 17 19 50 7 125 -11 78 -91 132 -209 144 -16 2 -33 7 -36 12
-16 21 69 162 133 222 47 45 114 73 163 69 22 -3 72 -7 110 -11z m-318 -359
c53 -22 133 -86 133 -106 0 -27 -20 -33 -36 -11 -8 11 -35 28 -61 38 -27 10
-54 24 -61 31 -7 7 -25 16 -40 19 -15 4 -33 11 -39 17 -36 28 43 37 104 12z
m53 -155 c0 -5 -7 -10 -16 -10 -8 0 -12 5 -9 10 3 6 10 10 16 10 5 0 9 -4 9
-10z m629 -345 c-6 -22 -15 -44 -20 -49 -5 -6 -9 -16 -9 -24 0 -12 3 -12 16
-1 14 12 14 9 -1 -26 -24 -59 -41 -82 -62 -82 -44 -1 -56 44 -28 111 14 32 27
48 24 29 -4 -27 2 -32 26 -21 26 12 29 18 40 82 4 23 10 35 15 30 6 -6 5 -25
-1 -49z m-59 -10 c0 -8 -4 -15 -10 -15 -5 0 -7 7 -4 15 4 8 8 15 10 15 2 0 4
-7 4 -15z m59 -243 c0 -24 -1 -25 -9 -7 -12 28 -12 47 0 40 6 -3 10 -18 9 -33z
m-19 -3 c0 -5 -4 -9 -10 -9 -5 0 -10 7 -10 16 0 8 5 12 10 9 6 -3 10 -10 10
-16z m121 -76 c-8 -15 -10 -15 -11 -2 0 17 10 32 18 25 2 -3 -1 -13 -7 -23z
m98 -154 c-6 -3 -3 -11 7 -20 35 -29 67 -120 70 -198 2 -65 -9 -111 -26 -111
-3 0 -5 15 -6 33 -1 60 -15 106 -40 136 -20 24 -25 39 -22 73 l3 43 24 -39
c13 -21 30 -55 37 -75 7 -20 13 -28 14 -19 0 29 -31 101 -62 141 -16 20 -24
37 -17 37 8 0 7 5 -2 17 -13 15 -12 15 8 2 12 -7 18 -16 12 -20z m-1589 7 c0
-2 -8 -10 -17 -17 -16 -13 -17 -12 -4 4 13 16 21 21 21 13z m1484 -12 c5 -14
4 -15 -9 -4 -17 14 -19 20 -6 20 5 0 12 -7 15 -16z m-1530 -59 c-28 -37 -34
-41 -34 -25 0 11 45 60 55 60 3 0 -6 -16 -21 -35z m948 13 c15 -5 46 -8 69 -6
55 4 75 -21 41 -52 -12 -11 -29 -46 -37 -78 -9 -31 -22 -70 -30 -85 -8 -16
-15 -35 -15 -42 0 -10 -19 -16 -60 -21 l-60 -7 0 -38 c0 -22 -4 -39 -9 -39 -5
0 -14 -30 -21 -66 -7 -36 -23 -88 -37 -116 -26 -53 -27 -81 -3 -56 8 8 25 17
38 20 19 5 22 3 17 -10 -21 -51 -45 -124 -45 -137 0 -36 -18 -1 -30 57 -14 70
-44 130 -84 167 -31 29 -40 72 -28 129 6 24 6 44 1 48 -15 9 -11 81 6 87 8 4
17 2 20 -3 4 -6 14 -10 23 -9 9 0 12 3 6 5 -8 3 -10 36 -8 100 2 52 0 103 -6
114 -15 27 9 40 87 49 74 8 123 5 165 -11z m602 0 c11 -10 16 -21 12 -25 -4
-5 -13 0 -20 10 -7 9 -18 17 -24 17 -6 0 -13 4 -16 8 -10 16 29 8 48 -10z
m-63 -70 c13 -49 7 -121 -11 -143 -14 -16 -56 -20 -64 -6 -4 5 -3 16 0 24 5
13 9 12 26 -5 26 -26 33 -17 14 20 -13 25 -13 39 -4 91 6 33 15 61 19 61 5 0
13 -19 20 -42z m63 16 c24 -9 21 -89 -5 -130 -25 -41 -34 -43 -24 -6 11 46 15
113 6 108 -5 -3 -11 3 -14 14 -5 21 7 25 37 14z m90 -82 c20 -29 26 -50 26
-90 0 -49 -1 -52 -19 -42 -11 5 -34 10 -51 10 -24 0 -31 4 -27 14 3 8 9 32 12
53 6 36 24 93 30 93 1 0 14 -17 29 -38z m-78 -87 c-7 -19 -15 -37 -18 -41 -10
-9 -49 16 -43 27 4 5 10 7 15 4 4 -3 15 6 24 20 24 36 36 31 22 -10z m-1601
-128 c-24 -13 -37 1 -24 25 11 21 12 21 25 3 12 -16 12 -20 -1 -28z m3 -35 c2
-7 -3 -12 -12 -12 -9 0 -16 7 -16 16 0 17 22 14 28 -4z m-527 -1512 c5 0 33
-22 62 -50 28 -27 59 -50 67 -51 34 -3 58 3 107 27 28 14 60 27 70 28 27 5 71
-21 106 -60 16 -20 47 -44 67 -54 37 -19 38 -21 50 -102 7 -50 26 -116 47
-166 34 -79 35 -87 30 -165 -8 -127 -23 -157 -128 -255 -86 -81 -177 -191
-228 -274 l-23 -38 -76 62 c-86 70 -521 485 -529 504 -6 16 62 149 146 287 38
62 90 152 116 202 48 92 70 118 93 110 8 -3 18 -5 23 -5z m2629 -137 c7 -21
52 -134 102 -251 49 -117 92 -228 95 -246 5 -29 -1 -40 -46 -92 -80 -92 -315
-342 -322 -343 -4 -1 -10 11 -13 27 -4 15 -20 52 -36 83 -22 43 -28 66 -25 95
3 21 1 52 -5 69 -6 18 -12 61 -15 96 -3 50 0 70 15 94 14 23 134 360 175 493
3 6 18 12 34 12 25 0 31 -5 41 -37z m-3081 -862 c14 -12 18 -22 11 -26 -11 -7
-40 17 -40 34 0 15 4 14 29 -8z m61 -51 c0 -5 -4 -10 -10 -10 -5 0 -10 5 -10
10 0 6 5 10 10 10 6 0 10 -4 10 -10z m2927 -272 c-3 -7 -5 -2 -5 12 0 14 2 19
5 13 2 -7 2 -19 0 -25z m-450 -3000 c-3 -8 -6 -5 -6 6 -1 11 2 17 5 13 3 -3 4
-12 1 -19z"/>
<path d="M3613 7610 c-12 -5 -27 -18 -33 -29 -10 -20 -8 -21 32 -20 24 0 65 4
92 8 60 10 110 -2 131 -32 13 -18 15 -19 15 -4 0 29 -18 56 -50 72 -32 17
-150 20 -187 5z"/>
<path d="M3613 7499 c-23 -7 -33 -16 -33 -29 0 -11 -4 -20 -10 -20 -5 0 -10
-4 -10 -9 0 -5 23 -15 50 -22 28 -7 50 -16 50 -19 0 -4 31 -8 69 -9 62 -2 69
0 74 20 8 31 0 46 -40 69 -28 17 -45 20 -76 15 -28 -5 -38 -4 -33 4 8 13 3 13
-41 0z m17 -59 c0 -5 -4 -10 -10 -10 -5 0 -10 5 -10 10 0 6 5 10 10 10 6 0 10
-4 10 -10z m100 -20 c0 -5 -5 -10 -11 -10 -5 0 -7 5 -4 10 3 6 8 10 11 10 2 0
4 -4 4 -10z"/>
<path d="M3235 7460 c-4 -6 10 -10 34 -10 23 0 41 5 41 10 0 6 -15 10 -34 10
-19 0 -38 -4 -41 -10z"/>
<path d="M3617 7379 c7 -7 15 -10 18 -7 3 3 -2 9 -12 12 -14 6 -15 5 -6 -5z"/>
<path d="M3369 7273 c11 -21 10 -23 -13 -23 -14 0 -28 -5 -31 -10 -4 -6 -10
-8 -15 -5 -18 11 -18 -11 0 -35 18 -24 19 -24 39 -6 19 17 21 17 27 2 3 -9 13
-16 21 -16 11 0 13 5 8 18 -4 9 -10 29 -13 44 -2 15 -11 33 -20 40 -13 12 -14
10 -3 -9z"/>
<path d="M3449 7214 c-10 -13 -10 -17 2 -25 32 -20 61 0 39 26 -16 19 -24 19
-41 -1z"/>
<path d="M3270 7135 c0 -8 7 -15 16 -15 14 0 14 3 4 15 -7 8 -14 15 -16 15 -2
0 -4 -7 -4 -15z"/>
<path d="M3242 7110 c-71 -5 -73 -6 -58 -25 9 -11 16 -28 16 -37 0 -11 25 -29
74 -53 89 -43 157 -47 231 -14 l48 21 -23 18 c-33 25 -118 66 -170 81 -29 9
-71 12 -118 9z m126 -101 c2 -5 11 -9 20 -9 10 0 24 -5 32 -10 20 -13 -77 -1
-104 12 -15 8 -16 12 -5 19 15 9 52 2 57 -12z"/>
<path d="M4191 6464 c0 -11 3 -14 6 -6 3 7 2 16 -1 19 -3 4 -6 -2 -5 -13z"/>
<path d="M3323 6338 c-2 -18 0 -20 7 -8 12 18 13 30 2 30 -4 0 -9 -10 -9 -22z"/>
<path d="M1160 4551 c0 -11 5 -23 10 -26 6 -3 10 3 10 14 0 11 -4 23 -10 26
-5 3 -10 -3 -10 -14z"/>
<path d="M1990 3510 c0 -5 5 -10 11 -10 5 0 7 5 4 10 -3 6 -8 10 -11 10 -2 0
-4 -4 -4 -10z"/>
<path d="M4222 20 c0 -14 2 -19 5 -12 2 6 2 18 0 25 -3 6 -5 1 -5 -13z"/>
</g>
</svg>
