<?xml version="1.0" standalone="no"?>
<!DOCTYPE svg PUBLIC "-//W3C//DTD SVG 20010904//EN"
 "http://www.w3.org/TR/2001/REC-SVG-20010904/DTD/svg10.dtd">
<svg version="1.0" xmlns="http://www.w3.org/2000/svg"
 width="600.000000pt" height="840.000000pt" viewBox="0 0 600.000000 840.000000"
 preserveAspectRatio="xMidYMid meet">

<g transform="translate(0.000000,840.000000) scale(0.100000,-0.100000)"
fill="#000000" stroke="none">
<path d="M3500 8170 c-13 -8 -13 -10 1 -10 9 0 20 -7 23 -16 6 -15 0 -16 -38
-11 -69 10 -136 -15 -200 -74 -57 -52 -110 -132 -121 -184 -14 -67 -58 -222
-70 -245 -7 -14 -10 -31 -8 -37 3 -7 -3 -16 -12 -19 -13 -5 -15 -15 -10 -44 4
-24 -1 -66 -15 -120 -12 -45 -19 -85 -16 -88 4 -3 6 1 6 8 0 7 2 11 5 9 7 -7
-30 -100 -80 -202 -37 -75 -40 -85 -19 -66 26 25 32 15 9 -15 -8 -10 -12 -22
-10 -26 3 -5 -15 -49 -40 -99 -25 -50 -45 -101 -45 -114 1 -20 2 -20 11 -4 6
9 14 15 18 12 5 -2 19 19 32 48 12 28 36 63 51 76 l29 23 -36 -64 c-37 -68
-42 -84 -24 -72 13 8 4 -79 -11 -107 -16 -29 -11 -127 10 -223 24 -108 25
-142 5 -189 -19 -45 -19 -47 0 -47 14 0 14 -4 -1 -31 -15 -31 -12 -79 5 -79 5
0 19 15 31 33 17 25 20 27 15 8 -5 -18 -4 -22 6 -16 9 6 10 4 3 -11 -22 -49
-5 -142 35 -183 7 -8 18 -28 24 -44 8 -24 11 -27 19 -13 5 10 5 24 -2 37 -13
24 -13 24 21 32 17 5 31 2 38 -7 13 -15 28 -16 50 -2 10 7 12 3 6 -15 -5 -19
-4 -21 4 -9 6 8 8 31 6 50 -3 19 -2 29 1 23 3 -7 10 -13 16 -13 7 0 9 26 5 77
-4 49 -2 72 3 63 6 -8 10 -25 10 -37 0 -13 5 -23 10 -23 6 0 10 -12 10 -27 1
-48 20 -1 22 53 2 46 3 47 15 18 7 -16 12 -45 13 -64 1 -55 17 -70 22 -20 3
31 -5 65 -29 127 -18 47 -33 92 -33 100 0 8 -10 29 -22 46 -12 17 -17 27 -10
23 8 -5 12 1 12 16 0 17 3 19 9 9 18 -29 19 -7 5 174 -3 49 -1 91 5 108 l11
28 36 -28 c36 -27 37 -27 51 -8 9 13 13 34 10 57 -3 20 0 41 5 46 6 6 4 20 -6
40 -9 17 -16 41 -16 54 0 13 -7 36 -15 52 -17 32 -13 45 8 28 20 -17 25 -7 19
48 l-5 50 44 2 c24 0 51 1 59 0 8 0 18 4 21 10 10 15 58 18 91 6 19 -7 33 -6
50 4 12 7 30 13 38 13 8 0 16 8 18 18 2 12 -3 17 -18 17 -12 0 -29 4 -39 9 -9
5 -23 6 -30 2 -9 -6 -6 -10 10 -14 40 -10 8 -31 -33 -21 -18 4 -37 7 -41 6 -4
-1 -36 3 -70 9 -34 6 -70 11 -79 11 -10 -1 -18 3 -18 8 0 5 8 11 18 14 20 6
123 2 167 -8 l30 -6 -29 11 c-19 8 -24 14 -16 19 18 11 3 30 -25 30 -13 0 -36
5 -50 10 -21 8 -26 16 -23 37 2 16 12 32 25 38 l22 11 -25 44 c-16 28 -23 52
-19 67 4 17 2 21 -9 17 -27 -10 -48 -55 -45 -97 3 -65 0 -89 -11 -82 -14 8
-103 -32 -96 -44 4 -5 1 -11 -5 -13 -7 -2 -7 -12 1 -33 12 -31 6 -75 -9 -75
-5 0 -14 15 -21 34 -11 34 -6 80 12 103 7 8 4 21 -10 38 -11 13 -23 45 -26 70
-4 24 -11 47 -17 50 -5 4 -9 14 -9 24 0 10 -7 24 -16 31 -8 8 -14 25 -12 39 3
24 6 26 48 24 25 -2 71 -3 102 -3 59 0 138 -30 138 -53 0 -7 3 -7 9 -1 5 5 11
41 15 80 4 54 2 75 -9 90 -8 10 -15 34 -15 52 0 29 -5 35 -46 52 -25 11 -54
20 -64 20 -35 0 -50 12 -50 40 0 16 7 30 15 34 10 3 15 19 15 44 0 63 36 142
64 142 5 0 17 6 25 14 47 40 241 78 241 47 0 -4 20 -17 44 -29 24 -12 51 -34
60 -48 10 -13 22 -22 28 -18 6 4 8 3 5 -3 -4 -6 1 -21 11 -34 10 -13 24 -37
31 -54 7 -16 20 -42 28 -57 37 -71 45 -139 47 -376 0 -129 -2 -236 -6 -239
-15 -9 -8 -22 9 -16 14 5 15 1 10 -33 -4 -26 -3 -34 3 -24 5 8 10 22 10 31 0
9 7 23 17 30 15 13 16 9 10 -41 -6 -55 -6 -55 8 -20 9 23 14 28 14 16 1 -20 1
-20 16 0 14 18 14 18 15 -6 0 -15 -4 -30 -8 -35 -5 -6 -6 -21 -1 -35 l7 -25 1
25 c1 15 6 31 13 38 15 15 -3 144 -39 267 -23 78 -26 111 -28 245 -1 95 -6
166 -14 184 -6 17 -11 39 -10 50 3 42 -2 53 -36 93 -42 50 -44 61 -7 38 18
-11 13 -3 -18 28 -51 50 -70 73 -70 83 0 4 -16 22 -36 40 -19 19 -33 38 -30
43 11 18 -53 23 -84 8 -26 -14 -34 -14 -58 -1 -41 20 -85 26 -102 14z m-135
-534 c29 -13 63 -51 53 -61 -2 -2 -36 1 -76 7 -47 8 -72 16 -72 25 0 7 5 13
11 13 6 0 9 7 5 15 -7 20 32 20 79 1z m-20 -146 c-3 -5 -10 -10 -16 -10 -5 0
-9 5 -9 10 0 6 7 10 16 10 8 0 12 -4 9 -10z m85 -160 c0 -5 -5 -10 -11 -10 -5
0 -7 5 -4 10 3 6 8 10 11 10 2 0 4 -4 4 -10z m-404 -655 c-15 -19 -33 -52 -41
-73 -7 -20 -14 -29 -14 -20 -1 28 19 71 47 101 36 38 40 34 8 -8z m67 -12 c-7
-2 -11 -10 -9 -16 1 -7 1 -9 -1 -5 -2 4 -12 4 -21 1 -10 -4 -6 3 8 14 14 12
27 19 30 16 3 -3 0 -8 -7 -10z m-47 -104 c-8 -24 -17 -66 -21 -92 -4 -27 -9
-46 -12 -43 -6 6 14 126 28 163 16 43 20 20 5 -28z m64 -2 c0 -2 -12 -14 -27
-28 l-28 -24 24 28 c23 25 31 32 31 24z m-25 -63 c-22 -23 -33 -48 -49 -109
-3 -11 -3 0 0 25 5 42 44 110 64 110 5 0 -2 -12 -15 -26z m92 -396 c-3 -8 -6
-5 -6 6 -1 11 2 17 5 13 3 -3 4 -12 1 -19z m3 -38 c0 -5 -2 -10 -4 -10 -3 0
-8 5 -11 10 -3 6 -1 10 4 10 6 0 11 -4 11 -10z"/>
<path d="M3642 7657 c-10 -12 -8 -16 15 -26 16 -6 49 -13 74 -15 25 -3 62 -11
82 -20 29 -12 37 -12 37 -2 0 32 -61 64 -137 72 -45 5 -61 3 -71 -9z"/>
<path d="M3639 7533 c-31 -8 -29 -41 4 -69 17 -14 33 -22 35 -16 3 10 108 7
140 -3 21 -7 13 30 -10 52 -40 35 -114 51 -169 36z m131 -55 c0 -14 -15 -16
-27 -3 -10 11 -9 13 7 12 11 -1 20 -5 20 -9z"/>
<path d="M3985 7455 c9 -51 48 -155 58 -155 4 0 0 17 -9 38 -9 20 -23 62 -31
92 -18 67 -27 80 -18 25z"/>
<path d="M3540 7291 c0 -6 9 -15 21 -21 18 -10 20 -9 17 7 -3 19 -38 32 -38
14z"/>
<path d="M3942 7013 c-7 -25 -11 -47 -9 -50 2 -2 10 17 17 42 7 25 11 48 8 50
-2 2 -10 -16 -16 -42z"/>
<path d="M3835 6993 c-9 -30 -32 -71 -54 -97 -45 -52 -68 -134 -78 -271 -5
-68 -3 -87 15 -120 11 -22 29 -49 41 -59 31 -28 45 -8 48 69 2 49 8 74 28 106
31 48 26 63 -10 29 -14 -13 -25 -20 -25 -16 0 12 34 52 45 54 5 1 17 57 27
124 10 68 24 148 31 179 l14 55 -34 0 c-31 -1 -34 -4 -48 -53z m-58 -299 c10
-168 9 -207 -5 -211 -8 -3 -10 1 -6 12 4 9 1 66 -6 126 -11 98 -7 190 6 176 3
-3 8 -49 11 -103z"/>
<path d="M4041 7004 c0 -11 3 -14 6 -6 3 7 2 16 -1 19 -3 4 -6 -2 -5 -13z"/>
<path d="M3901 6732 c-13 -25 -14 -42 -2 -42 10 0 25 50 17 57 -2 3 -9 -4 -15
-15z"/>
<path d="M2871 6612 c0 -18 4 -53 10 -77 6 -24 9 -50 6 -57 -6 -16 -13 1 -22
55 -10 61 -27 44 -23 -23 3 -62 -7 -81 -18 -32 -3 15 -7 32 -8 37 -2 6 -6 -21
-10 -60 -9 -78 -24 -122 -62 -177 -44 -63 -17 -66 42 -4 30 31 57 56 60 56 4
0 4 -18 1 -40 -3 -23 -1 -38 4 -34 5 3 9 16 9 30 0 14 4 23 9 19 6 -3 14 3 20
12 5 10 13 16 18 13 4 -3 16 11 25 30 21 42 17 82 -19 160 -14 30 -29 71 -33
90 l-8 35 -1 -33z"/>
<path d="M3920 6375 c-7 -9 -8 -15 -2 -15 5 0 12 7 16 15 3 8 4 15 2 15 -2 0
-9 -7 -16 -15z"/>
<path d="M2480 6339 c0 -8 12 -10 34 -6 19 3 39 0 47 -6 11 -10 11 -9 0 6 -15
19 -81 24 -81 6z"/>
<path d="M3756 6305 c-9 -26 -7 -32 5 -12 6 10 9 21 6 23 -2 3 -7 -2 -11 -11z"/>
<path d="M2357 6240 c-82 -96 -191 -354 -255 -601 -23 -86 -50 -154 -103 -260
-39 -79 -80 -169 -91 -199 -23 -66 -99 -344 -124 -455 -23 -100 -26 -339 -5
-378 26 -49 453 -257 662 -321 100 -31 121 -35 143 -25 19 9 32 9 50 1 17 -7
26 -8 28 -1 5 14 122 -7 161 -28 16 -8 31 -12 34 -9 4 3 1 6 -5 6 -20 0 -13
21 13 42 35 28 31 38 -15 38 -33 0 -40 -3 -40 -20 0 -11 -3 -20 -7 -20 -4 0
-52 16 -108 35 -55 19 -115 35 -134 37 -22 2 -36 8 -38 19 -3 9 -18 20 -34 23
-16 3 -43 9 -60 12 -26 6 -30 10 -26 30 4 20 0 24 -22 24 -15 0 -32 5 -39 12
-9 9 -15 9 -24 0 -17 -17 -45 -15 -52 3 -4 11 3 15 27 16 31 2 31 2 4 6 -19 3
-35 15 -45 34 -10 16 -22 29 -28 29 -6 0 -23 9 -37 20 -14 11 -31 20 -39 20
-17 0 -68 57 -68 76 0 8 -4 14 -10 14 -5 0 -10 9 -10 20 0 11 -7 23 -15 26 -9
4 -15 19 -15 38 0 51 -11 77 -36 87 -14 5 -24 17 -24 28 0 11 -4 22 -9 26 -5
3 -7 33 -4 68 9 103 9 311 -1 325 -6 8 -5 17 2 24 7 7 12 19 12 28 0 8 7 28
15 44 8 15 15 39 15 52 0 13 5 24 10 24 6 0 10 11 10 23 0 22 79 195 105 227
14 19 32 97 40 175 7 68 32 148 45 140 12 -7 32 57 21 68 -5 5 -5 24 1 45 5
20 14 57 20 82 5 25 15 50 21 55 7 7 8 5 3 -5 -4 -8 4 -1 19 15 36 42 67 103
54 107 -6 2 3 21 20 42 30 37 42 74 21 61 -5 -3 -10 -2 -10 4 0 5 8 15 18 20
9 6 12 11 5 11 -6 0 -27 -18 -46 -40z"/>
<path d="M3365 6180 c-3 -5 -1 -10 4 -10 6 0 11 5 11 10 0 6 -2 10 -4 10 -3 0
-8 -4 -11 -10z"/>
<path d="M2901 6164 c0 -11 3 -14 6 -6 3 7 2 16 -1 19 -3 4 -6 -2 -5 -13z"/>
<path d="M2901 6124 c0 -11 3 -14 6 -6 3 7 2 16 -1 19 -3 4 -6 -2 -5 -13z"/>
<path d="M2962 6060 c0 -14 2 -19 5 -12 2 6 2 18 0 25 -3 6 -5 1 -5 -13z"/>
<path d="M3340 6001 c0 -6 4 -13 10 -16 6 -3 7 1 4 9 -7 18 -14 21 -14 7z"/>
<path d="M2970 5981 c0 -5 5 -13 10 -16 6 -3 10 -2 10 4 0 5 -4 13 -10 16 -5
3 -10 2 -10 -4z"/>
<path d="M3124 5959 c-7 -12 15 -31 28 -23 4 3 8 12 8 20 0 17 -26 19 -36 3z"/>
<path d="M2740 5951 c0 -6 5 -13 10 -16 6 -3 10 1 10 9 0 9 -4 16 -10 16 -5 0
-10 -4 -10 -9z"/>
<path d="M3360 5946 c0 -9 40 -13 46 -5 3 5 -6 9 -20 9 -14 0 -26 -2 -26 -4z"/>
<path d="M3092 5895 c-7 -15 -11 -30 -8 -32 7 -7 28 36 24 49 -2 6 -9 -2 -16
-17z"/>
<path d="M2751 5784 c0 -11 3 -14 6 -6 3 7 2 16 -1 19 -3 4 -6 -2 -5 -13z"/>
<path d="M2745 5730 c3 -5 8 -10 11 -10 2 0 4 5 4 10 0 6 -5 10 -11 10 -5 0
-7 -4 -4 -10z"/>
<path d="M2701 5694 c-12 -16 -27 -24 -36 -21 -9 4 -19 -2 -26 -16 -7 -12 -22
-32 -34 -45 -13 -12 -37 -64 -54 -115 -18 -50 -46 -125 -62 -166 -16 -40 -29
-79 -29 -87 0 -25 20 -25 29 0 6 13 19 27 30 31 17 5 19 10 11 25 -13 24 -13
30 0 30 13 0 90 77 90 90 0 6 5 10 11 10 5 0 7 5 4 10 -3 6 1 13 9 16 9 3 16
15 16 25 0 10 4 19 9 19 7 0 12 11 21 48 1 4 6 12 11 18 9 11 21 74 20 109 0
11 5 22 11 26 7 4 7 9 0 13 -6 3 -20 -6 -31 -20z"/>
<path d="M2740 5680 c0 -5 5 -10 10 -10 6 0 10 5 10 10 0 6 -4 10 -10 10 -5 0
-10 -4 -10 -10z"/>
<path d="M2740 5629 c0 -5 5 -7 10 -4 6 3 10 8 10 11 0 2 -4 4 -10 4 -5 0 -10
-5 -10 -11z"/>
<path d="M2725 5590 c3 -5 10 -10 16 -10 5 0 9 5 9 10 0 6 -7 10 -16 10 -8 0
-12 -4 -9 -10z"/>
<path d="M2710 5551 c0 -6 5 -13 10 -16 6 -3 10 1 10 9 0 9 -4 16 -10 16 -5 0
-10 -4 -10 -9z"/>
<path d="M2690 5510 c0 -5 5 -10 10 -10 6 0 10 5 10 10 0 6 -4 10 -10 10 -5 0
-10 -4 -10 -10z"/>
<path d="M2670 5476 c0 -9 5 -16 10 -16 6 0 10 4 10 9 0 6 -4 13 -10 16 -5 3
-10 -1 -10 -9z"/>
<path d="M2763 5445 c-18 -8 -33 -18 -33 -23 0 -14 23 -32 41 -32 10 0 20 -6
22 -12 3 -7 6 8 6 35 1 26 0 47 -1 47 -2 -1 -18 -7 -35 -15z"/>
<path d="M2650 5441 c0 -5 5 -13 10 -16 6 -3 10 -2 10 4 0 5 -4 13 -10 16 -5
3 -10 2 -10 -4z"/>
<path d="M2630 5400 c0 -5 5 -10 10 -10 6 0 10 5 10 10 0 6 -4 10 -10 10 -5 0
-10 -4 -10 -10z"/>
<path d="M2560 5330 c0 -5 5 -10 11 -10 5 0 7 5 4 10 -3 6 -8 10 -11 10 -2 0
-4 -4 -4 -10z"/>
<path d="M2782 5245 c0 -16 2 -22 5 -12 2 9 2 23 0 30 -3 6 -5 -1 -5 -18z"/>
<path d="M2984 5215 c4 -16 12 -34 17 -39 5 -6 5 4 -1 24 -12 42 -25 55 -16
15z"/>
<path d="M2536 5172 c-2 -4 -7 -24 -11 -44 -6 -29 -3 -40 13 -56 16 -16 22
-17 26 -7 3 8 0 16 -7 19 -7 2 -2 5 11 5 12 1 22 -3 22 -7 0 -17 -37 -42 -53
-37 -8 4 -18 2 -21 -3 -3 -5 2 -9 12 -8 19 1 25 -31 9 -51 -5 -7 -6 -13 -1
-13 5 0 19 -3 32 -6 13 -4 22 -2 22 5 0 6 -8 8 -17 4 -16 -6 -16 -5 -4 10 20
25 30 21 46 -17 19 -44 33 -53 33 -21 0 14 -5 25 -10 25 -6 0 -8 14 -4 34 5
24 2 39 -9 49 -8 9 -15 27 -15 41 0 14 -5 28 -12 32 -8 5 -9 2 -5 -10 6 -14 3
-17 -9 -12 -8 3 -18 6 -20 6 -3 0 -2 5 1 11 4 5 4 21 1 35 -6 23 -20 32 -30
16z"/>
<path d="M2890 5150 c0 -7 -8 -19 -17 -26 -15 -12 -13 -12 15 -3 19 7 30 14
25 18 -4 3 -11 10 -15 15 -5 5 -8 3 -8 -4z"/>
<path d="M2724 5028 c-5 -7 -3 -8 7 -3 12 8 12 6 0 -8 -11 -14 -11 -17 0 -17
9 -1 7 -6 -6 -15 -19 -15 -19 -15 3 -31 12 -8 22 -22 22 -30 0 -8 5 -14 10
-14 6 0 10 -7 10 -15 0 -8 6 -15 14 -15 9 0 13 13 12 43 -1 36 -4 42 -24 45
-18 3 -21 6 -12 17 7 8 9 23 5 35 -7 22 -30 27 -41 8z"/>
<path d="M2945 4930 c-3 -5 1 -10 9 -10 8 0 18 5 21 10 3 6 -1 10 -9 10 -8 0
-18 -4 -21 -10z"/>
<path d="M2940 4900 c0 -5 7 -7 15 -4 8 4 15 8 15 10 0 2 -7 4 -15 4 -8 0 -15
-4 -15 -10z"/>
<path d="M2960 4881 c0 -6 4 -13 10 -16 6 -3 7 1 4 9 -7 18 -14 21 -14 7z"/>
<path d="M3020 4825 c12 -15 30 -12 30 6 0 5 -10 9 -21 9 -18 0 -19 -2 -9 -15z"/>
<path d="M2674 4803 c-3 -10 -4 -22 -4 -27 3 -18 -25 -25 -32 -8 -5 14 -7 13
-7 -5 -1 -12 3 -23 9 -25 5 -1 10 -20 12 -40 3 -46 11 -48 28 -8 7 17 17 30
22 30 6 0 7 14 3 38 -4 20 -8 43 -8 50 -1 18 -18 15 -23 -5z"/>
<path d="M3066 4806 c3 -8 14 -16 25 -19 23 -6 24 -1 5 19 -19 18 -37 18 -30
0z"/>
<path d="M4220 4794 c-6 -14 -10 -29 -10 -34 0 -5 -8 -28 -19 -52 -10 -24 -21
-75 -24 -114 -3 -40 -12 -85 -21 -102 -14 -27 -14 -31 0 -36 22 -8 87 -7 99 2
6 4 16 18 23 32 7 14 24 43 37 65 36 58 33 76 -10 73 -19 -1 -40 3 -46 9 -7 7
-12 49 -13 97 0 47 -2 86 -4 86 -1 0 -7 -12 -12 -26z"/>
<path d="M2202 4697 c-6 -6 -13 -26 -17 -42 l-7 -30 14 25 c27 49 33 75 10 47z"/>
<path d="M2690 4660 c0 -13 5 -18 15 -14 8 4 15 12 15 20 0 8 -7 14 -15 14 -8
0 -15 -9 -15 -20z"/>
<path d="M2837 4643 c-13 -13 -7 -32 15 -44 18 -9 20 -9 15 4 -3 9 1 18 11 22
14 5 14 7 2 15 -18 11 -34 13 -43 3z"/>
<path d="M2689 4563 c5 -17 14 -39 19 -49 8 -14 10 -12 8 14 -1 17 -9 39 -19
49 -16 16 -16 15 -8 -14z"/>
<path d="M2880 4564 c0 -8 -5 -14 -11 -14 -6 0 -17 -6 -25 -14 -7 -8 -19 -16
-26 -18 -15 -5 -1 -28 18 -28 8 0 23 9 35 21 13 13 24 17 32 11 17 -13 58 -22
51 -11 -3 5 0 9 5 9 6 0 11 7 11 15 0 9 -9 15 -25 15 -14 0 -25 4 -25 9 0 5
-9 11 -20 14 -13 3 -20 0 -20 -9z"/>
<path d="M2770 4506 c0 -14 5 -28 10 -31 6 -3 10 5 10 19 0 14 -4 28 -10 31
-6 3 -10 -5 -10 -19z"/>
<path d="M3722 4420 c0 -14 2 -19 5 -12 2 6 2 18 0 25 -3 6 -5 1 -5 -13z"/>
<path d="M2854 4371 c3 -5 15 -7 26 -4 28 7 25 13 -6 13 -14 0 -23 -4 -20 -9z"/>
<path d="M2792 4358 c-15 -15 -16 -42 -2 -33 6 4 8 10 5 15 -3 5 3 13 12 19
10 6 13 11 8 11 -6 0 -16 -5 -23 -12z"/>
<path d="M3181 4352 c-1 -7 -4 -11 -8 -9 -5 3 -13 -1 -20 -8 -10 -11 -10 -14
0 -18 16 -5 40 20 34 36 -4 9 -6 9 -6 -1z"/>
<path d="M2637 4326 c20 -15 125 -47 148 -45 5 0 -21 11 -60 24 -38 12 -79 26
-90 30 -18 7 -18 6 2 -9z"/>
<path d="M4113 4325 c-31 -35 -4 -68 30 -37 12 11 36 27 52 35 l30 16 -50 0
c-31 0 -55 -5 -62 -14z"/>
<path d="M4033 4284 c-7 -7 -13 -29 -13 -49 0 -25 -4 -34 -12 -29 -7 4 -8 3
-4 -4 4 -7 1 -12 -8 -12 -9 0 -16 -4 -16 -10 0 -14 50 7 78 32 25 24 28 43 8
55 -7 4 -15 13 -17 20 -3 8 -8 7 -16 -3z"/>
<path d="M3880 4210 c-8 -5 -12 -12 -9 -15 4 -3 12 1 19 10 14 17 11 19 -10 5z"/>
<path d="M3656 4081 c-14 -22 -14 -80 0 -92 12 -10 13 -9 8 5 -4 10 -1 16 9
16 8 0 17 -6 20 -12 2 -7 8 1 12 17 4 17 14 36 23 43 9 6 12 12 7 12 -5 0 -17
-7 -27 -17 -23 -20 -36 -10 -17 14 9 11 10 14 2 9 -7 -4 -13 -2 -13 3 0 13
-17 14 -24 2z"/>
<path d="M3913 3938 c-44 -68 -91 -143 -103 -167 -21 -43 -21 -44 -4 -102 10
-32 21 -59 26 -59 12 0 21 51 11 61 -15 15 17 121 34 115 17 -7 29 22 15 36
-13 13 -6 33 24 75 36 48 86 142 82 154 -2 6 -40 -45 -85 -113z"/>
<path d="M2577 3978 c2 -5 -3 -8 -11 -8 -9 0 -16 -6 -16 -13 0 -6 -11 -33 -25
-59 -31 -59 -9 -55 31 5 15 23 36 52 47 63 18 22 18 22 -6 20 -14 0 -23 -4
-20 -8z"/>
<path d="M3785 3969 c-10 -30 0 -33 13 -4 6 14 7 25 2 25 -5 0 -12 -9 -15 -21z"/>
<path d="M2610 3954 c0 -8 5 -12 11 -9 8 6 62 -9 78 -21 2 -2 -2 -11 -10 -20
-13 -16 -12 -16 8 -6 12 7 30 12 41 12 15 0 18 -5 14 -25 -2 -15 0 -25 7 -25
6 0 11 6 11 13 0 8 4 7 10 -3 8 -13 10 -13 10 2 0 20 41 34 67 22 10 -4 22 -8
28 -8 17 -2 17 -33 0 -50 -9 -9 -13 -16 -8 -16 15 0 33 23 33 42 0 31 48 22
87 -17 37 -37 82 -52 50 -17 -10 10 -14 22 -10 27 5 4 3 5 -3 2 -6 -3 -18 3
-27 14 -10 11 -31 22 -47 26 -17 3 -30 10 -30 15 0 6 -7 7 -17 4 -23 -9 -162
11 -235 35 -73 23 -68 23 -68 3z"/>
<path d="M3734 3864 c-25 -57 -25 -57 -6 -77 19 -19 20 -19 16 12 -3 22 3 38
16 51 24 24 30 61 12 67 -7 3 -22 -18 -38 -53z"/>
<path d="M4058 3898 c-14 -21 -36 -89 -25 -78 7 8 46 100 43 100 -2 0 -10 -10
-18 -22z"/>
<path d="M4150 3830 c-9 -22 -10 -34 -2 -42 8 -8 13 0 18 26 8 47 0 55 -16 16z"/>
<path d="M2850 3842 c0 -6 -8 -13 -17 -15 -16 -4 -16 -5 -1 -6 18 -1 34 16 24
26 -3 4 -6 1 -6 -5z"/>
<path d="M4002 3788 c-12 -16 -52 -108 -47 -108 3 0 18 27 35 60 29 58 33 74
12 48z"/>
<path d="M2497 3738 c-3 -18 -8 -41 -12 -50 -12 -31 29 -21 48 11 21 36 23 63
2 35 -14 -18 -14 -18 -15 9 0 38 -16 34 -23 -5z"/>
<path d="M4141 3763 c-1 -6 -4 -20 -7 -30 -5 -17 -5 -17 6 0 6 10 9 23 6 30
-3 9 -5 9 -5 0z"/>
<path d="M2605 3729 c-10 -30 -2 -32 12 -3 6 13 7 24 3 24 -5 0 -12 -9 -15
-21z"/>
<path d="M3590 3738 c0 -19 93 -148 107 -148 12 0 20 -13 38 -65 4 -11 9 -15
12 -8 6 17 -23 69 -89 156 -60 78 -68 86 -68 65z"/>
<path d="M3175 3683 c8 -49 34 -75 79 -79 39 -3 48 13 21 36 -8 7 -15 23 -15
36 0 23 -12 29 -47 25 -6 -1 -14 3 -18 9 -15 24 -27 8 -20 -27z"/>
<path d="M4110 3679 c-7 -17 -18 -36 -24 -43 -12 -12 -47 -61 -60 -84 -7 -11
-4 -11 13 0 12 7 21 18 21 25 0 6 3 13 8 15 10 5 65 109 59 114 -2 3 -10 -9
-17 -27z"/>
<path d="M2579 3673 c-13 -16 -12 -17 4 -4 16 13 21 21 13 21 -2 0 -10 -8 -17
-17z"/>
<path d="M3470 3667 c0 -7 16 -29 35 -47 33 -32 85 -124 85 -149 0 -6 7 -11
15 -11 16 0 20 16 6 24 -5 3 -19 24 -30 47 -12 23 -37 62 -56 87 -19 25 -35
49 -35 53 0 5 -4 9 -10 9 -5 0 -10 -6 -10 -13z"/>
<path d="M3913 3638 c-26 -30 -53 -70 -53 -81 0 -4 9 -3 20 3 11 6 26 8 33 4
6 -4 9 -4 5 1 -4 4 -4 13 1 19 8 11 23 76 17 76 -1 0 -12 -10 -23 -22z"/>
<path d="M3350 3627 c0 -12 49 -86 77 -115 11 -11 13 -10 13 7 0 12 -4 21 -10
21 -5 0 -10 7 -10 15 0 8 -4 15 -10 15 -5 0 -10 5 -10 10 0 6 -11 22 -25 36
-15 15 -25 20 -25 11z"/>
<path d="M3856 3604 c-23 -23 -20 -30 4 -9 11 10 20 20 20 22 0 7 -9 2 -24
-13z"/>
<path d="M3290 3485 c0 -28 16 -50 24 -36 4 6 0 21 -8 33 -15 21 -16 21 -16 3z"/>
<path d="M3460 3460 c12 -17 23 -30 25 -30 9 0 -22 50 -33 55 -7 3 -4 -8 8
-25z"/>
<path d="M3349 3426 c14 -14 27 -26 29 -26 10 0 -26 44 -39 48 -8 3 -3 -7 10
-22z"/>
<path d="M2551 3374 c0 -11 3 -14 6 -6 3 7 2 16 -1 19 -3 4 -6 -2 -5 -13z"/>
<path d="M2530 3300 c0 -11 2 -20 4 -20 2 0 6 9 9 20 3 11 1 20 -4 20 -5 0 -9
-9 -9 -20z"/>
<path d="M3094 3184 c24 -23 38 -53 31 -64 -4 -6 1 -17 9 -26 9 -8 19 -33 22
-55 4 -21 13 -47 21 -56 13 -17 13 -16 4 3 -6 12 -11 38 -13 58 -1 20 -10 43
-19 52 -10 9 -14 24 -12 38 5 24 -26 66 -48 66 -6 0 -3 -7 5 -16z"/>
<path d="M3070 3145 c0 -5 5 -17 10 -25 5 -8 10 -10 10 -5 0 6 -5 17 -10 25
-5 8 -10 11 -10 5z"/>
<path d="M3120 3076 c0 -9 5 -16 10 -16 6 0 10 4 10 9 0 6 -4 13 -10 16 -5 3
-10 -1 -10 -9z"/>
<path d="M3105 3011 c-10 -17 15 -23 31 -7 14 15 14 16 -5 16 -11 0 -22 -4
-26 -9z"/>
<path d="M2212 2930 c0 -14 2 -19 5 -12 2 6 2 18 0 25 -3 6 -5 1 -5 -13z"/>
<path d="M2250 2695 c0 -8 -4 -15 -10 -15 -17 0 -11 -18 16 -45 20 -20 29 -23
39 -15 14 12 11 29 -15 68 -17 25 -30 29 -30 7z"/>
<path d="M3060 2677 c0 -5 -4 -6 -9 -2 -17 10 -23 -16 -11 -46 9 -20 18 -28
27 -25 8 4 17 6 20 6 3 0 0 7 -7 15 -18 21 -6 45 20 38 14 -4 19 -1 15 8 -6
15 -55 20 -55 6z"/>
<path d="M2213 2529 c6 -16 15 -25 19 -21 11 11 0 39 -17 45 -10 4 -10 0 -2
-24z"/>
<path d="M2130 2361 c0 -11 39 -26 47 -17 8 8 3 12 -24 20 -13 4 -23 3 -23 -3z"/>
<path d="M2450 2361 c0 -10 14 -15 33 -12 4 1 17 -3 27 -9 19 -10 30 3 13 13
-21 12 -73 18 -73 8z"/>
<path d="M3330 2210 c0 -6 -10 -15 -22 -20 -18 -7 -19 -9 -5 -9 20 -1 22 -12
5 -31 -11 -12 -10 -12 4 -2 9 7 27 10 40 7 16 -4 29 -1 37 9 10 12 9 17 -9 26
-11 6 -26 8 -32 4 -8 -5 -9 -2 -5 9 3 10 2 17 -3 17 -6 0 -10 -5 -10 -10z"/>
<path d="M2798 2175 c-4 -4 -4 -13 -2 -19 3 -7 -2 -18 -10 -25 -8 -7 -12 -19
-9 -27 11 -30 84 19 82 55 -1 13 -2 13 -6 -1 -6 -24 -28 -23 -39 3 -5 11 -12
17 -16 14z"/>
<path d="M2336 2093 c-56 -9 -73 -53 -20 -53 21 0 24 4 19 20 -4 14 -2 20 9
20 8 0 18 5 21 10 3 6 5 9 3 9 -2 -1 -16 -4 -32 -6z"/>
<path d="M1981 2071 l-23 -6 21 -25 c21 -25 21 -25 36 -5 26 32 11 49 -34 36z"/>
<path d="M4220 2050 c-8 -5 -10 -10 -5 -10 6 0 17 5 25 10 8 5 11 10 5 10 -5
0 -17 -5 -25 -10z"/>
<path d="M2367 2024 c-9 -10 10 -41 29 -48 21 -8 44 11 44 36 0 15 -3 17 -19
8 -13 -7 -22 -7 -26 0 -7 11 -19 13 -28 4z"/>
<path d="M4180 2006 c0 -21 21 -31 30 -15 5 7 6 17 4 21 -9 14 -34 9 -34 -6z
m30 0 c0 -3 -4 -8 -10 -11 -5 -3 -10 -1 -10 4 0 6 5 11 10 11 6 0 10 -2 10 -4z"/>
<path d="M2017 1926 c-4 -10 -5 -21 -2 -24 9 -9 17 6 13 25 -3 17 -4 17 -11
-1z"/>
<path d="M3530 1842 c0 -15 5 -33 10 -38 7 -7 7 -21 -1 -43 -15 -42 3 -65 22
-30 17 33 18 67 1 74 -8 3 -11 12 -8 20 6 18 -2 45 -15 45 -5 0 -9 -13 -9 -28z"/>
<path d="M3300 1820 c-8 -5 -12 -12 -9 -15 4 -3 12 1 19 10 14 17 11 19 -10 5z"/>
<path d="M3409 1733 c-21 -5 -52 -78 -44 -103 7 -23 35 -27 35 -5 0 8 4 15 9
15 5 0 11 15 13 33 3 17 8 40 13 50 7 17 4 18 -26 10z"/>
<path d="M4102 1691 c-8 -5 -12 -17 -10 -27 4 -24 43 -31 51 -10 4 9 2 16 -3
16 -6 0 -10 7 -10 15 0 17 -9 19 -28 6z"/>
<path d="M2360 1662 c0 -4 -10 -8 -22 -9 -26 -2 -38 -19 -38 -53 1 -38 24 -64
47 -52 14 8 18 23 18 66 0 31 -1 56 -2 56 -2 0 -3 -4 -3 -8z"/>
<path d="M2128 1614 c-34 -18 -36 -40 -6 -47 28 -8 48 9 48 39 0 28 -5 29 -42
8z"/>
<path d="M2412 1560 c0 -14 2 -19 5 -12 2 6 2 18 0 25 -3 6 -5 1 -5 -13z"/>
<path d="M3280 1495 c-10 -12 -10 -15 0 -15 7 0 19 -8 27 -17 14 -17 14 -17 9
-1 -3 11 0 17 6 15 7 -1 14 6 16 16 5 22 -40 24 -58 2z"/>
<path d="M3900 1471 c6 -12 17 -21 25 -21 21 0 19 5 -11 25 -25 16 -25 16 -14
-4z"/>
<path d="M3463 1411 c-32 -21 -44 -100 -18 -121 20 -17 23 -12 34 43 4 26 14
53 20 61 9 11 7 15 -8 19 -10 2 -23 2 -28 -2z"/>
<path d="M3311 1394 c0 -11 3 -14 6 -6 3 7 2 16 -1 19 -3 4 -6 -2 -5 -13z"/>
<path d="M2515 1370 c-3 -5 -2 -10 4 -10 5 0 13 5 16 10 3 6 2 10 -4 10 -5 0
-13 -4 -16 -10z"/>
<path d="M1845 1350 c-3 -5 -1 -10 4 -10 6 0 11 5 11 10 0 6 -2 10 -4 10 -3 0
-8 -4 -11 -10z"/>
<path d="M2204 1322 c-10 -6 -15 -19 -30 -72 -3 -11 5 -16 26 -17 30 -2 42 18
19 32 -7 5 -5 14 5 30 19 29 7 45 -20 27z"/>
<path d="M2330 1311 c0 -24 10 -51 19 -51 4 0 5 16 3 35 -4 37 -22 49 -22 16z"/>
<path d="M1800 1299 c0 -11 4 -18 10 -14 5 3 7 12 3 20 -7 21 -13 19 -13 -6z"/>
<path d="M1832 1274 c3 -17 21 -21 26 -6 1 5 -4 12 -13 16 -11 4 -15 1 -13
-10z"/>
<path d="M2147 1233 c-4 -3 -7 -13 -7 -22 1 -13 3 -13 11 2 11 19 8 33 -4 20z"/>
<path d="M1840 1204 c0 -8 5 -12 10 -9 6 3 10 10 10 16 0 5 -4 9 -10 9 -5 0
-10 -7 -10 -16z"/>
<path d="M2186 1208 c3 -4 9 -8 15 -8 5 0 9 4 9 8 0 5 -7 9 -15 9 -8 0 -12 -4
-9 -9z"/>
<path d="M2578 1185 c-3 -14 -1 -25 3 -25 5 0 9 11 9 25 0 14 -2 25 -4 25 -2
0 -6 -11 -8 -25z"/>
<path d="M4207 1159 c-21 -28 -36 -54 -33 -57 3 -2 8 3 12 12 3 9 10 14 14 11
16 -10 55 16 77 51 l22 34 -27 0 c-21 0 -36 -12 -65 -51z"/>
<path d="M2246 1175 c-3 -8 -1 -15 4 -15 6 0 10 7 10 15 0 8 -2 15 -4 15 -2 0
-6 -7 -10 -15z"/>
<path d="M1830 1166 c0 -8 5 -18 10 -21 6 -3 10 1 10 9 0 8 -4 18 -10 21 -5 3
-10 -1 -10 -9z"/>
<path d="M3187 1159 c-8 -11 -25 -21 -37 -22 -31 -2 -57 -42 -40 -62 14 -17
30 -20 30 -4 0 5 -4 7 -10 4 -5 -3 -10 3 -10 15 0 17 3 19 18 11 9 -5 30 -8
45 -8 25 2 32 9 28 31 -1 4 7 16 19 26 26 23 25 30 -4 30 -14 0 -31 -9 -39
-21z m-7 -33 c0 -2 -9 -6 -20 -9 -11 -3 -18 -1 -14 4 5 9 34 13 34 5z"/>
<path d="M3380 1076 c0 -22 3 -27 11 -19 8 8 8 16 0 30 -9 16 -10 14 -11 -11z"/>
<path d="M1745 1060 c-3 -5 -1 -10 4 -10 6 0 11 5 11 10 0 6 -2 10 -4 10 -3 0
-8 -4 -11 -10z"/>
<path d="M3197 1057 c-4 -10 -7 -27 -7 -37 0 -27 35 -14 50 18 9 22 9 25 -1
15 -18 -18 -27 -16 -31 5 -3 16 -4 16 -11 -1z"/>
<path d="M3327 1063 c-10 -9 -9 -23 1 -23 5 0 9 7 9 15 0 17 -1 18 -10 8z"/>
<path d="M3879 1025 c17 -57 19 -60 20 -34 1 14 -6 34 -14 45 -14 18 -14 17
-6 -11z"/>
<path d="M4245 1040 c-8 -13 5 -13 25 0 13 8 13 10 -2 10 -9 0 -20 -4 -23 -10z"/>
<path d="M1713 973 c-6 -21 -10 -40 -8 -42 7 -6 26 51 23 66 -2 8 -8 -3 -15
-24z"/>
<path d="M2623 988 c0 -7 -3 -29 -7 -48 -6 -31 -3 -39 27 -67 26 -24 41 -31
61 -27 15 2 37 -3 51 -12 14 -9 29 -13 33 -9 4 4 2 10 -5 12 -26 9 -63 45 -63
61 -1 21 -23 52 -38 52 -6 0 -9 7 -6 15 4 10 -3 18 -21 25 -33 12 -32 13 -32
-2z"/>
<path d="M3506 945 c4 -8 8 -15 10 -15 2 0 4 7 4 15 0 8 -4 15 -10 15 -5 0 -7
-7 -4 -15z"/>
<path d="M2212 928 c-14 -14 -16 -44 -3 -52 11 -7 31 38 22 52 -5 9 -10 9 -19
0z"/>
<path d="M3660 930 c0 -5 5 -10 10 -10 6 0 10 5 10 10 0 6 -4 10 -10 10 -5 0
-10 -4 -10 -10z"/>
<path d="M1687 899 c-4 -13 -7 -31 -7 -39 0 -12 2 -12 15 1 11 11 13 22 7 39
l-9 24 -6 -25z"/>
<path d="M3896 903 c-6 -14 -5 -15 5 -6 7 7 10 15 7 18 -3 3 -9 -2 -12 -12z"/>
<path d="M2000 888 c0 -19 2 -20 10 -8 13 19 13 30 0 30 -5 0 -10 -10 -10 -22z"/>
<path d="M2574 829 c3 -17 6 -38 6 -46 0 -11 4 -11 20 -3 18 10 20 8 20 -22 0
-28 2 -30 14 -18 31 33 28 56 -9 89 -46 40 -59 40 -51 0z"/>
<path d="M3110 825 c-7 -8 -10 -22 -6 -30 9 -24 36 -29 50 -10 11 15 10 21 -3
37 -19 22 -25 22 -41 3z"/>
<path d="M2430 820 c0 -5 9 -10 21 -10 11 0 17 5 14 10 -3 6 -13 10 -21 10 -8
0 -14 -4 -14 -10z"/>
<path d="M3060 821 c0 -5 5 -13 10 -16 6 -3 10 -2 10 4 0 5 -4 13 -10 16 -5 3
-10 2 -10 -4z"/>
<path d="M2035 800 c-3 -5 1 -10 9 -10 9 0 16 5 16 10 0 6 -4 10 -9 10 -6 0
-13 -4 -16 -10z"/>
<path d="M2342 768 c-8 -23 -9 -34 -1 -39 6 -3 8 -17 5 -30 -3 -13 -3 -18 0
-11 3 6 16 12 29 12 23 0 53 35 41 48 -3 3 -6 2 -6 -2 0 -14 -41 16 -48 35 -7
17 -9 15 -20 -13z"/>
<path d="M3458 748 c-4 -20 -2 -54 4 -75 l11 -38 11 45 c9 34 8 47 -1 55 -6 6
-13 19 -15 30 -3 13 -6 7 -10 -17z"/>
<path d="M1737 739 c-3 -12 -3 -18 0 -15 4 3 12 1 19 -4 16 -14 56 -22 49 -9
-4 5 -11 7 -16 4 -5 -4 -9 -1 -9 5 0 6 -4 8 -10 5 -5 -3 -10 1 -10 9 0 24 -17
28 -23 5z"/>
<path d="M4215 741 c-5 -16 -1 -27 16 -42 26 -23 27 -23 45 -5 21 22 17 35
-13 42 -16 4 -31 11 -34 17 -4 5 -10 0 -14 -12z"/>
<path d="M3815 730 c3 -5 8 -10 11 -10 2 0 4 5 4 10 0 6 -5 10 -11 10 -5 0 -7
-4 -4 -10z"/>
<path d="M3911 698 c-1 -26 -20 -32 -42 -12 -18 16 -19 16 -19 -4 0 -12 4 -22
8 -22 5 0 23 -14 40 -31 18 -18 34 -30 36 -28 12 14 14 69 2 76 -7 4 -16 15
-19 23 -4 12 -6 12 -6 -2z"/>
<path d="M3351 656 c-10 -12 -8 -23 10 -58 l22 -43 -22 19 c-11 11 -21 28 -21
38 0 18 -2 17 -29 -3 -28 -20 -28 -22 -11 -39 10 -10 35 -24 56 -31 22 -7 45
-17 52 -22 13 -10 17 4 5 17 -4 4 -8 21 -9 39 0 18 -10 47 -21 65 -17 27 -22
30 -32 18z"/>
<path d="M2570 648 c0 -8 7 -15 15 -15 18 0 15 19 -3 25 -7 2 -12 -3 -12 -10z"/>
<path d="M2641 636 c4 -4 21 -11 39 -16 20 -6 30 -6 24 -1 -10 11 -72 27 -63
17z"/>
<path d="M2570 610 c0 -5 5 -10 11 -10 5 0 7 5 4 10 -3 6 -8 10 -11 10 -2 0
-4 -4 -4 -10z"/>
<path d="M2645 590 c-4 -6 -21 -8 -41 -4 -32 6 -34 5 -34 -22 0 -51 -12 -58
-97 -60 -43 -1 -85 -5 -94 -8 -9 -4 -34 0 -54 9 -21 8 -41 13 -44 9 -3 -3 -6
-72 -5 -152 1 -140 6 -180 45 -324 l10 -38 124 0 c69 0 125 4 125 9 0 5 -7 14
-16 21 -11 10 -14 23 -9 52 5 30 3 44 -10 58 -13 14 -16 29 -11 52 18 98 25
120 40 137 9 9 16 27 16 39 0 12 4 31 9 44 5 13 16 48 25 80 16 54 18 56 45
52 36 -6 51 13 17 22 -16 4 -23 11 -19 20 6 16 -13 19 -22 4z"/>
<path d="M3820 546 c0 -9 5 -16 10 -16 6 0 10 4 10 9 0 6 -4 13 -10 16 -5 3
-10 -1 -10 -9z"/>
<path d="M2767 523 c13 -11 20 -23 17 -26 -8 -7 5 -47 16 -47 13 0 18 49 6 64
-6 8 -22 17 -36 21 l-25 7 22 -19z"/>
<path d="M3925 530 c-3 -5 -1 -10 4 -10 6 0 11 5 11 10 0 6 -2 10 -4 10 -3 0
-8 -4 -11 -10z"/>
<path d="M3363 489 c-93 -155 -172 -340 -189 -446 l-7 -43 129 0 129 0 35 38
c19 20 68 64 107 97 85 71 109 114 98 177 -4 24 -8 56 -9 71 -1 25 -4 28 -27
23 -156 -31 -191 -18 -191 69 1 17 -2 22 -4 13 -5 -15 -8 -14 -28 9 l-23 26
-20 -34z"/>
<path d="M3784 471 c-51 -13 -113 -52 -107 -69 8 -18 91 -11 104 9 6 10 9 11
9 2 0 -7 10 -13 23 -13 13 0 32 -7 43 -15 29 -22 51 -18 70 14 10 16 26 32 37
35 10 2 17 11 15 18 -8 23 -126 35 -194 19z"/>
<path d="M2806 413 c-6 -14 -5 -15 5 -6 7 7 10 15 7 18 -3 3 -9 -2 -12 -12z"/>
<path d="M2862 360 c0 -14 2 -19 5 -12 2 6 2 18 0 25 -3 6 -5 1 -5 -13z"/>
<path d="M2863 199 c3 -56 9 -104 12 -107 3 -3 5 43 5 101 0 74 -4 107 -11
107 -9 0 -10 -28 -6 -101z"/>
<path d="M2883 40 c0 -25 2 -35 4 -22 2 12 2 32 0 45 -2 12 -4 2 -4 -23z"/>
</g>
</svg>
