<?xml version="1.0" standalone="no"?>
<!DOCTYPE svg PUBLIC "-//W3C//DTD SVG 20010904//EN"
 "http://www.w3.org/TR/2001/REC-SVG-20010904/DTD/svg10.dtd">
<svg version="1.0" xmlns="http://www.w3.org/2000/svg"
 width="600.000000pt" height="840.000000pt" viewBox="0 0 600.000000 840.000000"
 preserveAspectRatio="xMidYMid meet">

<g transform="translate(0.000000,840.000000) scale(0.100000,-0.100000)"
fill="#000000" stroke="none">
<path d="M3510 8305 c-14 -7 -52 -17 -85 -20 -33 -4 -65 -11 -72 -17 -6 -5
-46 -23 -90 -41 -105 -44 -127 -60 -170 -124 -20 -30 -70 -91 -111 -136 -97
-106 -103 -116 -112 -190 -4 -34 -11 -71 -15 -81 -6 -14 -5 -17 3 -12 8 5 10
2 6 -9 -4 -9 -9 -13 -12 -10 -17 17 -54 -216 -53 -335 0 -14 -4 -36 -9 -50 -5
-14 -11 -47 -14 -75 -2 -27 -7 -65 -12 -84 -5 -25 -4 -32 4 -27 8 5 12 -1 12
-14 0 -12 -4 -18 -10 -15 -17 10 -10 -17 14 -65 13 -25 28 -44 32 -42 5 1 10
-6 12 -17 2 -11 10 -25 18 -31 20 -18 17 -33 -11 -60 -14 -13 -23 -26 -20 -28
3 -3 -6 -20 -20 -38 -14 -18 -25 -35 -25 -39 0 -3 -10 -19 -21 -35 -12 -15
-24 -46 -26 -67 -7 -66 -8 -141 -1 -137 3 2 11 -9 16 -25 13 -38 0 -51 -55
-51 -30 0 -45 -5 -50 -15 -8 -22 -56 -45 -93 -45 -36 0 -78 -27 -128 -82 -19
-21 -40 -38 -47 -38 -8 0 -23 -29 -35 -65 -12 -36 -25 -65 -30 -65 -4 0 -13
-22 -20 -49 -9 -37 -9 -55 0 -71 16 -30 17 -95 1 -114 -7 -9 -21 -16 -31 -16
-23 0 -32 -63 -14 -106 17 -41 2 -96 -31 -118 -29 -19 -44 -80 -26 -107 22
-37 13 -89 -20 -120 -29 -27 -32 -36 -36 -102 -3 -43 -12 -89 -24 -114 -11
-24 -18 -46 -15 -51 3 -4 0 -26 -5 -48 -29 -113 -38 -164 -39 -209 0 -28 -7
-60 -15 -72 -8 -11 -21 -58 -29 -104 -8 -46 -18 -92 -21 -101 -6 -16 -5 -16
24 -2 30 15 42 46 21 59 -13 8 -13 66 0 100 6 15 23 32 38 37 18 7 34 25 45
51 17 41 17 41 -8 67 -35 37 -34 91 2 120 15 11 34 19 42 18 11 -2 23 13 37
47 19 46 19 52 5 69 -25 29 -21 99 8 130 14 14 32 26 42 26 33 0 39 78 8 119
-31 42 -23 101 16 121 17 8 32 16 34 17 2 2 7 23 11 49 5 35 3 54 -11 82 -11
20 -19 45 -19 55 0 31 29 77 50 77 17 0 18 -6 14 -72 -3 -40 -6 -86 -8 -103
-3 -26 -1 -30 21 -31 32 -2 49 37 33 76 -7 17 -8 35 -1 51 5 13 14 37 20 52 9
24 14 26 31 17 25 -14 37 8 21 39 -7 12 -9 42 -5 76 6 47 10 56 24 52 18 -5
56 46 46 61 -13 22 86 82 137 82 11 0 8 -30 -7 -73 -12 -32 -12 -36 0 -26 20
16 19 -20 -2 -49 -18 -26 -65 -30 -85 -6 -21 25 -38 -7 -32 -61 7 -59 -4 -115
-22 -115 -16 0 -19 -12 -15 -83 2 -57 -21 -102 -50 -94 -26 7 -32 -15 -24 -98
6 -66 4 -75 -15 -94 -17 -17 -26 -19 -40 -11 -17 8 -20 6 -26 -19 -3 -17 -2
-39 4 -50 20 -37 13 -90 -15 -118 -15 -15 -33 -51 -42 -80 -12 -44 -19 -54
-33 -50 -29 8 -52 -86 -28 -110 17 -17 -10 -115 -33 -121 -10 -2 -26 -27 -38
-58 -23 -64 -24 -71 -7 -77 20 -6 -9 -98 -38 -122 -27 -22 -32 -44 -15 -61 8
-8 4 -28 -11 -68 -17 -46 -25 -57 -39 -53 -14 4 -20 -2 -25 -25 -4 -17 -2 -35
4 -41 6 -6 11 -19 11 -29 0 -33 -31 -96 -50 -101 -23 -6 -39 -92 -21 -110 18
-18 14 -94 -6 -106 -23 -12 -45 -108 -27 -115 10 -4 10 -14 -1 -55 -7 -27 -16
-55 -20 -63 -3 -7 3 -1 15 15 12 15 28 27 36 27 24 0 43 43 50 113 5 48 11 67
19 63 21 -8 28 54 9 75 -14 16 -14 22 1 74 15 54 18 57 45 53 36 -5 48 25 19
46 -17 12 -19 20 -12 62 8 43 12 49 37 54 23 4 32 13 42 43 10 27 11 45 4 58
-7 13 -6 35 3 71 11 44 17 54 38 57 13 1 27 8 31 15 11 17 9 54 -4 75 -15 25
7 131 27 131 10 0 14 19 14 75 0 86 5 99 33 92 27 -8 34 19 14 53 -30 52 -10
130 33 130 10 0 26 12 36 26 14 22 15 32 5 74 -14 59 -7 88 24 96 32 8 47 60
34 114 -13 49 1 90 31 90 14 0 21 11 29 43 6 23 9 53 5 65 -9 35 5 92 22 86
18 -7 35 26 35 68 0 25 3 29 10 18 8 -13 10 -13 10 1 0 19 31 49 51 49 8 0 4
-8 -11 -20 -33 -25 -20 -36 19 -16 40 21 44 20 35 -6 -6 -21 -4 -20 15 5 32
38 55 36 58 -7 2 -28 -3 -39 -26 -58 -41 -33 -47 -69 -16 -98 33 -31 33 -73 0
-105 -13 -14 -29 -25 -35 -25 -15 0 -12 -46 5 -60 21 -17 19 -45 -7 -98 -17
-33 -20 -46 -10 -49 17 -6 15 -66 -3 -110 -17 -39 -20 -83 -6 -83 19 0 33 -60
26 -112 -3 -29 -8 -98 -10 -153 -1 -55 -8 -113 -14 -128 -18 -45 -14 -90 9
-105 25 -15 27 -83 5 -126 -11 -20 -13 -43 -9 -78 6 -43 8 -46 20 -31 9 12 11
33 8 65 -4 30 -1 66 10 100 21 70 21 78 7 113 -10 24 -9 37 3 70 22 56 21 92
-3 100 -11 3 -21 11 -24 18 -6 17 9 121 22 145 19 36 14 105 -9 120 -29 18
-25 67 10 137 34 69 36 81 15 89 -22 8 -18 56 7 84 18 18 23 35 23 77 0 40 5
59 21 77 32 34 39 67 19 82 -20 14 -9 50 24 80 11 11 21 25 21 33 0 7 4 13 8
13 11 0 2 -72 -10 -87 -5 -7 -12 -42 -14 -78 -2 -36 -11 -82 -19 -102 -11 -27
-12 -38 -4 -44 14 -8 4 -87 -17 -127 -17 -33 -18 -52 -3 -52 17 0 3 -140 -16
-160 -20 -22 -19 -94 0 -110 17 -14 22 -155 5 -165 -12 -8 -13 -68 -1 -80 5
-6 5 -35 -1 -70 -6 -33 -11 -99 -12 -148 -1 -52 -7 -92 -14 -99 -15 -15 -15
-45 0 -50 15 -5 12 -107 -4 -125 -6 -8 -7 -28 -3 -50 10 -56 5 -165 -8 -181
-16 -19 -20 -91 -6 -108 6 -7 8 -25 5 -39 -5 -20 -2 -26 20 -31 18 -5 22 -10
15 -17 -6 -6 -10 -34 -10 -62 1 -27 3 -41 6 -30 3 11 11 25 19 31 12 10 14 34
10 130 -4 87 -1 141 10 201 13 63 14 86 5 97 -13 16 -5 86 15 125 11 21 11 28
-1 41 -10 12 -11 25 -4 60 26 119 27 135 12 152 -11 12 -13 28 -7 65 3 26 10
53 14 58 12 16 19 95 9 95 -13 0 -11 137 2 146 7 4 8 21 4 48 -10 56 -7 176 3
190 13 15 22 92 12 103 -4 4 -5 27 -3 50 4 30 10 43 24 46 20 5 28 47 9 47
-16 0 -12 43 6 69 26 37 35 90 17 100 -20 11 -9 96 12 105 17 6 21 72 5 78 -7
2 -8 19 -4 46 6 37 12 46 40 60 19 8 34 19 34 24 0 4 5 8 10 8 15 0 12 -62 -4
-85 -17 -25 -29 -115 -16 -115 16 0 11 -62 -6 -95 -20 -36 -35 -105 -23 -105
14 0 10 -52 -5 -82 -9 -17 -12 -42 -9 -68 4 -29 1 -45 -11 -58 -20 -23 -34
-112 -17 -112 20 0 51 -40 51 -66 0 -17 -12 -38 -33 -58 -27 -25 -33 -37 -30
-64 3 -18 13 -42 24 -53 31 -31 19 -102 -25 -138 -24 -20 -21 -83 5 -105 17
-14 20 -25 16 -58 -3 -22 -14 -50 -25 -61 -28 -30 -39 -109 -18 -126 22 -19
20 -67 -4 -91 -22 -22 -26 -45 -10 -55 15 -9 12 -82 -4 -98 -24 -24 -23 -100
2 -132 29 -37 28 -80 -3 -111 -37 -37 -33 -77 15 -134 22 -26 40 -54 40 -61 0
-21 -32 -99 -40 -99 -11 0 -22 57 -23 113 0 42 -2 47 -22 47 -18 0 -24 -7 -27
-31 -3 -18 1 -45 9 -60 24 -48 20 -89 -10 -114 -23 -18 -27 -28 -27 -76 0 -31
6 -69 14 -85 20 -39 10 -81 -25 -107 -29 -21 -38 -50 -19 -62 18 -11 11 -91
-10 -118 -24 -30 -26 -60 -5 -77 10 -8 15 -31 15 -66 0 -46 -4 -59 -29 -84
-32 -34 -32 -67 0 -109 11 -13 19 -31 19 -41 0 -21 -31 -50 -53 -50 -9 0 -20
-14 -27 -35 -10 -31 -9 -39 10 -70 26 -42 20 -85 -14 -113 -31 -24 -44 -117
-22 -147 33 -43 11 -116 -38 -129 -33 -8 -39 -30 -15 -59 29 -38 25 -84 -11
-117 -16 -15 -30 -34 -30 -42 0 -14 52 -58 69 -58 19 0 23 -61 19 -292 -1
-130 0 -240 5 -244 13 -13 8 -101 -7 -113 -17 -14 -26 -80 -15 -102 13 -26 -8
-160 -28 -175 -14 -9 -18 -28 -19 -81 -1 -37 -5 -122 -8 -188 -6 -102 -11
-126 -32 -162 -32 -55 -29 -106 7 -127 26 -15 27 -20 35 -143 l8 -128 7 140
c3 87 2 142 -4 147 -17 11 0 109 23 130 22 21 25 39 10 54 -15 15 -1 90 21
115 21 25 24 50 8 66 -13 13 8 123 25 135 22 15 26 7 26 -57 l0 -64 25 23 c31
28 34 76 6 93 -11 7 -22 29 -26 54 -6 33 -3 47 14 70 26 35 27 61 1 84 -26 23
-27 84 -1 116 18 23 34 109 20 109 -14 0 -38 49 -44 92 -6 38 -3 48 18 74 32
37 36 72 14 104 -21 30 -22 57 -2 105 22 50 17 139 -7 143 -15 3 -18 -5 -18
-50 0 -29 -4 -59 -9 -67 -14 -23 -23 5 -20 67 2 47 0 58 -14 60 -30 6 -20 51
18 88 38 35 46 73 20 94 -46 38 -39 154 10 166 14 4 28 17 34 35 9 25 7 33 -9
49 -33 33 -22 130 15 130 8 0 19 9 25 20 9 16 7 26 -9 47 -24 30 -28 95 -7
112 8 7 27 16 43 20 41 11 40 37 -2 74 -58 51 -49 127 15 127 24 0 29 6 38 38
9 35 10 33 11 -33 0 -38 -2 -134 -6 -213 -5 -118 -9 -146 -25 -164 -20 -24
-22 -34 -8 -43 24 -15 6 -145 -21 -152 -26 -7 -35 -60 -14 -84 26 -27 15 -138
-14 -158 -22 -14 -30 -74 -11 -86 6 -3 10 -23 10 -45 0 -24 5 -40 15 -44 17
-6 20 -51 5 -61 -12 -8 -13 -45 -1 -45 14 0 22 -131 9 -173 -8 -27 -9 -44 -1
-55 6 -11 7 -54 2 -122 -4 -58 -5 -144 -2 -192 4 -63 3 -88 -6 -88 -16 0 -14
-40 3 -54 21 -17 30 -121 11 -140 -23 -23 -20 -82 5 -89 17 -4 20 -14 20 -70
0 -36 -4 -69 -10 -72 -17 -10 -12 -83 6 -93 16 -9 16 -44 -2 -146 -6 -35 -5
-38 12 -32 11 4 31 10 47 13 25 5 27 9 21 37 -4 23 -1 36 10 45 20 16 20 30 2
50 -19 22 -26 138 -9 153 19 15 16 41 -7 71 -22 27 -29 130 -10 142 17 10 12
102 -5 109 -11 4 -15 21 -15 60 0 39 4 55 15 60 18 7 20 62 2 69 -20 8 -40
122 -26 145 10 16 8 27 -9 61 -24 45 -31 145 -11 157 12 7 8 62 -11 149 -13
62 -5 115 17 115 12 0 14 3 7 10 -15 15 1 131 20 146 18 12 22 69 6 79 -5 3
-10 33 -10 65 0 45 4 63 19 77 24 22 31 94 12 117 -19 23 -7 104 19 128 21 19
26 57 11 73 -13 15 -24 145 -12 145 7 0 8 39 4 110 -5 98 -4 110 10 110 19 0
24 44 7 55 -16 10 -13 142 3 152 21 12 29 69 12 83 -23 19 -20 124 4 147 24
24 34 98 15 114 -14 12 -19 84 -8 113 3 9 12 16 20 16 19 0 18 54 -1 70 -8 7
-15 21 -15 31 0 10 -16 35 -36 55 -32 32 -36 40 -31 72 4 24 17 46 36 62 21
18 31 37 36 73 6 40 5 47 -9 47 -9 0 -28 11 -42 26 -20 19 -24 31 -19 52 8 33
32 61 61 73 18 6 23 18 26 61 3 44 0 58 -19 81 -13 16 -23 40 -23 53 0 36 26
91 49 106 16 10 21 23 21 55 0 24 -4 43 -10 43 -22 0 -50 41 -50 75 0 27 7 40
35 62 32 25 35 33 35 78 0 41 -4 53 -27 71 -43 34 -31 118 22 142 12 6 25 23
28 39 4 15 9 38 13 51 5 17 2 22 -13 22 -36 0 -73 38 -73 75 0 24 7 39 26 54
15 12 32 21 39 21 8 0 14 17 17 44 2 36 -1 49 -19 66 -29 28 -31 82 -3 110 11
11 25 20 30 20 19 0 10 49 -15 86 -27 39 -32 73 -14 91 6 6 18 9 27 6 15 -6
14 28 -4 141 -5 30 -3 41 10 48 9 5 16 18 16 28 0 25 19 27 22 3 1 -10 2 -57
2 -104 1 -55 6 -92 14 -102 9 -11 13 -45 12 -104 0 -48 2 -125 5 -170 6 -76 5
-82 -14 -88 -30 -9 -30 -80 -1 -88 17 -4 20 -14 20 -60 0 -38 -4 -57 -14 -60
-9 -4 -17 -29 -21 -67 -6 -52 -4 -63 10 -74 15 -11 17 -22 11 -69 -4 -32 -13
-58 -21 -61 -8 -3 -16 -29 -21 -62 -5 -47 -4 -59 10 -69 13 -10 15 -23 9 -74
-3 -39 -11 -65 -20 -68 -16 -6 -18 -89 -2 -98 7 -5 8 -33 4 -84 -8 -97 -12
-109 -36 -116 -15 -5 -19 -16 -19 -56 0 -35 4 -51 15 -55 24 -10 21 -117 -4
-135 -14 -10 -21 -32 -26 -75 -6 -57 -5 -62 15 -67 19 -5 20 -10 14 -59 -3
-29 -13 -58 -20 -64 -16 -13 -18 -46 -4 -60 8 -8 7 -14 -2 -22 -14 -11 -11
-70 8 -160 4 -20 2 -38 -6 -47 -7 -8 -15 -43 -17 -78 -5 -52 -2 -68 16 -97 27
-44 26 -52 -4 -88 -32 -39 -32 -82 0 -120 33 -39 33 -85 0 -117 -13 -14 -29
-25 -35 -25 -19 0 -10 -36 15 -60 31 -29 33 -77 5 -113 -23 -29 -26 -75 -6
-83 21 -8 39 -59 31 -86 -4 -13 -15 -32 -25 -43 -27 -31 -34 -85 -13 -107 25
-28 21 -74 -10 -106 -34 -35 -36 -90 -7 -147 23 -45 20 -78 -12 -112 -21 -22
-21 -40 -2 -131 3 -19 1 -50 -5 -70 -9 -30 -8 -46 3 -82 l15 -45 0 58 c1 31 6
57 11 57 6 0 13 0 17 -1 10 -1 21 31 22 59 1 13 -9 36 -20 51 -19 26 -20 33
-9 65 6 20 20 42 30 49 25 18 28 57 5 90 -11 18 -19 48 -19 78 -1 41 3 53 27
74 30 29 35 68 12 99 -22 30 -18 80 9 113 12 15 26 35 29 43 3 10 6 7 6 -8 1
-13 10 -31 20 -40 16 -14 19 -26 14 -71 -4 -41 -10 -55 -24 -58 -15 -4 -19
-15 -19 -48 0 -23 6 -48 13 -54 18 -14 6 -110 -17 -143 -18 -25 -21 -74 -6
-83 13 -8 13 -108 0 -121 -5 -5 -10 -33 -12 -61 -2 -29 -6 -53 -9 -53 -3 0
-11 -15 -17 -32 l-10 -33 -1 33 c-1 23 -6 32 -19 32 -14 0 -17 -7 -14 -45 2
-24 10 -49 18 -56 22 -18 18 -85 -7 -110 -20 -20 -20 -24 -7 -58 8 -22 11 -50
7 -71 l-6 -35 -2 33 c-1 25 -7 35 -26 42 -27 10 -65 76 -65 115 0 14 9 30 20
37 13 9 20 24 20 44 0 26 -5 33 -25 38 -18 5 -25 13 -25 30 0 13 -7 27 -16 30
-14 6 -16 1 -10 -31 4 -21 9 -76 11 -122 3 -49 13 -109 25 -144 16 -46 20 -72
14 -113 -5 -45 -4 -54 14 -63 25 -13 48 -92 34 -117 -20 -38 -17 -89 6 -112
30 -30 28 -73 -3 -102 -34 -32 -34 -82 0 -116 51 -51 56 -79 20 -122 -21 -26
-23 -33 -14 -65 5 -21 14 -37 19 -37 6 0 10 -23 10 -52 0 -28 3 -48 8 -44 4 4
7 65 7 135 0 85 4 133 12 142 15 19 17 74 4 119 -10 32 -10 31 -7 -20 l5 -55
-16 31 c-16 33 -11 104 7 104 5 0 12 17 16 38 4 20 12 40 18 44 6 4 10 35 8
75 -1 37 3 85 9 108 6 22 12 81 13 132 1 78 0 88 -12 72 -7 -10 -19 -19 -26
-19 -20 0 -25 -34 -10 -55 23 -31 17 -79 -13 -105 l-27 -23 -23 27 c-13 15
-23 37 -23 50 0 29 39 73 50 56 4 -7 13 26 19 72 7 45 21 123 32 173 10 49 19
102 19 117 0 19 4 26 13 22 23 -8 67 119 46 132 -12 7 1 127 15 136 10 7 10
86 3 1001 -2 196 1 357 5 357 12 0 9 118 -3 126 -6 3 -9 20 -6 37 3 23 0 31
-15 35 -10 2 -18 13 -18 24 0 15 5 18 17 14 9 -4 42 -9 72 -13 65 -6 68 -8 52
-27 -9 -11 -10 -20 -2 -33 6 -10 11 -12 11 -5 0 6 7 12 15 12 9 0 29 10 45 22
40 29 43 94 5 132 -32 33 -32 70 1 101 23 21 25 30 19 62 -4 21 -13 45 -22 55
-25 27 -13 80 24 103 38 25 48 62 22 84 -10 9 -20 25 -20 36 -5 50 2 66 36 86
33 20 48 49 25 49 -6 0 -22 11 -35 25 -35 34 -33 79 4 114 16 15 32 41 36 59
6 28 3 37 -19 57 -35 33 -33 60 9 102 45 45 49 106 10 143 -14 13 -25 34 -25
47 0 23 26 57 50 65 20 6 5 52 -30 92 -43 48 -38 96 12 122 15 8 13 14 -14 53
-16 24 -32 59 -35 78 -6 37 -12 38 -60 21 -42 -15 -44 -45 -4 -59 40 -14 66
-65 52 -102 -6 -15 -18 -30 -26 -33 -23 -9 -18 -33 15 -71 47 -53 37 -105 -24
-127 -11 -4 -16 -12 -12 -22 3 -9 6 -23 6 -32 0 -10 10 -22 23 -27 19 -9 22
-17 22 -62 -1 -57 -19 -87 -61 -97 -31 -8 -35 -61 -5 -71 25 -7 45 -58 37 -90
-4 -16 -20 -32 -40 -42 -29 -13 -35 -22 -38 -56 -3 -29 0 -40 12 -44 77 -23
80 -90 5 -128 -47 -24 -48 -41 -4 -84 32 -33 37 -65 13 -99 -22 -32 -36 -27
-29 11 7 40 -4 58 -33 50 -22 -5 -25 -14 -22 -69 1 -17 -8 -72 -20 -123 -18
-74 -25 -91 -38 -89 -12 2 -18 15 -20 42 -5 57 5 85 33 96 32 12 34 47 3 52
-20 3 -23 10 -26 60 -3 49 0 57 18 63 15 5 20 15 20 40 0 19 -4 37 -10 40 -13
8 -1 94 17 123 19 31 33 19 33 -31 0 -23 5 -49 11 -57 12 -18 3 113 -10 145
-5 11 -13 32 -19 47 -13 32 -4 320 10 312 4 -3 8 8 8 25 0 24 5 32 25 37 21 5
25 12 25 40 0 19 -4 34 -9 34 -5 0 -17 7 -25 16 -15 14 -16 11 -16 -31 0 -33
-4 -45 -12 -43 -9 3 -15 40 -18 119 -3 63 -4 116 -2 119 9 14 22 -33 22 -83 0
-39 4 -56 11 -52 6 4 9 28 8 53 -3 42 -1 46 24 55 15 5 27 12 27 15 0 15 -16
30 -35 33 -14 3 -23 16 -29 48 -8 38 -7 45 12 60 15 12 19 23 15 44 -3 15 -9
27 -14 27 -5 0 -10 17 -11 38 l-1 37 -7 -45 c-6 -45 -6 -45 -18 -18 -6 15 -9
33 -7 40 4 11 13 191 14 296 1 39 21 34 22 -6 l1 -27 7 25 c7 24 7 24 14 -9 7
-32 8 -33 21 -16 11 16 8 29 -21 102 -23 57 -32 91 -27 106 7 21 7 21 15 2 6
-17 8 -17 8 -2 1 9 6 17 11 17 16 0 31 -48 29 -89 -2 -36 18 -85 52 -130 11
-13 19 -20 19 -15 0 5 5 2 10 -6 5 -8 7 -23 4 -34 -4 -10 -2 -16 3 -13 5 3 7
-7 5 -24 -3 -17 3 -40 13 -55 20 -30 32 -26 15 6 -10 19 -9 24 9 37 27 18 27
22 -9 74 -16 24 -30 51 -30 60 0 18 -48 67 -58 59 -4 -3 -12 20 -18 51 -6 31
-15 70 -18 85 l-8 29 26 -25 27 -24 -22 52 c-12 29 -28 52 -36 52 -10 0 -12 6
-8 20 4 11 0 29 -9 42 -19 26 -20 38 -5 38 5 0 15 -13 20 -30 9 -24 17 -30 39
-30 24 0 28 3 25 22 -3 12 2 33 11 46 34 52 74 131 74 146 0 9 5 16 10 16 6 0
10 18 10 40 0 22 3 39 8 38 4 0 14 1 22 5 8 3 28 8 44 12 35 8 96 66 96 92 0
37 -19 43 -105 37 -95 -8 -118 2 -166 73 -17 23 -41 55 -54 69 -13 14 -38 50
-54 80 -17 29 -51 75 -76 101 -56 59 -99 145 -98 192 1 80 9 131 18 128 13 -3
92 21 125 38 14 7 31 10 38 8 7 -3 24 2 37 11 24 16 25 16 25 -11 0 -19 3 -24
11 -16 18 18 -7 84 -45 121 -37 35 -112 62 -177 62 -36 0 -41 9 -26 50 3 8 13
39 22 69 19 59 69 146 100 174 11 10 40 29 65 42 25 14 63 38 85 54 36 27 45
29 90 24 41 -5 56 -13 95 -52 25 -25 62 -75 82 -111 19 -36 47 -86 61 -111
l25 -47 -54 -7 c-54 -6 -174 -59 -174 -76 0 -11 51 -3 107 17 89 32 166 16
128 -26 -14 -16 -31 -20 -81 -20 -57 0 -67 -3 -100 -32 -21 -18 -39 -31 -42
-30 -2 2 -7 0 -10 -4 -4 -4 -2 -4 5 0 7 3 14 -2 18 -13 7 -22 90 -38 111 -20
7 6 35 12 61 13 26 2 56 6 66 11 24 10 65 -12 82 -45 44 -84 90 -293 83 -373
-6 -71 -49 -156 -114 -226 -45 -49 -52 -61 -40 -70 11 -9 19 -9 35 1 12 7 21
16 21 19 0 7 61 32 65 27 6 -8 35 -104 35 -116 0 -7 13 -27 29 -43 16 -15 37
-53 46 -83 21 -65 76 -126 145 -157 95 -44 91 -41 76 -58 -8 -10 -14 -38 -14
-71 0 -48 2 -52 14 -35 8 10 14 25 14 32 0 7 3 13 8 13 4 0 14 15 22 33 l14
32 7 -38 c3 -20 8 -38 10 -40 2 -1 18 -9 34 -18 27 -14 30 -20 27 -57 -2 -33
1 -42 14 -42 13 0 16 7 11 34 -3 19 0 39 6 45 8 8 1 20 -28 46 -29 27 -35 39
-27 47 9 9 8 16 -5 30 -13 15 -13 18 -2 18 40 0 85 181 75 301 -5 65 -15 98
-60 197 -83 182 -97 252 -94 462 2 123 -2 191 -11 230 -15 57 -53 180 -67 214
-6 15 -4 17 6 11 8 -5 3 11 -12 36 -14 24 -45 80 -68 124 -49 91 -118 194
-164 244 -98 107 -298 179 -376 136z m-370 -825 c20 -13 9 -21 -39 -27 -37 -5
-41 -3 -41 16 0 17 6 21 33 21 17 0 39 -4 47 -10z m429 -42 c1 -5 -8 -8 -19
-8 -22 0 -26 20 -8 38 10 10 14 9 20 -5 3 -10 7 -21 7 -25z m83 10 c-7 -7 -12
-8 -12 -2 0 14 12 26 19 19 2 -3 -1 -11 -7 -17z m-501 -69 c7 -13 4 -15 -16
-11 -27 5 -32 21 -13 40 10 10 14 10 17 0 2 -7 7 -20 12 -29z m93 10 c-10 -16
-24 -9 -24 12 0 18 2 19 15 9 8 -7 12 -16 9 -21z m-384 -372 c0 -10 4 -16 9
-12 5 3 13 0 17 -6 4 -7 3 -9 -4 -5 -5 3 -12 0 -15 -6 -5 -15 -27 34 -27 60 0
15 2 15 10 2 5 -8 10 -23 10 -33z m10 -92 c0 -17 -2 -17 -10 -5 -5 8 -10 24
-10 35 0 17 2 17 10 5 5 -8 10 -24 10 -35z m-120 -560 c-10 -12 -10 -15 3 -15
25 0 10 -27 -26 -49 -18 -10 -50 -21 -72 -24 -22 -4 -44 -12 -50 -20 -5 -7
-26 -22 -45 -34 -20 -12 -46 -33 -60 -47 -15 -17 -30 -24 -42 -20 -26 8 -61
-69 -46 -101 8 -17 5 -33 -10 -69 -12 -25 -26 -46 -33 -46 -6 0 -18 -8 -25
-17 -11 -16 -13 -14 -12 17 1 19 -4 55 -12 80 -11 39 -11 50 1 75 9 19 21 29
31 27 10 -2 23 9 32 26 8 16 21 34 29 41 8 6 13 20 10 30 -13 48 54 97 118 87
48 -8 89 10 89 39 0 32 7 35 73 35 52 0 58 -2 47 -15z m470 -102 c1 -10 3 -42
6 -72 4 -44 2 -52 -9 -42 -8 6 -17 7 -22 3 -4 -4 -5 4 -2 18 4 14 7 44 7 68 0
39 19 63 20 25z m-40 -123 c0 -11 -2 -20 -4 -20 -2 0 -6 9 -9 20 -3 11 -1 20
4 20 5 0 9 -9 9 -20z m-465 -110 c-10 -11 -20 -18 -23 -15 -3 3 3 14 13 25 10
11 20 18 23 15 3 -3 -3 -14 -13 -25z m485 -20 c0 -22 -2 -40 -4 -40 -2 0 -6
18 -8 40 -2 22 0 40 4 40 5 0 8 -18 8 -40z m-460 -54 c-20 -19 -65 -32 -55
-16 7 11 41 28 60 29 5 1 3 -5 -5 -13z m120 -56 c0 -5 -2 -10 -4 -10 -3 0 -8
5 -11 10 -3 6 -1 10 4 10 6 0 11 -4 11 -10z m280 -1900 c0 -5 -5 -10 -11 -10
-5 0 -7 5 -4 10 3 6 8 10 11 10 2 0 4 -4 4 -10z m-45 -101 c-4 -5 0 -18 10
-28 20 -23 18 -142 -2 -149 -7 -2 -13 5 -13 15 0 10 -7 27 -15 37 -25 34 -16
136 12 136 8 0 11 -5 8 -11z m-205 -168 c0 -10 -3 -40 -7 -66 -6 -45 -7 -46
-19 -24 -16 29 -18 64 -4 90 14 24 30 25 30 0z m210 -98 c6 -21 10 -62 8 -90
l-3 -53 -23 35 c-29 41 -40 108 -22 130 19 23 28 18 40 -22z m-225 -134 c8
-45 -2 -129 -14 -129 -23 0 -43 42 -43 90 0 82 45 113 57 39z m234 -161 c1
-41 -12 -50 -29 -19 -13 26 -13 57 2 84 l12 22 7 -25 c4 -14 7 -42 8 -62z
m-244 -82 c7 -47 -1 -106 -15 -106 -4 0 -18 8 -31 18 -27 23 -30 69 -5 106 25
39 44 33 51 -18z m253 -88 c13 -29 22 -124 11 -135 -13 -14 -14 -60 -1 -76 8
-9 12 -36 10 -69 -3 -47 -5 -53 -23 -50 -55 8 -75 95 -30 130 17 14 25 30 25
50 0 20 -9 40 -25 56 -29 29 -33 76 -9 100 21 21 29 20 42 -6z m-431 -1665
c-3 -10 -5 -4 -5 12 0 17 2 24 5 18 2 -7 2 -21 0 -30z m361 -8 c14 -31 16 -72
3 -80 -6 -3 -12 9 -14 27 -2 18 -3 12 -1 -14 3 -50 -8 -62 -26 -29 -14 27 -13
77 2 101 17 26 22 25 36 -5z"/>
<path d="M3210 7350 c0 -5 7 -7 15 -4 8 4 15 8 15 10 0 2 -7 4 -15 4 -8 0 -15
-4 -15 -10z"/>
<path d="M3402 7148 c-6 -6 -12 -15 -12 -19 0 -11 50 5 50 16 1 15 -24 17 -38
3z"/>
<path d="M3280 7136 c0 -8 -4 -16 -10 -18 -21 -7 7 -25 48 -31 48 -6 52 1 20
30 -31 27 -58 36 -58 19z"/>
<path d="M3350 7001 c-44 -7 -100 -35 -100 -52 0 -4 6 -12 13 -16 7 -4 18 -20
25 -36 13 -31 47 -47 98 -47 40 0 77 16 69 30 -3 5 0 12 6 15 7 5 0 14 -17 26
-31 20 -32 19 51 39 67 16 106 31 101 39 -6 9 -188 10 -246 2z"/>
<path d="M4475 6280 c3 -4 14 -10 25 -13 11 -3 18 -2 15 3 -3 4 -14 10 -25 13
-11 3 -18 2 -15 -3z"/>
<path d="M4405 6269 c-4 -6 -13 -8 -21 -5 -24 9 -15 -10 11 -24 15 -8 25 -22
25 -35 0 -29 25 -50 59 -47 16 1 36 -7 53 -23 24 -22 26 -29 17 -52 -7 -20 -6
-30 8 -45 9 -11 25 -17 35 -15 11 3 27 -6 42 -24 32 -37 40 -64 27 -88 -17
-31 6 -70 24 -41 20 32 50 -37 40 -92 -3 -18 -2 -70 3 -115 4 -46 5 -88 2 -95
-10 -20 9 -98 24 -98 18 0 34 -79 22 -111 -10 -29 0 -83 14 -74 12 8 28 -24
36 -72 4 -29 2 -47 -10 -66 -22 -32 -12 -77 16 -77 11 0 22 -8 25 -18 2 -10
18 -23 34 -29 26 -10 29 -16 29 -54 0 -32 -6 -49 -26 -70 -22 -23 -24 -31 -18
-77 5 -43 10 -51 31 -57 50 -12 62 -105 20 -154 -9 -10 -13 -30 -10 -53 4 -31
9 -38 28 -38 35 0 59 -34 51 -72 -3 -17 -13 -40 -22 -49 -23 -26 -8 -112 21
-117 47 -8 61 -79 25 -125 -16 -20 -19 -34 -14 -66 6 -38 9 -41 38 -41 41 0
56 -16 56 -56 0 -24 -8 -39 -30 -57 -25 -21 -30 -33 -30 -70 0 -37 4 -46 25
-55 49 -22 55 -86 14 -143 -24 -35 -25 -88 -1 -95 68 -21 81 -69 32 -122 -16
-17 -20 -30 -15 -60 l5 -37 -15 33 c-9 18 -22 35 -30 38 -11 5 -15 23 -15 70
0 66 -24 237 -39 277 -5 12 -6 37 -4 54 7 43 -4 83 -22 83 -14 0 -19 10 -30
67 -4 22 -2 34 8 40 23 13 2 123 -23 123 -24 0 -39 82 -20 105 16 20 4 115
-16 115 -7 0 -16 10 -18 23 -14 66 -15 91 -6 102 6 7 6 25 -1 50 -8 27 -13 34
-19 24 -16 -25 -24 21 -12 68 18 65 15 82 -18 113 -33 30 -37 60 -16 99 15 28
11 51 -10 51 -31 0 -45 75 -23 123 13 29 -3 69 -25 61 -21 -8 -46 35 -46 80 0
21 9 53 20 70 24 41 17 76 -16 76 -24 0 -29 11 -36 70 -2 16 -8 3 -17 -38 -13
-57 -12 -64 4 -82 16 -18 17 -26 7 -71 -23 -97 -9 -149 39 -149 25 0 36 -44
21 -84 -11 -27 -9 -34 19 -68 32 -41 38 -74 24 -141 -7 -32 -4 -41 14 -58 25
-24 28 -75 5 -107 -18 -26 -12 -54 9 -46 28 10 49 -26 43 -70 -14 -95 -17
-174 -7 -216 9 -40 8 -47 -10 -67 -16 -16 -19 -29 -14 -53 5 -21 11 -30 21
-26 18 7 41 -28 49 -76 6 -30 3 -39 -13 -49 -25 -16 -17 -39 13 -39 29 0 37
-20 40 -94 1 -42 6 -61 18 -67 18 -11 27 -48 31 -127 2 -43 7 -57 26 -72 21
-16 24 -26 25 -96 1 -61 7 -93 28 -141 22 -52 25 -66 16 -87 -9 -19 -8 -31 5
-57 9 -17 16 -46 17 -63 1 -17 4 -42 8 -55 6 -21 8 -22 20 -7 13 15 12 25 -4
71 -6 19 -6 19 8 3 8 -10 18 -18 22 -18 4 0 14 -8 21 -17 9 -13 13 -14 14 -5
0 8 -9 25 -20 39 -31 39 -22 90 20 120 18 13 17 58 -1 69 -15 9 -10 96 6 114
8 9 18 30 21 47 5 26 1 35 -20 54 -20 18 -26 32 -26 65 0 25 6 47 15 54 23 19
20 92 -5 108 -21 13 -29 75 -10 87 15 9 12 41 -5 55 -17 14 -20 53 -5 81 17
31 -4 91 -39 111 -41 23 -50 61 -22 99 25 33 20 79 -9 86 -19 5 -40 43 -40 71
0 9 7 30 15 46 16 30 19 74 7 91 -4 6 -16 15 -27 21 -26 14 -33 85 -10 104 24
20 16 110 -10 110 -26 0 -34 66 -12 101 10 17 9 22 -10 37 -28 22 -38 64 -23
92 7 14 9 38 5 64 -5 32 -13 46 -38 61 -41 26 -48 72 -17 116 17 23 21 38 16
64 -4 21 -13 35 -22 35 -8 0 -19 12 -24 28 -6 15 -15 36 -20 47 -16 36 -27
112 -18 128 9 18 -14 87 -30 87 -5 0 -17 36 -27 81 -15 64 -16 85 -7 100 14
22 -3 110 -20 106 -13 -3 -40 100 -33 123 6 19 -62 103 -76 94 -13 -7 -59 30
-81 66 -21 35 -78 89 -94 90 -6 0 -17 7 -24 15 -15 18 -36 20 -45 4z m737
-2971 c11 -31 -16 -102 -36 -95 -18 6 -30 95 -16 113 19 21 42 13 52 -18z"/>
<path d="M4542 6235 c9 -21 18 -25 54 -25 35 0 47 -5 68 -31 14 -17 26 -35 26
-40 0 -6 12 -25 27 -44 22 -27 32 -33 54 -28 47 9 77 -65 48 -119 -7 -12 -8
-42 -4 -80 6 -47 10 -58 22 -53 9 3 21 1 27 -4 17 -14 11 104 -8 158 -9 24
-16 53 -16 64 0 29 -47 87 -71 87 -11 0 -42 22 -68 49 -46 48 -84 70 -143 85
-27 6 -27 5 -16 -19z"/>
<path d="M4200 6241 c0 -5 5 -13 10 -16 6 -3 10 -2 10 4 0 5 -4 13 -10 16 -5
3 -10 2 -10 -4z"/>
<path d="M4171 6171 c-7 -5 -23 -33 -36 -64 -20 -50 -20 -54 -4 -44 10 6 21 8
24 5 11 -10 -14 -48 -28 -42 -15 5 -111 -121 -113 -149 -1 -17 0 -16 20 3 12
11 27 20 33 20 6 0 32 29 58 65 41 56 65 78 65 60 0 -17 -27 -57 -47 -70 -13
-9 -28 -28 -34 -42 -8 -21 -6 -28 10 -39 19 -14 19 -16 4 -62 -9 -26 -22 -54
-29 -63 -8 -8 -14 -24 -14 -34 0 -10 -15 -47 -34 -84 -19 -36 -39 -93 -45
-126 -6 -33 -17 -64 -24 -70 -8 -5 -19 -20 -26 -32 -10 -20 -9 -23 9 -23 18 0
20 -4 14 -22 -4 -13 -8 -31 -9 -41 -1 -9 -8 -23 -17 -30 -22 -17 -31 -84 -12
-91 10 -4 14 -22 14 -61 0 -49 -3 -57 -24 -66 -38 -18 -50 -103 -16 -112 17
-4 20 -14 20 -65 0 -41 -5 -63 -15 -72 -17 -14 -21 -70 -5 -70 19 0 11 -86
-10 -113 -23 -29 -26 -53 -7 -60 21 -8 2 -146 -23 -170 -11 -10 -20 -22 -20
-27 0 -4 -3 -15 -6 -23 -3 -9 2 -16 14 -19 18 -5 19 -9 8 -50 -6 -25 -16 -51
-23 -59 -17 -21 -20 -88 -4 -98 23 -14 9 -110 -19 -131 -15 -11 -24 -31 -27
-62 -5 -40 -3 -46 16 -51 16 -4 21 -13 21 -40 l0 -35 37 9 c21 4 43 15 50 25
13 17 7 76 -9 82 -15 6 3 125 23 154 20 29 26 93 9 103 -5 3 -10 24 -10 45 0
30 7 45 27 64 25 24 26 26 10 44 -21 23 -22 90 -3 117 8 13 13 50 14 105 0 58
5 95 16 115 18 34 21 85 5 85 -15 0 -1 121 16 135 7 5 16 27 20 48 5 30 3 42
-11 51 -14 11 -15 23 -9 84 4 41 13 76 21 83 16 13 19 86 4 91 -19 6 0 87 21
93 20 7 27 35 9 35 -17 0 -12 90 6 97 12 4 14 14 9 44 -5 27 -2 48 11 71 11
21 17 59 18 105 1 53 6 76 17 85 23 18 42 80 28 88 -7 5 0 29 21 71 17 35 28
70 25 79 -4 8 -8 41 -11 73 -3 45 -1 59 11 63 8 4 15 10 15 15 0 11 -31 11
-49 0z"/>
<path d="M4350 6151 c0 -18 11 -52 25 -76 22 -37 25 -51 19 -92 -4 -35 -1 -60
11 -88 12 -30 14 -55 10 -101 -5 -46 -3 -69 9 -92 18 -34 22 -102 6 -102 -13
0 -13 -87 1 -95 10 -7 12 -43 9 -216 0 -59 4 -95 15 -115 26 -51 14 -124 -21
-124 -13 0 -15 -9 -10 -52 12 -92 9 -126 -13 -161 -21 -35 -26 -85 -12 -122 6
-15 9 -12 14 20 4 25 16 46 33 60 21 16 28 32 31 72 3 31 1 53 -6 57 -20 13
-13 101 11 131 26 34 26 85 -2 140 -25 50 -25 81 0 97 25 16 27 78 5 131 -21
52 -19 104 5 124 31 27 26 69 -15 107 -43 41 -46 76 -9 105 23 18 25 25 19 58
-4 25 -19 49 -41 69 -34 32 -42 57 -24 84 8 12 10 12 16 -3 3 -9 14 -17 24
-17 25 0 43 -26 43 -63 0 -38 20 -64 64 -82 39 -16 51 -53 34 -102 -14 -38 -6
-77 15 -69 21 8 37 -31 30 -78 -13 -89 -13 -91 13 -88 22 4 24 1 18 -35 l-5
-38 16 33 c13 27 14 38 4 65 -16 45 -15 100 3 143 17 40 11 64 -14 57 -35 -9
-66 55 -51 107 9 30 -9 58 -29 46 -5 -3 -21 8 -36 26 -22 26 -26 38 -21 68 4
29 1 41 -13 54 -16 15 -22 15 -40 5 -31 -20 -71 21 -71 72 0 21 5 41 11 44 14
9 -19 45 -41 45 -9 0 -21 5 -28 12 -9 9 -12 5 -12 -21z"/>
<path d="M4277 6133 c-2 -5 -7 -26 -10 -48 -6 -34 -5 -37 5 -17 6 12 15 22 20
22 4 0 8 11 8 25 0 24 -14 34 -23 18z"/>
<path d="M4222 6080 c0 -14 2 -19 5 -12 2 6 2 18 0 25 -3 6 -5 1 -5 -13z"/>
<path d="M3525 6070 c3 -5 8 -10 11 -10 2 0 4 5 4 10 0 6 -5 10 -11 10 -5 0
-7 -4 -4 -10z"/>
<path d="M4247 6027 c-4 -10 -8 -31 -8 -45 -1 -17 -3 -21 -6 -9 -9 33 -23 17
-23 -27 0 -53 14 -66 41 -37 11 12 24 21 29 21 16 0 12 57 -4 63 -8 3 -16 16
-18 29 -3 20 -4 21 -11 5z"/>
<path d="M4314 5857 c-10 -56 -20 -92 -22 -79 -2 12 -16 29 -32 37 -27 14 -29
14 -32 -8 -2 -12 0 -34 5 -48 11 -35 5 -159 -8 -160 -17 0 -75 -62 -75 -79 0
-8 9 -21 20 -28 27 -17 25 -44 -7 -82 -24 -29 -25 -33 -10 -42 11 -6 17 -22
17 -48 0 -31 -6 -43 -28 -58 -30 -22 -37 -72 -11 -80 59 -18 47 -121 -19 -167
-28 -20 -35 -103 -10 -111 38 -12 29 -102 -12 -124 -10 -5 -20 -24 -23 -42 -3
-26 1 -38 19 -55 32 -30 32 -81 -1 -117 -13 -14 -29 -26 -35 -26 -18 0 -11
-49 10 -70 28 -28 25 -72 -6 -110 -25 -29 -25 -32 -10 -49 24 -26 20 -75 -8
-108 -32 -38 -38 -85 -11 -98 21 -11 33 -48 27 -83 -3 -13 -22 -42 -43 -65
-31 -33 -39 -49 -39 -79 0 -21 5 -38 10 -38 6 0 10 -7 10 -15 0 -8 8 -19 18
-24 17 -9 18 -4 18 54 -1 54 3 67 23 89 14 14 30 26 36 26 7 0 15 21 19 46 5
40 3 50 -19 76 -14 16 -25 34 -25 39 0 25 31 79 54 94 33 22 36 75 6 96 -10 8
-22 26 -26 41 -5 23 0 33 27 59 32 30 32 31 16 58 -23 39 -12 93 24 126 34 30
37 55 8 81 -25 22 -19 57 17 95 33 35 31 70 -6 97 -26 19 -30 29 -30 68 0 40
5 51 34 78 27 24 35 40 37 74 3 34 -1 45 -19 58 -32 22 -30 83 3 114 25 24 34
76 16 96 -14 15 -21 58 -12 73 6 9 11 4 19 -18 6 -17 12 -31 14 -31 2 0 2 45
0 100 -3 81 0 103 12 116 19 18 20 38 5 63 -14 22 -5 67 15 74 19 8 34 -79 17
-96 -14 -14 -15 -64 -1 -72 6 -3 10 -24 10 -46 0 -21 -4 -39 -10 -39 -18 0
-11 -29 10 -40 15 -8 20 -21 20 -50 0 -21 -4 -42 -10 -45 -15 -9 -12 -36 6
-56 23 -25 10 -135 -17 -150 -14 -7 -19 -21 -19 -54 0 -24 5 -47 11 -51 17
-10 3 -153 -15 -168 -22 -16 -30 -60 -14 -74 10 -8 12 -25 9 -58 -7 -56 -30
-72 -33 -22 0 18 -4 -27 -9 -100 -4 -81 -12 -139 -20 -148 -9 -11 -9 -18 -1
-26 7 -7 13 -21 14 -33 0 -11 4 3 8 30 7 47 7 45 7 -22 -1 -40 -4 -67 -8 -61
-13 21 -22 -18 -10 -41 6 -11 11 -40 11 -64 0 -36 -3 -45 -17 -43 -14 1 -19
-9 -24 -44 -3 -25 -11 -57 -17 -71 -5 -14 -18 -84 -27 -155 -9 -71 -18 -131
-21 -133 -2 -2 -4 1 -4 7 0 7 -9 12 -21 12 -15 0 -19 -5 -15 -18 4 -10 -1 -27
-9 -38 -16 -22 -20 -100 -5 -109 6 -4 8 -10 6 -14 -11 -17 -38 -201 -37 -251
1 -30 -5 -80 -12 -110 -8 -30 -15 -91 -15 -134 -1 -44 -6 -84 -12 -90 -5 -5
-10 -48 -10 -93 0 -56 -5 -94 -15 -113 -10 -20 -13 -43 -9 -69 4 -23 1 -54 -6
-73 -20 -55 -28 -302 -14 -437 4 -42 2 -66 -5 -70 -8 -5 -8 -21 0 -57 6 -27
13 -75 16 -107 3 -40 9 -57 19 -57 10 0 14 -14 15 -47 1 -27 4 -61 8 -77 5
-24 8 -27 18 -15 12 15 20 82 12 109 -2 8 2 14 9 12 7 -1 17 9 22 23 5 13 18
30 30 37 26 17 27 69 1 92 -29 26 -36 72 -17 101 9 14 23 25 31 25 25 0 21
102 -4 117 -48 30 -43 154 6 161 34 5 42 63 13 99 -25 32 -21 81 11 122 17 22
18 26 4 41 -24 27 -19 87 10 116 31 30 32 60 4 90 -18 19 -20 30 -14 72 4 30
14 57 26 68 23 21 25 76 3 95 -12 10 -15 26 -12 65 4 47 3 51 -13 41 -23 -14
-32 -63 -23 -126 5 -39 3 -57 -11 -77 -12 -19 -15 -36 -10 -63 14 -71 11 -128
-8 -148 -21 -24 -22 -47 -2 -63 22 -18 18 -54 -8 -87 -36 -42 -41 -86 -16
-135 18 -36 20 -47 10 -79 -6 -20 -18 -42 -26 -49 -20 -16 -20 -108 0 -134 28
-36 17 -116 -21 -153 -18 -18 -26 42 -24 187 1 63 1 146 1 185 0 38 5 75 11
82 6 7 11 54 12 103 1 68 5 93 16 100 11 7 14 26 12 79 -3 52 1 77 12 93 18
26 21 74 6 83 -14 9 -2 96 14 110 7 6 16 25 19 43 5 25 3 34 -9 39 -23 9 -9
151 17 176 24 23 27 107 4 107 -10 0 -15 10 -15 34 0 45 21 136 32 136 4 0 8
-4 8 -10 0 -5 6 -10 14 -10 26 0 31 -112 6 -145 -11 -14 -19 -115 -10 -120 12
-8 20 23 20 77 0 40 4 51 18 55 24 6 27 72 5 89 -23 16 -9 31 26 26 29 -4 29
-4 24 -62 -4 -37 -2 -60 6 -64 7 -4 11 -38 11 -86 0 -60 -3 -79 -15 -84 -20
-7 -20 -79 0 -96 10 -8 15 -31 15 -72 0 -43 -4 -60 -15 -64 -17 -7 -21 -79 -5
-89 6 -3 10 -35 10 -70 0 -35 -4 -67 -10 -70 -12 -8 -13 -72 -1 -79 13 -8 -8
-120 -25 -129 -20 -11 -18 -34 5 -46 15 -9 18 -18 13 -58 -3 -26 -9 -51 -15
-54 -17 -12 -25 -86 -10 -101 18 -18 7 -168 -13 -168 -21 0 -29 -78 -10 -99
13 -15 15 -30 10 -77 -4 -32 -11 -65 -16 -71 -6 -7 -7 -32 -4 -55 3 -24 6 -53
6 -65 0 -11 7 -24 15 -27 11 -4 15 -20 15 -55 0 -55 8 -84 21 -76 4 3 5 35 2
70 -4 49 -3 65 7 65 10 0 10 3 1 14 -13 15 -6 101 9 121 4 6 8 52 8 104 1 72
5 97 17 112 15 15 16 33 10 123 -6 81 -4 110 5 122 11 12 13 146 14 642 0 583
-1 630 -18 666 -22 48 -29 244 -9 267 8 10 11 48 10 114 -1 71 1 99 11 102 14
5 17 49 3 57 -9 6 0 63 19 114 7 18 9 47 6 65 -10 51 -6 120 8 142 18 27 27
93 14 101 -11 7 -1 123 13 140 5 7 9 36 8 65 -2 66 9 147 23 176 8 16 8 44 0
100 -7 48 -7 79 -1 81 13 5 11 52 -2 52 -8 0 -9 22 -4 76 5 60 4 79 -8 92 -19
22 -31 88 -17 97 15 9 13 86 -2 83 -10 -2 -13 19 -13 79 0 45 -3 84 -6 87 -3
3 -14 -40 -25 -97z m-290 -3791 c-1 -40 -6 -81 -11 -90 -7 -12 -9 13 -9 83 1
66 4 96 11 90 6 -6 9 -43 9 -83z"/>
<path d="M4891 5924 c0 -11 3 -14 6 -6 3 7 2 16 -1 19 -3 4 -6 -2 -5 -13z"/>
<path d="M4202 5820 c0 -14 2 -19 5 -12 2 6 2 18 0 25 -3 6 -5 1 -5 -13z"/>
<path d="M4921 5765 c0 -22 6 -51 14 -65 l15 -25 -5 25 c-3 14 -9 43 -14 65
l-9 40 -1 -40z"/>
<path d="M2636 5774 c-3 -8 -10 -13 -15 -10 -5 3 -13 -7 -18 -22 -26 -73 -31
-95 -26 -108 3 -8 -2 -21 -12 -28 -15 -11 -17 -22 -14 -81 1 -16 -3 -48 -10
-86 0 -4 -10 -9 -20 -12 -25 -6 -37 -64 -22 -110 13 -39 1 -87 -23 -87 -20 0
-38 -57 -25 -79 16 -24 -26 -121 -51 -121 -21 0 -34 -28 -21 -44 14 -16 -20
-122 -43 -139 -10 -7 -19 -27 -20 -43 -1 -16 -10 -50 -20 -76 -16 -41 -17 -58
-8 -150 6 -63 7 -107 1 -113 -5 -5 -22 -10 -37 -10 -36 -2 -56 -55 -36 -94 21
-40 17 -67 -17 -95 -17 -14 -35 -26 -40 -26 -12 0 -11 -37 2 -62 6 -11 8 -35
4 -55 -5 -27 -13 -38 -41 -49 -27 -12 -34 -20 -34 -43 0 -16 7 -35 16 -42 12
-10 15 -24 11 -52 -6 -47 -33 -79 -63 -75 -29 4 -54 -19 -54 -49 0 -35 -54
-86 -85 -81 -20 4 -26 0 -35 -25 -13 -38 -13 -118 0 -152 5 -14 24 -39 41 -55
21 -18 34 -42 38 -66 l6 -38 13 28 c11 25 9 29 -33 71 -57 55 -72 93 -54 138
17 45 38 67 63 67 19 0 17 -3 -11 -25 -48 -39 -64 -105 -24 -105 27 0 87 -71
89 -105 1 -16 7 -34 12 -39 14 -14 12 -26 -5 -26 -8 0 -15 -7 -15 -16 0 -13 3
-13 29 2 26 15 28 21 24 58 -3 26 -20 62 -44 98 -21 31 -39 61 -39 65 0 5 10
13 23 18 17 8 21 17 19 40 -4 42 64 111 101 101 33 -8 59 21 52 60 -5 23 1 37
28 68 30 35 35 38 55 27 18 -10 23 -9 28 3 3 8 1 23 -4 33 -8 13 -5 28 9 56
18 35 22 37 53 32 30 -6 34 -4 40 20 7 29 -22 175 -35 175 -10 0 -20 -30 -13
-42 7 -11 -64 -88 -82 -88 -14 0 -29 -37 -25 -58 1 -8 -10 -32 -25 -54 -27
-38 -29 -39 -38 -19 -11 26 7 71 28 71 19 0 30 51 21 107 -8 58 12 93 55 93
36 0 48 31 30 84 -9 27 -8 40 1 58 7 13 12 35 10 51 -2 23 1 27 23 27 30 0 36
29 11 50 -28 23 -12 120 20 120 9 0 15 9 16 23 2 97 10 126 54 186 14 19 25
47 25 63 0 42 27 88 51 88 26 0 44 46 32 80 -6 16 -5 42 3 73 14 56 22 67 33
48 6 -10 11 -5 16 18 4 20 2 37 -5 46 -13 16 -6 100 10 110 13 8 20 -22 21
-93 0 -37 4 -85 8 -107 l7 -40 8 38 c4 22 2 62 -4 92 -10 47 -9 59 6 85 17 28
17 31 2 42 -12 9 -17 28 -17 63 1 28 1 86 0 129 -1 56 5 97 19 138 11 32 20
60 20 63 0 12 -18 4 -24 -11z m-564 -1984 c-17 -31 -32 -39 -32 -18 0 13 29
48 41 48 4 0 0 -13 -9 -30z"/>
<path d="M3218 5760 c-12 -39 -10 -86 3 -73 5 5 9 30 7 54 -3 37 -4 40 -10 19z"/>
<path d="M3286 5738 c5 -54 20 -69 29 -29 8 37 -1 71 -20 71 -10 0 -13 -11 -9
-42z"/>
<path d="M4883 5730 c0 -30 2 -43 4 -27 2 15 2 39 0 55 -2 15 -4 2 -4 -28z"/>
<path d="M3861 5690 c-29 -45 -51 -90 -49 -99 6 -32 32 -15 66 42 39 67 53
109 42 126 -4 8 -26 -17 -59 -69z"/>
<path d="M3941 5702 c-30 -42 -51 -80 -51 -95 0 -17 -9 -33 -25 -44 -54 -38
-64 -49 -71 -75 -6 -25 -3 -28 20 -28 60 0 34 -69 -38 -100 -51 -21 -65 -46
-32 -54 30 -7 48 -48 37 -80 -5 -13 -21 -32 -35 -44 -32 -25 -33 -39 -1 -68
37 -34 35 -86 -6 -116 -25 -19 -30 -28 -25 -51 3 -16 16 -37 28 -47 44 -35 19
-142 -37 -156 -31 -8 -34 -48 -5 -72 26 -22 40 -70 29 -100 -5 -13 -22 -29
-39 -35 -27 -10 -30 -16 -30 -52 0 -36 3 -42 30 -52 61 -23 43 -106 -28 -128
-41 -12 -42 -38 -3 -71 16 -13 31 -32 33 -42 8 -28 -17 -79 -41 -87 -28 -9
-26 -31 4 -67 14 -17 25 -42 25 -59 0 -28 -30 -69 -50 -69 -19 0 -10 -49 12
-70 l22 -20 -23 0 c-19 0 -22 -4 -17 -22 3 -13 6 -36 6 -51 0 -24 3 -26 19
-18 11 6 21 26 25 49 3 21 17 56 31 76 14 20 30 57 35 81 9 38 7 49 -10 77
-28 46 -25 66 15 104 46 43 48 87 5 109 -54 28 -50 80 9 108 34 16 41 62 12
88 -40 37 -19 136 30 146 24 4 29 11 29 33 0 15 -7 30 -14 33 -8 3 -18 22 -22
42 -6 32 -3 40 25 69 36 37 39 52 11 61 -21 7 -50 53 -50 79 0 8 11 28 25 44
13 16 29 50 35 76 9 42 8 50 -10 73 -31 39 -26 88 10 115 39 28 41 72 4 100
-37 30 -30 69 16 84 45 15 58 44 37 85 -25 52 12 119 66 119 25 0 32 26 12 46
-19 20 -13 63 12 79 33 21 58 43 53 48 -3 2 -15 7 -26 11 -18 6 -30 -5 -73
-62z"/>
<path d="M4187 5722 c-23 -25 -21 -54 3 -70 19 -12 20 -10 20 38 0 27 -2 50
-3 50 -2 0 -11 -8 -20 -18z"/>
<path d="M4872 5620 c0 -19 2 -27 5 -17 2 9 2 25 0 35 -3 9 -5 1 -5 -18z"/>
<path d="M4951 5634 c0 -11 3 -14 6 -6 3 7 2 16 -1 19 -3 4 -6 -2 -5 -13z"/>
<path d="M3465 5631 c-4 -7 -13 -10 -20 -7 -22 8 -26 -23 -5 -42 24 -22 52
-99 45 -121 -3 -9 3 -32 14 -51 23 -44 35 -116 20 -125 -14 -9 -2 -57 18 -72
20 -16 12 -101 -11 -118 -21 -16 -22 -93 -1 -109 19 -15 5 -124 -19 -141 -20
-15 -21 -71 -2 -78 18 -7 10 -124 -10 -148 -18 -20 -18 -45 -1 -52 11 -4 12
-19 5 -68 -4 -34 -12 -67 -17 -73 -14 -19 -21 -59 -11 -71 12 -14 -16 -126
-36 -141 -22 -17 -17 -61 7 -75 19 -10 21 -17 16 -62 -4 -30 -13 -54 -22 -59
-17 -10 -22 -108 -5 -108 6 0 10 -13 10 -30 0 -23 -4 -30 -20 -30 -20 0 -26
-11 -13 -24 12 -12 33 -80 33 -110 0 -16 3 -26 7 -23 3 4 5 30 4 58 -3 84 12
103 63 83 21 -8 23 -99 2 -107 -18 -7 -29 -82 -15 -105 13 -21 -6 -162 -21
-162 -15 0 -24 -72 -11 -91 14 -24 15 -136 0 -145 -7 -4 -9 -36 -4 -98 5 -69
3 -101 -9 -131 -14 -39 -15 -38 -16 85 0 90 -3 120 -11 108 -5 -10 -17 -18
-24 -18 -24 0 -19 -57 5 -70 16 -9 20 -21 20 -65 0 -44 -4 -56 -20 -65 -11 -6
-20 -15 -20 -20 0 -6 9 -19 20 -30 37 -37 21 -94 -32 -113 -26 -9 -22 -54 7
-89 17 -20 25 -42 25 -66 0 -43 -7 -55 -37 -71 -30 -15 -31 -77 -3 -123 12
-19 20 -51 20 -76 0 -38 -4 -45 -35 -63 -41 -25 -46 -55 -14 -98 26 -35 22
-81 -8 -92 -21 -7 -21 -5 -28 107 -4 63 -11 114 -16 114 -12 0 -4 138 10 173
15 39 14 67 -4 87 -19 21 -10 150 11 150 16 0 19 56 4 65 -5 3 -10 31 -10 62
0 46 3 56 20 60 21 6 27 37 10 48 -5 3 -10 31 -10 61 0 30 5 54 10 54 14 0 13
87 -1 96 -15 9 -6 104 11 114 9 5 10 18 5 41 -13 63 -17 191 -6 202 14 14 14
94 1 102 -17 10 -12 151 5 165 23 19 18 32 -12 28 l-28 -3 0 -121 c-1 -87 -5
-126 -14 -138 -8 -10 -15 -50 -17 -106 -2 -50 -8 -99 -14 -109 -5 -11 -10 -43
-10 -71 0 -43 -3 -53 -20 -57 -16 -4 -20 -14 -20 -48 0 -29 6 -47 20 -60 16
-15 20 -31 20 -87 0 -61 -2 -69 -22 -79 -21 -9 -23 -16 -20 -69 3 -43 8 -60
18 -60 20 0 34 -33 34 -82 0 -49 -13 -68 -46 -68 -20 0 -21 -4 -17 -47 4 -34
13 -57 34 -78 15 -16 30 -41 34 -55 8 -34 -10 -81 -35 -87 -15 -4 -20 -15 -22
-57 -3 -46 0 -54 30 -82 20 -20 32 -41 32 -58 0 -31 -32 -66 -60 -66 -17 0
-20 -7 -20 -44 0 -25 5 -48 11 -52 6 -3 20 -27 30 -52 17 -38 18 -54 10 -92
-5 -25 -12 -94 -14 -155 -3 -60 -3 -100 0 -87 5 24 47 47 65 36 15 -10 3 -133
-15 -151 -12 -13 -16 -12 -31 2 -9 9 -16 32 -16 51 0 19 -4 34 -10 34 -13 0
-13 -65 1 -113 11 -42 4 -77 -16 -77 -18 0 -28 -46 -15 -70 15 -29 12 -106 -5
-120 -18 -15 -21 -120 -4 -137 16 -16 7 -84 -13 -97 -9 -5 -19 -8 -21 -6 -2 3
-1 46 4 95 4 50 12 203 18 340 6 138 13 288 16 335 2 47 2 76 -2 65 -3 -11
-11 -24 -18 -30 -20 -16 -26 -73 -11 -98 18 -29 10 -137 -10 -137 -20 0 -19
-69 1 -76 20 -8 20 -87 1 -103 -20 -17 -30 -79 -15 -97 19 -23 5 -138 -21
-164 -22 -22 -26 -60 -9 -77 15 -15 2 -120 -16 -126 -10 -4 -13 -30 -12 -101
0 -76 -3 -99 -16 -114 -31 -34 -16 -82 25 -82 15 0 18 8 18 48 0 54 9 92 20
92 22 0 40 -35 40 -75 0 -46 11 -55 58 -47 17 3 22 11 22 33 0 18 -5 29 -14
29 -48 0 -44 90 5 118 36 21 40 62 7 77 -48 21 -45 145 2 145 12 0 21 10 25
31 4 17 5 31 3 32 -37 19 -43 28 -46 60 -3 29 3 41 33 72 l37 36 -26 24 c-33
30 -35 83 -6 110 14 13 20 32 21 64 l1 46 9 -40 c4 -22 8 -71 8 -109 1 -101
10 -76 16 45 3 57 10 118 15 134 13 43 32 214 25 225 -3 5 -3 27 1 47 7 35 8
36 14 13 6 -21 8 -16 14 25 10 66 14 77 26 70 12 -8 13 -97 1 -110 -11 -13
-21 -95 -11 -95 4 0 11 7 14 16 3 9 12 14 20 11 10 -4 15 8 19 46 3 29 1 56
-4 62 -5 5 -9 21 -9 36 0 15 -5 31 -10 34 -13 8 -2 107 12 116 11 7 12 34 2
94 -8 57 7 110 31 110 16 0 21 10 27 49 6 42 4 51 -13 65 -16 14 -18 23 -13
65 4 26 15 55 24 65 21 19 36 96 21 105 -17 11 -5 110 13 114 20 4 21 45 2 75
-20 29 -10 177 10 177 9 0 14 11 14 30 0 17 -4 30 -10 30 -17 0 -12 106 5 120
17 14 20 61 4 77 -5 5 -9 38 -7 74 3 58 5 64 26 67 20 3 22 9 22 57 0 42 -4
57 -19 67 -27 19 -33 126 -8 140 21 11 22 61 2 82 -8 8 -15 28 -15 45 0 17 -5
31 -12 31 -6 0 -4 6 6 13 22 16 13 64 -15 72 -14 5 -19 16 -19 39 0 64 11 96
36 102 32 8 31 38 -1 52 -22 10 -25 18 -25 61 0 39 4 53 19 60 23 13 33 69 14
79 -17 10 2 121 24 137 12 9 14 23 9 61 -19 144 -19 142 3 161 25 21 28 77 6
99 -16 17 -18 37 -7 99 6 31 13 40 32 45 21 5 25 12 23 39 -1 21 -9 38 -22 47
-16 12 -21 26 -21 60 0 55 14 84 40 84 28 0 26 33 -2 45 -34 15 -33 40 2 91
l30 46 -30 -22 c-16 -12 -34 -36 -38 -53 l-9 -32 -36 72 c-21 40 -37 79 -37
88 0 20 19 19 43 -2 19 -18 19 -17 3 17 -32 72 -66 167 -66 186 -1 27 -35 70
-45 55z m-14 -2782 l-9 -54 -1 65 c-1 43 2 61 9 54 7 -7 7 -29 1 -65z m-4
-151 c-3 -7 -5 -2 -5 12 0 14 2 19 5 13 2 -7 2 -19 0 -25z m-11 -149 c-3 -17
-6 -57 -6 -88 -1 -43 -3 -52 -11 -39 -16 29 -23 113 -10 136 18 33 35 27 27
-9z m-16 -311 c0 -39 -2 -69 -5 -66 -9 9 -23 99 -18 119 11 42 23 15 23 -53z
m-120 -95 c0 -41 -3 -54 -10 -43 -17 26 -12 100 7 100 2 0 3 -26 3 -57z m99
-112 c-9 -46 -15 -61 -27 -59 -18 3 -23 -18 -46 -192 l-13 -95 1 192 c0 105 4
189 9 186 5 -3 6 -11 3 -18 -2 -7 3 -20 13 -29 17 -16 20 -14 40 35 12 28 25
49 27 46 3 -3 0 -33 -7 -66z m-104 8 c8 -12 -13 -200 -25 -219 -4 -7 -13 -9
-20 -5 -17 10 -6 102 15 125 11 12 13 28 9 63 -6 45 5 63 21 36z m-135 -1108
c0 -29 -24 -70 -35 -60 -3 4 -3 30 1 58 5 42 9 49 20 40 8 -6 14 -24 14 -38z"/>
<path d="M4550 5594 c0 -21 5 -46 10 -54 7 -10 8 1 4 35 -8 62 -14 70 -14 19z"/>
<path d="M4957 5586 c-12 -30 -8 -81 9 -104 11 -16 16 -51 18 -121 1 -61 7
-105 15 -114 8 -10 13 -56 15 -127 2 -70 7 -115 14 -119 17 -10 27 -97 13
-105 -17 -11 -13 -40 8 -58 16 -14 20 -30 19 -93 0 -62 3 -79 18 -89 14 -11
17 -30 19 -105 0 -64 5 -95 14 -100 8 -6 15 -40 18 -97 3 -49 10 -96 15 -104
17 -29 -18 261 -96 795 -58 388 -90 565 -99 541z"/>
<path d="M4880 5478 c0 -56 1 -60 15 -42 15 20 19 61 9 88 -13 34 -24 13 -24
-46z"/>
<path d="M4561 5448 c-1 -45 -5 -78 -11 -78 -18 0 -12 -88 8 -102 27 -19 28
-110 2 -160 -22 -43 -27 -89 -8 -86 8 2 16 -16 22 -44 7 -38 6 -52 -7 -72 -21
-31 -22 -46 -4 -46 19 0 51 -73 43 -98 -7 -20 11 -72 25 -72 10 0 32 -107 25
-119 -9 -13 14 -74 34 -91 24 -20 40 -82 28 -103 -5 -11 -5 -32 2 -57 11 -41
7 -100 -11 -173 -8 -29 -7 -41 5 -52 8 -9 18 -36 22 -62 6 -41 4 -49 -15 -61
-29 -20 -28 -54 2 -50 20 3 22 -1 21 -47 -1 -27 -5 -67 -9 -87 -6 -31 -5 -38
8 -38 21 0 57 -39 57 -62 0 -10 -7 -30 -16 -44 -20 -29 -12 -41 31 -46 42 -4
73 -59 57 -100 -15 -41 2 -84 39 -97 22 -7 29 -16 29 -35 0 -30 5 -32 26 -12
22 22 18 66 -6 66 -31 0 -46 71 -23 110 25 43 9 86 -31 82 -62 -7 -87 60 -41
108 31 32 25 60 -14 60 -36 0 -71 26 -71 53 0 12 7 35 15 50 17 33 10 57 -17
57 -16 0 -19 5 -14 28 22 112 26 156 17 185 -17 57 -23 115 -12 122 17 10 13
65 -4 71 -11 5 -15 24 -15 83 0 42 -5 96 -11 121 -6 25 -11 64 -10 87 0 29 -6
49 -18 60 -23 22 -44 113 -30 130 15 17 -7 53 -31 53 -26 0 -40 53 -33 129 4
45 2 63 -9 75 -12 12 -13 25 -5 78 18 105 10 274 -12 287 -7 5 -17 24 -21 42
-6 27 -8 18 -9 -43z"/>
<path d="M3694 5433 c-6 -15 -13 -103 -8 -103 1 0 16 22 32 48 28 46 29 49 11
60 -24 15 -25 15 -35 -5z"/>
<path d="M4240 5203 c0 -5 -2 -65 -4 -135 -2 -73 0 -128 5 -128 5 0 9 61 9
135 0 74 -2 135 -5 135 -3 0 -5 -3 -5 -7z"/>
<path d="M4520 5119 c0 -17 4 -28 10 -24 6 3 10 17 10 31 0 13 -4 24 -10 24
-5 0 -10 -14 -10 -31z"/>
<path d="M2611 5114 c0 -11 3 -14 6 -6 3 7 2 16 -1 19 -3 4 -6 -2 -5 -13z"/>
<path d="M2595 5058 c-6 -13 -16 -22 -22 -21 -15 3 -25 -43 -14 -64 15 -29 40
-165 39 -204 -1 -23 5 -43 15 -53 9 -10 18 -25 18 -34 3 -40 17 82 20 168 2
103 -5 140 -26 140 -9 0 -15 15 -17 46 -3 40 -4 43 -13 22z"/>
<path d="M3220 4918 c0 -19 2 -20 10 -8 13 19 13 30 0 30 -5 0 -10 -10 -10
-22z"/>
<path d="M4851 4914 c0 -11 3 -14 6 -6 3 7 2 16 -1 19 -3 4 -6 -2 -5 -13z"/>
<path d="M2477 4825 c-13 -28 -13 -33 4 -54 11 -13 19 -34 19 -47 0 -30 -41
-58 -76 -51 -34 6 -39 -11 -19 -68 12 -38 13 -55 5 -81 -6 -18 -16 -35 -23
-37 -9 -3 -8 -20 6 -69 21 -81 21 -98 2 -98 -26 0 -19 -59 10 -86 17 -16 25
-34 25 -58 0 -39 -18 -86 -33 -86 -6 0 -7 -30 -3 -80 6 -72 4 -82 -14 -100
-11 -11 -31 -20 -44 -20 -28 0 -37 -16 -25 -47 12 -34 -25 -76 -63 -71 -35 6
-64 -28 -53 -62 5 -15 0 -26 -19 -41 -26 -21 -27 -43 -2 -33 19 7 30 -61 21
-136 -5 -42 -11 -60 -21 -60 -8 0 -14 9 -14 20 0 10 -7 39 -15 64 -8 24 -16
62 -17 85 -1 35 -4 41 -24 41 -17 0 -21 -5 -17 -19 3 -12 -4 -25 -20 -37 l-24
-18 19 -32 c10 -18 27 -34 38 -37 12 -3 21 -17 25 -41 6 -28 12 -36 29 -36 40
0 50 -15 47 -72 -2 -47 -16 -146 -41 -278 -12 -64 -12 -165 1 -235 7 -33 14
-89 18 -125 l6 -65 23 85 c13 47 42 146 63 222 22 75 49 176 59 225 10 51 22
87 29 86 11 -3 16 16 13 47 -1 8 3 39 9 68 10 50 22 66 32 40 5 -15 27 57 27
90 0 13 4 21 9 18 5 -4 11 0 14 6 3 7 4 -16 2 -52 -2 -73 -18 -120 -39 -120
-15 0 -42 -92 -31 -109 11 -18 -16 -89 -36 -94 -20 -5 -25 -37 -9 -53 10 -10
-15 -93 -32 -104 -13 -10 -38 -90 -32 -104 6 -15 -25 -137 -36 -146 -12 -8
-32 -79 -26 -89 8 -12 -21 -123 -33 -130 -14 -10 -24 -52 -22 -101 1 -56 -12
-104 -33 -126 -9 -8 -17 -30 -18 -47 0 -18 -2 -36 -2 -42 -3 -18 -26 -54 -51
-79 -23 -23 -25 -24 -25 -6 0 11 9 29 20 40 29 29 25 48 -5 20 -23 -22 -25
-22 -25 -4 0 10 12 51 25 89 24 68 31 143 16 193 -6 23 -6 23 -31 -10 -41 -54
-64 -91 -79 -123 -20 -43 -26 -217 -10 -290 18 -87 20 -177 2 -171 -11 5 -12
-4 -7 -43 8 -59 -7 -91 -41 -91 -32 0 -42 -23 -42 -98 0 -51 -5 -67 -22 -86
-30 -32 -51 -105 -44 -155 7 -52 -16 -91 -54 -91 -24 0 -25 -2 -18 -38 4 -20
7 -47 7 -60 0 -26 -28 -62 -48 -62 -20 0 -38 -40 -25 -53 29 -29 -11 -147 -49
-147 -22 0 -27 -15 -9 -26 7 -4 26 -8 44 -9 26 -1 36 4 50 27 24 41 29 29 10
-26 -13 -39 -14 -50 -3 -63 11 -14 14 -12 25 13 7 16 12 41 13 55 0 18 7 28
20 32 21 5 27 31 10 42 -17 11 0 128 22 149 17 16 19 27 13 71 -8 65 9 135 34
142 25 6 64 78 56 103 -8 25 39 110 60 110 14 0 21 18 50 133 9 37 20 67 25
67 11 0 30 49 30 80 0 33 26 107 46 130 7 8 21 47 32 86 11 39 27 85 36 102 9
17 16 41 16 53 0 12 7 31 16 40 12 14 17 41 18 101 2 86 8 108 30 108 18 0 29
59 15 77 -16 19 16 139 42 157 10 7 25 31 33 54 12 34 12 43 1 52 -19 16 28
156 54 163 20 5 33 51 19 65 -14 14 21 114 43 119 10 3 19 8 20 12 0 3 2 35 3
70 3 52 8 67 26 81 17 13 22 26 21 66 0 58 18 134 31 134 11 0 6 -71 -11 -165
-6 -33 -16 -87 -22 -120 -6 -33 -15 -88 -19 -123 -5 -42 -14 -70 -28 -85 -28
-30 -42 -70 -31 -88 5 -8 9 -33 9 -57 0 -35 -6 -49 -31 -75 -37 -36 -61 -106
-46 -132 5 -9 7 -40 4 -68 -4 -50 -30 -86 -69 -99 -9 -3 -13 -27 -13 -81 0
-66 -3 -79 -24 -101 -19 -20 -22 -31 -16 -58 4 -18 8 -51 9 -72 1 -22 7 -41
13 -43 9 -3 7 -12 -6 -31 -10 -15 -26 -66 -36 -113 -18 -91 -29 -118 -42 -105
-17 17 -7 102 19 158 22 49 24 59 13 75 -12 17 -14 16 -20 -12 -7 -31 -12 -45
-45 -105 -11 -21 -18 -52 -17 -80 2 -54 -18 -107 -44 -115 -11 -4 -26 -19 -34
-35 -13 -25 -13 -29 0 -40 24 -20 19 -77 -10 -105 -13 -14 -28 -25 -34 -25 -5
0 -19 -16 -31 -36 -17 -26 -20 -38 -11 -47 28 -28 -5 -107 -45 -107 -24 0 -45
-102 -24 -115 6 -3 10 -26 10 -51 0 -39 -4 -47 -29 -62 -42 -23 -56 -87 -26
-112 35 -29 4 -130 -40 -130 -30 0 -33 -24 -9 -58 16 -23 15 -31 -11 -95 -5
-11 -2 -17 8 -17 8 0 20 -7 27 -15 19 -23 26 -18 28 20 2 19 -2 35 -8 35 -5 0
-10 19 -10 43 0 46 24 91 45 83 8 -3 19 11 29 37 14 36 14 42 1 57 -28 30 -9
130 26 142 6 2 11 19 10 38 -4 101 -2 121 16 152 10 18 27 33 37 33 9 0 26 14
37 31 17 28 18 33 4 44 -32 27 -7 107 41 128 24 12 26 16 19 50 -12 63 -8 85
20 110 15 13 29 21 31 19 3 -2 -5 -47 -17 -98 -12 -52 -27 -123 -34 -159 -7
-36 -20 -82 -29 -104 -9 -21 -16 -49 -16 -62 0 -33 -38 -127 -58 -142 -14 -11
-17 -28 -14 -107 2 -70 0 -96 -11 -102 -16 -10 -40 -89 -32 -103 11 -18 -23
-114 -50 -143 -21 -22 -23 -27 -9 -27 10 0 36 -11 58 -24 25 -14 66 -26 104
-29 61 -7 63 -6 73 21 6 15 16 34 23 42 22 25 29 105 11 120 -22 18 -20 102 3
123 10 10 23 17 29 17 19 0 23 80 6 115 -19 40 -11 99 18 123 28 24 36 78 14
102 -31 34 0 130 41 130 20 0 34 68 28 127 -6 47 -4 54 19 76 31 28 37 79 15
120 l-16 28 -7 -47 c-5 -34 -12 -48 -26 -51 -25 -7 -35 -48 -19 -78 15 -27 7
-109 -12 -132 -6 -8 -22 -13 -35 -10 -19 3 -24 -1 -29 -30 -3 -18 -3 -46 1
-61 5 -15 8 -51 8 -81 0 -49 -3 -57 -31 -81 -21 -18 -34 -40 -42 -73 -9 -43
-8 -51 12 -77 18 -25 20 -35 12 -67 -7 -29 -17 -42 -45 -56 -48 -23 -59 -68
-29 -124 41 -77 19 -143 -53 -157 -25 -5 -35 -2 -47 14 -15 20 -14 28 3 103
10 45 26 97 34 116 9 19 16 57 18 85 4 105 5 115 18 128 18 18 41 113 33 141
-6 27 18 127 35 137 14 10 39 114 32 140 -8 30 17 120 33 120 23 0 37 50 23
77 -10 19 -9 33 5 78 10 33 23 55 32 55 14 0 19 17 15 54 -2 23 25 97 53 144
18 32 18 36 3 62 -28 46 -22 86 18 126 38 38 41 51 24 116 -13 51 0 97 31 105
32 8 38 51 25 168 -6 57 8 95 42 110 33 14 48 58 33 95 -16 39 -6 90 22 111
19 15 20 20 9 46 -16 39 4 104 37 118 31 14 39 51 16 76 -37 41 -15 128 36
144 25 8 34 63 15 91 -28 43 -8 124 29 124 22 0 30 79 10 101 -26 29 -13 127
20 154 35 28 50 72 32 91 -25 24 -34 16 -41 -36 -5 -35 -12 -51 -25 -55 -24
-8 -46 -85 -31 -113 26 -48 -4 -162 -43 -162 -16 0 -14 20 14 150 31 139 41
191 44 227 1 18 10 41 18 50 20 23 33 99 19 108 -6 3 -13 0 -15 -7 -2 -7 -9
-33 -16 -58 -7 -25 -15 -52 -18 -60 -3 -8 -6 -22 -7 -30 -4 -27 -43 -145 -60
-178 -9 -18 -18 -47 -20 -65 -5 -61 -27 -122 -52 -145 -20 -19 -24 -20 -18 -5
11 26 92 292 100 326 3 17 10 25 17 21 7 -5 9 0 6 14 -5 16 -1 22 10 23 14 0
14 2 2 6 -25 10 -29 24 -15 57 7 17 16 58 19 91 6 50 3 65 -12 88 l-19 29 -7
-37 c-7 -34 -8 -36 -21 -19 -8 11 -15 17 -15 14 0 -3 -2 -36 -3 -75 -3 -66 -2
-68 8 -31 6 22 16 41 22 43 17 6 22 -74 7 -122 -7 -25 -11 -52 -8 -59 3 -8 -3
-29 -12 -48 -13 -24 -19 -29 -22 -16 -2 9 2 26 7 37 17 31 13 52 -13 75 -27
24 -39 72 -25 99 7 12 5 28 -6 51 -10 20 -14 48 -11 72 2 21 5 65 5 97 1 31 6
57 11 57 6 0 10 -12 10 -26 0 -21 4 -24 20 -19 31 10 57 -3 65 -33 l7 -27 18
40 c14 33 16 51 9 99 -4 33 -5 65 -1 70 3 6 5 22 3 36 -6 51 -17 38 -30 -35
-8 -41 -17 -75 -22 -75 -4 0 -11 16 -15 36 -5 28 -2 42 15 64 27 38 27 58 -3
69 -13 5 -26 17 -30 26 -9 26 -7 74 5 97 8 15 8 26 0 42 -8 14 -9 36 -3 68 l9
46 -33 4 c-28 3 -34 0 -47 -27z m49 -288 c-2 -109 -10 -152 -26 -128 -4 7 -12
-5 -18 -28 -7 -21 -19 -42 -27 -45 -8 -3 -15 -13 -15 -22 0 -10 -2 -15 -5 -12
-7 7 -15 42 -22 105 -5 49 -4 53 20 64 39 18 50 59 27 105 -25 48 -13 74 34
74 l34 0 -2 -113z m-72 -347 c4 -25 3 -31 -4 -20 -5 8 -10 26 -10 39 0 32 6
24 14 -19z m26 -247 c0 -88 -4 -114 -21 -150 -13 -26 -28 -43 -38 -43 -10 0
-26 -9 -35 -19 -19 -20 -96 -51 -128 -51 -17 0 -17 -2 -4 -35 13 -31 13 -36
-1 -44 -15 -8 -15 -11 0 -42 16 -32 17 -32 17 -9 1 30 28 83 31 60 1 -8 3 -28
4 -45 1 -16 6 -41 9 -55 13 -46 11 -55 -11 -58 -18 -3 -23 2 -24 20 -1 17 -3
18 -6 6 -2 -10 -11 -18 -18 -18 -18 0 -31 58 -16 73 8 8 6 16 -5 28 -11 13
-15 32 -13 68 3 30 0 51 -6 52 -20 1 31 18 57 18 16 1 43 15 63 32 30 27 35
36 30 60 -5 23 -1 35 23 59 17 16 38 30 46 30 9 0 21 11 26 26 8 21 6 29 -14
47 -23 20 -30 41 -27 75 1 14 41 33 54 25 4 -2 7 -52 7 -110z m40 -82 c0 -10
-9 -29 -21 -42 -16 -19 -19 -20 -15 -6 3 11 9 30 12 43 7 28 24 32 24 5z m-25
-156 c-16 -57 -30 -77 -19 -27 16 74 27 106 31 95 3 -7 -3 -37 -12 -68z m-45
-94 c0 -16 -7 -34 -15 -41 -17 -14 -19 -4 -9 49 8 37 24 31 24 -8z m-101 -3
c-12 -21 -13 -21 -17 -4 -2 10 2 22 9 27 20 12 22 4 8 -23z m36 -38 c-10 -33
-22 -60 -26 -60 -5 0 -4 11 1 24 4 13 14 43 20 66 6 23 14 39 17 36 4 -3 -2
-33 -12 -66z m-45 -160 c0 -5 -5 -10 -11 -10 -5 0 -7 5 -4 10 3 6 8 10 11 10
2 0 4 -4 4 -10z m-110 -475 c-6 -19 -16 -38 -22 -41 -6 -4 -9 -3 -6 2 3 5 12
29 18 54 7 25 15 39 17 33 3 -7 -1 -29 -7 -48z m-160 -539 c0 -8 -10 -45 -22
-82 -13 -41 -21 -91 -20 -124 3 -95 3 -124 -1 -175 -1 -27 1 -58 5 -67 14 -30
-49 -155 -68 -135 -3 3 6 28 21 56 27 54 27 69 -2 147 -8 22 -18 85 -22 140
-7 83 -5 107 10 152 9 28 15 52 12 52 -3 0 2 9 11 19 16 17 27 22 69 30 4 0 7
-5 7 -13z m70 -211 c-6 -8 -9 -19 -5 -25 11 -18 -45 -142 -61 -136 -7 3 -18
-3 -24 -12 -9 -14 -10 -12 -4 8 3 14 12 36 19 50 7 14 15 38 19 54 10 39 35
76 53 76 12 0 13 -3 3 -15z m-210 -507 c0 -5 -9 -21 -20 -35 -23 -29 -25 -23
-8 23 11 30 28 38 28 12z m-197 -615 c-9 -57 -19 -71 -27 -38 -5 18 -2 35 9
51 21 33 25 30 18 -13z"/>
<path d="M2496 4473 c-4 -9 -2 -21 4 -27 7 -7 10 -2 10 17 0 31 -5 34 -14 10z"/>
<path d="M4516 4782 c5 -52 -11 -121 -35 -143 -14 -13 -20 -48 -29 -175 -6
-88 -8 -175 -3 -194 l8 -35 7 32 c4 18 9 56 11 85 3 52 11 78 40 128 9 14 15
51 15 87 0 55 3 64 27 83 22 17 25 24 16 38 -6 9 -18 16 -27 14 -12 -2 -16 6
-17 30 -1 18 -5 47 -10 63 -7 25 -7 22 -3 -13z"/>
<path d="M4407 4656 c-3 -21 -13 -46 -20 -55 -19 -21 -32 -107 -17 -116 18
-11 11 -71 -12 -100 -17 -22 -19 -31 -10 -46 16 -25 15 -58 -3 -93 -19 -36
-19 -103 0 -136 20 -36 19 -84 -4 -104 -25 -22 -32 -75 -14 -102 10 -16 13
-46 9 -120 -5 -98 -4 -99 11 -59 9 22 16 54 16 70 0 17 4 33 10 37 8 5 6 18
-6 43 -22 47 -21 93 3 133 23 38 26 99 5 126 -28 37 -12 123 24 133 29 7 36
70 17 145 -12 49 -13 72 -5 103 18 66 21 109 12 145 l-9 35 -7 -39z"/>
<path d="M4543 4435 c0 -87 3 -115 14 -119 25 -10 34 -54 17 -87 -19 -38 -12
-59 19 -59 13 0 28 -5 35 -12 14 -14 16 -80 3 -94 -5 -5 -11 -50 -14 -100 -2
-63 -9 -98 -20 -115 -24 -33 -21 -64 9 -96 23 -25 25 -32 19 -88 -5 -47 -4
-65 8 -76 9 -10 11 -22 6 -37 -15 -41 -39 -20 -39 36 0 15 -7 47 -16 72 -24
68 -26 108 -9 167 9 29 15 59 14 66 -1 7 1 20 6 30 11 26 -8 103 -24 99 -7 -1
-19 3 -27 9 -12 10 -14 -8 -14 -114 0 -85 -4 -127 -11 -129 -14 -5 -15 -112
-1 -148 7 -19 9 -4 7 55 l-4 80 20 -55 c27 -73 35 -160 16 -160 -12 0 -12 -8
-4 -46 9 -40 13 -44 23 -29 15 20 22 10 29 -46 3 -24 8 -59 11 -77 5 -31 4
-32 -15 -23 -13 7 -24 30 -33 68 l-13 58 -3 -45 c-2 -24 -8 -50 -13 -56 -10
-13 -1 -71 13 -80 5 -3 6 5 2 20 -9 36 12 33 31 -4 20 -38 19 -74 -2 -96 -12
-11 -19 -38 -21 -82 -4 -56 -2 -64 11 -59 11 4 19 -4 27 -28 12 -36 7 -69 -15
-95 -7 -8 -15 -28 -19 -43 -5 -23 -2 -34 17 -52 29 -30 51 -118 37 -146 -19
-35 -40 -23 -40 23 0 37 -2 40 -13 24 -7 -10 -25 -19 -40 -19 -23 -2 -27 -6
-27 -34 0 -17 5 -35 10 -38 6 -3 10 3 10 14 0 23 7 26 29 12 21 -14 9 -107
-17 -131 -12 -11 -26 -20 -31 -20 -9 0 -31 -31 -31 -43 0 -3 11 -8 25 -11 23
-6 25 -10 25 -72 0 -56 -3 -67 -19 -71 -18 -5 -31 -30 -31 -64 0 -9 12 -21 26
-28 25 -11 26 -15 22 -71 -3 -36 -11 -66 -21 -78 -22 -24 -22 -70 0 -94 15
-17 15 -19 -2 -32 -22 -16 -23 -57 -6 -255 9 -94 9 -137 2 -144 -6 -6 -11 -30
-11 -54 0 -36 5 -48 31 -71 40 -36 42 -77 5 -108 -33 -29 -33 -64 -1 -102 31
-37 33 -89 5 -125 -28 -35 -26 -82 5 -119 21 -24 25 -37 20 -62 -4 -17 -13
-36 -21 -42 -19 -15 -18 -101 1 -120 8 -9 15 -31 15 -50 0 -22 -6 -37 -15 -40
-8 -4 -15 -14 -15 -24 0 -10 7 -23 15 -30 9 -7 15 -29 15 -51 0 -32 3 -39 20
-39 11 0 20 7 20 15 0 9 13 24 30 33 27 15 30 22 30 70 0 39 -4 52 -14 52 -22
0 -46 40 -46 75 0 32 33 95 50 95 5 0 10 18 10 39 0 32 -4 41 -22 47 -64 19
-77 77 -28 126 23 22 30 39 30 68 0 48 -8 70 -26 70 -7 0 -21 11 -30 25 -21
33 -12 84 21 115 20 19 25 33 25 75 0 48 -2 51 -26 53 -15 1 -33 7 -40 13 -22
18 -17 82 9 120 20 30 21 40 13 83 -6 34 -14 50 -27 53 -19 5 -20 7 -23 176
-2 74 28 59 49 -24 l14 -54 -5 49 c-7 63 10 106 42 106 20 0 24 5 24 29 0 17
-5 33 -11 36 -34 22 -33 109 2 120 15 5 19 16 19 49 0 27 -6 48 -15 56 -24 20
-20 107 5 122 24 16 27 64 4 89 -9 10 -18 35 -21 58 -5 34 -2 43 21 64 29 27
35 77 14 133 -9 26 -9 41 2 74 11 34 11 45 1 62 -9 15 -11 43 -5 107 8 96 21
82 23 -26 1 -34 6 -65 11 -68 6 -4 9 -37 8 -78 -2 -40 -2 -110 0 -156 2 -73 4
-82 17 -71 13 11 15 6 14 -36 0 -44 -1 -46 -11 -24 -14 33 -15 26 -27 -115
-33 -389 -33 -389 -56 -440 -27 -59 -49 -193 -34 -211 5 -6 11 -47 13 -90 3
-44 14 -138 25 -210 12 -73 23 -182 25 -242 2 -61 8 -116 12 -123 3 -6 8 -55
10 -108 1 -53 7 -139 13 -191 6 -59 6 -99 0 -105 -5 -5 -9 -33 -9 -62 0 -40 4
-53 15 -53 8 0 15 -9 15 -19 0 -11 5 -23 10 -26 6 -4 10 11 10 38 0 40 2 45
20 40 15 -4 20 0 20 15 0 12 9 23 20 27 29 9 26 45 -4 45 -19 0 -26 8 -36 46
-12 42 -11 46 7 59 23 16 21 64 -3 78 -17 10 -19 113 -4 122 14 8 2 75 -16 96
-22 25 -29 102 -10 118 18 15 11 70 -12 87 -8 6 -18 33 -23 60 -6 41 -4 54 12
76 21 31 18 72 -8 87 -11 6 -16 30 -19 85 -4 74 -3 76 16 66 11 -6 20 -15 20
-21 0 -6 5 -7 11 -3 9 5 10 -1 5 -20 -8 -31 4 -34 29 -6 21 23 13 67 -16 88
-23 16 -25 78 -4 106 24 31 18 39 -22 32 -24 -4 -33 -3 -25 2 8 5 12 17 10 26
-2 13 10 22 42 35 25 10 51 16 57 14 6 -2 14 4 17 15 4 10 22 24 40 32 32 12
35 16 33 53 -1 28 4 44 19 56 16 13 18 23 13 54 -3 20 -9 40 -12 44 -4 3 -2
12 5 20 8 10 6 19 -12 38 -17 18 -21 31 -17 53 8 40 -7 62 -23 33 -23 -43 -40
-117 -40 -176 -1 -106 -51 -201 -81 -153 -25 39 2 92 41 81 8 -2 6 2 -5 9 -13
9 -21 26 -23 53 -2 22 -8 87 -13 145 -6 58 -10 120 -10 139 2 57 31 153 69
226 33 62 37 79 39 154 1 46 5 86 7 89 7 6 -20 32 -34 32 -6 0 -14 8 -17 18
-4 9 -15 24 -25 33 -10 9 -17 27 -16 39 2 13 -5 28 -19 37 -21 14 -21 14 -9
-20 6 -19 16 -41 22 -48 12 -15 44 -79 44 -87 0 -3 -9 3 -20 13 -20 18 -20 18
-6 -31 24 -80 29 -158 16 -214 -7 -27 -16 -50 -21 -50 -11 0 -11 21 0 39 5 8
-2 54 -20 122 -21 83 -27 124 -24 173 3 53 1 69 -16 90 -23 29 -40 104 -21 92
13 -8 3 27 -20 72 -16 31 1 48 31 32 28 -14 41 -49 30 -77 -14 -38 32 -123 66
-123 20 0 43 -33 50 -72 8 -44 24 -61 45 -48 12 7 12 12 2 22 -6 6 -12 22 -12
35 0 12 -29 61 -65 108 -36 48 -65 92 -65 99 0 6 -16 36 -35 66 -19 30 -35 60
-35 66 0 19 -26 64 -45 78 -21 15 -15 49 16 86 20 24 21 24 35 5 8 -10 11 -27
8 -38 -8 -26 14 -74 37 -80 11 -3 27 -25 39 -52 18 -43 19 -48 4 -71 -15 -22
-15 -26 0 -49 12 -18 23 -24 35 -20 26 8 78 -71 63 -96 -8 -13 -8 -20 3 -29 8
-6 18 -9 23 -6 11 6 32 -17 51 -56 14 -28 41 -28 41 1 0 32 -13 61 -26 61 -15
0 -35 64 -32 103 3 32 -17 70 -44 82 -28 13 -70 94 -59 113 12 22 -8 62 -31
62 -23 0 -50 58 -54 115 -1 22 -2 44 -3 49 -1 4 -8 6 -16 2 -8 -3 -15 -1 -15
5 0 6 -7 4 -15 -5 -23 -23 -42 -9 -49 35 -7 45 5 75 35 84 26 9 22 47 -6 51
-43 6 -58 64 -30 118 10 18 13 41 9 66 -4 26 0 51 15 84 21 49 20 56 -14 116
-21 35 -18 83 5 113 29 36 25 55 -14 74 -31 15 -56 48 -56 75 0 7 9 22 21 34
19 20 20 26 9 58 -7 23 -16 33 -25 30 -7 -3 -22 -1 -33 5 -18 10 -19 5 -19
-104z m4 -687 c-3 -7 -5 -2 -5 12 0 14 2 19 5 13 2 -7 2 -19 0 -25z m102 -558
c6 -28 11 -61 11 -73 l-1 -22 -18 23 c-21 24 -37 94 -26 112 13 21 24 9 34
-40z m-49 -610 c13 0 23 -83 15 -119 -4 -17 -12 -31 -20 -31 -26 0 -34 -92
-10 -124 18 -24 20 -97 3 -114 -7 -7 -21 -12 -31 -12 -19 0 -19 5 -14 78 5 62
30 310 38 372 1 8 4 0 6 -17 2 -18 8 -33 13 -33z m278 -312 c7 -7 12 -24 12
-38 0 -31 -27 -90 -41 -90 -10 0 -12 48 -3 103 7 39 13 44 32 25z m-168 -132
c0 -95 -2 -104 -20 -109 -24 -6 -26 10 -4 41 8 12 15 39 14 60 -3 59 0 112 5
112 3 0 5 -47 5 -104z m-140 -138 c0 -16 -5 -28 -11 -28 -7 0 -9 11 -6 30 4
16 2 32 -3 35 -6 3 -10 16 -9 28 1 19 2 18 14 -8 8 -16 14 -42 15 -57z m130
-47 c-1 -18 -41 -51 -62 -50 -17 1 -19 2 -5 6 12 3 16 10 12 24 -5 13 -2 19 7
17 7 -2 12 2 11 8 -1 7 6 10 17 7 11 -3 20 -8 20 -12z m-23 -103 c17 -22 22
-59 12 -85 -13 -34 -19 -25 -28 41 -8 55 -3 68 16 44z"/>
<path d="M1946 4491 c-3 -22 -9 -46 -12 -54 -4 -12 0 -14 14 -10 27 7 35 44
18 77 l-13 26 -7 -39z"/>
<path d="M2663 4391 c-7 -22 -13 -62 -14 -88 0 -27 -4 -57 -8 -67 -7 -18 7
-77 22 -92 4 -4 7 20 7 52 0 37 6 68 15 80 16 21 20 75 6 90 -5 5 -11 22 -13
37 -3 27 -4 27 -15 -12z"/>
<path d="M4504 4305 c-4 -8 1 -31 11 -51 21 -44 13 -95 -18 -125 l-22 -20 -6
31 c-8 38 -19 51 -19 21 0 -12 -7 -32 -15 -45 -8 -12 -15 -44 -15 -72 0 -27 1
-73 1 -103 0 -30 -5 -67 -12 -83 -10 -24 -10 -31 1 -38 8 -5 17 -30 21 -57 l8
-48 -2 48 c-1 26 1 47 5 47 5 0 8 16 8 35 0 19 5 35 11 35 7 0 10 23 8 68 -5
114 -1 158 14 143 8 -8 12 -47 11 -124 0 -62 1 -98 3 -82 2 17 9 40 15 52 7
14 8 46 4 87 -5 48 -3 75 9 102 21 51 21 194 0 194 -9 0 -18 -7 -21 -15z"/>
<path d="M4194 4284 c-4 -14 -2 -30 5 -37 8 -8 11 -1 11 26 0 43 -7 48 -16 11z"/>
<path d="M1895 4269 c-3 -19 -9 -42 -11 -51 -10 -33 17 -18 32 18 14 32 14 39
1 52 -13 12 -16 10 -22 -19z"/>
<path d="M5172 4075 c0 -16 2 -22 5 -12 2 9 2 23 0 30 -3 6 -5 -1 -5 -18z"/>
<path d="M1857 4053 c-4 -3 -7 -31 -7 -62 0 -67 18 -58 21 11 3 48 -2 64 -14
51z"/>
<path d="M5192 3890 c0 -14 2 -19 5 -12 2 6 2 18 0 25 -3 6 -5 1 -5 -13z"/>
<path d="M4502 3830 c0 -14 2 -19 5 -12 2 6 2 18 0 25 -3 6 -5 1 -5 -13z"/>
<path d="M3700 3776 c0 -25 5 -48 10 -51 6 -3 10 -35 10 -70 0 -47 -4 -64 -15
-69 -17 -6 -21 -46 -5 -46 6 0 10 -31 10 -74 0 -65 -2 -75 -19 -81 -30 -9 -32
-65 -4 -88 20 -16 22 -24 17 -80 -4 -34 -13 -67 -20 -73 -16 -13 -19 -90 -4
-99 13 -8 13 -102 0 -110 -7 -4 -10 -55 -8 -133 1 -70 -2 -140 -6 -155 -6 -20
-4 -32 7 -45 19 -21 12 -111 -9 -119 -17 -6 -18 -35 -2 -51 14 -14 11 -131 -4
-149 -6 -7 -7 -28 -3 -50 13 -73 17 -164 7 -176 -13 -17 -24 -84 -14 -91 4 -2
5 -38 1 -78 -4 -40 -8 -81 -8 -91 -1 -10 -5 -15 -11 -12 -13 8 -13 106 0 139
8 23 7 26 -10 26 -16 0 -20 -7 -20 -30 0 -20 -9 -38 -25 -52 -36 -31 -35 -83
1 -92 25 -7 26 -9 20 -54 -4 -29 -15 -56 -31 -72 -28 -29 -33 -60 -10 -60 22
0 28 -42 15 -104 -6 -31 -8 -65 -5 -77 4 -12 2 -57 -5 -101 -12 -75 -7 -120 8
-68 6 25 6 25 13 -5 3 -16 6 38 5 121 -1 132 1 154 17 171 22 25 23 83 2 83
-21 0 -19 49 3 80 l17 25 5 -47 c4 -39 8 -46 20 -38 12 8 13 13 3 30 -15 24
-17 116 -3 125 6 3 10 23 10 43 0 20 3 54 7 75 5 34 9 38 29 34 25 -4 34 13
34 71 0 22 5 32 15 32 10 0 15 10 15 34 0 18 -7 39 -15 46 -20 17 -21 128 -1
144 20 16 27 92 10 107 -14 12 -19 84 -8 113 3 9 12 16 19 16 20 0 30 59 12
73 -17 14 -32 133 -17 142 13 8 13 75 0 75 -6 0 -10 30 -10 69 0 52 4 70 15
75 17 6 20 42 5 51 -5 3 -10 40 -10 81 0 59 3 74 15 74 21 0 20 58 -1 81 -11
12 -16 37 -16 78 0 42 5 65 16 76 20 21 21 88 1 105 -19 16 -20 107 -1 129 11
13 12 31 5 88 -13 100 -23 123 -54 123 -23 0 -25 -4 -25 -44z"/>
<path d="M4380 3793 c0 -17 8 -37 17 -44 15 -13 16 -11 9 21 -9 47 -26 63 -26
23z"/>
<path d="M1850 3765 c0 -28 4 -44 10 -40 6 3 10 21 10 40 0 19 -4 37 -10 40
-6 4 -10 -12 -10 -40z"/>
<path d="M3910 3796 c0 -8 -7 -16 -15 -20 -19 -7 -19 -43 0 -53 12 -7 13 -18
3 -73 -6 -36 -16 -69 -23 -75 -18 -16 -27 -65 -15 -80 8 -9 9 -33 4 -72 l-8
-58 -9 53 c-5 30 -12 51 -15 47 -9 -8 -2 -88 8 -100 14 -16 11 -373 -2 -395
-8 -13 -9 -25 -2 -40 6 -13 7 -52 2 -99 -4 -42 -6 -86 -3 -98 l5 -23 25 22
c20 17 25 31 25 69 0 34 -4 49 -16 53 -15 6 -16 18 -10 98 4 51 11 97 15 103
10 13 21 92 13 99 -8 9 -2 129 8 141 13 16 16 120 4 136 -15 21 -6 129 12 129
11 0 14 24 14 125 0 77 -4 125 -10 125 -5 0 -10 -6 -10 -14z"/>
<path d="M3223 3793 c-19 -4 -21 -9 -16 -41 4 -29 43 -107 49 -99 1 1 4 35 8
75 6 76 7 74 -41 65z"/>
<path d="M3831 3783 c0 -4 4 -17 9 -28 8 -19 9 -19 9 2 1 12 -3 25 -9 28 -5 3
-10 3 -9 -2z"/>
<path d="M4457 3770 c-5 -21 0 -30 19 -30 7 0 10 8 7 20 -8 28 -20 33 -26 10z"/>
<path d="M2765 3725 c-4 -22 -14 -46 -22 -53 -15 -15 -16 -56 -3 -87 7 -16 9
-13 9 18 1 20 5 37 10 37 11 0 25 79 19 106 -3 12 -8 5 -13 -21z"/>
<path d="M3827 3653 c-2 -21 0 -42 4 -47 5 -6 9 10 9 37 0 57 -6 61 -13 10z"/>
<path d="M3992 3676 c-32 -10 -32 -11 -26 -56 3 -25 12 -49 18 -55 7 -5 17
-18 23 -29 8 -15 12 -1 17 64 4 45 6 83 4 84 -2 1 -18 -3 -36 -8z"/>
<path d="M3423 3668 c-6 -7 -13 -36 -16 -64 -5 -43 -3 -55 14 -70 19 -17 19
-16 19 64 0 45 -2 82 -4 82 -2 0 -8 -6 -13 -12z"/>
<path d="M4350 3594 l0 -57 20 26 c11 14 20 33 20 44 0 10 -9 24 -20 31 -19
12 -20 10 -20 -44z"/>
<path d="M4417 3623 c-11 -10 -8 -51 3 -58 6 -4 10 8 10 29 0 37 -2 41 -13 29z"/>
<path d="M4496 3593 c-3 -3 -6 -21 -6 -40 0 -25 4 -33 18 -33 15 0 17 6 14 35
-4 36 -14 50 -26 38z"/>
<path d="M3642 3570 c0 -14 2 -19 5 -12 2 6 2 18 0 25 -3 6 -5 1 -5 -13z"/>
<path d="M3231 3529 c-20 -18 -22 -29 -18 -66 3 -25 12 -52 20 -60 14 -14 16
-10 22 39 4 29 5 66 3 81 l-3 28 -24 -22z"/>
<path d="M4441 3484 c0 -11 3 -14 6 -6 3 7 2 16 -1 19 -3 4 -6 -2 -5 -13z"/>
<path d="M2720 3472 c0 -10 -4 -22 -9 -27 -14 -16 -23 -83 -11 -90 6 -4 10 6
10 23 0 16 7 46 15 65 18 43 18 47 5 47 -5 0 -10 -8 -10 -18z"/>
<path d="M4348 3374 c-3 -61 -10 -109 -17 -118 -9 -11 -10 -20 -2 -35 14 -25
14 -138 1 -146 -16 -10 -12 -46 6 -60 26 -19 30 -98 6 -143 -23 -44 -19 -85 9
-113 26 -26 24 -49 -6 -81 -19 -21 -25 -38 -25 -72 0 -25 5 -48 10 -51 15 -9
12 -78 -5 -118 -20 -49 -19 -105 4 -149 22 -44 17 -78 -15 -113 -27 -30 -30
-52 -9 -79 22 -30 18 -80 -8 -113 -20 -24 -26 -46 -35 -152 -6 -69 -10 -127
-8 -129 4 -4 8 20 26 159 13 96 21 115 44 106 12 -5 16 -21 16 -71 0 -55 -3
-67 -20 -76 -11 -6 -20 -21 -20 -33 0 -12 9 -30 20 -40 14 -12 20 -29 20 -57
0 -28 -6 -45 -20 -57 -24 -21 -26 -39 -5 -47 10 -3 15 -19 15 -42 0 -27 -7
-43 -30 -64 -40 -37 -39 -70 1 -93 29 -16 31 -20 26 -60 -4 -32 -14 -49 -40
-72 -25 -21 -36 -42 -41 -71 -7 -39 -6 -42 18 -48 37 -9 37 -66 1 -94 -34 -27
-34 -74 0 -96 17 -11 25 -26 25 -44 0 -33 -8 -45 -37 -61 -14 -7 -23 -21 -23
-34 0 -13 9 -26 23 -32 33 -15 37 -82 5 -107 l-23 -18 25 -20 25 -20 -32 0
c-37 0 -49 -23 -39 -74 5 -24 2 -37 -10 -47 -15 -12 -15 -8 -9 46 4 33 6 104
6 158 -1 73 3 104 14 120 17 24 20 83 5 92 -16 10 -12 121 5 135 17 14 21 86
5 92 -5 2 -13 31 -16 65 -6 53 -4 64 10 69 20 8 21 43 0 58 -22 16 -38 94 -23
112 18 21 29 17 29 -12 0 -15 4 -23 11 -19 6 4 10 40 9 88 -1 45 1 89 4 97 4
9 3 34 -2 55 l-8 40 -9 -60 c-4 -33 -7 -70 -6 -82 2 -15 -3 -23 -13 -23 -20 0
-34 105 -17 132 15 25 14 88 -3 107 -22 26 -36 100 -24 127 13 29 -3 74 -27
74 -13 0 -15 -23 -15 -159 0 -116 -3 -160 -12 -163 -10 -4 -10 -13 0 -45 17
-59 16 -149 -3 -157 -23 -8 -19 -63 5 -76 16 -9 20 -21 20 -64 0 -37 -5 -58
-16 -67 -12 -10 -15 -25 -11 -58 3 -25 10 -47 16 -49 18 -6 14 -141 -4 -148
-21 -8 -20 -70 2 -82 13 -8 15 -20 10 -73 -4 -34 -14 -70 -23 -80 -14 -16 -13
-19 7 -38 19 -17 21 -27 16 -69 -3 -26 -14 -62 -24 -80 -15 -26 -16 -35 -5
-52 12 -19 10 -20 -43 -20 -30 0 -55 5 -55 10 0 6 7 10 15 10 22 0 19 47 -5
77 -11 14 -20 41 -20 60 0 27 6 37 30 51 37 21 38 45 5 60 -47 22 -59 90 -21
125 13 13 27 38 31 57 5 30 2 39 -19 59 -35 33 -34 70 4 106 25 24 30 37 30
75 0 35 -5 52 -21 66 -33 30 -41 51 -28 77 7 12 18 26 25 30 19 11 18 91 -1
107 -8 7 -15 29 -15 50 0 37 17 60 53 73 23 9 22 52 -3 77 -20 20 -27 74 -12
96 4 6 17 16 30 23 29 15 28 32 -3 59 -29 25 -32 59 -10 102 8 16 11 31 7 34
-19 11 -30 -13 -35 -74 -9 -114 -38 -374 -42 -378 -8 -8 -34 46 -40 85 -6 36
-4 44 14 55 14 9 21 23 21 45 0 18 -4 33 -9 33 -5 0 -5 17 0 41 6 23 8 47 6
53 -2 6 -10 -14 -17 -44 -20 -88 -29 -92 -31 -15 -1 67 -1 68 -11 30 -5 -22
-7 -60 -5 -84 3 -25 0 -56 -5 -70 l-11 -26 -8 29 c-5 17 -10 76 -11 134 -3 91
-1 105 15 117 27 20 21 98 -8 105 -14 4 -21 16 -23 39 -3 30 -4 32 -17 14 -16
-20 -20 -83 -6 -83 5 0 11 -6 14 -12 2 -7 3 -5 2 4 -2 10 0 20 5 23 10 6 22
-54 13 -68 -4 -6 -10 -27 -14 -47 l-7 -35 -1 37 c0 20 -5 40 -11 43 -5 3 -10
14 -10 24 0 10 -9 21 -19 24 -23 6 -31 0 -31 -24 0 -9 -4 -19 -9 -21 -5 -2 -5
-28 1 -62 8 -43 7 -65 -1 -78 -9 -15 -7 -21 9 -35 11 -10 20 -30 20 -45 0 -18
5 -28 14 -28 42 0 62 -73 28 -103 -26 -24 -32 -21 -32 14 0 17 -4 28 -10 24
-15 -9 -12 -61 5 -75 8 -7 15 -19 15 -27 0 -8 12 -24 27 -37 29 -25 36 -74 13
-100 -22 -28 -30 -17 -32 47 -1 57 -2 58 -5 14 -3 -30 -10 -50 -19 -54 -20 -7
-19 -92 1 -99 11 -5 15 -23 15 -79 0 -52 -4 -76 -15 -85 -19 -16 -19 -41 0
-66 19 -25 19 -84 0 -120 -17 -34 -19 -66 -5 -80 14 -14 0 -104 -16 -111 -19
-7 -18 -43 1 -43 12 0 15 -13 15 -59 0 -43 -4 -60 -15 -65 -22 -8 -18 -49 5
-64 11 -7 20 -17 20 -22 0 -11 -54 -3 -83 12 -25 13 -28 7 -17 -33 22 -73 50
-283 50 -369 l0 -90 143 0 143 0 12 57 c7 32 8 61 3 67 -5 6 -15 37 -22 70
-12 55 -11 59 7 73 10 8 19 24 20 36 4 109 3 106 35 122 17 9 38 14 46 11 20
-8 73 50 73 80 0 13 3 24 8 24 4 0 13 14 21 31 12 28 17 30 47 24 40 -7 46 11
14 40 -29 27 -27 80 5 101 l25 16 -20 25 c-30 39 -24 107 11 118 27 9 26 61
-1 70 -26 8 -27 54 -1 86 24 31 18 71 -12 84 -31 14 -33 63 -7 122 18 41 21
59 15 123 -4 57 -2 84 10 112 8 21 15 49 15 63 0 27 9 32 28 13 18 -18 16
-147 -3 -154 -18 -7 -10 -80 11 -104 19 -22 23 -142 5 -156 -15 -12 -7 -74 10
-74 13 0 11 -97 -2 -106 -7 -4 -9 -32 -4 -86 5 -59 4 -87 -6 -105 -10 -19 -10
-28 -1 -43 17 -27 15 -92 -3 -116 -19 -26 -19 -42 3 -48 9 -2 26 -7 38 -10 18
-6 21 -2 22 25 0 18 6 37 11 42 14 14 14 57 0 57 -7 0 -8 28 -3 90 4 63 3 94
-5 104 -7 9 -11 51 -10 117 2 125 -5 260 -20 349 -6 36 -8 95 -4 131 4 44 2
69 -6 73 -17 11 -14 103 4 110 8 3 15 15 15 26 0 11 -7 23 -15 26 -17 7 -20
56 -5 84 6 11 7 50 3 95 l-6 76 -29 -6 c-36 -8 -36 4 2 40 29 28 41 75 20 75
-6 0 -22 11 -35 25 -20 19 -25 34 -25 72 0 41 4 52 30 75 38 33 40 69 5 92
-34 23 -35 87 -2 119 32 30 41 56 21 64 -17 6 -44 54 -44 79 0 21 48 74 67 74
7 0 13 11 13 25 0 14 -6 25 -14 25 -7 0 -25 10 -40 21 -23 18 -27 28 -24 63 3
37 6 42 36 51 22 6 32 15 32 30 0 11 3 29 5 40 4 15 -2 24 -25 37 -27 15 -30
22 -30 67 0 43 4 53 25 67 35 23 33 59 -5 79 -51 26 -71 165 -24 165 7 0 16
15 19 33 6 29 2 38 -23 63 l-30 30 -4 -102z m-509 -1523 c-1 -68 -17 -100 -18
-36 -1 28 -4 60 -7 73 -5 18 -3 21 10 16 12 -4 16 -19 15 -53z m561 -26 c0
-36 -4 -65 -10 -65 -17 0 -33 81 -21 107 19 41 31 25 31 -42z m-521 -62 c-1
-47 -1 -48 -11 -16 -6 18 -8 39 -5 47 11 29 17 17 16 -31z m508 -128 c-8 -8
-17 -11 -21 -8 -12 13 -6 57 12 76 17 19 17 18 20 -17 2 -22 -2 -42 -11 -51z
m-400 -308 c-8 -55 -10 -92 -4 -103 14 -25 1 -94 -21 -117 -20 -19 -20 -19
-27 12 -4 17 -4 49 0 70 3 21 1 58 -5 81 -10 38 -5 178 7 167 2 -3 4 -46 4
-97 0 -80 2 -90 15 -80 11 10 13 30 8 108 -7 86 -5 96 12 109 18 13 19 11 22
-25 2 -21 -3 -77 -11 -125z m-89 -94 c2 -35 -2 -54 -12 -62 -15 -13 -16 -10
-29 107 -3 31 -3 31 17 18 16 -10 22 -26 24 -63z m1 -225 l-1 -73 -9 60 c-4
33 -11 73 -13 88 -5 25 -4 26 9 13 11 -10 15 -35 14 -88z m56 -18 c18 -35 19
-72 3 -88 -21 -21 -38 -14 -38 16 0 32 11 102 16 102 2 0 10 -13 19 -30z m-58
-167 c-3 -10 -5 -4 -5 12 0 17 2 24 5 18 2 -7 2 -21 0 -30z m42 -38 c48 -24
54 -63 16 -100 -43 -44 -55 -34 -55 45 0 39 2 70 5 70 4 0 19 -7 34 -15z m11
-215 c13 -23 13 -70 1 -70 -44 0 -82 44 -64 72 4 7 8 16 9 21 1 4 2 9 3 12 2
11 41 -16 51 -35z m223 -97 c-7 -2 -19 -2 -25 0 -7 3 -2 5 12 5 14 0 19 -2 13
-5z"/>
<path d="M4166 3429 c-10 -50 -7 -69 9 -69 11 0 15 12 15 44 0 53 -15 69 -24
25z"/>
<path d="M4438 3436 c-3 -14 -2 -42 2 -63 7 -34 8 -32 9 25 1 65 -3 79 -11 38z"/>
<path d="M4000 3433 c0 -5 -11 -15 -24 -21 -19 -8 -25 -21 -31 -62 -6 -43 -4
-55 13 -73 11 -12 21 -28 24 -36 2 -8 9 32 16 89 7 57 10 105 7 108 -3 3 -5 1
-5 -5z"/>
<path d="M3642 3375 c0 -16 2 -22 5 -12 2 9 2 23 0 30 -3 6 -5 -1 -5 -18z"/>
<path d="M3403 3363 c-22 -8 -14 -60 13 -100 l27 -38 -7 40 c-3 22 -6 55 -6
73 0 32 -4 35 -27 25z"/>
<path d="M4460 3325 c0 -19 5 -35 10 -35 6 0 10 16 10 35 0 19 -4 35 -10 35
-5 0 -10 -16 -10 -35z"/>
<path d="M2686 3294 c-4 -20 -5 -38 -2 -41 2 -3 8 11 12 31 3 21 4 39 1 42 -2
3 -8 -11 -11 -32z"/>
<path d="M4941 3295 c1 -19 18 -51 18 -35 0 8 -4 22 -9 30 -5 8 -9 11 -9 5z"/>
<path d="M2660 3216 c-5 -15 -10 -39 -9 -54 1 -20 5 -13 14 23 15 54 12 74 -5
31z"/>
<path d="M3616 3223 c-4 -9 0 -23 9 -32 13 -14 15 -12 15 17 0 34 -14 43 -24
15z"/>
<path d="M4974 3188 c3 -13 11 -48 17 -78 14 -61 34 -91 55 -83 12 5 11 10 -7
29 -18 20 -21 30 -15 69 7 54 -6 85 -36 85 -16 0 -19 -4 -14 -22z"/>
<path d="M3965 3177 c-6 -12 -20 -26 -33 -32 -22 -9 -23 -14 -17 -70 3 -33 6
-80 6 -105 1 -25 3 -38 6 -30 4 8 10 18 16 22 5 3 12 39 14 79 2 40 8 91 14
112 12 44 8 57 -6 24z"/>
<path d="M4470 3141 c0 -29 18 -71 30 -71 17 0 12 77 -6 84 -23 9 -24 8 -24
-13z"/>
<path d="M3630 3109 c0 -24 4 -38 10 -34 6 3 10 22 10 41 0 19 -4 34 -10 34
-5 0 -10 -18 -10 -41z"/>
<path d="M2635 3072 c-3 -15 -16 -35 -28 -44 -19 -15 -20 -20 -9 -39 11 -17
11 -31 2 -70 -7 -27 -16 -49 -21 -49 -17 0 -41 -74 -30 -92 6 -10 7 -28 1 -50
-5 -18 -14 -52 -20 -75 -6 -25 -17 -43 -25 -43 -19 0 -40 -77 -27 -104 11 -26
-13 -125 -35 -141 -11 -8 -16 -35 -18 -103 -3 -96 -13 -122 -46 -122 -24 0
-26 -42 -4 -60 13 -11 15 -8 15 18 0 38 9 44 50 35 l33 -6 -7 -76 c-6 -75 -25
-274 -26 -278 0 -2 -7 -3 -15 -3 -19 0 -31 -48 -17 -70 13 -21 -3 -79 -32
-123 -13 -19 -20 -48 -21 -90 -2 -80 -15 -150 -29 -159 -6 -4 -11 -48 -13
-103 -2 -100 -9 -139 -23 -130 -13 8 -23 -80 -12 -102 14 -26 -4 -102 -30
-125 -16 -15 -18 -28 -16 -101 l3 -85 45 -5 c25 -3 48 -3 52 -1 4 3 4 37 1 76
-5 61 -4 73 12 84 15 11 17 23 12 72 -8 70 1 132 18 132 18 0 25 62 9 80 -10
12 -11 30 -3 85 5 37 14 74 20 81 19 23 38 101 28 111 -10 10 16 148 31 168
12 15 15 48 6 63 -12 19 4 92 24 112 10 10 16 20 14 23 -10 10 -21 183 -12
194 14 18 13 156 -1 161 -16 5 -14 39 4 46 17 6 20 47 4 63 -15 15 -2 108 17
124 16 13 19 50 5 65 -9 8 -7 29 14 122 3 13 13 22 24 22 26 0 41 94 19 117
-12 11 -13 24 -5 66 5 29 16 57 24 64 20 15 37 92 24 107 -13 16 9 106 26 106
8 0 13 12 13 34 0 44 -16 55 -25 18z"/>
<path d="M3609 3036 c-9 -18 -9 -30 -2 -37 7 -7 12 0 17 22 3 18 4 34 1 37 -2
2 -10 -7 -16 -22z"/>
<path d="M4582 3000 c0 -19 2 -27 5 -17 2 9 2 25 0 35 -3 9 -5 1 -5 -18z"/>
<path d="M3616 2934 c-3 -8 -6 -33 -6 -55 0 -32 3 -39 20 -39 17 0 20 7 20 44
0 47 -22 80 -34 50z"/>
<path d="M4490 2911 c0 -30 4 -41 13 -39 19 7 20 35 3 60 -16 22 -16 21 -16
-21z"/>
<path d="M3912 2890 c0 -14 2 -19 5 -12 2 6 2 18 0 25 -3 6 -5 1 -5 -13z"/>
<path d="M3903 2831 c0 -21 4 -28 14 -24 16 6 14 45 -3 50 -6 2 -11 -9 -11
-26z"/>
<path d="M3587 2677 c-3 -29 -9 -68 -14 -87 -6 -22 -5 -45 1 -61 6 -18 5 -43
-3 -80 -23 -104 -31 -168 -22 -192 13 -34 -3 -108 -28 -128 -25 -20 -26 -37
-5 -64 15 -20 12 -87 -6 -110 -4 -5 -4 -19 1 -30 8 -19 8 -19 15 3 3 12 13 22
20 22 41 0 75 93 39 106 -25 10 -39 74 -26 122 7 23 16 42 21 42 5 0 13 16 19
36 8 30 7 38 -11 56 -17 17 -19 28 -14 66 4 27 15 56 28 69 19 20 20 27 10 41
-30 42 -35 63 -26 100 6 25 18 41 37 50 35 17 34 43 -2 70 l-29 21 -5 -52z"/>
<path d="M3903 2670 c0 -25 2 -35 4 -22 2 12 2 32 0 45 -2 12 -4 2 -4 -23z"/>
<path d="M3828 2564 c-4 -76 0 -104 16 -104 9 0 16 21 20 62 6 53 5 64 -12 81
-20 19 -20 19 -24 -39z"/>
<path d="M3822 2430 c0 -14 2 -19 5 -12 2 6 2 18 0 25 -3 6 -5 1 -5 -13z"/>
<path d="M3292 2380 c0 -14 2 -19 5 -12 2 6 2 18 0 25 -3 6 -5 1 -5 -13z"/>
<path d="M3810 2281 c0 -46 4 -81 10 -81 10 0 15 18 23 80 4 25 -1 42 -14 59
l-19 23 0 -81z"/>
<path d="M3880 2202 c-3 -45 -2 -82 1 -82 12 0 14 24 9 95 l-6 70 -4 -83z"/>
<path d="M2081 2244 c0 -11 3 -14 6 -6 3 7 2 16 -1 19 -3 4 -6 -2 -5 -13z"/>
<path d="M2580 2100 c0 -5 5 -10 10 -10 6 0 10 5 10 10 0 6 -4 10 -10 10 -5 0
-10 -4 -10 -10z"/>
<path d="M2558 2063 c-21 -25 -13 -105 13 -121 18 -12 19 -9 19 50 0 76 -10
97 -32 71z"/>
<path d="M3812 2050 c0 -14 2 -19 5 -12 2 6 2 18 0 25 -3 6 -5 1 -5 -13z"/>
<path d="M3110 2050 c0 -5 5 -10 10 -10 6 0 10 5 10 10 0 6 -4 10 -10 10 -5 0
-10 -4 -10 -10z"/>
<path d="M2370 2008 c-17 -65 -18 -68 -34 -68 -21 0 -29 -31 -11 -49 9 -10 15
-11 15 -3 0 6 13 26 29 45 38 43 48 81 27 102 -14 14 -16 11 -26 -27z"/>
<path d="M3155 2039 c-4 -5 0 -18 8 -27 9 -9 17 -30 20 -47 3 -20 5 -15 4 15
0 25 3 51 7 58 5 8 0 12 -13 12 -11 0 -23 -5 -26 -11z"/>
<path d="M3087 2003 c-11 -10 -8 -101 3 -108 6 -4 10 17 10 54 0 62 -1 66 -13
54z"/>
<path d="M3724 1895 c-3 -19 -10 -35 -15 -35 -12 0 -12 -43 0 -55 5 -6 5 -43
0 -85 -5 -46 -5 -78 1 -84 16 -16 12 -103 -5 -110 -10 -3 -15 -19 -15 -45 0
-31 4 -40 21 -44 20 -5 21 -11 17 -73 -3 -55 -8 -70 -26 -82 -26 -17 -30 -82
-7 -122 20 -36 18 -74 -5 -95 -11 -10 -20 -30 -20 -44 0 -15 9 -44 20 -66 11
-22 20 -48 20 -58 0 -27 -19 -57 -35 -57 -19 0 -19 -37 0 -70 19 -34 19 -99 0
-106 -19 -8 -19 -21 1 -41 11 -11 15 -30 12 -59 -3 -47 8 -60 43 -49 25 8 25
51 -1 90 -26 40 -26 81 1 95 19 11 20 13 4 37 -20 30 -15 101 7 118 26 19 29
46 8 80 -22 36 -19 82 6 92 18 7 18 70 0 80 -37 22 -51 138 -20 164 16 14 16
47 -2 186 -5 44 -4 54 14 69 16 13 19 25 15 53 -3 20 -11 43 -19 51 -26 31
-28 70 -3 96 23 24 23 25 5 55 -19 32 -16 99 5 125 6 8 5 13 -5 17 -11 5 -17
-3 -22 -28z"/>
<path d="M4863 1910 c-17 -10 -34 -16 -37 -13 -10 11 -7 -47 4 -67 6 -12 9
-81 8 -172 -3 -136 -4 -149 -15 -118 -12 33 -12 32 -7 -25 3 -33 10 -65 15
-71 5 -6 11 -62 14 -125 3 -63 7 -145 10 -184 10 -129 5 -198 -14 -220 -22
-24 -17 -45 9 -45 40 0 54 -79 23 -130 -16 -28 -16 -29 16 -59 19 -18 30 -24
27 -14 -12 29 -19 134 -10 132 5 -1 20 -1 34 0 23 1 25 5 28 56 2 30 -1 55 -6
55 -15 0 -25 71 -13 83 16 16 13 44 -5 51 -13 5 -14 19 -8 89 6 72 4 85 -10
90 -12 5 -16 19 -16 56 0 27 5 53 10 56 17 10 12 85 -5 85 -11 0 -15 13 -15
54 0 30 5 58 10 61 12 7 13 72 2 79 -5 3 -6 68 -4 144 2 77 0 147 -5 155 -8
15 -11 15 -40 -3z m24 -1032 c-3 -8 -6 -5 -6 6 -1 11 2 17 5 13 3 -3 4 -12 1
-19z"/>
<path d="M3497 1892 c-12 -18 3 -174 17 -169 14 5 21 67 7 67 -5 0 -11 26 -13
58 -2 34 -6 52 -11 44z"/>
<path d="M3952 1870 c0 -19 2 -27 5 -17 2 9 2 25 0 35 -3 9 -5 1 -5 -18z"/>
<path d="M4774 1864 c3 -9 6 -21 6 -27 0 -8 3 -8 11 0 13 13 5 43 -12 43 -6 0
-8 -7 -5 -16z"/>
<path d="M2592 1828 c-1 -10 -16 -28 -33 -40 -32 -24 -32 -26 -13 -100 8 -36
-3 -78 -20 -78 -18 0 -27 -58 -11 -68 19 -11 35 -48 35 -82 0 -29 -37 -80 -58
-80 -5 0 -13 -21 -19 -46 -9 -40 -8 -51 9 -80 29 -49 10 -136 -32 -149 -27 -9
-36 -64 -16 -103 21 -41 20 -68 -3 -91 -28 -28 -36 -77 -15 -89 24 -13 14 -95
-15 -126 -27 -28 -26 -33 3 -38 48 -9 85 61 59 113 -24 48 3 129 42 129 7 0
16 16 19 35 6 28 2 41 -13 62 -31 39 -22 113 13 113 20 0 25 78 9 117 -7 18
-13 46 -13 63 0 39 26 90 45 90 19 0 29 42 20 83 -10 47 -7 119 5 127 7 4 10
50 7 131 -1 68 -4 116 -5 107z"/>
<path d="M4793 1719 c4 -13 7 -35 7 -48 0 -18 3 -22 11 -14 13 13 3 69 -13 79
-8 5 -9 -1 -5 -17z"/>
<path d="M3267 1653 c-3 -15 -1 -36 3 -47 7 -16 9 -9 9 27 1 52 -4 61 -12 20z"/>
<path d="M3392 1630 c-13 -21 -15 -49 -6 -74 8 -22 29 0 37 41 8 40 -13 62
-31 33z"/>
<path d="M3471 1580 c-1 -31 4 -61 10 -67 13 -13 3 -93 -12 -93 -17 0 -9 -57
11 -75 28 -25 27 -88 -1 -116 -18 -18 -20 -29 -16 -77 3 -32 8 -70 11 -87 8
-38 -11 -76 -47 -93 -32 -16 -34 -35 -7 -64 11 -12 20 -28 20 -35 0 -22 -28
-70 -45 -76 -24 -10 -18 -46 9 -57 35 -13 49 -63 31 -106 -8 -19 -21 -37 -30
-40 -18 -7 -20 -34 -2 -34 29 0 57 13 57 27 0 8 13 18 28 24 25 9 28 14 26 51
-1 32 -7 44 -23 52 -29 13 -28 64 4 110 27 40 33 86 11 86 -18 0 -29 81 -16
116 6 14 17 32 25 40 18 18 19 46 4 111 -9 39 -8 57 4 93 14 42 14 46 -4 69
-25 31 -24 76 1 108 29 37 27 97 -3 110 -13 6 -28 26 -34 44 -11 33 -11 33
-12 -21z"/>
<path d="M4931 1614 c0 -11 3 -14 6 -6 3 7 2 16 -1 19 -3 4 -6 -2 -5 -13z"/>
<path d="M1768 1546 c-35 -70 -51 -115 -27 -73 6 9 14 15 18 13 12 -8 53 87
49 113 -2 18 -12 5 -40 -53z"/>
<path d="M4737 1573 c-4 -7 0 -27 9 -45 10 -18 21 -46 25 -63 6 -27 7 -25 8
16 1 32 -4 49 -13 52 -8 3 -16 16 -18 29 -2 15 -6 19 -11 11z"/>
<path d="M3633 1485 c0 -27 2 -38 4 -22 2 15 2 37 0 50 -2 12 -4 0 -4 -28z"/>
<path d="M3392 1497 c-1 -15 -9 -42 -18 -60 -9 -17 -18 -56 -19 -87 -2 -64
-15 -141 -25 -155 -9 -12 -24 -256 -21 -346 2 -49 -2 -69 -13 -78 -21 -18 -22
-73 -1 -65 10 4 15 0 16 -12 2 -65 8 -97 21 -110 13 -13 13 -8 2 47 -7 35 -11
66 -8 71 3 4 7 58 9 120 2 61 8 114 13 117 5 3 9 35 8 71 0 78 9 120 28 120
28 0 37 88 12 110 -11 8 -13 25 -9 63 3 29 9 57 13 62 14 19 21 67 11 78 -5 7
-11 28 -14 47 -3 30 -4 31 -5 7z"/>
<path d="M4962 1400 c0 -14 2 -19 5 -12 2 6 2 18 0 25 -3 6 -5 1 -5 -13z"/>
<path d="M3616 1378 c-10 -40 -6 -76 9 -82 13 -5 15 2 9 47 -8 62 -10 65 -18
35z"/>
<path d="M1682 1323 c-10 -34 -10 -36 3 -19 13 17 21 56 12 56 -2 0 -9 -17
-15 -37z"/>
<path d="M4787 1333 c-9 -14 9 -63 23 -63 6 0 8 5 5 11 -4 6 -10 22 -14 37 -4
16 -10 22 -14 15z"/>
<path d="M4971 1234 c0 -11 3 -14 6 -6 3 7 2 16 -1 19 -3 4 -6 -2 -5 -13z"/>
<path d="M3630 1205 c0 -22 -6 -38 -15 -41 -18 -7 -20 -45 -4 -61 17 -17 -7
-106 -32 -121 -18 -11 -19 -10 -14 15 11 58 13 148 4 159 -7 8 -6 14 1 19 5 3
10 11 10 18 0 6 -7 1 -16 -11 -13 -18 -15 -46 -13 -140 1 -64 -1 -147 -6 -183
-5 -46 -4 -68 4 -73 18 -11 14 -125 -4 -132 -23 -9 -18 -49 8 -62 12 -6 16
-11 9 -11 -21 -1 -3 -21 19 -21 16 0 19 7 19 40 0 25 5 43 13 46 10 3 13 27
13 82 -1 42 2 175 6 295 4 119 5 217 2 217 -2 0 -4 -16 -4 -35z m-44 -292 c-3
-10 -10 -37 -15 -61 -11 -52 -27 -72 -17 -23 3 18 6 49 6 67 0 24 5 34 16 34
10 0 14 -6 10 -17z"/>
<path d="M1628 1167 l-18 -42 20 24 c11 13 20 32 20 42 0 27 -3 24 -22 -24z"/>
<path d="M3291 1170 c1 -14 5 -38 9 -55 7 -29 8 -29 9 10 0 22 -4 47 -9 55 -8
12 -9 10 -9 -10z"/>
<path d="M4820 1145 c-14 -17 -15 -73 -2 -87 16 -17 27 10 22 56 -5 45 -6 48
-20 31z"/>
<path d="M4991 1044 c0 -11 3 -14 6 -6 3 7 2 16 -1 19 -3 4 -6 -2 -5 -13z"/>
<path d="M2691 925 c-1 -59 -18 -125 -31 -125 -15 0 -12 -48 5 -73 8 -12 15
-41 17 -65 l3 -43 45 3 c45 3 45 3 42 35 -3 27 -9 33 -28 33 -50 0 -52 81 -4
125 23 21 27 75 7 75 -19 0 -44 30 -50 60 -2 14 -5 3 -6 -25z"/>
<path d="M5012 890 c0 -19 2 -27 5 -17 2 9 2 25 0 35 -3 9 -5 1 -5 -18z"/>
<path d="M2992 788 c-17 -17 -15 -42 6 -61 17 -16 18 -14 14 21 -5 52 -6 54
-20 40z"/>
<path d="M2630 620 c20 -13 33 -13 25 0 -3 6 -14 10 -23 10 -15 0 -15 -2 -2
-10z"/>
<path d="M2571 234 c2 -43 8 -56 48 -104 25 -30 58 -67 73 -82 16 -14 28 -30
28 -35 0 -5 16 -10 35 -11 19 -2 35 0 35 4 0 6 -39 65 -50 74 -3 3 -31 39 -63
81 -31 42 -69 86 -82 99 l-25 24 1 -50z"/>
</g>
</svg>
