<?xml version="1.0" standalone="no"?>
<!DOCTYPE svg PUBLIC "-//W3C//DTD SVG 20010904//EN"
 "http://www.w3.org/TR/2001/REC-SVG-20010904/DTD/svg10.dtd">
<svg version="1.0" xmlns="http://www.w3.org/2000/svg"
 width="600.000000pt" height="840.000000pt" viewBox="0 0 600.000000 840.000000"
 preserveAspectRatio="xMidYMid meet">

<g transform="translate(0.000000,840.000000) scale(0.100000,-0.100000)"
fill="#000000" stroke="none">
<path d="M3415 8156 c-39 -14 -53 -33 -48 -65 3 -22 1 -21 -17 11 -20 37 -50
44 -50 12 0 -16 -33 -18 -61 -4 -15 9 -19 7 -19 -5 0 -12 -7 -10 -27 10 -37
34 -66 31 -74 -8 -2 -10 -8 -17 -14 -15 -5 2 -9 9 -7 16 5 21 -7 13 -49 -30
-22 -24 -37 -35 -33 -26 5 15 0 17 -45 14 -28 -1 -51 0 -51 4 0 10 -42 10 -62
-1 -10 -5 -18 -17 -18 -25 0 -8 -14 -33 -32 -55 -26 -33 -31 -47 -29 -84 2
-41 0 -45 -22 -45 -30 0 -63 -38 -77 -88 -11 -44 -5 -72 16 -72 8 0 15 -11 15
-27 3 -48 5 -57 17 -86 17 -40 16 -63 -2 -48 -11 9 -16 6 -24 -19 -7 -18 -18
-30 -29 -30 -15 0 -15 -2 -3 -9 8 -6 19 -7 25 -5 5 3 1 -2 -9 -10 -11 -9 -23
-16 -28 -16 -4 0 -5 -7 -2 -15 5 -12 9 -13 21 -3 11 9 16 9 24 -3 19 -31 -5
-61 -30 -36 -9 9 -11 8 -6 -5 4 -10 16 -18 28 -18 11 0 17 -3 14 -7 -4 -3 0
-15 10 -25 17 -19 18 -16 -25 -106 -14 -30 -14 -33 6 -55 17 -18 51 -135 52
-182 0 -5 7 -1 15 9 8 11 16 16 16 10 1 -5 2 -18 4 -29 3 -37 17 -85 24 -85 4
0 12 5 18 11 14 14 20 -12 32 -146 11 -110 33 -196 56 -215 23 -19 18 -71 -13
-149 -31 -76 -37 -86 -55 -86 -7 0 -11 -12 -9 -25 3 -33 109 -135 175 -169 21
-11 27 -21 25 -43 -1 -17 -8 -28 -18 -28 -13 0 -13 -1 0 -10 10 -6 16 -6 18 0
2 6 13 11 25 11 17 1 18 2 5 6 -22 6 -24 43 -2 43 8 0 13 -4 9 -9 -3 -5 20
-24 50 -41 31 -18 61 -41 68 -51 14 -23 33 -25 40 -5 3 8 24 20 46 27 23 7 41
16 41 22 0 5 11 7 25 5 14 -3 25 -1 25 3 0 5 15 9 33 10 31 0 84 17 60 18 -24
2 -13 21 11 21 30 0 86 51 86 78 0 11 -7 25 -15 32 -9 7 -15 8 -15 2 0 -5 -29
-28 -65 -51 l-65 -40 -81 6 c-70 5 -82 9 -91 28 -7 16 -6 30 4 51 21 41 2 114
-33 131 -14 7 -31 24 -39 37 -11 22 -11 31 4 64 17 39 18 39 66 34 29 -3 50 0
54 7 4 6 0 11 -10 11 -13 0 -14 3 -4 15 11 13 8 15 -18 15 -29 0 -58 19 -30
20 83 3 168 26 228 60 25 14 24 15 -25 23 -27 4 -78 10 -112 12 -35 2 -73 10
-85 17 -24 12 -79 12 -88 -2 -3 -4 -16 -11 -29 -15 -28 -9 -25 13 4 29 11 6
24 16 30 22 5 6 31 17 58 25 26 7 47 16 47 20 0 3 -9 14 -19 23 -14 13 -28 16
-51 11 -30 -7 -31 -6 -24 22 9 37 9 37 33 21 12 -8 18 -18 14 -21 -3 -4 1 -7
9 -7 17 0 28 40 28 105 0 51 -8 60 -32 38 -10 -9 -21 -13 -24 -10 -12 11 21
66 41 69 16 2 21 13 27 57 5 47 3 59 -18 93 -42 66 -119 136 -158 143 -31 6
-34 9 -25 26 5 11 14 17 19 14 21 -13 41 43 36 100 -5 60 1 77 43 130 26 33
68 50 86 35 8 -7 24 -2 48 14 20 14 39 21 42 16 3 -5 48 -8 100 -6 52 2 95 0
95 -5 0 -5 6 -9 13 -9 7 0 41 -11 76 -25 56 -22 101 -59 108 -89 13 -60 25
-101 32 -115 5 -9 11 -94 12 -189 2 -94 7 -172 10 -172 4 0 12 7 19 15 10 12
10 21 1 42 -16 35 -1 50 30 30 30 -19 69 -6 69 23 0 11 6 20 13 21 6 0 0 5
-15 11 -16 5 -28 16 -28 24 0 18 5 18 24 -2 26 -25 30 5 7 56 -19 43 -19 66 0
55 5 -4 9 -2 9 4 0 5 -8 14 -17 20 -14 7 -15 13 -7 21 9 9 16 6 28 -12 l17
-23 -6 30 c-5 21 -4 26 3 16 12 -17 34 -5 30 16 -2 9 12 31 30 49 40 40 40 52
2 65 -16 6 -30 15 -30 21 0 5 6 6 13 2 8 -5 8 -2 -2 9 -7 9 -9 17 -4 17 20 0
51 40 46 59 -3 14 1 23 11 27 9 3 16 13 16 21 0 13 2 13 18 2 16 -13 16 -12 3
4 -14 17 -16 17 -27 3 -6 -9 -16 -16 -22 -16 -6 0 -12 -5 -14 -11 -2 -5 -10
-8 -19 -4 -22 8 -22 53 0 64 28 16 33 40 13 66 -15 19 -22 21 -31 12 -7 -7 -5
3 4 20 9 18 20 35 26 38 5 4 9 14 8 23 0 11 -3 12 -6 5 -7 -18 -23 -16 -23 2
0 9 7 18 15 21 21 8 19 21 -5 29 -11 3 -20 13 -20 21 0 8 -8 14 -19 14 -10 0
-24 7 -31 15 -7 8 -21 15 -31 15 -11 0 -19 5 -19 12 0 6 -7 4 -18 -5 -23 -21
-32 -21 -32 -3 0 8 7 17 16 20 19 7 15 48 -6 53 -13 4 -13 3 0 -6 13 -9 13
-12 -2 -28 -17 -16 -18 -16 -18 2 0 11 -11 29 -25 39 -27 20 -25 37 4 31 10
-2 18 3 18 12 0 9 -7 13 -18 10 -11 -3 -21 4 -27 18 -17 36 -51 42 -74 14 -10
-13 -17 -34 -15 -46 3 -13 1 -23 -3 -23 -4 0 -10 18 -14 39 -7 46 -27 57 -52
30 -13 -15 -20 -16 -31 -7 -11 9 -17 9 -24 -3 -8 -11 -17 -6 -47 27 -35 38
-39 40 -67 30z m298 -75 c3 -14 -2 -20 -18 -23 -21 -4 -22 -3 -12 19 12 28 23
29 30 4z m-844 -38 c-13 -16 -12 -17 3 -5 24 19 42 11 26 -11 -9 -11 -20 -16
-31 -11 -20 7 -23 40 -4 47 19 7 21 -1 6 -20z m139 -28 c-3 -3 -9 2 -12 12 -6
14 -5 15 5 6 7 -7 10 -15 7 -18z m-197 -78 c-8 -8 -11 -7 -11 4 0 20 13 34 18
19 3 -7 -1 -17 -7 -23z m-58 -148 c6 -23 3 -27 -18 -31 -19 -4 -25 -1 -25 13
0 16 29 55 35 47 1 -2 5 -15 8 -29z m41 15 c9 -3 14 -10 11 -15 -7 -10 -35 0
-35 12 0 11 3 11 24 3z m1071 -25 c11 -17 -1 -21 -15 -4 -8 9 -8 15 -2 15 6 0
14 -5 17 -11z m72 -65 c-3 -3 -12 -4 -19 -1 -8 3 -5 6 6 6 11 1 17 -2 13 -5z
m-1197 -48 c0 -3 -4 -8 -10 -11 -5 -3 -10 -1 -10 4 0 6 5 11 10 11 6 0 10 -2
10 -4z m394 -572 c3 -7 -1 -15 -9 -17 -7 -3 -15 2 -18 12 -5 20 19 25 27 5z
m746 6 c0 -5 -4 -10 -10 -10 -5 0 -10 5 -10 10 0 6 5 10 10 10 6 0 10 -4 10
-10z m-1040 -79 c0 -73 -15 -88 -24 -24 -9 68 -8 83 9 83 12 0 15 -13 15 -59z
m230 29 c0 -5 -4 -10 -10 -10 -5 0 -10 5 -10 10 0 6 5 10 10 10 6 0 10 -4 10
-10z m47 4 c-3 -3 -12 -4 -19 -1 -8 3 -5 6 6 6 11 1 17 -2 13 -5z m-6 -80 c9
-11 13 -50 14 -128 0 -61 -1 -117 -3 -123 -6 -18 -31 -16 -38 2 -4 10 -14 13
-28 9 -18 -4 -28 3 -51 38 -41 61 -75 130 -75 151 0 38 20 59 50 52 16 -3 31
-2 35 4 10 17 81 13 96 -5z m-51 -363 c13 -26 13 -64 -1 -56 -6 4 -8 14 -5 22
4 9 -1 17 -14 20 -20 5 -25 15 -13 26 11 12 22 8 33 -12z m264 -10 c3 -5 -2
-11 -12 -13 -25 -7 -92 3 -92 13 0 12 97 12 104 0z m-247 -433 c-3 -7 -5 -2
-5 12 0 14 2 19 5 13 2 -7 2 -19 0 -25z m353 -88 c0 -5 -4 -10 -10 -10 -5 0
-10 5 -10 10 0 6 5 10 10 10 6 0 10 -4 10 -10z"/>
<path d="M3545 7233 c-66 -15 -107 -33 -112 -48 -6 -18 46 -16 134 6 66 15 88
17 99 8 11 -9 14 -8 14 5 0 9 -2 16 -4 16 -2 0 -19 6 -37 13 -28 11 -44 11
-94 0z"/>
<path d="M3475 7136 c-58 -25 -73 -80 -28 -97 29 -11 122 -3 138 12 5 5 18 9
30 9 11 0 26 4 34 9 12 8 12 12 2 25 -8 9 -10 16 -5 17 5 0 -9 9 -31 19 -47
22 -99 24 -140 6z m123 -50 c7 -8 -25 -36 -41 -36 -5 0 -6 7 -3 16 3 8 2 12
-4 9 -6 -3 -10 0 -10 9 0 15 43 16 58 2z m-118 -11 c0 -8 -4 -15 -10 -15 -5 0
-10 7 -10 15 0 8 5 15 10 15 6 0 10 -7 10 -15z"/>
<path d="M3355 6750 c3 -5 8 -10 11 -10 2 0 4 5 4 10 0 6 -5 10 -11 10 -5 0
-7 -4 -4 -10z"/>
<path d="M2785 6290 c3 -5 8 -10 11 -10 2 0 4 5 4 10 0 6 -5 10 -11 10 -5 0
-7 -4 -4 -10z"/>
<path d="M2750 6261 c0 -5 -3 -17 -6 -25 -5 -12 -2 -15 10 -10 9 3 14 10 11
14 -3 5 3 13 12 19 16 9 16 10 -4 11 -13 0 -23 -4 -23 -9z"/>
<path d="M2817 6200 c3 -11 9 -20 15 -20 5 0 4 9 -2 20 -6 11 -12 20 -14 20
-2 0 -2 -9 1 -20z"/>
<path d="M2713 6163 c-7 -2 -13 -12 -13 -21 0 -11 -3 -13 -8 -6 -5 9 -11 8
-20 -2 -11 -12 -9 -14 10 -14 15 0 27 9 35 25 6 14 10 25 10 24 -1 0 -8 -3
-14 -6z"/>
<path d="M2794 6144 c3 -8 0 -14 -6 -14 -6 0 -9 -2 -6 -5 8 -8 43 8 45 20 1 6
-7 12 -19 12 -13 1 -18 -3 -14 -13z"/>
<path d="M2937 6124 c-8 -8 1 -24 12 -24 4 0 8 7 8 15 0 16 -9 20 -20 9z"/>
<path d="M2863 6103 c-4 -10 -1 -19 6 -21 11 -4 11 -6 0 -13 -9 -6 -10 -9 -2
-9 16 0 26 17 13 25 -5 3 -10 11 -10 16 0 6 5 7 12 3 7 -4 8 -3 4 4 -10 16
-15 15 -23 -5z"/>
<path d="M2793 6093 c-13 -2 -23 -9 -23 -14 0 -13 13 -11 36 6 10 8 17 14 14
13 -3 0 -15 -3 -27 -5z"/>
<path d="M2780 6060 c-23 -7 -23 -8 -3 -9 12 -1 25 4 28 9 3 6 5 10 3 9 -2 -1
-14 -5 -28 -9z"/>
<path d="M2840 6032 c-8 -4 -16 -16 -18 -27 -2 -17 -1 -17 8 -5 8 12 12 13 19
2 7 -11 9 -10 14 3 4 9 3 13 -3 10 -6 -3 -10 -2 -10 4 0 5 6 12 13 14 6 3 8 5
2 6 -5 0 -17 -3 -25 -7z"/>
<path d="M2781 6016 c10 -14 11 -20 2 -23 -7 -2 -9 -11 -6 -18 4 -12 7 -12 20
1 14 14 14 18 -7 37 -18 17 -20 17 -9 3z"/>
<path d="M2741 6004 c0 -11 3 -14 6 -6 3 7 2 16 -1 19 -3 4 -6 -2 -5 -13z"/>
<path d="M2903 5964 c-6 -24 -6 -41 -2 -38 5 3 9 12 9 20 0 9 7 22 15 30 19
19 19 31 1 31 -8 0 -18 -18 -23 -43z"/>
<path d="M3259 5956 c14 -15 26 -26 28 -26 9 0 -24 40 -37 45 -8 4 -4 -5 9
-19z"/>
<path d="M3096 5931 c-11 -12 -17 -23 -14 -26 8 -9 41 21 37 34 -3 9 -11 6
-23 -8z"/>
<path d="M3297 5898 c3 -14 16 -37 30 -50 l26 -23 -16 30 c-8 17 -22 39 -30
50 -14 19 -15 19 -10 -7z"/>
<path d="M2926 5898 c3 -5 10 -6 15 -3 13 9 11 12 -6 12 -8 0 -12 -4 -9 -9z"/>
<path d="M2980 5900 c-9 -6 -10 -10 -3 -10 6 0 15 5 18 10 8 12 4 12 -15 0z"/>
<path d="M3025 5850 c-10 -11 -16 -22 -13 -25 3 -3 13 6 22 20 20 30 16 32 -9
5z"/>
<path d="M2139 5045 c-3 -6 -1 -30 5 -55 7 -31 11 -38 13 -24 5 26 -11 92 -18
79z"/>
<path d="M2160 4812 c0 -22 4 -43 9 -46 5 -4 7 12 4 36 -8 57 -13 61 -13 10z"/>
<path d="M2172 4720 c0 -19 2 -27 5 -17 2 9 2 25 0 35 -3 9 -5 1 -5 -18z"/>
<path d="M1568 4682 c-27 -1 -48 -7 -48 -12 0 -13 55 -56 110 -86 27 -15 52
-34 54 -43 3 -9 7 -162 8 -341 2 -246 0 -344 -11 -403 -11 -59 -13 -129 -8
-280 6 -200 20 -314 82 -697 14 -85 28 -216 31 -290 2 -74 12 -174 21 -222 18
-95 22 -62 -41 -378 -9 -45 -11 -108 -7 -203 5 -118 9 -140 24 -148 11 -7 17
-22 17 -47 0 -32 7 -43 49 -79 27 -23 71 -57 97 -74 27 -18 68 -50 91 -71 41
-36 63 -47 63 -30 0 4 -10 14 -22 22 -39 26 -78 68 -78 84 0 24 13 19 51 -20
18 -19 51 -45 72 -57 20 -11 37 -25 37 -29 0 -5 9 -4 20 2 23 12 27 30 7 30
-8 0 -20 11 -27 25 -7 14 -17 25 -22 25 -4 0 -8 6 -8 14 0 8 -6 21 -13 28 -21
21 -59 148 -64 216 -5 50 -9 62 -22 60 -25 -4 -28 68 -3 101 20 27 28 126 13
146 -10 12 -18 66 -31 225 -5 63 -14 150 -21 194 -8 59 -8 85 1 106 10 23 8
44 -8 112 -32 134 -35 159 -17 201 18 44 30 41 40 -10 4 -20 13 -46 21 -57 8
-11 14 -29 14 -39 0 -25 33 -121 43 -125 4 -2 7 -15 7 -28 0 -14 5 -35 12 -47
24 -46 36 -124 26 -173 -9 -43 -8 -48 13 -68 39 -34 69 -83 69 -111 0 -14 18
-62 41 -106 22 -45 39 -91 37 -102 -3 -18 -7 -15 -22 18 -12 27 -20 35 -24 25
-3 -8 -11 -18 -17 -22 -7 -4 -16 -20 -20 -35 -3 -15 -15 -46 -25 -69 -51 -111
-43 -299 17 -389 37 -56 43 -54 13 5 -16 31 -20 58 -19 127 0 92 12 179 21
153 3 -8 11 -37 17 -65 15 -63 57 -135 78 -135 13 0 13 2 2 16 -34 41 -51 151
-29 184 7 11 8 3 4 -26 -5 -36 -4 -42 16 -47 12 -3 24 -15 27 -27 3 -13 11
-19 19 -16 9 3 20 -7 29 -27 14 -32 14 -32 9 23 -3 30 -12 88 -20 129 -8 40
-14 99 -14 130 0 70 -63 264 -117 359 -110 196 -114 213 -116 570 -1 164 0
376 2 472 4 134 1 197 -12 269 -20 113 -15 440 9 611 8 58 18 162 21 233 6
130 19 168 26 75 2 -30 4 -13 4 37 0 50 -2 80 -4 67 -3 -17 -9 -22 -21 -17
-69 29 -300 110 -366 129 -94 27 -142 33 -208 28z m373 -356 c7 -19 16 -33 20
-31 4 3 13 -2 20 -11 11 -13 10 -24 -5 -66 -10 -28 -20 -76 -23 -107 -3 -31
-12 -69 -20 -84 -17 -34 -19 -123 -5 -227 12 -89 38 -208 53 -247 7 -16 14
-117 17 -232 5 -215 -6 -330 -36 -363 -21 -24 -42 -23 -42 3 0 11 -4 28 -10
38 -5 10 -14 45 -19 77 -6 32 -18 95 -26 139 -31 162 -47 283 -55 425 -9 151
-24 292 -33 306 -8 14 23 147 39 165 8 8 12 18 9 21 -7 6 43 117 63 140 8 10
12 27 9 39 -14 54 25 67 44 15z m296 -2478 c-3 -7 -5 -2 -5 12 0 14 2 19 5 13
2 -7 2 -19 0 -25z m13 -48 c0 -11 -2 -20 -4 -20 -2 0 -6 9 -9 20 -3 11 -1 20
4 20 5 0 9 -9 9 -20z m52 -62 c-8 -8 -9 -4 -5 13 4 13 8 18 11 10 2 -7 -1 -18
-6 -23z"/>
<path d="M4048 4586 c-7 -39 -4 -55 8 -44 3 3 4 23 2 44 l-3 39 -7 -39z"/>
<path d="M4400 4350 l-45 -7 58 -1 c45 -2 57 -5 57 -18 0 -10 6 -14 14 -11 8
3 33 11 55 18 81 24 -19 38 -139 19z"/>
<path d="M4200 4325 c-58 -7 -117 -14 -131 -14 -14 -1 -34 -7 -44 -15 -19 -14
-19 -15 -1 -35 11 -12 30 -72 48 -148 23 -103 30 -155 32 -269 l2 -140 36 -60
c56 -93 84 -153 163 -348 110 -275 168 -479 180 -637 9 -110 43 -291 77 -401
36 -115 36 -195 0 -267 -27 -54 -30 -187 -7 -293 9 -47 11 -77 4 -100 -11 -39
-12 -155 -1 -161 4 -3 16 -1 27 4 11 4 14 8 8 8 -22 2 -14 28 9 35 22 5 23 6
3 21 -20 16 -20 16 3 12 12 -3 22 -1 22 4 0 5 -7 9 -15 9 -17 0 -12 46 11 94
20 42 17 65 -12 103 -24 31 -25 39 -20 116 9 139 22 230 39 272 42 104 48 233
12 296 -40 72 -75 147 -75 162 0 25 -28 28 -33 4 -4 -28 -12 14 -25 138 -11
98 -47 241 -67 265 -7 8 -15 27 -19 43 -4 15 -17 51 -31 80 -35 74 -89 229
-110 317 -11 41 -36 109 -58 150 -38 74 -38 77 -43 205 -2 72 -8 159 -14 195
-5 36 -10 90 -10 121 0 41 -4 58 -15 63 -21 8 -19 32 5 56 11 11 22 31 26 44
7 29 53 54 118 62 26 4 49 11 52 15 6 11 -10 10 -146 -6z m387 -2357 c-3 -8
-6 -5 -6 6 -1 11 2 17 5 13 3 -3 4 -12 1 -19z"/>
<path d="M3015 3930 c-3 -5 1 -10 10 -10 9 0 13 5 10 10 -3 6 -8 10 -10 10 -2
0 -7 -4 -10 -10z"/>
<path d="M2830 3911 c0 -5 7 -11 14 -14 10 -4 13 -1 9 9 -6 15 -23 19 -23 5z"/>
<path d="M3043 3733 c9 -2 25 -2 35 0 9 3 1 5 -18 5 -19 0 -27 -2 -17 -5z"/>
<path d="M2403 3661 c-62 -10 -115 -20 -119 -23 -11 -12 8 -29 25 -23 34 14
167 45 196 45 17 0 37 5 45 10 20 13 -7 11 -147 -9z"/>
<path d="M2620 3670 c-13 -8 -12 -10 3 -10 9 0 17 5 17 10 0 12 -1 12 -20 0z"/>
<path d="M3276 1844 c-3 -9 -5 -70 -4 -137 2 -100 3 -107 5 -39 2 45 8 82 13
82 13 0 13 97 1 104 -5 3 -12 -1 -15 -10z"/>
<path d="M4725 1743 c-3 -16 -15 -47 -27 -71 -14 -28 -24 -74 -29 -130 -11
-139 -41 -208 -85 -199 -13 2 -24 1 -24 -2 1 -3 7 -34 14 -67 13 -63 14 -106
1 -136 -4 -10 -3 -18 3 -18 5 0 17 18 26 41 18 44 38 69 55 69 6 0 11 8 12 18
0 9 20 33 43 52 44 35 46 42 46 116 0 12 11 33 25 48 13 14 19 28 14 31 -15
10 -10 43 9 54 9 6 11 11 5 11 -16 0 -17 46 -2 56 8 5 7 10 -4 16 -9 5 -14 15
-11 23 3 8 -6 29 -20 48 -14 19 -26 41 -26 50 0 28 -19 19 -25 -10z"/>
<path d="M3310 1606 c-6 -19 -16 -36 -22 -38 -17 -6 14 -204 52 -338 11 -36
24 -84 30 -107 14 -57 22 -54 15 5 -3 26 -17 151 -31 277 -14 127 -27 231 -29
233 -2 2 -8 -12 -15 -32z"/>
<path d="M2333 1493 c9 -2 25 -2 35 0 9 3 1 5 -18 5 -19 0 -27 -2 -17 -5z"/>
<path d="M3332 1170 c0 -19 2 -27 5 -17 2 9 2 25 0 35 -3 9 -5 1 -5 -18z"/>
<path d="M1894 933 c-20 -168 -23 -376 -6 -478 11 -70 5 -97 -68 -280 -26 -66
-51 -132 -54 -147 l-6 -28 297 1 298 0 28 57 c41 85 34 130 -12 81 -13 -14
-28 -19 -47 -17 -25 3 -29 8 -32 40 -2 20 -10 42 -18 48 -16 14 -19 46 -5 54
10 7 27 100 23 130 -1 10 3 25 9 32 6 7 10 46 8 91 -2 107 12 194 39 228 12
15 22 37 22 47 0 11 8 32 19 46 10 15 21 37 25 49 6 18 17 23 72 28 36 4 98 5
137 2 l72 -5 -65 10 c-229 36 -613 124 -701 162 -13 6 -18 -16 -35 -151z"/>
<path d="M3397 958 c-3 -29 -10 -103 -16 -163 -6 -61 -11 -135 -11 -165 0 -30
-7 -98 -15 -150 -19 -121 -19 -261 0 -375 8 -50 15 -94 15 -98 0 -4 97 -7 215
-7 l215 1 -6 26 c-4 14 -2 28 3 32 12 8 53 88 53 104 0 7 -9 31 -21 52 -27 52
-27 140 -1 221 11 32 30 129 42 214 21 155 52 281 74 299 6 5 20 11 31 14 11
3 -14 2 -55 -1 -141 -13 -384 -5 -442 13 -29 10 -58 22 -65 27 -8 7 -13 -5
-16 -44z"/>
<path d="M2825 903 c11 -3 25 -9 31 -14 8 -6 14 -4 18 6 4 12 -2 15 -32 14
-21 -1 -29 -3 -17 -6z"/>
</g>
</svg>
