<?xml version="1.0" standalone="no"?>
<!DOCTYPE svg PUBLIC "-//W3C//DTD SVG 20010904//EN"
 "http://www.w3.org/TR/2001/REC-SVG-20010904/DTD/svg10.dtd">
<svg version="1.0" xmlns="http://www.w3.org/2000/svg"
 width="600.000000pt" height="840.000000pt" viewBox="0 0 600.000000 840.000000"
 preserveAspectRatio="xMidYMid meet">

<g transform="translate(0.000000,840.000000) scale(0.100000,-0.100000)"
fill="#000000" stroke="none">
<path d="M2928 8168 c32 -16 27 -29 -10 -28 -42 2 -65 -3 -79 -17 -6 -6 -18
-9 -26 -6 -7 3 -33 -1 -56 -10 -39 -14 -89 -28 -112 -32 -25 -3 -71 -27 -83
-43 -8 -11 -24 -15 -48 -13 -26 2 -44 -4 -72 -26 -20 -15 -55 -40 -77 -54 -36
-23 -105 -108 -105 -130 0 -3 -15 -12 -32 -19 -89 -33 -96 -37 -112 -87 -10
-32 -33 -65 -61 -93 -47 -46 -71 -104 -60 -141 4 -12 1 -21 -9 -25 -9 -3 -16
-12 -16 -19 0 -14 -22 -25 -49 -25 -30 0 -51 -33 -52 -81 -1 -70 -9 -99 -27
-99 -15 -1 -15 -2 1 -11 13 -8 15 -14 7 -29 -7 -13 -6 -20 3 -23 9 -4 8 -8 -3
-16 -20 -14 -38 -14 -43 2 -2 6 -3 5 -2 -4 1 -9 -3 -27 -10 -40 -14 -26 -8
-47 27 -86 15 -16 19 -29 14 -50 -5 -21 -4 -24 4 -13 16 24 12 51 -15 86 -14
18 -25 37 -25 43 0 15 18 14 23 -1 2 -7 3 -4 1 7 -2 14 6 26 26 37 23 13 30
24 30 47 0 21 7 34 23 42 12 7 25 16 28 22 9 13 31 -2 23 -15 -4 -6 -3 -8 2
-5 6 3 16 2 24 -3 10 -6 11 -14 4 -31 l-10 -23 -24 24 -23 23 6 -24 c4 -14 1
-30 -7 -39 -20 -22 -31 -80 -15 -80 7 0 10 -3 6 -6 -3 -4 0 -12 7 -19 29 -30
-12 -113 -49 -99 -9 4 -12 -3 -11 -20 1 -22 3 -23 17 -10 17 16 29 9 29 -16 0
-10 7 -24 17 -31 15 -13 15 -12 4 9 -16 29 -9 37 18 22 29 -15 27 -25 -14 -64
-19 -19 -35 -37 -35 -41 0 -3 7 1 16 9 15 16 34 21 34 10 0 -3 -11 -15 -24
-25 -22 -17 -23 -23 -14 -53 7 -23 7 -43 1 -62 -7 -18 -7 -38 -1 -54 12 -32 1
-89 -18 -97 -21 -8 -17 -22 5 -16 15 4 19 -2 23 -27 3 -21 0 -34 -11 -40 -14
-8 -14 -9 -1 -10 8 0 25 -3 38 -6 16 -5 22 -2 22 10 0 9 -6 16 -14 16 -8 0
-17 7 -20 16 -9 24 -7 54 3 54 15 0 20 -15 11 -30 -6 -10 -2 -18 11 -28 23
-16 25 -55 2 -73 -9 -8 -18 -13 -20 -11 -1 1 -13 2 -24 2 -18 0 -19 -2 -9 -15
7 -8 21 -15 31 -15 10 0 23 -8 28 -18 10 -20 4 -62 -9 -62 -18 0 -20 -35 -3
-48 17 -13 17 -14 -1 -28 -19 -14 -19 -14 1 -14 11 0 24 -8 29 -17 10 -25 13
-74 4 -68 -4 3 -10 -4 -13 -14 -3 -12 -23 -25 -56 -36 -28 -9 -51 -20 -51 -24
0 -4 -12 -13 -26 -19 -14 -7 -23 -16 -20 -21 4 -5 0 -11 -6 -14 -10 -3 -10 -7
1 -20 11 -14 11 -20 0 -34 -8 -10 -18 -21 -24 -25 -6 -5 -1 -14 13 -23 30 -22
28 -47 -5 -68 -22 -14 -23 -17 -7 -12 12 3 26 0 33 -8 9 -12 6 -16 -19 -20
-16 -4 -30 -11 -30 -16 0 -13 35 -20 52 -10 11 6 14 0 12 -32 -2 -35 1 -40 16
-36 14 3 16 0 12 -17 -3 -11 -11 -28 -19 -38 -13 -14 -11 -19 16 -39 26 -19
30 -29 28 -58 -2 -42 11 -55 27 -26 29 51 48 53 22 3 -16 -29 -9 -37 13 -15
11 10 12 8 4 -8 -6 -11 -8 -26 -6 -33 3 -7 -1 -10 -10 -6 -23 8 -30 -13 -13
-38 18 -25 22 -83 6 -73 -5 3 -10 17 -10 31 0 13 -5 24 -10 24 -6 0 -8 -13 -5
-29 3 -21 0 -31 -11 -35 -23 -9 -29 0 -14 19 17 20 -7 20 -34 0 -14 -11 -21
-11 -31 -2 -18 17 -9 26 18 20 17 -5 20 -3 10 7 -9 10 -8 16 4 28 10 11 12 17
4 20 -16 5 -14 22 4 22 8 0 15 7 15 15 0 16 -12 20 -24 8 -12 -12 -40 -12 -48
0 -5 8 -8 6 -8 -5 0 -10 -3 -18 -6 -18 -11 0 -34 29 -34 44 0 9 -4 16 -10 16
-5 0 -9 -10 -7 -21 4 -36 -21 -33 -37 5 -23 55 -24 90 -3 92 12 1 13 1 2 -3
-13 -4 -13 -6 -1 -19 19 -18 30 -18 22 1 -3 8 0 15 7 15 22 0 -17 20 -40 20
-13 0 -23 5 -23 10 0 6 12 10 26 10 14 0 23 4 19 10 -3 6 -17 10 -31 10 -19 0
-28 8 -40 35 -11 27 -20 35 -39 35 -21 0 -25 -5 -25 -30 0 -17 -9 -41 -21 -53
l-20 -22 23 -6 23 -5 -22 -8 c-13 -4 -22 -13 -20 -19 1 -7 -3 -11 -8 -10 -11
2 -14 -12 -18 -74 -1 -21 -8 -42 -14 -46 -14 -9 -18 -37 -5 -37 20 0 6 -34
-20 -49 -32 -18 -38 -35 -8 -26 11 3 20 2 20 -4 0 -6 14 -7 35 -4 27 4 35 2
35 -9 0 -11 -8 -13 -31 -10 -22 3 -30 1 -25 -7 10 -16 0 -14 -30 5 -22 15 -24
15 -18 0 3 -9 1 -16 -5 -16 -6 0 -11 -5 -11 -11 0 -6 9 -8 20 -4 21 7 25 -1
11 -24 -5 -7 -14 -10 -20 -7 -6 4 -11 0 -11 -8 0 -9 -6 -15 -12 -14 -8 2 -13
-8 -14 -22 0 -14 -9 -43 -19 -65 -10 -22 -19 -60 -20 -85 -2 -25 -6 -52 -8
-60 -8 -23 -21 -113 -19 -130 1 -8 -1 -22 -5 -30 -3 -8 -7 -32 -8 -52 -3 -33
-1 -37 15 -28 9 5 20 6 24 3 13 -13 5 -22 -21 -25 -14 -2 -28 -9 -31 -16 -3
-10 4 -12 31 -7 21 4 43 2 54 -5 15 -9 12 -10 -20 -7 -28 2 -36 0 -33 -10 3
-8 -2 -13 -14 -13 -13 0 -20 -7 -20 -20 0 -11 7 -20 15 -20 9 0 26 -10 38 -21
12 -12 16 -18 8 -14 -11 6 -13 3 -9 -12 4 -15 -1 -24 -18 -32 -15 -7 -22 -16
-18 -26 5 -11 2 -14 -10 -9 -14 5 -15 2 -6 -20 9 -25 -3 -38 -14 -13 -2 6 -4
3 -3 -8 2 -11 6 -26 10 -32 5 -8 4 -13 -2 -13 -6 0 -11 -7 -11 -15 0 -23 28
-6 39 23 6 16 10 20 10 10 1 -9 10 -20 22 -23 23 -7 64 -44 51 -46 -4 -1 -15
-1 -24 0 -10 1 -26 -3 -38 -9 -14 -7 -20 -7 -20 0 0 6 12 15 28 21 l27 11 -24
9 c-18 7 -27 5 -37 -8 -17 -22 -17 -24 1 -47 14 -19 52 -15 40 4 -3 5 -1 10 4
10 6 0 11 -9 11 -19 0 -26 26 -51 61 -58 24 -5 26 -8 16 -24 -7 -11 -17 -19
-24 -19 -7 0 -10 -7 -7 -15 4 -8 16 -15 28 -15 12 0 16 -3 10 -8 -7 -4 -14
-18 -15 -32 -4 -24 -4 -24 -39 12 -26 27 -40 34 -50 28 -12 -8 -10 -10 8 -10
13 0 20 -4 17 -10 -3 -5 -17 -10 -31 -10 -14 0 -22 -4 -19 -10 3 -6 -6 -15
-22 -21 -22 -8 -24 -12 -13 -19 8 -6 10 -10 5 -10 -24 0 1 -490 26 -498 5 -2
7 -7 4 -12 -3 -4 0 -44 5 -89 29 -228 27 -199 39 -500 6 -139 15 -279 21 -310
15 -74 31 -125 42 -132 5 -3 10 -16 13 -28 2 -12 15 -42 29 -66 26 -48 32 -70
50 -177 1 -10 5 -21 9 -24 4 -4 7 -15 7 -25 0 -9 14 -31 30 -49 l31 -33 -13
-126 c-17 -179 -16 -225 10 -321 12 -47 24 -98 27 -113 4 -17 15 -31 30 -37
14 -5 25 -17 25 -25 0 -9 11 -27 25 -41 l24 -24 -15 -83 c-8 -45 -19 -109 -24
-142 -4 -33 -18 -121 -29 -195 -12 -74 -33 -220 -46 -325 -14 -104 -29 -206
-34 -225 -5 -19 -12 -60 -16 -90 -10 -88 -45 -343 -50 -367 l-5 -23 395 0 395
0 0 23 c0 29 142 450 215 637 163 418 374 879 485 1057 49 80 67 97 74 71 7
-27 46 -337 52 -413 3 -44 12 -122 20 -173 13 -80 24 -619 24 -1139 l0 -63
329 0 329 0 7 68 c8 84 52 313 104 542 21 96 44 224 51 284 12 121 35 239 75
391 53 201 113 493 125 604 24 216 2 454 -75 821 -14 70 -20 119 -14 124 14
15 21 1 35 -75 8 -39 21 -87 30 -107 44 -101 83 -168 126 -215 26 -29 48 -55
48 -59 0 -5 5 -8 10 -8 21 0 69 -44 82 -74 7 -17 22 -62 33 -101 17 -60 24
-72 52 -85 21 -10 39 -31 55 -64 12 -27 51 -80 85 -118 44 -50 64 -80 68 -106
4 -21 9 -50 12 -66 5 -27 4 -28 -28 -20 -19 4 -45 7 -58 7 -28 -1 -52 -28 -45
-48 6 -15 50 -29 64 -20 6 4 10 2 10 -4 0 -5 -5 -11 -10 -13 -6 -2 -13 -21
-16 -43 l-5 -40 16 28 c19 33 48 33 53 -1 3 -20 13 -27 36 -23 6 1 20 0 33 -4
22 -5 23 -7 8 -35 -11 -22 -13 -35 -6 -48 9 -15 10 -14 11 6 0 13 14 36 33 53
29 27 66 62 92 89 27 27 74 60 86 60 8 0 6 5 -5 13 -21 15 -34 91 -17 101 16
10 14 26 -4 26 -14 0 -20 22 -17 61 1 9 -9 20 -21 23 -21 6 -22 7 -3 21 28 21
12 31 -18 11 -33 -21 -39 -20 -33 5 4 16 -3 12 -31 -17 -40 -44 -41 -47 -7
-124 28 -66 42 -178 26 -209 -15 -27 -74 -31 -70 -4 2 10 -1 28 -5 41 -7 20
-10 21 -24 10 -10 -7 -7 -1 6 13 21 24 21 27 6 39 -12 11 -14 24 -9 57 5 37 1
53 -34 120 -22 43 -47 103 -55 134 -16 55 -55 108 -57 78 -2 -20 -20 71 -19
99 0 19 -4 22 -28 16 -25 -5 -26 -4 -9 9 13 11 15 16 5 20 -8 3 -2 9 14 15 16
7 30 22 34 37 7 29 19 32 33 8 9 -15 10 -15 11 -3 0 9 -6 22 -12 29 -11 10
-10 11 5 6 27 -11 20 9 -12 33 -18 13 -32 18 -36 12 -12 -19 -26 -10 -15 10 7
13 16 17 28 13 16 -6 16 -5 0 14 -10 11 -18 25 -18 31 0 8 -7 9 -25 2 -17 -6
-25 -6 -25 1 0 6 -5 7 -11 3 -6 -3 -15 0 -20 7 -7 11 -9 11 -9 -3 0 -11 -6
-15 -20 -11 -11 3 -20 1 -20 -5 0 -9 -38 -25 -65 -27 -5 0 -16 -4 -22 -8 -8
-5 -13 -4 -13 2 0 6 5 11 10 11 6 0 10 8 10 18 0 13 2 14 9 4 6 -10 10 -8 14
8 3 12 10 19 16 15 6 -3 11 -1 11 5 0 8 10 10 28 6 15 -3 21 -3 14 0 -9 4 -5
13 14 31 14 13 24 26 22 29 -8 7 -38 -7 -33 -16 3 -4 -4 -10 -15 -13 -15 -4
-20 0 -20 15 0 10 -4 17 -10 13 -5 -3 -6 -13 -3 -22 4 -11 3 -14 -5 -9 -7 4
-12 1 -12 -8 0 -11 -9 -16 -26 -16 -18 0 -25 -4 -21 -14 3 -8 -1 -22 -8 -33
-8 -10 -15 -13 -15 -6 0 6 5 15 11 19 8 5 8 9 -1 14 -9 6 -7 13 6 28 10 12 22
19 26 15 5 -3 12 4 14 14 6 23 61 47 68 29 2 -6 5 -3 5 6 1 21 -19 34 -28 19
-5 -7 -12 -2 -21 16 l-14 28 -4 -25 c-2 -14 -8 -29 -12 -34 -6 -5 -7 6 -3 27
3 22 2 37 -4 37 -6 0 -10 -14 -11 -31 -1 -34 -12 -54 -12 -23 -1 25 -45 115
-53 108 -3 -4 0 -19 8 -35 17 -32 19 -49 6 -49 -16 0 -31 81 -18 101 10 16 13
13 29 -22 10 -22 22 -38 28 -34 6 4 5 12 -5 21 -17 17 -17 21 -20 81 -2 41
-13 60 -49 80 -19 10 -19 11 1 17 20 6 38 42 25 50 -13 7 -37 -9 -37 -24 0 -8
-9 -16 -20 -19 -16 -3 -17 -1 -7 12 7 8 11 21 10 28 -2 8 4 15 12 15 8 1 20 2
26 3 7 0 14 8 17 16 5 11 1 12 -19 5 -36 -14 -51 -13 -36 2 7 7 20 13 30 13
21 0 23 27 2 32 -13 4 -13 3 0 -7 13 -10 12 -11 -3 -6 -10 3 -21 6 -23 6 -2 0
-4 7 -4 15 0 8 -11 17 -25 21 -14 3 -25 10 -25 15 0 14 24 64 35 71 6 5 4 18
-6 37 -12 21 -14 32 -6 40 6 6 7 14 2 18 -4 5 -10 2 -12 -4 -3 -7 -9 -13 -14
-13 -5 0 -3 10 5 23 17 25 11 67 -9 67 -32 0 -57 79 -34 107 9 11 8 12 -5 7
-9 -3 -16 -10 -16 -15 0 -5 -5 -9 -11 -9 -6 0 -8 7 -5 16 5 12 1 14 -15 9 -18
-6 -20 -5 -10 14 16 28 -3 27 -25 -1 -12 -17 -15 -18 -10 -5 3 10 6 23 6 28 0
5 7 9 15 9 25 0 17 37 -15 63 -36 30 -38 53 -7 61 16 4 22 13 23 36 1 16 -1
30 -3 30 -2 0 -17 -15 -33 -32 -16 -18 -30 -28 -30 -21 0 6 8 19 17 29 16 16
16 16 -5 10 -18 -6 -21 -4 -16 9 5 11 0 18 -15 22 -11 3 -18 9 -16 14 3 4 -3
13 -12 19 -15 9 -12 10 15 5 37 -8 41 0 10 26 -11 11 -18 22 -15 25 3 4 14 -1
23 -10 9 -10 22 -15 30 -12 7 3 18 -2 24 -10 14 -16 30 -19 30 -5 0 4 -21 20
-47 33 -27 14 -47 30 -46 37 4 14 -12 14 -39 0 -16 -9 -18 -13 -7 -20 12 -7
12 -10 0 -21 -10 -10 -12 -10 -7 0 4 6 2 12 -5 12 -8 0 -10 -13 -5 -42 4 -24
9 -61 11 -83 3 -22 8 -51 12 -65 11 -46 13 -54 19 -126 4 -43 3 -78 -4 -90 -7
-14 -8 -34 -1 -63 24 -108 14 -133 -57 -147 -34 -6 -43 -17 -24 -29 6 -3 10
-13 10 -22 0 -9 9 -24 21 -34 11 -9 20 -20 20 -23 -1 -3 -1 -9 0 -13 0 -5 1
-36 1 -70 0 -47 4 -63 14 -63 8 0 14 -5 14 -11 0 -5 -4 -7 -10 -4 -6 3 -7 -1
-4 -9 4 -10 1 -16 -9 -16 -8 0 -17 -4 -19 -9 -1 -5 -17 -11 -34 -14 -17 -3
-41 -10 -53 -16 -11 -7 -21 -9 -21 -5 0 3 -6 2 -12 -3 -7 -6 -53 -18 -103 -28
-49 -10 -92 -22 -95 -25 -3 -4 -40 -13 -83 -20 -43 -7 -80 -17 -83 -22 -3 -5
-15 -6 -25 -3 -11 4 -26 2 -34 -5 -9 -8 -15 -8 -20 0 -5 8 -10 8 -20 0 -7 -6
-28 -13 -47 -15 -19 -2 -51 -11 -71 -20 -21 -9 -48 -13 -62 -9 -25 6 -25 5
-27 -57 -1 -53 -2 -56 -5 -19 -3 35 -9 47 -27 56 -18 9 -27 7 -46 -8 -24 -19
-75 -24 -99 -9 -9 6 -22 6 -33 0 -10 -5 -18 -6 -18 -1 0 4 -9 8 -20 9 -11 1
-20 -3 -20 -9 0 -7 -5 -6 -14 1 -8 7 -17 8 -19 3 -3 -4 -34 -7 -69 -7 -35 1
-71 -2 -80 -7 -12 -6 -18 -5 -18 3 0 7 -9 9 -26 5 -23 -6 -25 -5 -19 16 10 31
15 35 25 18 5 -8 7 9 6 46 -2 32 -1 42 1 22 2 -21 8 -38 12 -38 5 0 7 -12 5
-28 -2 -15 -1 -19 2 -9 3 9 9 17 14 17 4 0 10 9 13 21 4 15 2 19 -9 15 -16 -6
-19 9 -4 19 5 3 6 13 3 23 -5 14 -3 15 7 5 8 -7 14 -31 15 -53 1 -47 11 -60
28 -36 13 17 14 17 32 0 18 -19 18 -18 12 6 -4 14 -7 28 -7 32 0 3 -10 4 -21
1 -21 -6 -21 -6 2 21 14 16 29 24 40 21 14 -5 16 2 15 41 -1 37 3 47 16 49 13
3 16 -4 12 -34 l-5 -36 13 35 c13 34 4 65 -14 53 -5 -2 -8 3 -8 12 0 10 5 15
14 12 9 -4 13 4 14 25 1 40 22 63 22 25 0 -17 5 -27 15 -27 8 0 15 -5 15 -11
0 -6 -6 -9 -14 -6 -8 3 -17 -1 -20 -9 -9 -22 -7 -26 5 -18 7 4 9 -1 5 -15 -3
-11 -8 -31 -11 -43 -4 -20 -4 -20 6 2 37 84 40 93 30 103 -15 15 -13 27 4 27
11 0 14 7 10 23 -5 18 0 26 18 36 32 17 44 65 16 58 -22 -6 -25 3 -7 21 7 7 8
12 4 12 -5 0 -1 11 8 25 15 23 14 29 -6 26 -15 -2 -8 50 7 55 8 4 13 10 10 15
-3 4 -12 6 -19 3 -8 -3 -12 3 -10 18 4 34 4 34 14 18 6 -10 9 -6 8 18 -1 17
-5 29 -9 26 -14 -8 -21 17 -9 31 7 8 8 15 3 15 -6 0 -8 21 -5 49 4 47 -13 111
-30 111 -5 0 -8 4 -8 10 0 5 7 6 17 3 11 -4 14 -3 9 6 -4 6 -3 18 4 26 8 10 8
15 0 20 -7 4 -9 19 -6 34 3 14 3 20 0 13 -3 -6 -10 -10 -15 -6 -14 8 -11 24 6
24 22 0 18 21 -5 27 -11 3 -20 10 -20 15 0 5 5 6 10 3 15 -10 12 15 -5 31 -12
12 -12 19 -2 35 10 16 9 22 -3 30 -11 8 -12 12 -2 16 6 2 12 11 12 19 0 9 5
12 10 9 6 -3 10 1 10 10 0 10 -5 13 -12 9 -9 -5 -9 -2 1 9 7 9 9 17 3 17 -13
0 -22 39 -30 128 -5 45 -3 74 3 76 6 3 4 9 -4 14 -9 7 -10 12 -2 16 6 4 11 15
11 24 0 15 -2 15 -10 2 -8 -12 -10 -11 -10 7 0 12 6 24 13 26 8 3 2 14 -17 29
-20 17 -25 27 -18 32 7 4 12 3 12 -2 0 -6 7 -12 15 -15 23 -9 -3 39 -32 58
-29 19 -31 45 -3 38 11 -3 20 0 20 6 0 6 -3 10 -7 10 -19 -3 -33 2 -33 11 0 5
7 7 15 4 19 -8 19 6 -1 34 -8 12 -20 20 -25 17 -5 -4 -9 -2 -9 4 0 20 22 23
35 5 7 -11 17 -15 22 -10 4 5 2 11 -4 13 -8 3 -13 21 -13 43 0 23 -6 43 -17
51 -9 8 -14 9 -11 4 4 -6 -1 -19 -9 -30 -15 -20 -15 -19 -10 3 3 15 0 25 -9
29 -27 10 -14 23 21 18 19 -2 35 0 35 4 0 11 -29 23 -39 17 -14 -9 -4 63 13
88 9 14 16 35 16 46 0 12 5 31 11 42 11 20 11 20 -14 2 -13 -10 -22 -24 -20
-31 5 -12 -66 -48 -75 -38 -3 3 0 5 8 5 9 0 11 9 7 30 -4 17 -2 30 3 30 6 0 9
-3 9 -7 -5 -30 2 -41 22 -36 21 6 21 7 4 20 -11 7 -14 13 -8 13 17 0 48 34 51
58 2 12 -2 22 -7 22 -6 0 -11 -5 -11 -12 0 -6 -3 -9 -6 -5 -3 3 1 30 10 60 17
59 14 82 -17 109 -20 18 -15 41 7 32 18 -7 28 23 16 47 -11 20 -50 27 -50 9 0
-5 -5 -10 -11 -10 -8 0 -8 4 0 13 7 10 7 17 0 24 -18 18 10 27 30 9 26 -24 29
-21 25 34 -1 28 1 50 7 50 5 0 9 9 9 20 0 11 -4 20 -10 20 -5 0 -10 7 -10 15
0 8 5 15 10 15 6 0 10 20 10 44 0 48 -20 63 -56 43 -16 -9 -17 -8 -7 4 7 8 10
25 6 37 -6 23 12 31 20 10 3 -7 6 0 6 15 1 16 -5 30 -14 33 -8 4 -15 12 -15
20 0 8 -6 11 -15 8 -9 -4 -15 0 -15 10 0 10 6 13 15 10 9 -4 15 0 15 10 0 9 5
16 12 16 9 0 9 3 1 11 -9 9 -9 16 0 30 6 10 8 22 4 26 -5 4 -12 1 -16 -6 -7
-11 -11 -9 -20 8 -7 12 -9 26 -6 31 3 5 1 11 -5 15 -13 8 -12 16 6 40 13 17
16 18 24 5 5 -8 10 -19 10 -25 0 -5 -4 -3 -10 5 -5 8 -12 11 -16 8 -9 -10 19
-68 33 -68 6 0 14 -8 16 -17 3 -12 5 -8 6 9 0 15 -3 30 -9 33 -5 3 -10 13 -10
21 0 8 5 12 10 9 6 -3 10 4 10 17 0 18 -2 20 -10 8 -8 -13 -10 -13 -10 2 0 9
6 18 13 21 6 2 3 3 -8 1 -22 -3 -59 19 -48 29 3 4 -2 9 -11 13 -25 10 -19 20
12 18 44 -2 47 -3 34 -16 -19 -19 -14 -29 12 -22 38 9 59 -47 66 -171 l6 -100
2 103 c2 83 5 102 17 102 8 0 15 -6 16 -12 1 -7 2 -28 3 -47 1 -19 7 -36 13
-38 9 -3 11 21 9 92 -3 89 -2 95 15 90 25 -8 24 12 -1 25 -20 11 -28 40 -11
40 5 0 9 16 9 35 0 20 5 42 11 49 7 8 13 28 14 45 1 17 5 31 9 31 4 0 7 8 6
18 -3 36 3 52 18 52 14 0 14 2 0 22 -22 31 -20 38 12 38 15 0 33 5 39 11 15
15 73 1 73 -17 0 -11 -6 -13 -20 -9 -16 5 -19 3 -13 -11 5 -13 3 -16 -9 -11
-10 3 -19 -1 -24 -11 -11 -27 -10 -55 4 -60 7 -2 12 7 12 23 0 23 2 26 15 15
11 -9 12 -16 5 -25 -12 -14 -2 -48 11 -39 18 11 23 -29 5 -41 -11 -8 -13 -15
-7 -20 18 -11 12 -24 -13 -31 -27 -7 -41 -40 -20 -48 16 -6 19 -36 4 -36 -14
0 -12 -12 8 -37 12 -16 21 -20 31 -14 11 7 12 13 4 23 -6 7 -13 26 -17 41 -5
21 -3 27 8 25 8 -2 23 7 34 20 18 21 21 21 36 7 9 -9 16 -24 16 -33 0 -15 -2
-15 -10 -2 -8 13 -10 13 -10 -2 0 -29 20 -31 30 -2 13 33 3 91 -17 103 -12 6
-13 15 -3 50 6 24 9 50 6 58 -3 8 -1 24 5 35 9 16 13 18 20 7 4 -7 11 -10 16
-6 17 18 -14 42 -49 39 -42 -4 -60 22 -25 33 19 6 20 8 5 12 -10 2 -18 9 -18
14 0 6 -8 8 -18 5 -13 -5 -21 1 -30 21 -11 27 -11 27 -6 -9 7 -52 -14 -49 -22
2 -6 37 -27 48 -23 12 4 -42 -1 -46 -25 -23 -21 20 -22 25 -12 61 5 22 16 40
23 40 7 0 13 5 13 11 0 5 5 7 11 4 7 -5 8 5 4 29 -6 28 -4 36 7 36 8 0 23 9
33 20 17 19 19 19 31 2 11 -15 16 -15 46 -4 54 21 67 22 73 3 8 -28 14 -141 6
-141 -3 0 -21 -18 -39 -40 l-33 -40 33 7 c18 3 42 12 53 20 22 15 44 16 64 4
11 -7 9 -13 -8 -30 -11 -11 -28 -21 -36 -21 -8 0 -15 -4 -15 -10 0 -5 -9 -10
-20 -10 -21 0 -27 -15 -10 -25 5 -3 7 -19 3 -35 -7 -40 3 -38 21 3 12 27 14
29 15 10 1 -33 21 -28 21 4 0 20 3 24 11 16 8 -8 8 -17 -1 -33 -7 -12 -10 -33
-7 -46 2 -14 -1 -25 -9 -28 -8 -3 -14 1 -14 9 0 8 -5 15 -11 15 -7 0 -9 -10
-4 -27 l7 -28 -27 29 c-19 21 -29 26 -37 18 -8 -8 -8 -15 2 -27 10 -12 10 -15
-2 -15 -13 0 -13 -7 -5 -39 6 -22 14 -38 19 -35 4 3 8 -9 8 -25 0 -17 5 -31
10 -31 13 0 13 21 0 54 -5 14 -6 34 -3 43 6 13 10 8 15 -22 15 -73 16 -95 1
-95 -15 0 -18 -16 -3 -25 5 -3 7 -12 3 -20 -3 -8 0 -15 6 -15 6 0 11 11 11 24
0 14 5 28 10 31 6 4 8 10 5 15 -8 13 17 60 32 60 7 0 13 5 13 10 0 6 7 10 15
10 8 0 15 9 15 20 0 11 5 19 11 18 6 -2 14 3 16 10 3 6 -3 12 -14 13 -10 0
-13 3 -5 6 6 2 12 14 12 24 0 11 -4 17 -10 14 -5 -3 -10 1 -10 10 0 33 35 11
40 -25 5 -34 6 -34 14 -10 l9 25 5 -30 c4 -26 5 -27 12 -10 6 17 10 12 20 -25
7 -25 13 -54 12 -65 -1 -10 3 -25 9 -31 7 -8 6 -14 -1 -19 -15 -9 -2 -25 16
-18 8 3 14 2 13 -3 -4 -22 2 -44 11 -44 24 0 0 78 -31 100 -4 3 -3 27 2 55 5
27 7 57 3 67 -3 10 0 18 6 18 6 0 8 -5 4 -11 -4 -8 1 -9 16 -4 20 6 21 5 10
-15 -6 -11 -9 -26 -7 -33 2 -7 11 3 21 21 16 31 16 33 -1 38 -10 3 -29 11 -43
17 -22 11 -27 10 -43 -8 -17 -20 -17 -19 -6 8 12 26 49 39 49 17 0 -5 5 -10
11 -10 8 0 9 4 0 13 -6 8 -7 18 -3 22 4 5 2 5 -5 1 -7 -4 -23 0 -36 9 -23 15
-25 14 -30 -5 -7 -27 -25 -26 -25 3 0 12 -3 32 -7 45 -5 14 -3 22 4 22 6 0 11
-9 11 -20 0 -25 12 -25 35 0 10 11 22 17 27 14 5 -3 16 0 24 7 12 10 18 8 31
-11 l16 -23 13 29 c12 28 13 28 19 7 12 -39 24 -25 22 24 -1 32 2 48 10 48 7
0 18 6 24 13 7 6 19 12 26 12 7 0 13 7 13 15 0 8 5 15 11 15 5 0 7 5 4 10 -4
6 -11 8 -16 5 -5 -4 -9 5 -9 19 0 14 -5 37 -12 51 -9 20 -9 31 0 45 7 12 8 20
1 22 -10 3 11 58 23 58 4 0 5 -13 2 -30 -4 -19 -2 -30 5 -30 7 0 8 -8 1 -25
-9 -22 -7 -27 16 -35 37 -15 40 -12 16 13 -14 15 -19 30 -15 45 7 28 14 28 43
-3 13 -14 27 -25 32 -25 17 0 7 40 -12 50 -19 10 -28 40 -12 40 12 0 44 59 37
69 -3 5 0 21 7 36 9 21 9 28 -1 34 -19 12 -21 127 -2 123 12 -3 12 0 2 12 -19
23 -4 36 32 29 31 -6 32 -6 15 14 -10 11 -18 25 -18 31 0 7 -5 12 -10 12 -6 0
-10 16 -8 35 2 41 1 40 34 19 13 -9 27 -14 31 -11 3 4 -6 11 -20 16 -30 12
-45 31 -23 31 8 0 18 -4 21 -10 3 -5 12 -10 18 -10 7 0 4 7 -5 14 -10 7 -18
19 -18 27 0 12 -2 12 -9 0 -5 -7 -11 -9 -14 -4 -8 13 3 53 15 53 5 0 6 5 2 12
-4 7 -3 8 4 4 7 -4 17 -2 24 4 7 6 22 17 33 25 19 13 19 14 -4 8 -21 -5 -23
-3 -18 16 4 18 3 20 -9 10 -21 -18 -26 -6 -7 20 12 18 17 20 25 10 6 -10 7 -7
3 9 -4 15 -1 24 9 28 12 5 13 11 6 25 -6 10 -8 36 -4 57 6 36 3 43 -30 78 -52
55 -48 69 19 71 46 1 55 -2 61 -19 3 -11 2 -23 -2 -27 -11 -7 -16 -25 -22 -73
-4 -41 5 -49 78 -61 l35 -6 -35 17 c-19 8 -39 16 -45 16 -5 1 -11 14 -13 30
-2 18 0 26 7 22 7 -5 8 -1 4 10 -4 11 -3 15 5 10 6 -3 13 -2 17 4 3 5 0 10 -7
10 -9 0 -10 3 -2 8 16 10 26 46 18 65 -3 9 -21 26 -40 38 -19 11 -34 26 -34
34 0 7 -8 19 -17 26 -15 11 -16 11 -5 -1 23 -26 12 -31 -20 -9 -17 13 -27 24
-22 26 18 6 7 83 -14 106 -11 12 -24 35 -28 52 -4 16 -20 50 -36 74 -15 25
-28 50 -28 57 0 19 -41 65 -52 58 -6 -4 -8 -3 -5 3 3 5 -8 20 -25 34 -37 29
-39 32 -84 92 -25 33 -53 57 -92 75 -51 25 -57 31 -74 82 -10 30 -30 67 -45
82 -22 24 -35 28 -78 28 -28 0 -57 6 -65 13 -12 10 -12 9 -1 -6 19 -25 5 -34
-19 -12 -11 10 -18 20 -16 22 2 2 -8 16 -22 30 -23 23 -35 26 -104 28 -56 2
-81 -2 -89 -11 -6 -8 -19 -14 -28 -14 -14 0 -14 2 -1 11 12 8 8 10 -15 6 -16
-3 -41 1 -55 8 -14 8 -29 14 -35 14 -5 0 0 -5 13 -11z m500 -107 c12 -10 22
-25 22 -32 -1 -10 -4 -8 -11 4 -6 9 -25 24 -42 31 -26 12 -28 15 -11 15 12 1
31 -7 42 -18z m-31 -47 c-3 -3 -12 -4 -19 -1 -8 3 -5 6 6 6 11 1 17 -2 13 -5z
m-900 -20 c-3 -3 -12 -4 -19 -1 -8 3 -5 6 6 6 11 1 17 -2 13 -5z m1104 -124
c24 -14 24 -25 0 -27 -11 -1 -21 6 -24 18 -6 22 -3 23 24 9z m-597 -146 c84
-58 136 -118 136 -156 0 -16 5 -39 12 -51 22 -40 17 -47 -38 -63 -32 -9 -58
-24 -64 -35 -15 -27 2 -31 78 -21 35 5 65 5 68 0 3 -4 23 -8 45 -8 33 0 39 -3
39 -21 0 -16 -3 -19 -12 -11 -20 15 -108 25 -108 12 0 -6 -15 -17 -33 -25 -18
-7 -41 -22 -51 -33 -19 -22 -18 -59 3 -54 7 1 10 -2 7 -7 -14 -21 21 -30 80
-21 90 15 123 -3 164 -91 33 -72 34 -104 4 -175 -7 -16 -16 -82 -20 -145 -7
-123 -19 -156 -73 -202 -16 -13 -31 -38 -35 -59 -8 -46 -40 -74 -106 -94 -66
-20 -160 -15 -184 8 -24 24 -20 28 27 29 23 1 56 5 72 9 22 6 7 8 -52 9 -72 1
-85 4 -113 27 -25 22 -30 32 -25 54 3 16 2 31 -4 34 -16 10 -1 38 17 31 9 -3
41 0 71 7 l56 12 -44 6 c-25 4 -50 15 -58 25 -24 34 4 47 114 53 94 4 133 13
133 31 0 8 -51 25 -100 35 -62 12 -104 26 -110 37 -5 7 -19 10 -34 7 -15 -3
-29 -1 -32 4 -4 5 -17 7 -30 4 -16 -4 -30 0 -44 14 -14 14 -28 18 -48 14 -23
-5 -32 -1 -45 20 -9 14 -17 31 -17 39 0 7 -13 31 -29 53 -34 47 -54 101 -40
109 5 4 9 17 9 31 0 22 3 24 54 24 30 0 61 3 70 6 9 3 26 -5 41 -20 25 -25 26
-29 19 -106 -6 -71 -4 -82 16 -114 26 -43 33 -44 66 -11 14 14 29 25 34 25 13
0 13 17 0 25 -12 8 -13 72 -1 79 9 6 9 175 0 191 -4 6 -9 27 -13 48 -6 31 -11
37 -32 37 -16 0 -27 -7 -33 -22 -5 -13 -10 -17 -15 -10 -3 6 -27 14 -53 18
-32 5 -47 12 -50 25 -3 11 -12 19 -21 19 -8 0 -13 2 -10 5 2 3 40 0 83 -5 43
-5 81 -8 83 -5 3 3 0 16 -6 29 -7 17 -30 31 -71 47 -73 26 -93 45 -68 64 9 7
17 24 17 38 0 14 5 29 10 32 6 3 10 17 10 31 0 47 26 90 61 103 19 7 52 21 74
32 58 27 77 24 149 -27z m-814 17 c-5 -11 -14 -23 -20 -26 -5 -3 -7 -11 -4
-18 5 -13 -32 -54 -41 -46 -2 3 1 24 7 48 7 28 18 46 32 51 33 13 38 12 26 -9z
m1525 -21 c3 -5 -1 -10 -9 -10 -9 0 -16 5 -16 10 0 6 4 10 9 10 6 0 13 -4 16
-10z m-1465 -86 c0 -7 -27 -34 -34 -34 -4 0 -1 9 6 20 12 19 28 27 28 14z
m-138 -62 c-5 -13 -6 -13 -12 2 -10 28 -34 -26 -26 -58 5 -19 2 -26 -8 -26 -8
0 -20 -8 -25 -17 -6 -10 -11 -16 -12 -13 -12 55 -9 64 32 106 28 29 45 40 50
32 4 -6 5 -18 1 -26z m-26 -116 c-2 -17 -16 -36 -25 -36 -6 0 -8 42 -2 46 8 5
28 -2 27 -10z m1174 -40 c0 -2 -9 -6 -20 -9 -11 -3 -20 -1 -20 4 0 5 9 9 20 9
11 0 20 -2 20 -4z m-1188 -47 c3 -20 0 -33 -9 -36 -18 -7 -22 -3 -29 35 -6 27
-4 32 14 32 14 0 21 -8 24 -31z m-62 1 c0 -13 -69 -75 -83 -75 -21 0 -19 43 2
64 21 21 81 29 81 11z m-101 -7 c0 -5 -4 -17 -8 -28 -5 -12 -2 -33 6 -54 13
-30 13 -35 -3 -50 -15 -15 -16 -14 -11 9 4 14 1 41 -5 62 -11 38 -6 68 12 68
5 0 10 -3 9 -7z m95 -55 c-23 -25 -54 -42 -54 -30 0 16 64 74 68 62 2 -6 -4
-20 -14 -32z m133 20 c-3 -8 -6 -5 -6 6 -1 11 2 17 5 13 3 -3 4 -12 1 -19z
m638 -57 c3 -5 1 -12 -5 -16 -5 -3 -10 1 -10 9 0 18 6 21 15 7z m345 -7 c0 -8
-4 -12 -10 -9 -5 3 -10 10 -10 16 0 5 5 9 10 9 6 0 10 -7 10 -16z m103 1 c0
-6 -7 -11 -16 -13 -12 -3 -15 1 -11 13 7 17 25 17 27 0z m772 -15 c13 -5 2 -8
-33 -8 -39 -1 -52 2 -52 13 0 15 35 13 85 -5z m-1945 -21 c0 -18 -2 -19 -15
-9 -8 7 -15 16 -15 21 0 5 7 9 15 9 9 0 15 -9 15 -21z m2000 6 c6 -8 10 -20 8
-26 -2 -6 -12 0 -21 15 -18 27 -8 37 13 11z m-1310 -4 c0 -12 -41 -22 -54 -13
-6 3 0 9 14 13 36 10 40 10 40 0z m1083 -18 c3 -5 1 -17 -3 -28 -6 -17 -7 -16
-12 8 -5 25 5 37 15 20z m141 -106 c7 -18 6 -31 0 -37 -17 -17 -38 -2 -50 36
-11 34 -11 35 15 32 18 -2 29 -12 35 -31z m-1994 -48 c0 -34 -2 -39 -14 -30
-22 19 -26 50 -8 61 10 5 18 10 20 10 1 0 2 -19 2 -41z m80 31 c0 -5 -5 -10
-11 -10 -5 0 -7 5 -4 10 3 6 8 10 11 10 2 0 4 -4 4 -10z m-30 -35 c0 -8 -7
-15 -15 -15 -8 0 -15 7 -15 15 0 8 7 15 15 15 8 0 15 -7 15 -15z m834 -24 c3
-5 -1 -12 -10 -15 -9 -4 -14 -13 -10 -21 3 -8 1 -15 -3 -15 -15 0 -22 32 -10
46 13 16 25 18 33 5z m1016 -1 c0 -5 -2 -10 -4 -10 -3 0 -8 5 -11 10 -3 6 -1
10 4 10 6 0 11 -4 11 -10z m74 -15 c3 -9 -1 -18 -10 -22 -19 -7 -28 2 -21 22
8 19 23 19 31 0z m-73 -82 c13 -16 12 -17 -3 -4 -10 7 -18 15 -18 17 0 8 8 3
21 -13z m-1946 -3 c-3 -5 -11 -10 -16 -10 -6 0 -7 5 -4 10 3 6 11 10 16 10 6
0 7 -4 4 -10z m35 -20 c0 -5 -4 -10 -10 -10 -5 0 -10 5 -10 10 0 6 5 10 10 10
6 0 10 -4 10 -10z m140 -28 c0 -15 -2 -15 -10 -2 -13 20 -13 33 0 25 6 -3 10
-14 10 -23z m1804 12 c5 -14 4 -15 -9 -4 -17 14 -19 20 -6 20 5 0 12 -7 15
-16z m-44 -4 c0 -5 -4 -10 -10 -10 -5 0 -10 5 -10 10 0 6 5 10 10 10 6 0 10
-4 10 -10z m-1782 -22 c7 -7 12 -19 12 -27 0 -11 -4 -10 -20 4 -21 19 -26 35
-12 35 4 0 13 -5 20 -12z m369 -40 c-3 -8 -6 -5 -6 6 -1 11 2 17 5 13 3 -3 4
-12 1 -19z m1443 12 c0 -15 -38 -32 -45 -20 -5 8 17 23 43 29 1 1 2 -3 2 -9z
m-1830 -20 c0 -5 -4 -10 -10 -10 -5 0 -10 5 -10 10 0 6 5 10 10 10 6 0 10 -4
10 -10z m920 0 c0 -11 0 -11 -50 -15 -39 -3 -53 2 -45 16 8 12 95 12 95 -1z
m-243 -36 c8 -22 -15 -44 -26 -25 -10 16 -4 41 10 41 5 0 12 -7 16 -16z m220
0 c-3 -3 -12 -4 -19 -1 -8 3 -5 6 6 6 11 1 17 -2 13 -5z m-1012 -62 c-6 -14
-8 -13 -16 7 -6 16 -5 28 3 39 11 13 13 12 16 -7 2 -12 1 -30 -3 -39z m1915
28 c0 -5 -4 -10 -10 -10 -5 0 -10 5 -10 10 0 6 5 10 10 10 6 0 10 -4 10 -10z
m-1795 -69 c-9 -40 -29 -41 -23 -1 3 17 1 30 -3 30 -5 0 -6 7 -2 16 5 14 8 14
20 1 11 -10 13 -24 8 -46z m-50 29 c3 -5 1 -10 -4 -10 -6 0 -11 5 -11 10 0 6
2 10 4 10 3 0 8 -4 11 -10z m-37 -22 c19 -19 14 -28 -13 -28 -24 0 -34 18 -18
33 9 10 17 9 31 -5z m1866 -17 c3 -5 -1 -11 -9 -14 -9 -4 -12 -1 -8 9 6 16 10
17 17 5z m36 -1 c0 -5 -4 -10 -10 -10 -5 0 -10 5 -10 10 0 6 5 10 10 10 6 0
10 -4 10 -10z m-1860 -29 c2 -1 -6 -8 -18 -17 -12 -8 -22 -22 -22 -30 0 -21
-18 -17 -30 7 -22 40 -5 50 70 40z m1840 5 c0 -3 -4 -8 -10 -11 -5 -3 -10 -1
-10 4 0 6 5 11 10 11 6 0 10 -2 10 -4z m-1809 -58 c-17 -28 -21 -30 -27 -15
-4 12 1 27 17 43 30 32 37 14 10 -28z m-31 -33 c0 -20 -56 -49 -66 -33 -8 13
30 48 52 48 8 0 14 -7 14 -15z m1817 -47 c-2 -7 4 -23 15 -35 16 -17 18 -25 9
-42 -14 -25 -39 -27 -56 -4 -11 15 -9 24 8 55 22 38 33 49 24 26z m-1817 -8
c0 -5 -4 -10 -10 -10 -5 0 -10 5 -10 10 0 6 5 10 10 10 6 0 10 -4 10 -10z
m1750 -14 c0 -3 -4 -8 -10 -11 -5 -3 -10 -1 -10 4 0 6 5 11 10 11 6 0 10 -2
10 -4z m-15 -36 c3 -5 1 -10 -4 -10 -6 0 -11 5 -11 10 0 6 2 10 4 10 3 0 8 -4
11 -10z m-1725 -31 c0 -10 -4 -19 -9 -19 -12 0 -23 29 -15 41 8 14 24 0 24
-22z m1810 -54 c0 -8 -4 -15 -10 -15 -5 0 -7 7 -4 15 4 8 8 15 10 15 2 0 4 -7
4 -15z m-40 -26 c0 -6 -4 -7 -10 -4 -5 3 -10 11 -10 16 0 6 5 7 10 4 6 -3 10
-11 10 -16z m-220 -40 c0 -16 4 -28 9 -25 5 3 11 -3 14 -14 6 -23 3 -24 -24
-10 -13 8 -19 21 -19 45 0 19 5 35 10 35 6 0 10 -14 10 -31z m-1470 -10 c0 -5
-7 -9 -15 -9 -15 0 -20 12 -9 23 8 8 24 -1 24 -14z m1045 -29 c3 -5 1 -10 -4
-10 -6 0 -11 5 -11 10 0 6 2 10 4 10 3 0 8 -4 11 -10z m-386 -9 c8 -5 21 -29
28 -53 18 -62 15 -70 -8 -20 -11 23 -21 42 -23 42 -4 0 24 -123 30 -129 2 -2
4 6 4 19 0 42 17 8 29 -59 10 -49 86 -306 95 -318 1 -1 11 0 23 3 24 7 63 115
63 177 0 25 4 36 11 32 16 -10 8 -93 -13 -150 -12 -30 -22 -88 -25 -145 -5
-102 -13 -121 -41 -104 -13 8 -19 32 -24 95 -4 52 -19 118 -37 172 -17 49 -31
95 -31 103 0 9 -4 13 -9 10 -9 -6 -6 -36 9 -71 18 -42 40 -119 40 -138 0 -17
-2 -17 -16 -6 -9 8 -13 21 -10 35 4 14 1 24 -10 28 -8 3 -13 2 -10 -3 3 -5 -3
-11 -14 -14 -22 -6 -28 8 -7 16 9 4 8 8 -3 16 -11 8 -12 15 -4 28 12 20 7 93
-7 93 -5 0 -8 3 -8 8 3 19 -2 33 -10 27 -6 -3 -8 10 -5 29 2 19 -1 38 -6 41
-6 4 -8 10 -5 15 3 5 -6 30 -20 55 -26 48 -30 59 -17 51 4 -2 6 24 4 60 -4 64
0 72 27 55z m319 -45 c-10 -31 -9 -39 3 -48 12 -8 11 -9 -2 -5 -12 4 -19 -5
-28 -34 -7 -21 -16 -39 -21 -39 -6 0 -6 10 0 26 6 15 15 47 21 72 9 42 27 77
35 69 2 -2 -2 -20 -8 -41z m472 35 c0 -5 9 -11 19 -14 11 -2 21 -15 23 -28 1
-13 6 -22 9 -19 11 10 39 -23 39 -46 0 -12 -12 -36 -26 -51 -14 -16 -24 -21
-21 -12 4 12 1 15 -13 12 -14 -4 -19 0 -19 13 0 11 -2 39 -5 64 -3 25 -5 51
-5 58 -1 6 -8 12 -17 12 -8 0 -12 5 -9 10 8 12 25 13 25 1z m165 -51 c3 -5 1
-10 -4 -10 -6 0 -11 5 -11 10 0 6 2 10 4 10 3 0 8 -4 11 -10z m-255 -21 c0 -6
-4 -7 -10 -4 -5 3 -10 11 -10 16 0 6 5 7 10 4 6 -3 10 -11 10 -16z m-1385 -8
c-3 -6 -11 -8 -17 -5 -6 4 -5 9 3 15 16 10 23 4 14 -10z m-35 -21 c0 -5 -5
-10 -11 -10 -5 0 -7 5 -4 10 3 6 8 10 11 10 2 0 4 -4 4 -10z m20 -24 c0 -3 -4
-8 -10 -11 -5 -3 -10 -1 -10 4 0 6 5 11 10 11 6 0 10 -2 10 -4z m1600 -36 c0
-11 -4 -20 -9 -20 -14 0 -23 18 -16 30 10 17 25 11 25 -10z m-633 -45 c-1 -19
-7 -35 -14 -35 -7 0 -10 10 -7 27 10 53 25 59 21 8z m419 -66 c-15 -48 -28
-52 -40 -9 -10 34 1 50 35 50 15 0 15 -5 5 -41z m-852 -25 c18 -17 22 -39 6
-29 -11 7 -33 45 -26 45 2 0 12 -7 20 -16z m630 -35 c6 -31 -13 -86 -22 -61
-2 6 -10 12 -18 12 -16 0 -19 16 -3 25 6 5 4 12 -8 21 -17 14 -16 15 7 8 22
-6 23 -5 11 10 -12 14 -11 16 7 16 14 0 21 -9 26 -31z m-544 -29 c0 -5 -4 -10
-10 -10 -5 0 -10 5 -10 10 0 6 5 10 10 10 6 0 10 -4 10 -10z m71 -37 c-10 -17
-10 -16 -11 3 0 23 13 41 18 25 2 -6 -1 -18 -7 -28z m624 -61 c1 -13 -2 -25
-7 -28 -4 -3 -8 4 -8 15 0 12 -4 21 -10 21 -5 0 -10 5 -10 11 0 21 33 3 35
-19z m-1209 4 c8 -8 14 -17 14 -20 0 -12 -38 -6 -44 7 -3 6 -3 2 0 -10 6 -24
-10 -32 -20 -10 -3 6 -4 -1 0 -18 5 -29 5 -29 -15 -11 -28 26 -38 13 -12 -13
25 -25 26 -31 6 -31 -8 0 -15 5 -15 10 0 6 -5 10 -11 10 -5 0 -8 -3 -5 -8 2
-4 -2 -15 -9 -25 -9 -13 -15 -15 -20 -6 -4 6 -1 15 6 20 12 8 12 11 -1 20 -13
9 -12 10 3 5 12 -4 17 0 19 14 0 11 1 26 2 33 1 16 46 47 69 47 10 0 25 -6 33
-14z m41 -18 c-3 -8 -6 -5 -6 6 -1 11 2 17 5 13 3 -3 4 -12 1 -19z m43 -13 c0
-14 -4 -25 -10 -25 -11 0 -14 33 -3 43 11 11 13 8 13 -18z m32 -7 c-7 -7 -12
-8 -12 -2 0 14 12 26 19 19 2 -3 -1 -11 -7 -17z m-72 -2 c0 -18 -22 -56 -29
-52 -5 4 -12 0 -15 -6 -3 -7 -3 -2 0 11 4 16 3 21 -5 17 -6 -4 -11 0 -11 8 0
19 11 21 28 4 9 -9 12 -8 12 5 0 9 5 17 10 17 6 0 10 -2 10 -4z m88 -40 c0
-39 -26 -58 -41 -30 -7 12 -11 13 -17 4 -5 -8 -9 -5 -13 10 -4 17 -2 20 14 15
13 -4 19 -2 19 8 0 14 13 24 32 26 3 1 6 -14 6 -33z m562 -17 c0 -6 -4 -7 -10
-4 -5 3 -10 11 -10 16 0 6 5 7 10 4 6 -3 10 -11 10 -16z m-310 -46 c0 -5 -5
-15 -10 -23 -8 -12 -10 -11 -10 8 0 12 5 22 10 22 6 0 10 -3 10 -7z m-523 -32
c-1 -12 -7 -17 -19 -13 -21 5 -24 18 -5 25 22 9 26 7 24 -12z m183 -16 c0 -8
-7 -15 -15 -15 -8 0 -15 7 -15 15 0 8 7 15 15 15 8 0 15 -7 15 -15z m565 -5
c3 -5 1 -10 -4 -10 -6 0 -11 5 -11 10 0 6 2 10 4 10 3 0 8 -4 11 -10z m-485
-20 c0 -5 -5 -10 -11 -10 -5 0 -7 5 -4 10 3 6 8 10 11 10 2 0 4 -4 4 -10z
m-35 -10 c3 -5 1 -10 -4 -10 -6 0 -11 5 -11 10 0 6 2 10 4 10 3 0 8 -4 11 -10z
m-115 -20 c0 -5 -4 -10 -10 -10 -5 0 -10 5 -10 10 0 6 5 10 10 10 6 0 10 -4
10 -10z m280 -16 c0 -2 -7 -4 -15 -4 -8 0 -15 4 -15 10 0 5 7 7 15 4 8 -4 15
-8 15 -10z m73 -4 c3 -11 1 -20 -4 -20 -5 0 -9 9 -9 20 0 11 2 20 4 20 2 0 6
-9 9 -20z m-129 -95 c-4 -8 -8 -15 -10 -15 -2 0 -4 7 -4 15 0 8 4 15 10 15 5
0 7 -7 4 -15z m-544 -35 c0 -6 -11 -10 -25 -10 -14 0 -25 4 -25 8 0 4 11 9 25
10 14 1 25 -3 25 -8z m165 -1 c11 -17 -1 -21 -15 -4 -8 9 -8 15 -2 15 6 0 14
-5 17 -11z m145 -69 c0 -5 -4 -10 -10 -10 -5 0 -10 5 -10 10 0 6 5 10 10 10 6
0 10 -4 10 -10z m690 -31 c0 -17 -4 -28 -10 -24 -5 3 -10 17 -10 31 0 13 5 24
10 24 6 0 10 -14 10 -31z m-303 -1 c-3 -8 -6 -5 -6 6 -1 11 2 17 5 13 3 -3 4
-12 1 -19z m-653 -3 c4 -10 -1 -15 -16 -15 -17 0 -18 2 -8 15 7 8 14 15 15 15
2 0 5 -7 9 -15z m826 -35 c0 -5 -4 -10 -10 -10 -5 0 -10 5 -10 10 0 6 5 10 10
10 6 0 10 -4 10 -10z m-273 -45 c0 -11 -4 -12 -14 -4 -7 6 -13 13 -13 15 0 2
6 4 13 4 8 0 14 -7 14 -15z m381 -21 c7 4 12 1 12 -8 0 -10 -6 -13 -17 -9 -16
6 -16 5 -5 -10 8 -9 10 -22 6 -29 -5 -8 -12 0 -20 23 -17 48 -18 68 -1 44 8
-10 19 -15 25 -11z m69 -36 c-3 -8 -6 -5 -6 6 -1 11 2 17 5 13 3 -3 4 -12 1
-19z m-38 -18 c-13 -35 -30 -41 -21 -7 4 18 19 36 29 37 1 0 -3 -13 -8 -30z
m-89 0 c0 -5 -2 -10 -4 -10 -3 0 -8 5 -11 10 -3 6 -1 10 4 10 6 0 11 -4 11
-10z m-1243 -6 c-3 -3 -12 -4 -19 -1 -8 3 -5 6 6 6 11 1 17 -2 13 -5z m1290
-56 c-3 -8 -6 -5 -6 6 -1 11 2 17 5 13 3 -3 4 -12 1 -19z m63 13 c0 -5 -7 -12
-16 -15 -8 -3 -12 -11 -8 -17 4 -8 3 -9 -4 -5 -16 10 -15 33 1 39 19 8 27 8
27 -2z m-274 -68 c-1 -13 5 -17 22 -16 18 2 22 -2 22 -25 0 -36 15 -60 23 -38
4 9 2 16 -3 16 -6 0 -10 5 -10 10 0 7 6 7 19 0 13 -6 17 -17 14 -30 -3 -11 -1
-26 5 -33 6 -7 6 -21 1 -34 -12 -32 -22 -29 -15 5 6 24 5 25 -7 10 -18 -23
-25 -23 -29 1 -3 17 -5 18 -21 7 -16 -12 -15 -15 17 -30 36 -17 64 -45 33 -33
-10 3 -17 2 -17 -2 0 -5 -14 4 -31 20 -17 16 -39 29 -48 30 -11 0 -9 3 6 9 14
6 21 15 17 24 -3 8 -1 17 4 20 11 6 4 56 -8 56 -6 0 -7 37 -1 48 4 8 9 -1 7
-15z m124 7 c0 -5 -4 -10 -10 -10 -5 0 -10 5 -10 10 0 6 5 10 10 10 6 0 10 -4
10 -10z m-40 -10 c0 -5 -2 -10 -4 -10 -3 0 -8 5 -11 10 -3 6 -1 10 4 10 6 0
11 -4 11 -10z m75 -10 c3 -5 2 -10 -4 -10 -5 0 -13 5 -16 10 -3 6 -2 10 4 10
5 0 13 -4 16 -10z m-1125 -10 c8 -5 11 -10 5 -10 -5 0 -17 5 -25 10 -8 5 -10
10 -5 10 6 0 17 -5 25 -10z m1090 -49 c0 -17 -4 -32 -8 -35 -5 -3 -8 11 -8 29
1 42 16 47 16 6z m-1092 -8 c-10 -2 -18 -9 -18 -14 0 -5 -7 -9 -15 -9 -8 0
-15 4 -15 9 0 10 24 19 50 19 10 0 9 -2 -2 -5z m1152 -7 c0 -3 -4 -8 -10 -11
-5 -3 -10 -1 -10 4 0 6 5 11 10 11 6 0 10 -2 10 -4z m35 -25 c-3 -6 -11 -11
-17 -11 -6 0 -6 6 2 15 14 17 26 13 15 -4z m45 9 c0 -5 -5 -10 -11 -10 -5 0
-7 5 -4 10 3 6 8 10 11 10 2 0 4 -4 4 -10z m30 -6 c0 -8 -4 -12 -10 -9 -5 3
-10 10 -10 16 0 5 5 9 10 9 6 0 10 -7 10 -16z m-1270 -14 c0 -5 -2 -10 -4 -10
-3 0 -8 5 -11 10 -3 6 -1 10 4 10 6 0 11 -4 11 -10z m1110 -22 c0 -17 -3 -19
-9 -10 -6 10 -10 6 -14 -15 -6 -33 0 -44 13 -23 8 13 10 12 10 -2 0 -21 -12
-29 -29 -19 -21 13 1 89 27 91 1 0 2 -10 2 -22z m70 -30 c0 -5 -7 -3 -15 6 -8
8 -15 18 -15 22 0 3 7 1 15 -6 8 -7 15 -17 15 -22z m-210 1 c0 -14 -17 -10
-23 5 -4 10 -1 13 9 9 7 -3 14 -9 14 -14z m-102 -9 c-14 -22 -24 -19 -15 5 4
8 11 15 17 15 6 0 6 -7 -2 -20z m64 -41 c10 -7 8 -9 -4 -9 -10 0 -18 5 -18 10
0 6 -9 10 -20 10 -11 0 -20 4 -20 10 0 5 7 7 15 4 11 -4 15 1 16 17 1 22 2 21
9 -5 5 -16 15 -33 22 -37z m298 31 c5 0 11 6 13 13 4 8 6 6 6 -4 1 -9 -11 -29
-26 -45 l-26 -29 7 28 c4 16 2 27 -4 27 -5 0 -10 9 -10 21 0 19 1 19 16 5 8
-9 19 -16 24 -16z m-225 0 c3 -6 -1 -7 -9 -4 -12 4 -16 0 -16 -16 0 -12 -5
-30 -10 -41 -7 -12 -7 -19 -1 -19 10 0 27 39 23 53 -1 4 3 7 8 7 6 0 10 -5 10
-12 0 -6 7 -5 18 5 20 19 43 6 41 -22 0 -9 -5 -5 -11 9 -10 22 -12 22 -15 7
-3 -13 -11 -17 -23 -14 -15 4 -21 -4 -29 -41 -7 -34 -6 -49 2 -54 8 -5 7 -8
-4 -8 -21 0 -31 34 -15 50 8 10 7 11 -4 8 -9 -3 -14 -15 -12 -29 l3 -24 -22
21 c-24 24 -19 70 7 60 8 -3 15 1 16 12 2 32 4 37 11 50 10 15 24 16 32 2z
m-1169 -41 c19 -21 19 -21 -9 -8 -15 7 -27 16 -27 21 0 14 16 9 36 -13z m944
0 c0 -5 -4 -9 -10 -9 -5 0 -10 7 -10 16 0 8 5 12 10 9 6 -3 10 -10 10 -16z
m103 5 c9 -4 17 -10 17 -15 0 -13 -18 -20 -23 -9 -3 6 -4 5 -3 -2 2 -7 11 -12
20 -12 9 1 16 -2 16 -7 0 -5 -3 -9 -8 -9 -11 0 -35 -59 -29 -73 3 -7 -3 -13
-13 -13 -11 0 -16 6 -13 14 3 8 -3 15 -15 18 -18 5 -19 8 -5 35 11 23 12 33 3
44 -9 11 -7 12 9 8 24 -6 27 6 9 26 -11 11 -10 12 2 7 8 -3 23 -9 33 -12z
m387 -3 c0 -17 -12 -41 -20 -41 -4 0 -11 7 -14 16 -3 8 -2 12 4 9 6 -3 10 1
10 9 0 9 5 16 10 16 6 0 10 -4 10 -9z m-1484 -10 c-3 -5 4 -12 17 -16 61 -21
64 -23 37 -24 -31 -1 -88 34 -68 42 19 8 20 8 14 -2z m1321 -8 c-4 -3 1 -11
10 -18 21 -16 24 -52 5 -60 -11 -4 -13 0 -9 15 3 14 -1 25 -13 32 -18 12 -17
38 3 38 6 0 7 -3 4 -7z m79 -40 c-11 -11 -17 4 -9 23 7 18 8 18 11 1 2 -10 1
-21 -2 -24z m-1289 11 c-3 -3 -12 -4 -19 -1 -8 3 -5 6 6 6 11 1 17 -2 13 -5z
m733 -4 c0 -5 -2 -10 -4 -10 -3 0 -8 5 -11 10 -3 6 -1 10 4 10 6 0 11 -4 11
-10z m-563 -6 c-3 -3 -12 -4 -19 -1 -8 3 -5 6 6 6 11 1 17 -2 13 -5z m630 -16
c-3 -8 -6 -5 -6 6 -1 11 2 17 5 13 3 -3 4 -12 1 -19z m368 -6 c-7 -8 -35 7
-35 18 0 6 7 6 20 -2 10 -7 17 -14 15 -16z m-1187 0 c6 -18 -15 -14 -22 4 -4
10 -1 14 6 12 6 -2 14 -10 16 -16z m1222 -10 c0 -15 -2 -15 -10 -2 -13 20 -13
33 0 25 6 -3 10 -14 10 -23z m-1285 8 c-3 -5 -10 -10 -16 -10 -5 0 -9 5 -9 10
0 6 7 10 16 10 8 0 12 -4 9 -10z m230 -10 c3 -6 -1 -7 -9 -4 -18 7 -21 14 -7
14 6 0 13 -4 16 -10z m615 0 c0 -5 -4 -10 -10 -10 -5 0 -10 5 -10 10 0 6 5 10
10 10 6 0 10 -4 10 -10z m280 -20 c-1 -12 -17 -25 -35 -28 -19 -2 -19 -2 -2
11 21 17 22 27 2 27 -8 0 -15 -5 -15 -12 0 -6 -3 -8 -6 -5 -4 4 -1 13 5 21 10
12 16 13 32 3 10 -6 19 -14 19 -17z m84 14 c5 -14 4 -15 -9 -4 -17 14 -19 20
-6 20 5 0 12 -7 15 -16z m150 1 c-7 -16 -24 -21 -24 -6 0 8 7 13 27 20 1 1 0
-6 -3 -14z m-476 -30 c-6 -14 -13 -24 -14 -22 -6 6 9 47 17 47 5 0 3 -11 -3
-25z m-810 -8 c17 -13 29 -27 25 -30 -11 -12 -23 -8 -23 8 0 8 -12 21 -27 29
-16 8 -23 15 -17 16 5 0 24 -11 42 -23z m942 7 c0 -8 -4 -12 -10 -9 -5 3 -10
10 -10 16 0 5 5 9 10 9 6 0 10 -7 10 -16z m-775 -4 c-3 -5 -11 -10 -16 -10 -6
0 -7 5 -4 10 3 6 11 10 16 10 6 0 7 -4 4 -10z m1113 -8 c2 -7 -5 -12 -15 -11
-12 0 -14 2 -4 6 11 5 11 7 0 15 -12 8 -12 9 0 6 8 -3 17 -10 19 -16z m92 8
c0 -5 -5 -10 -11 -10 -5 0 -7 5 -4 10 3 6 8 10 11 10 2 0 4 -4 4 -10z m-1409
-19 c-12 -8 -10 -12 12 -22 50 -23 29 -50 -31 -42 -34 6 -56 24 -25 21 10 0
27 0 37 0 18 2 18 3 3 20 -17 18 -14 32 7 32 6 0 4 -4 -3 -9z m1034 -11 c-3
-5 -10 -10 -16 -10 -5 0 -9 5 -9 10 0 6 7 10 16 10 8 0 12 -4 9 -10z m-795
-10 c0 -5 -7 -7 -15 -4 -8 4 -15 8 -15 10 0 2 7 4 15 4 8 0 15 -4 15 -10z
m953 -42 c-2 -5 -9 -8 -14 -8 -6 0 -8 4 -5 9 3 5 -3 11 -14 14 -20 5 -28 27
-10 27 6 0 10 -4 10 -10 0 -18 20 -11 21 8 1 11 4 8 8 -8 5 -14 6 -28 4 -32z
m-123 32 c0 -5 -4 -10 -10 -10 -5 0 -10 5 -10 10 0 6 5 10 10 10 6 0 10 -4 10
-10z m-205 -10 c3 -6 -1 -7 -9 -4 -18 7 -21 14 -7 14 6 0 13 -4 16 -10z m458
-16 c-3 -8 -15 -14 -27 -14 -19 1 -19 2 -3 11 9 6 15 14 12 20 -3 5 1 6 9 3 8
-3 12 -12 9 -20z m-337 1 c-3 -8 0 -15 7 -16 9 0 9 -2 -1 -6 -6 -2 -10 -10 -6
-16 3 -7 -1 -4 -10 6 -15 19 -12 47 6 47 6 0 8 -7 4 -15z m-86 -5 c0 -5 -2
-10 -4 -10 -3 0 -8 5 -11 10 -3 6 -1 10 4 10 6 0 11 -4 11 -10z m40 -6 c0 -8
-19 -13 -24 -6 -3 5 1 9 9 9 8 0 15 -2 15 -3z m125 -4 c3 -5 1 -10 -4 -10 -6
0 -11 5 -11 10 0 6 2 10 4 10 3 0 8 -4 11 -10z m165 6 c0 -2 -7 -9 -15 -16
-13 -11 -14 -10 -9 4 5 14 24 23 24 12z m-1240 -16 c0 -5 -7 -10 -15 -10 -8 0
-15 5 -15 10 0 6 7 10 15 10 8 0 15 -4 15 -10z m251 -3 c-7 -7 -14 -8 -21 -1
-6 6 -2 10 12 11 16 2 18 -1 9 -10z m864 4 c3 -5 2 -12 -3 -15 -5 -3 -9 1 -9
9 0 17 3 19 12 6z m-1082 -15 c4 -10 1 -13 -8 -9 -8 3 -12 9 -9 14 7 12 11 11
17 -5z m1143 0 c7 -8 19 -16 26 -18 9 -3 8 -10 -6 -23 -18 -19 -18 -19 -12 3
5 16 3 22 -7 22 -8 0 -17 7 -21 15 -7 19 1 19 20 1z m229 4 c3 -5 1 -10 -4
-10 -6 0 -11 5 -11 10 0 6 2 10 4 10 3 0 8 -4 11 -10z m-445 -4 c0 -3 -4 -8
-10 -11 -5 -3 -10 -1 -10 4 0 6 5 11 10 11 6 0 10 -2 10 -4z m-925 -36 c-7
-11 -55 -19 -55 -9 0 5 5 9 11 9 5 0 8 4 5 9 -3 4 6 6 19 3 14 -2 23 -8 20
-12z m-85 -5 c-7 -8 -22 -14 -34 -14 -20 2 -20 2 2 6 12 2 22 9 22 14 0 5 5 9
11 9 8 0 8 -5 -1 -15z m1101 -16 c-9 -22 -10 -22 -10 -3 -1 11 2 24 6 27 12
12 14 0 4 -24z m299 21 c0 -5 -2 -10 -4 -10 -3 0 -8 5 -11 10 -3 6 -1 10 4 10
6 0 11 -4 11 -10z m-1220 -14 c0 -3 -4 -8 -10 -11 -5 -3 -10 -1 -10 4 0 6 5
11 10 11 6 0 10 -2 10 -4z m833 -11 c-3 -9 -8 -14 -10 -11 -3 3 -2 9 2 15 9
16 15 13 8 -4z m-927 -4 c-8 -12 -46 -21 -46 -11 0 9 18 18 38 19 7 1 11 -3 8
-8z m994 -1 c0 -5 -4 -10 -10 -10 -5 0 -10 5 -10 10 0 6 5 10 10 10 6 0 10 -4
10 -10z m-73 -63 c6 1 9 -6 6 -17 -3 -11 0 -20 6 -20 6 0 11 -5 11 -10 0 -6
-7 -6 -19 2 -22 13 -39 64 -32 93 4 15 6 11 11 -15 3 -19 11 -34 17 -33z m164
10 c-8 -8 -11 -4 -11 14 0 33 14 47 18 19 2 -12 -1 -27 -7 -33z m-38 29 c4
-10 1 -13 -8 -9 -8 3 -12 9 -9 14 7 12 11 11 17 -5z m-1125 -5 c11 -7 11 -9
-1 -14 -8 -3 -23 -4 -33 -2 -11 2 -23 4 -29 5 -5 1 1 6 15 10 34 11 33 11 48
1z m81 -48 c1 -15 -4 -21 -12 -17 -8 3 -20 -2 -27 -11 -16 -19 -30 -19 -30 1
0 8 5 12 11 9 9 -6 48 35 41 43 -6 6 -17 -1 -14 -10 2 -6 -4 -8 -12 -5 -8 3
-16 1 -18 -5 -2 -6 -13 -8 -23 -6 -16 3 -13 7 18 22 20 10 40 23 44 29 8 13
21 -18 22 -50z m1187 22 c-3 -9 -11 -13 -16 -10 -8 5 -7 11 1 21 14 18 24 11
15 -11z m-1056 -14 c0 -5 -9 -7 -20 -4 -11 3 -20 7 -20 9 0 2 9 4 20 4 11 0
20 -4 20 -9z m902 -29 c-6 -2 -8 -10 -5 -18 3 -9 0 -14 -7 -12 -7 2 -15 -3
-18 -11 -3 -8 0 -11 7 -7 6 4 11 2 11 -4 0 -6 -8 -10 -17 -8 -11 2 -18 12 -17
25 0 12 -3 20 -7 18 -4 -3 -10 2 -13 10 -4 12 0 14 22 9 15 -4 24 -3 20 1 -4
4 -1 13 5 20 10 11 14 10 21 -3 6 -10 5 -17 -2 -20z m308 -2 c0 -5 -2 -10 -4
-10 -3 0 -8 5 -11 10 -3 6 -1 10 4 10 6 0 11 -4 11 -10z m-488 -20 l22 -20
-27 0 c-20 0 -27 5 -27 20 0 11 2 20 5 20 3 0 15 -9 27 -20z m448 10 c0 -5 -2
-10 -4 -10 -3 0 -8 5 -11 10 -3 6 -1 10 4 10 6 0 11 -4 11 -10z m100 -5 c-7
-9 -15 -13 -17 -11 -7 7 7 26 19 26 6 0 6 -6 -2 -15z m-310 -7 c0 -4 -9 -8
-20 -8 -11 0 -20 4 -20 8 0 4 9 8 20 8 11 0 20 -4 20 -8z m79 -22 c-3 -3 -11
5 -18 17 -13 21 -12 21 5 5 10 -10 16 -20 13 -22z m-239 9 c6 -8 10 -22 7 -32
-4 -14 -5 -14 -6 4 0 12 -9 27 -18 32 -10 6 -13 11 -7 11 6 0 17 -7 24 -15z
m-850 1 c0 -3 -4 -8 -10 -11 -5 -3 -10 -1 -10 4 0 6 5 11 10 11 6 0 10 -2 10
-4z m1023 -13 c-7 -3 -13 -11 -13 -19 0 -8 -4 -14 -10 -14 -5 0 -9 6 -7 12 3
16 30 38 37 31 3 -3 -1 -8 -7 -10z m-275 -20 c-2 -10 -11 -18 -21 -19 -14 -2
-14 -1 -1 3 8 3 13 11 10 19 -3 8 -1 14 5 14 6 0 9 -8 7 -17z m522 3 c0 -3 -4
-8 -10 -11 -5 -3 -10 -1 -10 4 0 6 5 11 10 11 6 0 10 -2 10 -4z m-383 -25 c-2
-10 0 -27 6 -37 8 -16 7 -17 -4 -6 -20 19 -31 14 -24 -10 5 -20 4 -21 -5 -5
-6 9 -8 22 -5 27 3 6 0 10 -7 11 -7 0 -3 4 10 9 12 5 22 14 22 20 0 5 3 10 6
10 4 0 4 -8 1 -19z m233 9 c0 -5 -2 -10 -4 -10 -3 0 -8 5 -11 10 -3 6 -1 10 4
10 6 0 11 -4 11 -10z m-1093 -22 c-3 -8 -6 -5 -6 6 -1 11 2 17 5 13 3 -3 4
-12 1 -19z m753 2 c0 -5 -2 -10 -4 -10 -3 0 -8 5 -11 10 -3 6 -1 10 4 10 6 0
11 -4 11 -10z m395 0 c-3 -5 -11 -10 -16 -10 -6 0 -7 5 -4 10 3 6 11 10 16 10
6 0 7 -4 4 -10z m-435 -14 c0 -3 -4 -8 -10 -11 -5 -3 -10 -1 -10 4 0 6 5 11
10 11 6 0 10 -2 10 -4z m450 -6 c0 -5 -5 -10 -11 -10 -5 0 -7 5 -4 10 3 6 8
10 11 10 2 0 4 -4 4 -10z m-205 -31 c10 -30 2 -32 -12 -3 -6 13 -7 24 -3 24 5
0 12 -9 15 -21z m-25 -9 c0 -5 -4 -10 -9 -10 -6 0 -13 5 -16 10 -3 6 1 10 9
10 9 0 16 -4 16 -10z m-26 -32 c-3 -5 -12 -2 -20 6 -20 21 -17 28 5 14 11 -7
17 -16 15 -20z m416 -13 c0 -2 -6 -5 -13 -8 -8 -3 -14 1 -14 8 0 7 6 11 14 8
7 -3 13 -6 13 -8z m-440 -23 c0 -15 -2 -15 -10 -2 -13 20 -13 33 0 25 6 -3 10
-14 10 -23z m97 22 c-3 -3 -12 -4 -19 -1 -8 3 -5 6 6 6 11 1 17 -2 13 -5z
m-27 -30 c0 -8 -4 -12 -10 -9 -5 3 -10 10 -10 16 0 5 5 9 10 9 6 0 10 -7 10
-16z m-1124 -18 c8 -8 14 -24 14 -35 0 -12 5 -21 11 -21 5 0 7 -5 3 -11 -5 -8
-9 -8 -14 1 -4 7 -13 9 -20 5 -7 -4 -16 -2 -20 5 -4 7 -13 9 -19 6 -16 -11
-13 -26 4 -20 8 4 15 1 15 -5 0 -12 -22 -13 -60 -2 l-25 7 23 8 c24 8 30 25
10 27 -7 1 -2 4 12 8 14 4 28 3 32 -3 4 -6 10 -7 14 -3 4 4 2 13 -4 19 -7 7
-12 16 -12 20 0 13 20 9 36 -6z m1068 -21 c-9 -14 -14 -34 -11 -45 7 -28 -14
-25 -37 6 -18 26 -18 26 3 15 19 -11 22 -9 27 19 4 16 13 30 20 30 12 0 11 -5
-2 -25z m429 11 c22 -17 22 -25 -2 -23 -11 1 -22 9 -24 19 -6 21 1 22 26 4z
m-463 -6 c0 -5 -2 -10 -4 -10 -3 0 -8 5 -11 10 -3 6 -1 10 4 10 6 0 11 -4 11
-10z m84 -35 c3 -8 1 -15 -4 -15 -6 0 -10 4 -10 10 0 5 -7 6 -17 3 -11 -4 -14
-3 -9 5 10 17 33 15 40 -3z m89 -9 c4 -10 1 -13 -8 -9 -8 3 -12 9 -9 14 7 12
11 11 17 -5z m-1063 -6 c0 -5 -5 -10 -11 -10 -5 0 -7 5 -4 10 3 6 8 10 11 10
2 0 4 -4 4 -10z m837 -22 c-3 -8 -6 -5 -6 6 -1 11 2 17 5 13 3 -3 4 -12 1 -19z
m113 7 c0 -8 -2 -15 -4 -15 -2 0 -6 7 -10 15 -3 8 -1 15 4 15 6 0 10 -7 10
-15z m60 -10 c0 -8 -6 -12 -14 -9 -18 7 -29 -25 -15 -42 6 -8 8 -14 3 -14 -5
0 -1 -5 9 -11 9 -5 17 -15 17 -20 0 -16 -20 0 -42 35 -11 17 -18 23 -14 14 3
-10 1 -18 -4 -18 -6 0 -10 9 -10 20 0 11 6 20 13 20 7 0 18 9 25 20 14 23 32
26 32 5z m-1156 -27 c-9 -14 -44 -8 -44 8 0 8 4 13 9 9 5 -3 13 0 17 6 5 8 9
7 15 -2 4 -7 5 -17 3 -21z m740 7 c-4 -8 -1 -15 5 -15 6 0 11 -5 11 -12 0 -8
-6 -7 -16 4 -9 9 -13 21 -10 27 10 16 16 13 10 -4z m294 -5 c-7 -10 -14 -17
-17 -15 -4 4 18 35 25 35 2 0 -1 -9 -8 -20z m230 0 c-11 -18 -38 -36 -38 -25
0 5 42 45 47 45 2 0 -2 -9 -9 -20z m-78 0 c0 -5 -4 -10 -10 -10 -5 0 -10 5
-10 10 0 6 5 10 10 10 6 0 10 -4 10 -10z m-290 -21 c0 -6 -4 -7 -10 -4 -5 3
-10 11 -10 16 0 6 5 7 10 4 6 -3 10 -11 10 -16z m180 17 c0 -2 -7 -9 -15 -16
-12 -10 -15 -10 -15 4 0 9 7 16 15 16 8 0 15 -2 15 -4z m290 0 c0 -3 -4 -8
-10 -11 -5 -3 -10 -1 -10 4 0 6 5 11 10 11 6 0 10 -2 10 -4z m-1353 -31 c-4
-8 -11 -15 -17 -15 -6 0 -6 7 2 20 14 22 24 19 15 -5z m798 15 c-3 -5 -12 -10
-18 -10 -7 0 -6 4 3 10 19 12 23 12 15 0z m-697 -17 c0 -10 3 -33 7 -50 11
-47 -9 -41 -21 7 -8 27 -8 42 0 50 14 14 15 13 14 -7z m1075 11 c-7 -3 -10
-11 -7 -19 3 -7 0 -16 -7 -21 -9 -5 -10 -2 -6 9 3 10 2 17 -4 17 -6 0 -7 5 -4
10 3 6 14 10 23 9 10 0 12 -3 5 -5z m-126 -31 c4 -10 13 -24 20 -31 7 -7 13
-19 12 -25 0 -9 -2 -8 -6 1 -2 6 -11 12 -19 12 -13 0 -18 12 -15 33 0 4 -3 7
-9 7 -5 0 -10 5 -10 10 0 17 20 11 27 -7z m-1007 -3 c0 -5 -4 -10 -10 -10 -5
0 -10 5 -10 10 0 6 5 10 10 10 6 0 10 -4 10 -10z m97 -12 c-3 -8 -6 -5 -6 6
-1 11 2 17 5 13 3 -3 4 -12 1 -19z m603 12 c0 -5 -4 -10 -10 -10 -5 0 -10 5
-10 10 0 6 5 10 10 10 6 0 10 -4 10 -10z m-775 -10 c-3 -5 -12 -10 -18 -10 -7
0 -6 4 3 10 19 12 23 12 15 0z m1219 -12 c-1 -13 -3 -29 -3 -36 -1 -7 -6 -10
-11 -7 -8 5 -8 11 -1 19 6 7 8 16 5 19 -3 3 -3 10 1 16 9 16 12 13 9 -11z
m-1200 -39 c-9 -10 -22 -19 -28 -19 -8 0 -8 2 0 8 6 4 17 18 24 32 9 16 15 20
18 12 2 -7 -4 -22 -14 -33z m76 19 c0 -5 -6 -8 -14 -5 -8 3 -17 1 -19 -6 -2
-7 -7 -9 -11 -6 -10 9 23 41 35 34 5 -4 9 -11 9 -17z m730 6 c0 -8 -4 -12 -10
-9 -5 3 -10 10 -10 16 0 5 5 9 10 9 6 0 10 -7 10 -16z m345 -57 c5 4 3 0 -4
-10 -17 -21 -17 -21 -24 28 l-6 40 12 -33 c7 -19 16 -30 22 -25z m-889 16
c-10 -10 -19 5 -10 18 6 11 8 11 12 0 2 -7 1 -15 -2 -18z m608 1 c9 -24 7 -28
-9 -14 -17 14 -20 30 -6 30 5 0 12 -7 15 -16z m-734 -13 c13 -26 13 -34 -2
-28 -7 2 -13 8 -13 13 0 5 -4 15 -8 22 -5 7 -4 12 2 12 6 0 15 -9 21 -19z
m190 9 c0 -5 -2 -10 -4 -10 -3 0 -8 5 -11 10 -3 6 -1 10 4 10 6 0 11 -4 11
-10z m440 1 c0 -6 -4 -13 -10 -16 -5 -3 -10 1 -10 9 0 9 5 16 10 16 6 0 10 -4
10 -9z m209 -45 c-2 -20 -2 -20 -6 2 -2 12 -9 20 -14 17 -5 -4 -9 1 -9 11 0
13 3 14 15 4 8 -7 14 -22 14 -34z m141 23 c0 -6 -4 -7 -10 -4 -5 3 -10 11 -10
16 0 6 5 7 10 4 6 -3 10 -11 10 -16z m-1025 1 c3 -5 1 -10 -4 -10 -6 0 -11 5
-11 10 0 6 2 10 4 10 3 0 8 -4 11 -10z m987 -29 c-9 -6 -10 -15 -3 -33 8 -20
7 -28 -5 -32 -10 -4 -14 3 -14 28 0 48 10 70 24 56 8 -8 7 -13 -2 -19z m-782
10 c0 -12 -20 -25 -27 -18 -7 7 6 27 18 27 5 0 9 -4 9 -9z m517 -16 c-8 -17
-19 -25 -32 -23 -11 2 -18 8 -15 13 3 6 9 9 13 7 4 -1 15 4 23 13 22 21 24 19
11 -10z m377 16 c4 -5 -3 -7 -14 -4 -23 6 -26 13 -6 13 8 0 17 -4 20 -9z
m-464 -25 c0 -3 -4 -8 -10 -11 -5 -3 -10 -1 -10 4 0 6 5 11 10 11 6 0 10 -2
10 -4z m542 -31 c3 -23 1 -31 -7 -25 -13 11 -18 60 -6 60 5 0 11 -16 13 -35z
m-272 21 c0 -3 -4 -8 -10 -11 -5 -3 -10 -1 -10 4 0 6 5 11 10 11 6 0 10 -2 10
-4z m38 -32 c1 -15 -2 -23 -8 -19 -6 4 -8 11 -5 16 4 5 0 9 -7 9 -9 0 -9 3 2
10 8 5 15 10 15 10 0 0 2 -11 3 -26z m182 10 c0 -8 -4 -12 -10 -9 -5 3 -10 10
-10 16 0 5 5 9 10 9 6 0 10 -7 10 -16z m-910 -9 c0 -20 -12 -25 -26 -10 -18
18 -18 21 6 21 11 0 20 -5 20 -11z m460 -5 c0 -5 -4 -10 -10 -10 -5 0 -10 5
-10 10 0 6 5 10 10 10 6 0 10 -4 10 -10z m190 0 c0 -5 -5 -10 -11 -10 -5 0 -7
5 -4 10 3 6 8 10 11 10 2 0 4 -4 4 -10z m-635 -44 c-4 -20 -11 -34 -15 -31 -7
5 -5 28 6 64 9 27 15 2 9 -33z m779 29 c-7 -16 -24 -21 -24 -6 0 8 7 13 27 20
1 1 0 -6 -3 -14z m-284 -5 c0 -5 -4 -10 -9 -10 -5 0 -18 -3 -28 -7 -16 -6 -16
-5 -4 10 15 19 41 23 41 7z m410 6 c0 -3 -4 -8 -10 -11 -5 -3 -10 -1 -10 4 0
6 5 11 10 11 6 0 10 -2 10 -4z m-247 -13 c-7 -2 -13 -11 -13 -19 0 -9 -5 -12
-10 -9 -13 8 6 35 24 34 7 0 6 -2 -1 -6z m-693 -13 c0 -5 -2 -10 -4 -10 -3 0
-8 5 -11 10 -3 6 -1 10 4 10 6 0 11 -4 11 -10z m-37 -25 c-3 -8 -11 -15 -19
-15 -8 0 -14 -6 -15 -12 0 -10 -2 -10 -6 0 -6 15 26 54 38 46 4 -2 6 -11 2
-19z m585 5 c7 -12 8 -20 2 -20 -5 0 -10 5 -10 11 0 6 -7 9 -14 6 -10 -4 -13
-1 -9 9 7 19 16 18 31 -6z m-638 -2 c0 -4 -7 -8 -15 -8 -8 0 -15 4 -15 8 0 5
7 9 15 9 8 0 15 -4 15 -9z m540 -8 c-24 -15 -36 -11 -14 4 10 8 21 12 24 10 2
-3 -2 -9 -10 -14z m575 2 c-3 -3 -11 0 -18 7 -9 10 -8 11 6 5 10 -3 15 -9 12
-12z m-1229 -22 c0 -12 -4 -16 -9 -11 -5 5 -6 14 -3 20 10 15 12 14 12 -9z
m215 -1 c9 -17 13 -19 20 -8 6 10 9 3 9 -22 0 -49 -12 -57 -25 -17 -7 22 -17
33 -28 32 -19 -2 -19 -2 -11 20 8 22 21 20 35 -5z m69 -16 c0 -7 -4 -13 -10
-13 -5 0 -10 12 -10 28 0 21 2 24 10 12 5 -8 10 -21 10 -27z m367 1 c-3 -3
-12 -4 -19 -1 -8 3 -5 6 6 6 11 1 17 -2 13 -5z m48 -45 c1 -14 -3 -18 -13 -14
-8 3 -20 -3 -28 -12 -12 -17 -13 -16 -8 4 3 11 15 24 26 26 13 4 17 10 12 19
-4 7 -3 10 1 5 5 -4 9 -17 10 -28z m118 1 c-3 -11 -9 -17 -15 -14 -5 3 -4 12
3 20 16 19 18 18 12 -6z m167 5 c0 -8 -4 -15 -10 -15 -5 0 -10 7 -10 15 0 8 5
15 10 15 6 0 10 -7 10 -15z m1560 -1 c0 -2 -9 -4 -21 -4 -11 0 -18 4 -14 10 5
8 35 3 35 -6z m-1536 -9 c3 -9 0 -15 -9 -15 -9 0 -12 6 -9 15 4 8 7 15 9 15 2
0 5 -7 9 -15z m-727 -27 c-3 -8 -6 -5 -6 6 -1 11 2 17 5 13 3 -3 4 -12 1 -19z
m693 8 c0 -3 -4 -8 -10 -11 -5 -3 -10 -1 -10 4 0 6 5 11 10 11 6 0 10 -2 10
-4z m24 -31 c3 -9 0 -15 -9 -15 -16 0 -27 14 -18 24 10 10 21 7 27 -9z m185
-34 c-2 -6 -10 2 -17 17 -11 25 -11 25 4 10 9 -9 15 -21 13 -27z m-1039 13 c0
-2 -7 -4 -15 -4 -8 0 -15 4 -15 10 0 5 7 7 15 4 8 -4 15 -8 15 -10z m146 -14
c5 0 10 -8 12 -19 3 -19 4 -19 35 -3 18 9 35 21 38 25 3 5 23 0 43 -11 26 -14
32 -21 21 -26 -8 -3 -15 -13 -15 -22 0 -14 3 -14 15 -4 20 17 25 11 31 -36 8
-61 27 -148 35 -159 26 -37 41 -182 54 -555 4 -103 2 -131 -12 -160 -10 -19
-22 -38 -27 -42 -19 -13 -19 -127 0 -183 13 -41 15 -59 7 -77 -8 -19 -3 -37
33 -108 24 -46 44 -91 44 -100 0 -8 8 -31 18 -50 13 -23 21 -67 25 -131 3 -53
11 -109 18 -125 6 -16 13 -47 14 -69 2 -22 8 -58 16 -81 16 -53 8 -74 -30 -74
-36 0 -63 31 -85 98 -11 32 -13 57 -8 77 9 31 6 94 -4 104 -3 3 -13 6 -22 6
-25 0 -26 38 -3 66 l20 24 1 -22 c0 -13 5 -23 10 -23 14 0 12 20 -5 50 -8 14
-14 36 -15 48 0 14 -5 22 -12 19 -9 -2 -12 -19 -10 -47 3 -25 0 -40 -6 -36 -5
3 -7 17 -4 31 3 18 0 25 -12 25 -9 0 -16 -8 -16 -19 0 -11 -4 -22 -8 -25 -5
-3 -7 -18 -4 -34 3 -21 -2 -33 -15 -43 -16 -11 -20 -28 -22 -83 -1 -39 -4 -73
-7 -77 -2 -4 4 -26 14 -49 17 -39 19 -41 34 -26 24 23 57 20 67 -6 12 -31 -2
-43 -47 -43 -45 0 -51 -24 -9 -38 22 -7 32 -5 48 9 19 17 23 17 47 3 15 -8 29
-25 30 -38 2 -14 10 -31 18 -39 8 -8 14 -22 12 -31 -3 -13 -17 -16 -78 -16
-63 0 -80 4 -104 23 -16 12 -36 22 -45 22 -11 0 -21 14 -28 38 -6 20 -23 64
-37 97 -15 35 -26 79 -26 107 0 62 -8 82 -26 67 -8 -7 -18 -9 -21 -5 -4 4 -3
10 3 14 6 4 15 27 19 52 9 45 12 281 6 355 -2 22 -1 49 3 61 7 20 4 20 -74 19
-45 -1 -85 -6 -88 -12 -9 -13 -47 -22 -60 -14 -6 3 -13 20 -16 36 -6 26 -5 27
4 7 9 -21 11 -22 33 -7 13 8 31 13 39 10 11 -4 21 6 33 32 18 36 19 37 25 14
3 -14 11 -26 18 -29 14 -4 15 7 3 27 -10 15 -4 41 9 41 4 0 5 -12 2 -27 -5
-25 -4 -27 11 -14 10 7 17 24 17 37 0 13 3 24 8 24 4 0 13 10 21 23 10 17 11
19 0 10 -25 -24 -33 -13 -9 12 13 14 18 25 12 25 -7 0 -12 -4 -12 -10 0 -5 -4
-10 -10 -10 -5 0 -10 7 -10 15 0 8 4 15 8 15 5 0 8 19 8 43 -1 29 -4 40 -11
33 -12 -11 -14 -46 -3 -46 4 0 8 -4 8 -10 0 -5 -12 -10 -26 -10 -14 0 -23 -4
-19 -10 3 -5 -1 -10 -9 -10 -20 0 -20 10 0 38 12 17 12 22 2 22 -9 1 -7 5 5
14 34 26 12 31 -33 7 l-25 -14 23 26 c13 14 35 28 48 31 14 4 22 11 19 16 -4
7 -13 6 -26 0 -12 -7 -19 -7 -19 -1 0 6 19 16 43 22 23 6 36 14 30 16 -9 3
-11 14 -6 31 6 24 5 26 -11 13 -9 -8 -20 -10 -24 -6 -4 4 -1 10 6 12 6 3 12
11 12 19 0 8 7 14 15 14 10 0 15 10 15 34 0 19 -7 41 -15 50 -8 8 -15 20 -15
26 0 6 -4 8 -10 5 -5 -3 -10 0 -10 7 0 10 -2 10 -9 -1 -5 -8 -7 -21 -4 -30 4
-14 3 -14 -5 -1 -6 8 -7 21 -2 29 9 16 40 24 40 10 0 -17 19 -9 31 12 9 18 8
20 -8 15 -10 -3 -23 -2 -29 2 -14 9 -28 75 -14 67 6 -3 11 4 11 17 1 17 3 18
6 6 6 -24 23 -23 23 1 0 32 -19 71 -34 71 -9 0 -12 7 -9 21 3 12 0 25 -7 29
-10 6 -10 12 3 30 11 15 16 18 20 8 3 -7 6 -1 6 14 1 22 -2 25 -21 21 -22 -4
-22 -4 -4 11 10 8 15 19 12 25 -4 5 -2 12 4 16 14 9 13 45 -2 45 -6 0 -4 8 6
19 10 11 15 25 11 31 -4 6 -13 2 -25 -12 -11 -13 -19 -18 -20 -12 0 6 12 24
26 39 19 20 25 36 22 57 -3 15 -1 28 4 28 4 0 8 -8 9 -17 0 -12 4 -8 11 10 5
15 14 27 19 27 5 0 9 11 9 25 0 14 -4 25 -10 25 -5 0 -10 -7 -10 -15 0 -8 -4
-15 -10 -15 -5 0 -10 7 -10 16 0 11 -6 15 -20 11 -11 -3 -20 0 -20 6 0 7 -4 6
-10 -3 -5 -8 -10 -12 -12 -10 -29 45 -33 79 -6 52 17 -17 33 -15 18 3 -10 12
-9 16 4 21 9 3 16 14 16 23 0 12 2 13 9 3 4 -8 12 -13 17 -12z m469 -11 c1
-11 -2 -22 -7 -25 -4 -3 -8 -21 -8 -41 0 -30 3 -35 20 -30 14 3 20 0 20 -11 0
-8 -3 -12 -7 -9 -3 4 -17 -5 -30 -19 l-24 -26 6 32 c5 26 3 31 -9 27 -19 -7
-31 9 -14 17 11 5 11 7 0 12 -18 8 -4 24 16 18 14 -5 15 -4 2 5 -12 8 -12 11
3 17 10 3 17 14 16 23 -2 28 1 45 8 37 4 -3 7 -16 8 -27z m65 22 c0 -5 -7 -12
-16 -15 -14 -5 -15 -4 -4 9 14 17 20 19 20 6z m-590 -6 c0 -8 -52 -26 -58 -20
-3 2 6 9 19 14 28 11 39 13 39 6z m784 -10 c-6 -16 -24 -21 -24 -7 0 11 11 22
21 22 5 0 6 -7 3 -15z m-341 -8 c3 -8 -1 -14 -9 -14 -15 0 -18 9 -7 20 9 9 10
9 16 -6z m182 3 c-3 -5 -11 -10 -16 -10 -6 0 -7 5 -4 10 3 6 11 10 16 10 6 0
7 -4 4 -10z m-720 -10 c3 -5 2 -16 -2 -24 -6 -12 -10 -10 -20 10 -9 19 -8 24
2 24 8 0 17 -4 20 -10z m1331 -15 c-9 -9 -16 -13 -16 -8 0 12 22 34 28 28 2
-2 -3 -11 -12 -20z m-553 -20 c-7 -21 -13 -19 -13 6 0 11 4 18 10 14 5 -3 7
-12 3 -20z m1717 -16 c0 -5 -8 -13 -18 -18 -16 -8 -18 -5 -18 24 0 33 1 34 18
18 10 -9 18 -20 18 -24z m-1946 17 c-10 -8 -21 -12 -24 -10 -5 6 21 24 34 24
6 0 1 -6 -10 -14z m-585 -29 c0 -9 -2 -9 -5 0 -3 7 -13 9 -22 6 -14 -4 -14 -3
-2 5 16 12 30 7 29 -11z m95 8 c6 -17 4 -18 -18 -9 -20 8 -21 24 -2 24 8 0 16
-7 20 -15z m451 -5 c3 -5 2 -10 -4 -10 -5 0 -13 5 -16 10 -3 6 -2 10 4 10 5 0
13 -4 16 -10z m-500 -20 c3 -5 2 -10 -4 -10 -5 0 -13 5 -16 10 -3 6 -2 10 4
10 5 0 13 -4 16 -10z m95 -25 c-7 -9 -15 -13 -17 -11 -6 6 20 36 26 30 2 -2
-2 -10 -9 -19z m2355 5 c-3 -5 -11 -10 -16 -10 -6 0 -7 5 -4 10 3 6 11 10 16
10 6 0 7 -4 4 -10z m-1121 -50 c-6 -5 -24 21 -24 34 0 6 6 1 14 -10 8 -10 12
-21 10 -24z m-689 10 c3 -5 1 -10 -4 -10 -6 0 -11 5 -11 10 0 6 2 10 4 10 3 0
8 -4 11 -10z m105 -10 c0 -5 -5 -10 -11 -10 -5 0 -7 5 -4 10 3 6 8 10 11 10 2
0 4 -4 4 -10z m35 -9 c3 -5 1 -12 -5 -16 -5 -3 -10 1 -10 9 0 18 6 21 15 7z
m-228 -33 c-3 -8 -6 -5 -6 6 -1 11 2 17 5 13 3 -3 4 -12 1 -19z m83 9 c0 -2
-10 -12 -22 -23 l-23 -19 19 23 c18 21 26 27 26 19z m530 -3 c0 -8 -19 -13
-24 -6 -3 5 1 9 9 9 8 0 15 -2 15 -3z m180 -4 c0 -5 -4 -10 -10 -10 -5 0 -10
5 -10 10 0 6 5 10 10 10 6 0 10 -4 10 -10z m1210 0 c0 -5 -4 -10 -10 -10 -5 0
-10 5 -10 10 0 6 5 10 10 10 6 0 10 -4 10 -10z m-1966 -15 c-4 -8 -8 -15 -10
-15 -2 0 -4 7 -4 15 0 8 4 15 10 15 5 0 7 -7 4 -15z m83 -11 c-9 -9 -28 6 -21
18 4 6 10 6 17 -1 6 -6 8 -13 4 -17z m1820 4 c-3 -8 -6 -5 -6 6 -1 11 2 17 5
13 3 -3 4 -12 1 -19z m-1755 -20 c-7 -7 -12 -8 -12 -2 0 14 12 26 19 19 2 -3
-1 -11 -7 -17z m1818 12 c0 -5 -4 -10 -10 -10 -5 0 -10 5 -10 10 0 6 5 10 10
10 6 0 10 -4 10 -10z m-1840 -14 c0 -3 -4 -8 -10 -11 -5 -3 -10 -1 -10 4 0 6
5 11 10 11 6 0 10 -2 10 -4z m470 -6 c0 -5 -5 -10 -11 -10 -5 0 -7 5 -4 10 3
6 8 10 11 10 2 0 4 -4 4 -10z m144 -15 c3 -8 1 -15 -4 -15 -6 0 -10 7 -10 15
0 8 2 15 4 15 2 0 6 -7 10 -15z m-187 -15 c-1 -11 -5 -20 -9 -20 -10 0 -10 4
-2 24 8 22 13 20 11 -4z m1459 -16 c-5 -13 -10 -14 -18 -6 -6 6 -8 18 -4 28 5
13 10 14 18 6 6 -6 8 -18 4 -28z m-2058 4 c-2 -12 -10 -23 -18 -26 -12 -4 -13
-2 -2 9 17 18 15 27 -5 32 -13 3 -12 5 5 6 19 1 23 -4 20 -21z m112 -25 c0
-13 -5 -23 -11 -23 -5 0 -7 5 -4 10 3 6 2 10 -3 10 -5 0 -7 12 -4 26 3 19 7
22 13 12 5 -7 9 -23 9 -35z m522 5 c-7 -7 -12 -8 -12 -2 0 6 3 14 7 17 3 4 9
5 12 2 2 -3 -1 -11 -7 -17z m1397 -21 c1 -5 -3 -5 -9 -2 -5 3 -10 16 -9 28 0
21 1 21 9 2 5 -11 9 -24 9 -28z m-2469 18 c0 -8 -4 -15 -10 -15 -5 0 -10 7
-10 15 0 8 5 15 10 15 6 0 10 -7 10 -15z m1140 5 c0 -5 -4 -10 -10 -10 -5 0
-10 5 -10 10 0 6 5 10 10 10 6 0 10 -4 10 -10z m-693 -35 c-9 -8 -21 -15 -27
-15 -7 0 -2 9 11 19 28 22 39 20 16 -4z m40 3 c-3 -8 -6 -5 -6 6 -1 11 2 17 5
13 3 -3 4 -12 1 -19z m603 -3 c7 -9 8 -15 2 -15 -5 0 -12 7 -16 15 -3 8 -4 15
-2 15 2 0 9 -7 16 -15z m-576 -29 c-8 -20 -20 -21 -27 -2 -4 10 -1 13 9 9 7
-3 14 1 14 8 0 7 2 10 5 7 3 -3 3 -13 -1 -22z m186 14 c0 -5 -2 -10 -4 -10 -3
0 -8 5 -11 10 -3 6 -1 10 4 10 6 0 11 -4 11 -10z m1760 0 c0 -5 -2 -10 -4 -10
-3 0 -8 5 -11 10 -3 6 -1 10 4 10 6 0 11 -4 11 -10z m46 -17 c-7 -7 -26 7 -26
19 0 6 6 6 15 -2 9 -7 13 -15 11 -17z m-1456 1 c0 -8 -19 -13 -24 -6 -3 5 1 9
9 9 8 0 15 -2 15 -3z m190 -4 c0 -5 -5 -10 -11 -10 -5 0 -7 5 -4 10 3 6 8 10
11 10 2 0 4 -4 4 -10z m-698 -8 c-7 -5 -10 -16 -7 -24 4 -9 2 -19 -4 -22 -6
-4 -9 4 -7 21 5 35 4 33 19 33 9 0 9 -2 -1 -8z m338 -2 c0 -5 -5 -10 -11 -10
-5 0 -7 5 -4 10 3 6 8 10 11 10 2 0 4 -4 4 -10z m1620 -26 c0 -22 -16 -17 -17
6 -1 11 2 18 8 15 5 -4 9 -13 9 -21z m-1495 -4 c-10 -11 -23 -20 -29 -20 -6 1
0 10 13 20 30 26 39 26 16 0z m228 -20 c-7 -28 -13 -25 -13 6 0 14 4 23 9 20
5 -3 7 -15 4 -26z m-723 8 c0 -4 -4 -8 -9 -8 -6 0 -12 4 -15 8 -3 5 1 9 9 9 8
0 15 -4 15 -9z m600 -3 c-7 -9 -15 -13 -17 -11 -7 7 7 26 19 26 6 0 6 -6 -2
-15z m-680 -4 c0 -5 -7 -12 -16 -15 -14 -5 -15 -4 -4 9 14 17 20 19 20 6z
m150 -22 c0 -5 -4 -9 -10 -9 -5 0 -10 7 -10 16 0 8 5 12 10 9 6 -3 10 -10 10
-16z m-116 -33 c-6 -16 -24 -23 -24 -8 0 10 22 33 27 28 2 -2 1 -11 -3 -20z
m451 6 c-3 -3 -11 0 -18 7 -9 10 -8 11 6 5 10 -3 15 -9 12 -12z m57 -4 c-7 -7
-12 -8 -12 -2 0 6 3 14 7 17 3 4 9 5 12 2 2 -3 -1 -11 -7 -17z m1493 12 c3 -5
2 -10 -4 -10 -5 0 -13 -9 -16 -20 -3 -11 -13 -20 -22 -20 -8 0 -13 6 -10 13 2
6 10 11 16 10 6 -2 11 6 11 17 0 21 15 27 25 10z m-1375 -12 c0 7 5 10 11 6 8
-5 6 -10 -5 -16 -9 -5 -16 -18 -16 -28 0 -11 -4 -20 -8 -20 -4 0 -6 16 -4 36
3 25 7 32 13 23 7 -11 9 -11 9 -1z m-590 -18 c0 -5 -5 -10 -11 -10 -5 0 -7 5
-4 10 3 6 8 10 11 10 2 0 4 -4 4 -10z m547 -22 c-3 -8 -6 -5 -6 6 -1 11 2 17
5 13 3 -3 4 -12 1 -19z m-1030 -10 c-3 -8 -6 -5 -6 6 -1 11 2 17 5 13 3 -3 4
-12 1 -19z m514 -25 c-9 -15 -10 -12 -10 17 0 29 1 32 10 18 7 -12 7 -24 0
-35z m1999 37 c0 -5 -5 -10 -11 -10 -5 0 -7 5 -4 10 3 6 8 10 11 10 2 0 4 -4
4 -10z m-1700 -14 c0 -7 -7 -19 -15 -26 -10 -9 -15 -9 -15 -1 0 6 5 11 11 11
6 0 9 7 5 15 -3 8 -1 15 4 15 6 0 10 -6 10 -14z m425 4 c3 -5 1 -10 -4 -10 -6
0 -11 5 -11 10 0 6 2 10 4 10 3 0 8 -4 11 -10z m-45 -4 c0 -3 -4 -8 -10 -11
-5 -3 -10 -1 -10 4 0 6 5 11 10 11 6 0 10 -2 10 -4z m1280 -11 c-7 -9 -15 -13
-17 -11 -7 7 7 26 19 26 6 0 6 -6 -2 -15z m50 -5 c0 -5 -4 -10 -10 -10 -5 0
-10 5 -10 10 0 6 5 10 10 10 6 0 10 -4 10 -10z m-1680 -14 c0 -8 -7 -17 -16
-20 -25 -10 -30 2 -8 19 24 18 24 18 24 1z m120 -21 c0 -8 -3 -16 -7 -18 -5
-3 -8 5 -8 18 0 13 3 21 8 18 4 -2 7 -10 7 -18z m62 10 c0 -5 -5 -11 -11 -13
-6 -2 -11 4 -11 13 0 9 5 15 11 13 6 -2 11 -8 11 -13z m155 -27 c-3 -7 -5 -2
-5 12 0 14 2 19 5 13 2 -7 2 -19 0 -25z m-1247 12 c-19 -13 -30 -13 -30 0 0 6
10 10 23 10 18 0 19 -2 7 -10z m652 -32 c-7 -7 -12 -8 -12 -2 0 14 12 26 19
19 2 -3 -1 -11 -7 -17z m454 -16 c-16 -2 -32 0 -37 5 -5 5 7 7 29 4 34 -5 35
-6 8 -9z m-126 -17 c13 -14 19 -25 14 -25 -8 1 -50 50 -41 50 2 0 14 -11 27
-25z m-48 -3 c-7 -2 -12 -11 -12 -20 0 -12 -3 -13 -12 -4 -14 14 8 46 25 35 8
-5 7 -8 -1 -11z m132 2 c11 -28 6 -39 -9 -20 -8 11 -15 23 -15 28 0 14 18 9
24 -8z m-31 -21 c5 -26 4 -26 -9 -9 -7 10 -11 23 -8 27 8 14 11 11 17 -18z
m107 17 c0 -5 -4 -10 -10 -10 -5 0 -10 -9 -10 -20 0 -11 -5 -20 -11 -20 -6 0
-8 7 -5 16 3 9 6 22 6 30 0 8 7 14 15 14 8 0 15 -4 15 -10z m-519 -14 c15 9
10 -6 -6 -23 -20 -20 -29 -11 -19 19 4 13 9 17 11 10 3 -6 9 -10 14 -6z m81
-4 c-7 -2 -12 -10 -12 -18 0 -18 -10 -17 -34 1 -20 15 -12 20 22 16 6 -1 12 3
12 9 0 6 5 8 12 4 9 -6 9 -9 0 -12z m48 -3 c0 -5 -4 -9 -10 -9 -5 0 -10 7 -10
16 0 8 5 12 10 9 6 -3 10 -10 10 -16z m55 3 c-3 -3 -11 0 -18 7 -9 10 -8 11 6
5 10 -3 15 -9 12 -12z m48 3 c-3 -9 -8 -14 -10 -11 -3 3 -2 9 2 15 9 16 15 13
8 -4z m247 11 c0 -3 -4 -8 -10 -11 -5 -3 -10 -1 -10 4 0 6 5 11 10 11 6 0 10
-2 10 -4z m57 -18 c-3 -8 -6 -5 -6 6 -1 11 2 17 5 13 3 -3 4 -12 1 -19z
m-1149 -17 c3 -8 -1 -12 -9 -9 -7 2 -15 10 -17 17 -3 8 1 12 9 9 7 -2 15 -10
17 -17z m957 9 c-3 -5 -14 -10 -23 -10 -15 0 -15 2 -2 10 20 13 33 13 25 0z
m1645 -20 c0 -5 -7 -10 -15 -10 -8 0 -15 5 -15 10 0 6 7 10 15 10 8 0 15 -4
15 -10z m-1470 -9 c0 -11 -31 -24 -39 -16 -3 3 1 10 9 15 19 12 30 12 30 1z
m1515 -12 c4 -11 4 -23 0 -27 -7 -7 -25 17 -25 36 0 20 18 14 25 -9z m-2565
-45 c0 -13 -4 -24 -10 -24 -5 0 -10 14 -10 31 0 17 4 28 10 24 6 -3 10 -17 10
-31z m990 4 c0 -13 -23 -5 -28 10 -2 7 2 10 12 6 9 -3 16 -11 16 -16z m70 15
c-1 -10 -36 -53 -44 -53 -12 0 -6 48 7 53 19 8 37 8 37 0z m-363 -35 c-3 -7
-5 -2 -5 12 0 14 2 19 5 13 2 -7 2 -19 0 -25z m180 10 c-3 -8 -6 -5 -6 6 -1
11 2 17 5 13 3 -3 4 -12 1 -19z m123 -39 c0 -5 -4 -9 -10 -9 -5 0 -10 7 -10
16 0 8 5 12 10 9 6 -3 10 -10 10 -16z m1530 12 c0 -6 -4 -12 -8 -15 -5 -3 -9
1 -9 9 0 8 4 15 9 15 4 0 8 -4 8 -9z m-1740 -11 c0 -5 -5 -10 -11 -10 -5 0 -7
5 -4 10 3 6 8 10 11 10 2 0 4 -4 4 -10z m70 -12 c0 -18 -2 -20 -9 -8 -6 8 -7
18 -5 22 9 14 14 9 14 -14z m-240 -26 c0 -10 -9 -28 -20 -40 -11 -12 -20 -26
-20 -32 0 -5 -10 -9 -22 -9 -18 1 -19 2 -5 6 15 4 16 7 6 19 -10 12 -10 17 0
27 10 9 11 8 6 -5 -5 -11 -2 -18 5 -18 6 0 14 9 17 20 3 11 9 20 14 20 5 0 9
7 9 15 0 8 2 15 5 15 3 0 5 -8 5 -18z m178 -10 c-10 -2 -18 -8 -18 -14 0 -6
-3 -8 -6 -5 -11 10 17 38 30 30 7 -5 5 -9 -6 -11z m19 -41 c0 -27 -3 -29 -33
-28 -18 1 -30 5 -27 10 2 4 0 7 -5 7 -6 0 -13 -7 -16 -16 -8 -22 -26 -7 -26
22 0 24 10 31 24 17 13 -13 44 -12 56 2 19 23 27 18 27 -14z m53 -14 c0 -5 -7
-4 -15 3 -12 10 -15 9 -15 -5 0 -10 -3 -16 -6 -12 -4 3 -3 19 1 34 6 27 7 27
21 9 8 -11 14 -24 14 -29z m-230 -14 c0 -13 -3 -13 -15 -3 -8 7 -15 16 -15 21
0 5 7 6 15 3 8 -4 15 -13 15 -21z m1920 16 c0 -4 -7 -9 -15 -13 -9 -3 -15 0
-15 8 0 7 7 13 15 13 8 0 15 -4 15 -8z m-2645 -37 c-5 -14 -7 -14 -15 -2 -5 9
-4 20 3 28 14 17 22 0 12 -26z m2660 -21 c-6 -36 -35 -80 -35 -53 0 6 4 13 9
16 5 4 12 24 16 47 4 22 9 38 12 35 3 -2 2 -23 -2 -45z m41 17 c4 -6 3 -8 -4
-4 -6 3 -13 -2 -15 -11 -4 -14 -5 -13 -6 5 -1 23 13 30 25 10z m-69 -30 c-3
-8 -6 -5 -6 6 -1 11 2 17 5 13 3 -3 4 -12 1 -19z m-2667 -29 c0 -6 -4 -7 -10
-4 -5 3 -10 11 -10 16 0 6 5 7 10 4 6 -3 10 -11 10 -16z m29 -16 c-7 -10 -15
-20 -16 -22 -2 -2 -3 5 -3 17 0 14 6 22 16 22 14 0 15 -3 3 -17z m2661 -43 c0
-5 -4 -10 -10 -10 -5 0 -10 5 -10 10 0 6 5 10 10 10 6 0 10 -4 10 -10z m-2685
-10 c3 -5 1 -10 -4 -10 -6 0 -11 5 -11 10 0 6 2 10 4 10 3 0 8 -4 11 -10z m61
-33 c7 2 14 -3 17 -10 4 -11 0 -13 -16 -9 -27 7 -47 26 -47 44 1 8 7 5 18 -8
10 -11 22 -19 28 -17z m2924 -7 c0 -5 -2 -10 -4 -10 -3 0 -8 5 -11 10 -3 6 -1
10 4 10 6 0 11 -4 11 -10z"/>
<path d="M2973 6998 c2 -7 12 -13 22 -13 10 0 20 6 23 13 2 7 -6 12 -23 12
-17 0 -25 -5 -22 -12z"/>
<path d="M3810 6439 c0 -5 5 -7 10 -4 6 3 10 8 10 11 0 2 -4 4 -10 4 -5 0 -10
-5 -10 -11z"/>
<path d="M3435 5990 c3 -5 8 -10 11 -10 2 0 4 5 4 10 0 6 -5 10 -11 10 -5 0
-7 -4 -4 -10z"/>
<path d="M2600 4967 c0 -7 7 -22 16 -33 15 -19 15 -19 6 1 -5 11 -7 26 -5 33
3 6 0 12 -6 12 -6 0 -11 -6 -11 -13z"/>
<path d="M2540 4729 c0 -5 5 -7 10 -4 6 3 10 8 10 11 0 2 -4 4 -10 4 -5 0 -10
-5 -10 -11z"/>
<path d="M2463 4720 c0 -28 2 -29 16 -15 14 13 14 17 0 30 -14 14 -16 13 -16
-15z"/>
<path d="M1774 2865 c-9 -22 1 -29 15 -11 8 10 9 16 1 21 -5 3 -13 -1 -16 -10z"/>
<path d="M1837 2403 c-4 -3 -7 -22 -7 -41 0 -20 3 -32 7 -28 6 6 12 76 7 76 0
0 -4 -3 -7 -7z"/>
<path d="M2075 1440 c11 -5 27 -9 35 -9 13 -1 13 0 0 9 -8 5 -24 9 -35 9 l-20
0 20 -9z"/>
<path d="M4121 7033 c0 -4 4 -17 9 -28 8 -19 9 -19 9 2 1 12 -3 25 -9 28 -5 3
-10 3 -9 -2z"/>
<path d="M3920 6535 c0 -8 -6 -15 -12 -15 -7 0 -14 -11 -14 -24 -1 -17 3 -23
15 -21 9 1 15 8 14 13 -2 6 2 23 7 37 6 16 6 25 0 25 -6 0 -10 -7 -10 -15z"/>
<path d="M3207 6133 c-12 -11 -8 -23 8 -23 8 0 15 7 15 15 0 16 -12 20 -23 8z"/>
<path d="M3802 6090 c0 -14 2 -19 5 -12 2 6 2 18 0 25 -3 6 -5 1 -5 -13z"/>
<path d="M3640 5945 c0 -9 9 -15 21 -15 18 0 19 2 9 15 -7 8 -16 15 -21 15 -5
0 -9 -7 -9 -15z"/>
<path d="M3608 5923 c7 -3 16 -2 19 1 4 3 -2 6 -13 5 -11 0 -14 -3 -6 -6z"/>
<path d="M3610 5780 c0 -5 5 -10 10 -10 6 0 10 5 10 10 0 6 -4 10 -10 10 -5 0
-10 -4 -10 -10z"/>
<path d="M3105 5760 c-3 -5 -1 -10 4 -10 6 0 11 5 11 10 0 6 -2 10 -4 10 -3 0
-8 -4 -11 -10z"/>
<path d="M3721 5754 c0 -11 3 -14 6 -6 3 7 2 16 -1 19 -3 4 -6 -2 -5 -13z"/>
<path d="M3070 5731 c0 -6 5 -13 10 -16 6 -3 10 1 10 9 0 9 -4 16 -10 16 -5 0
-10 -4 -10 -9z"/>
<path d="M3390 5721 c0 -12 29 -35 36 -28 11 10 -5 37 -21 37 -8 0 -15 -4 -15
-9z"/>
<path d="M3508 5695 c-4 -17 -1 -22 11 -20 21 3 26 31 8 38 -10 4 -16 -2 -19
-18z"/>
<path d="M3040 5698 c0 -7 5 -20 10 -28 8 -12 10 -11 10 7 0 12 -4 25 -10 28
-5 3 -10 0 -10 -7z"/>
<path d="M3201 5664 c0 -11 3 -14 6 -6 3 7 2 16 -1 19 -3 4 -6 -2 -5 -13z"/>
<path d="M3410 5669 c0 -6 -6 -9 -13 -6 -8 3 -20 1 -27 -3 -10 -6 -4 -11 21
-18 23 -6 36 -5 41 2 11 16 10 23 -7 30 -8 3 -15 1 -15 -5z"/>
<path d="M3480 5635 c0 -27 3 -35 9 -26 5 7 13 11 19 7 6 -3 14 -2 17 4 4 6 1
9 -6 8 -7 -2 -18 8 -26 22 -12 24 -13 24 -13 -15z"/>
<path d="M3270 5647 c0 -7 9 -13 19 -14 14 -1 18 3 14 13 -6 17 -33 19 -33 1z"/>
<path d="M3070 5616 c4 -17 11 -39 15 -48 4 -11 3 -18 -4 -18 -6 0 -11 5 -11
12 0 6 -3 8 -6 5 -11 -11 16 -36 32 -30 8 3 14 0 14 -6 0 -6 4 -11 9 -11 5 0
7 10 4 23 -5 22 -5 22 10 2 19 -23 22 -13 6 18 -12 21 -11 21 8 5 23 -21 33
-23 33 -7 0 16 -54 61 -58 49 -3 -7 -9 -7 -18 1 -16 13 -19 33 -4 24 6 -3 10
-2 10 3 0 5 -11 10 -24 10 -21 0 -23 -3 -16 -32z"/>
<path d="M3230 5640 c0 -5 5 -10 11 -10 5 0 7 5 4 10 -3 6 -8 10 -11 10 -2 0
-4 -4 -4 -10z"/>
<path d="M3347 5620 c-3 -11 -1 -23 4 -26 6 -4 6 -11 -1 -19 -8 -10 -8 -15 0
-20 6 -4 9 -13 6 -21 -3 -7 -2 -15 2 -18 10 -5 32 20 24 28 -3 4 -7 16 -9 27
-2 16 1 20 12 15 9 -3 18 1 22 10 8 21 -4 29 -21 15 -16 -13 -32 1 -21 19 3 6
2 10 -3 10 -5 0 -12 -9 -15 -20z"/>
<path d="M3556 5612 c-4 -7 0 -19 8 -28 17 -17 19 -11 7 20 -5 14 -10 16 -15
8z"/>
<path d="M3270 5599 c0 -6 9 -13 19 -16 11 -3 22 -15 24 -27 4 -20 4 -20 6 2
1 24 -19 52 -38 52 -6 0 -11 -5 -11 -11z"/>
<path d="M3730 5569 c0 -5 5 -7 10 -4 6 3 10 8 10 11 0 2 -4 4 -10 4 -5 0 -10
-5 -10 -11z"/>
<path d="M3250 5557 c0 -8 7 -17 15 -21 8 -3 15 -2 15 3 0 5 -7 14 -15 21 -12
10 -15 10 -15 -3z"/>
<path d="M3427 5555 c-4 -8 -2 -17 3 -20 6 -4 10 3 10 14 0 25 -6 27 -13 6z"/>
<path d="M3501 5534 c0 -11 3 -14 6 -6 3 7 2 16 -1 19 -3 4 -6 -2 -5 -13z"/>
<path d="M3550 5540 c-8 -5 -11 -12 -7 -16 4 -4 13 -2 19 4 15 15 7 24 -12 12z"/>
<path d="M3160 5511 c-12 -30 -7 -51 11 -51 6 0 8 10 5 23 -3 12 -3 16 0 10
10 -23 23 -13 22 17 -1 38 -22 39 -38 1z"/>
<path d="M3596 5525 c-3 -9 -6 -22 -5 -28 0 -7 5 -1 10 12 5 13 8 26 5 28 -2
2 -6 -3 -10 -12z"/>
<path d="M3230 5511 c0 -13 38 -33 53 -28 7 2 -3 11 -20 21 -18 9 -33 12 -33
7z"/>
<path d="M1736 5501 c-3 -5 1 -11 9 -15 8 -3 15 -1 15 4 0 13 -18 22 -24 11z"/>
<path d="M3090 5495 c0 -9 6 -12 15 -9 8 4 12 10 9 15 -8 14 -24 10 -24 -6z"/>
<path d="M3305 5499 c-11 -17 1 -21 15 -4 8 9 8 15 2 15 -6 0 -14 -5 -17 -11z"/>
<path d="M3480 5496 c0 -12 -5 -16 -15 -12 -9 3 -15 0 -15 -8 0 -19 40 -28 46
-11 3 8 1 22 -5 32 -10 17 -10 17 -11 -1z"/>
<path d="M3510 5505 c1 -6 7 -21 16 -35 l15 -25 -7 25 c-7 26 -24 52 -24 35z"/>
<path d="M1710 5491 c0 -6 4 -13 10 -16 6 -3 7 1 4 9 -7 18 -14 21 -14 7z"/>
<path d="M3366 5485 c4 -8 8 -15 10 -15 2 0 4 7 4 15 0 8 -4 15 -10 15 -5 0
-7 -7 -4 -15z"/>
<path d="M3750 5476 c0 -9 5 -16 10 -16 6 0 10 4 10 9 0 6 -4 13 -10 16 -5 3
-10 -1 -10 -9z"/>
<path d="M3227 5469 c8 -8 9 -19 2 -37 -5 -13 -7 -27 -4 -30 3 -4 8 4 12 16 3
12 10 22 15 22 6 0 8 -7 5 -14 -4 -10 -1 -13 7 -10 8 3 12 -3 11 -17 -1 -13
-7 -25 -14 -27 -8 -3 -7 -8 5 -17 15 -10 20 -10 31 1 15 15 17 34 3 34 -5 0
-10 9 -10 20 0 11 -4 20 -10 20 -5 0 -10 5 -10 11 0 7 9 9 21 6 13 -3 19 -1
16 6 -2 7 -18 11 -36 9 -17 -1 -31 2 -31 8 0 5 -5 10 -12 10 -9 0 -9 -3 -1
-11z"/>
<path d="M3329 5463 c-1 -10 0 -24 1 -32 2 -18 29 -45 37 -38 3 3 -2 13 -11
23 -9 9 -14 24 -11 34 3 10 1 21 -5 25 -5 3 -11 -2 -11 -12z"/>
<path d="M3637 5473 c-7 -11 10 -40 18 -31 4 4 3 14 -3 24 -5 9 -12 12 -15 7z"/>
<path d="M3960 5471 c0 -5 5 -13 10 -16 6 -3 10 -2 10 4 0 5 -4 13 -10 16 -5
3 -10 2 -10 -4z"/>
<path d="M3596 5448 c-8 -30 -7 -38 2 -38 4 0 8 14 9 30 3 36 -2 39 -11 8z"/>
<path d="M3140 5451 c0 -7 -4 -9 -10 -6 -5 3 -10 -1 -10 -9 0 -9 9 -16 20 -16
11 0 20 -6 20 -14 0 -20 -17 -29 -23 -14 -2 7 -8 10 -12 5 -5 -4 -2 -19 5 -35
8 -15 16 -31 19 -36 2 -5 -3 -7 -11 -3 -29 11 -34 -87 -6 -105 9 -5 4 -8 -14
-8 -36 0 -69 -36 -62 -66 3 -12 2 -30 -4 -39 -8 -16 -11 -15 -30 6 -24 25 -22
39 3 19 8 -7 15 -8 15 -4 0 5 -9 15 -20 22 -12 7 -18 18 -14 24 5 7 11 5 21
-7 12 -17 13 -17 13 9 0 21 -4 27 -15 22 -9 -3 -16 1 -16 9 -1 8 -2 24 -3 34
0 11 -5 23 -9 28 -12 11 -6 -149 6 -164 5 -7 5 -13 1 -13 -9 0 -9 -77 0 -190
2 -30 4 -70 5 -87 1 -23 6 -33 17 -33 14 0 15 2 3 17 -13 15 -12 15 8 3 17
-11 19 -17 11 -28 -6 -7 -17 -11 -25 -8 -7 3 -13 -1 -13 -10 0 -9 8 -18 19
-21 21 -5 48 -53 30 -53 -6 0 -7 -5 -3 -11 12 -19 15 -71 4 -64 -12 8 -13 -5
-1 -24 5 -7 13 -11 18 -8 5 3 10 0 10 -8 0 -18 -9 -19 -26 -2 -10 10 -11 9 -6
-5 4 -10 13 -18 21 -18 8 0 14 -10 14 -25 0 -20 -5 -25 -26 -25 -14 0 -23 4
-19 10 4 6 11 8 16 5 16 -10 10 4 -11 25 l-20 20 0 -33 c0 -19 3 -37 7 -40 3
-4 5 -34 4 -66 -1 -38 2 -62 10 -67 9 -5 10 -2 6 9 -5 12 -1 17 13 17 18 0 19
-3 8 -20 -7 -11 -17 -20 -22 -20 -11 0 25 -29 37 -30 4 0 3 10 -4 22 -10 18
-9 20 6 14 13 -5 16 -2 11 10 -4 12 -2 15 9 10 8 -3 15 -1 15 4 0 13 -39 32
-54 27 -7 -3 -13 1 -13 9 0 17 -1 17 32 4 17 -7 24 -7 20 0 -3 6 -11 10 -16
10 -5 0 -19 9 -31 20 -12 11 -17 20 -12 20 6 0 15 -5 22 -12 15 -15 28 -3 14
14 -14 18 10 39 29 27 11 -7 11 -9 1 -9 -8 0 -12 -5 -10 -11 2 -6 7 -10 12 -9
16 3 30 -32 16 -40 -9 -6 -9 -9 -1 -15 8 -4 16 5 24 24 11 31 27 42 27 19 0
-6 7 -3 15 8 15 18 15 18 13 -11 -3 -26 1 -30 22 -32 14 -1 18 0 8 3 -26 8
-22 31 7 38 14 4 25 10 25 15 0 12 -29 41 -40 41 -10 0 -8 65 3 76 4 4 7 2 7
-5 0 -7 4 -10 8 -7 5 3 21 -6 38 -20 28 -24 28 -25 4 -18 -14 4 -28 12 -32 18
-5 7 -8 6 -8 -4 0 -20 37 -80 50 -80 15 0 12 17 -5 24 -8 3 -15 13 -15 21 0 9
5 13 11 10 12 -8 61 34 53 46 -9 15 -24 10 -18 -6 7 -18 -5 -19 -28 -1 -10 7
-18 23 -18 35 0 11 -6 21 -12 21 -9 0 -8 4 2 10 11 7 11 10 2 10 -7 0 -10 5
-6 11 3 6 15 9 25 6 11 -3 19 -1 19 5 0 5 4 7 9 4 11 -7 2 -46 -10 -46 -5 0
-9 -5 -9 -10 0 -6 7 -6 19 2 10 6 17 18 14 25 -3 7 0 13 7 13 6 0 8 5 4 11 -4
7 -1 10 7 7 8 -3 13 -11 11 -18 -2 -8 5 -9 19 -5 15 5 19 4 15 -4 -4 -6 -1
-11 6 -11 9 0 9 -3 -2 -10 -13 -9 -13 -10 0 -10 8 0 22 5 30 10 8 5 11 10 6
10 -5 0 -1 9 9 20 18 20 52 29 41 11 -3 -5 1 -11 9 -15 16 -6 21 -36 5 -36 -5
0 -14 9 -20 20 -6 11 -15 20 -21 20 -6 0 -7 -5 -4 -10 4 -6 2 -16 -3 -23 -8
-9 -1 -12 27 -13 34 -2 39 2 49 30 15 40 15 57 1 34 -14 -24 -33 -23 -26 2 3
11 1 23 -4 26 -5 3 -9 0 -9 -6 0 -7 -7 -9 -17 -6 -9 4 -20 2 -23 -5 -5 -8 -9
-8 -14 0 -4 6 4 13 19 17 13 3 22 10 19 16 -3 5 -11 5 -19 -2 -10 -8 -21 -7
-43 4 -27 14 -31 14 -36 0 -9 -23 -7 -34 4 -34 5 0 7 7 3 16 -4 12 -2 15 8 12
8 -3 13 -13 13 -22 -1 -9 4 -16 12 -16 8 0 14 -4 14 -10 0 -13 -17 -13 -25 0
-3 5 -12 7 -19 4 -8 -3 -17 -1 -21 5 -3 6 -14 11 -24 11 -21 0 -47 27 -37 37
3 4 12 -1 19 -11 12 -16 14 -16 26 -2 8 9 10 16 6 16 -5 0 3 10 17 23 34 29
60 83 55 110 l-4 22 -8 -22 c-7 -23 -25 -32 -25 -12 0 6 -7 17 -15 25 -12 13
-16 11 -27 -10 l-13 -25 -11 24 c-9 19 -9 22 2 18 8 -3 14 0 14 6 0 6 7 11 16
11 13 0 14 3 5 13 -6 8 -8 17 -4 20 3 4 1 7 -5 7 -6 0 -9 7 -6 15 4 8 2 15 -4
15 -6 0 -12 -6 -15 -12 -2 -7 -8 -10 -12 -6 -5 5 2 16 14 27 14 13 18 22 11
26 -6 4 -17 -1 -24 -11 -13 -17 -36 -12 -36 8 0 7 6 6 15 -2 12 -10 15 -10 15
3 0 20 -14 29 -34 21 -11 -4 -14 -14 -9 -35 4 -23 2 -29 -12 -29 -15 0 -15 3
-5 15 10 12 10 19 2 27 -7 7 -12 23 -12 37 1 25 1 25 15 7 15 -20 15 -20 29 0
15 19 15 19 30 -1 14 -18 15 -18 16 -2 0 10 -8 21 -17 24 -10 4 -26 15 -37 24
-18 17 -17 17 18 7 20 -6 36 -15 36 -20 0 -4 5 -8 10 -8 22 0 8 19 -25 34 -20
10 -33 21 -30 27 4 5 -1 9 -9 9 -9 0 -16 5 -16 10 0 6 7 10 16 10 8 0 12 5 9
10 -4 6 -11 8 -16 5 -5 -4 -9 1 -9 9 0 9 -14 19 -32 25 -29 8 -30 9 -8 10 18
1 21 4 11 10 -9 6 -10 11 -2 15 16 10 14 36 -3 36 -8 0 -21 20 -29 45 -14 39
-14 45 -1 45 18 0 18 11 -2 46 -13 23 -15 25 -11 7 3 -13 1 -23 -4 -23 -5 0
-9 9 -9 20 0 12 -9 30 -20 42 -11 12 -20 16 -20 9z m47 -149 c3 -20 0 -21 -17
-12 -21 11 -25 22 -13 34 12 11 26 1 30 -22z m-28 -28 c6 -1 18 -2 27 -3 13
-1 14 -4 4 -16 -9 -10 -9 -15 -1 -15 6 0 11 -4 11 -10 0 -17 -16 -11 -44 15
-14 13 -26 34 -25 47 0 22 1 22 8 3 5 -11 13 -21 20 -21z m76 -34 c3 -5 -1
-10 -9 -10 -9 0 -16 5 -16 10 0 6 4 10 9 10 6 0 13 -4 16 -10z m-145 -76 c0
-8 -5 -12 -10 -9 -6 4 -8 11 -5 16 9 14 15 11 15 -7z m50 -14 c0 -5 -6 -10
-12 -11 -10 0 -10 -2 0 -6 10 -4 10 -8 2 -19 -18 -21 -41 4 -26 28 12 19 36
24 36 8z m55 -10 c-3 -5 -11 -10 -16 -10 -6 0 -7 5 -4 10 3 6 11 10 16 10 6 0
7 -4 4 -10z m35 -14 c0 -3 -4 -8 -10 -11 -5 -3 -10 -1 -10 4 0 6 5 11 10 11 6
0 10 -2 10 -4z m-136 -41 c-6 -16 -24 -21 -24 -7 0 11 11 22 21 22 5 0 6 -7 3
-15z m166 5 c0 -5 -4 -10 -10 -10 -5 0 -10 5 -10 10 0 6 5 10 10 10 6 0 10 -4
10 -10z m-230 -51 c0 -6 -4 -7 -10 -4 -5 3 -10 11 -10 16 0 6 5 7 10 4 6 -3
10 -11 10 -16z m165 -19 c3 -5 2 -10 -4 -10 -5 0 -13 5 -16 10 -3 6 -2 10 4
10 5 0 13 -4 16 -10z m-147 -67 c10 -31 9 -39 -4 -46 -12 -7 -13 -12 -3 -23 7
-8 7 -14 1 -14 -5 0 -15 7 -22 15 -8 9 -8 15 -2 15 6 0 9 19 7 45 -3 55 8 58
23 8z m192 -23 c0 -5 -7 -10 -16 -10 -8 0 -12 5 -9 10 3 6 10 10 16 10 5 0 9
-4 9 -10z m90 -37 c0 -20 -18 -15 -25 7 -7 23 -21 26 -28 8 -2 -7 -7 -10 -11
-7 -4 4 0 14 9 22 14 15 17 15 35 -1 11 -9 20 -22 20 -29z m-81 3 c10 -12 8
-13 -8 -9 -12 3 -18 9 -15 14 7 12 10 11 23 -5z m-184 -6 c3 -5 2 -10 -4 -10
-5 0 -13 5 -16 10 -3 6 -2 10 4 10 5 0 13 -4 16 -10z m87 -28 c-5 -15 -4 -15
12 -3 13 11 20 11 28 3 9 -9 8 -12 -6 -12 -12 0 -16 -5 -12 -15 3 -8 2 -15 -3
-15 -6 0 -18 18 -39 62 -1 4 4 5 12 2 9 -3 12 -12 8 -22z m143 8 c-4 -12 -2
-20 5 -20 6 0 17 -14 24 -32 11 -26 11 -34 1 -45 -8 -7 -19 -13 -26 -13 -7 0
-10 3 -6 6 3 3 -3 26 -13 50 -11 24 -15 44 -10 44 6 0 10 7 10 15 0 8 5 15 11
15 6 0 8 -9 4 -20z m-55 0 c0 -5 -4 -10 -10 -10 -5 0 -10 5 -10 10 0 6 5 10
10 10 6 0 10 -4 10 -10z m-160 -15 c14 -16 10 -18 -14 -9 -9 3 -16 10 -16 15
0 14 16 11 30 -6z m-40 -10 c11 -13 10 -14 -4 -9 -9 3 -16 10 -16 15 0 13 6
11 20 -6z m215 -14 c3 -5 1 -12 -5 -16 -5 -3 -10 1 -10 9 0 18 6 21 15 7z
m-185 -21 c0 -5 -4 -10 -10 -10 -5 0 -10 5 -10 10 0 6 5 10 10 10 6 0 10 -4
10 -10z m89 -3 c-2 -1 -13 -9 -24 -17 -19 -14 -19 -14 -6 3 7 9 18 17 24 17 6
0 8 -1 6 -3z m71 -1 c0 -2 -9 -6 -20 -9 -11 -3 -20 -1 -20 4 0 5 9 9 20 9 11
0 20 -2 20 -4z m140 -6 c0 -5 -2 -10 -4 -10 -3 0 -8 5 -11 10 -3 6 -1 10 4 10
6 0 11 -4 11 -10z m40 -12 c0 -16 -3 -19 -11 -11 -6 6 -8 16 -5 22 11 17 16
13 16 -11z m-140 2 c0 -5 -2 -10 -4 -10 -3 0 -8 5 -11 10 -3 6 -1 10 4 10 6 0
11 -4 11 -10z m-90 -19 c13 -26 13 -34 -2 -24 -7 4 -19 8 -26 9 -8 2 -17 6
-20 10 -4 4 1 4 12 0 14 -5 17 -2 12 9 -8 22 11 18 24 -4z m-100 5 c0 -2 -8
-10 -17 -17 -16 -13 -17 -12 -4 4 13 16 21 21 21 13z m153 -12 c-5 -13 -1 -15
18 -10 13 3 18 3 12 0 -18 -8 -16 -21 3 -28 9 -3 27 3 41 14 14 11 32 20 40
20 8 0 11 5 8 10 -3 6 1 10 9 10 9 0 16 -9 16 -20 0 -13 -7 -20 -18 -20 -10 0
-19 -7 -19 -15 0 -8 4 -15 9 -15 5 0 6 -5 3 -10 -4 -6 -14 -1 -25 12 -11 13
-19 17 -20 11 0 -7 -7 -13 -15 -13 -13 0 -11 -5 5 -22 18 -20 19 -23 5 -26
-26 -6 -71 -32 -55 -32 9 0 16 -10 16 -25 1 -14 -2 -25 -7 -25 -5 0 -9 5 -9
11 0 5 -11 -1 -23 -15 -28 -30 -46 -22 -20 7 10 11 13 18 7 14 -6 -3 -11 0
-11 7 0 8 5 12 12 10 6 -3 11 5 12 16 1 12 -4 20 -13 20 -17 0 -34 -38 -26
-60 3 -10 2 -12 -5 -5 -6 6 -13 28 -16 50 -4 22 -3 34 2 27 5 -9 15 -10 33 -3
18 7 29 6 38 -2 7 -7 5 0 -4 14 -16 25 -13 39 8 39 6 0 4 -5 -4 -10 -12 -8
-11 -10 7 -10 12 0 25 -4 28 -10 3 -5 11 -10 16 -10 6 0 -3 14 -20 31 -23 23
-35 28 -44 21 -8 -7 -18 -7 -27 -2 -12 8 -12 10 4 10 12 0 16 5 12 16 -7 17 0
34 14 34 5 0 7 -7 3 -16z m-43 -65 c0 -14 -17 -10 -23 5 -4 10 -1 13 9 9 7 -3
14 -9 14 -14z m-25 -139 c3 -5 1 -10 -4 -10 -6 0 -11 5 -11 10 0 6 2 10 4 10
3 0 8 -4 11 -10z m5 -30 c0 -5 -5 -10 -11 -10 -5 0 -7 5 -4 10 3 6 8 10 11 10
2 0 4 -4 4 -10z m-30 -25 c14 -16 10 -18 -14 -9 -9 3 -16 10 -16 15 0 14 16
11 30 -6z m80 5 c0 -5 -2 -10 -4 -10 -3 0 -8 5 -11 10 -3 6 -1 10 4 10 6 0 11
-4 11 -10z m-22 -41 c-3 -8 -7 -3 -11 10 -4 17 -3 21 5 13 5 -5 8 -16 6 -23z
m57 -9 c-3 -5 -11 -10 -16 -10 -6 0 -7 5 -4 10 3 6 11 10 16 10 6 0 7 -4 4
-10z"/>
<path d="M3300 4796 c0 -9 5 -16 10 -16 6 0 10 4 10 9 0 6 -4 13 -10 16 -5 3
-10 -1 -10 -9z"/>
<path d="M3185 5451 c-6 -11 9 -23 19 -14 9 9 7 23 -3 23 -6 0 -12 -4 -16 -9z"/>
<path d="M3061 5434 c0 -11 3 -14 6 -6 3 7 2 16 -1 19 -3 4 -6 -2 -5 -13z"/>
<path d="M3473 5433 c-20 -7 -15 -23 7 -23 11 0 20 4 20 9 0 13 -12 19 -27 14z"/>
<path d="M2990 5420 c-20 -12 -5 -24 16 -12 9 5 12 12 7 15 -5 3 -15 2 -23 -3z"/>
<path d="M3385 5420 c-3 -5 1 -10 9 -10 8 0 18 5 21 10 3 6 -1 10 -9 10 -8 0
-18 -4 -21 -10z"/>
<path d="M3671 5404 c0 -11 3 -14 6 -6 3 7 2 16 -1 19 -3 4 -6 -2 -5 -13z"/>
<path d="M3555 5400 c3 -5 8 -10 11 -10 2 0 4 5 4 10 0 6 -5 10 -11 10 -5 0
-7 -4 -4 -10z"/>
<path d="M2980 5341 c0 -27 5 -53 10 -56 9 -6 16 27 10 50 -2 6 -2 18 -2 27 0
10 -3 20 -9 23 -5 4 -9 -15 -9 -44z"/>
<path d="M3325 5380 c3 -5 8 -10 11 -10 2 0 4 5 4 10 0 6 -5 10 -11 10 -5 0
-7 -4 -4 -10z"/>
<path d="M3635 5360 c-3 -5 -1 -10 4 -10 6 0 11 5 11 10 0 6 -2 10 -4 10 -3 0
-8 -4 -11 -10z"/>
<path d="M3696 5347 c-8 -31 -7 -37 5 -37 6 0 9 6 6 14 -3 7 -1 18 5 24 6 6 6
12 0 16 -5 3 -12 -4 -16 -17z"/>
<path d="M4030 5360 c0 -5 5 -10 11 -10 5 0 7 5 4 10 -3 6 -8 10 -11 10 -2 0
-4 -4 -4 -10z"/>
<path d="M3075 5320 c3 -5 8 -10 11 -10 2 0 4 5 4 10 0 6 -5 10 -11 10 -5 0
-7 -4 -4 -10z"/>
<path d="M2936 5274 c3 -61 14 -69 14 -11 0 25 -4 48 -8 51 -4 2 -7 -16 -6
-40z"/>
<path d="M3810 5310 c0 -5 5 -10 10 -10 6 0 10 5 10 10 0 6 -4 10 -10 10 -5 0
-10 -4 -10 -10z"/>
<path d="M3077 5293 c-10 -9 -9 -23 2 -23 5 0 11 7 15 15 5 15 -5 20 -17 8z"/>
<path d="M3252 5270 c13 -20 28 -27 28 -12 0 10 -22 32 -32 32 -5 0 -3 -9 4
-20z"/>
<path d="M3500 5281 c0 -5 7 -11 14 -14 10 -4 13 -1 9 9 -6 15 -23 19 -23 5z"/>
<path d="M3305 5260 c3 -5 8 -10 11 -10 2 0 4 5 4 10 0 6 -5 10 -11 10 -5 0
-7 -4 -4 -10z"/>
<path d="M3353 5263 c9 -2 23 -2 30 0 6 3 -1 5 -18 5 -16 0 -22 -2 -12 -5z"/>
<path d="M3056 5246 c6 -17 34 -30 34 -16 0 5 -9 14 -20 20 -16 8 -18 8 -14
-4z"/>
<path d="M3335 5231 c-3 -5 -1 -12 5 -16 5 -3 10 1 10 9 0 18 -6 21 -15 7z"/>
<path d="M3458 5233 c6 -2 12 -13 12 -24 0 -10 4 -19 9 -19 15 0 23 18 11 25
-6 4 -8 11 -5 16 4 5 -4 9 -17 8 -13 0 -17 -3 -10 -6z"/>
<path d="M3701 5228 c0 -9 -4 -25 -7 -35 -5 -14 -4 -15 5 -7 7 7 11 22 8 35
-2 13 -5 16 -6 7z"/>
<path d="M3260 5206 c0 -8 7 -16 15 -20 8 -3 15 -1 15 4 0 6 -5 10 -11 10 -5
0 -7 5 -4 10 3 6 1 10 -4 10 -6 0 -11 -6 -11 -14z"/>
<path d="M2942 5170 c-1 -19 3 -53 7 -75 l9 -40 0 35 c1 19 -3 53 -7 75 l-9
40 0 -35z"/>
<path d="M3305 5190 c-3 -5 1 -10 9 -10 9 0 16 5 16 10 0 6 -4 10 -9 10 -6 0
-13 -4 -16 -10z"/>
<path d="M3340 5157 c0 -15 4 -27 10 -27 5 0 9 9 7 20 -5 31 -17 36 -17 7z"/>
<path d="M3720 5169 c0 -5 5 -7 10 -4 6 3 10 8 10 11 0 2 -4 4 -10 4 -5 0 -10
-5 -10 -11z"/>
<path d="M3316 5114 c-3 -8 1 -14 9 -14 20 0 28 17 11 23 -8 3 -17 -1 -20 -9z"/>
<path d="M3540 5095 c0 -5 5 -17 10 -25 5 -8 10 -10 10 -5 0 6 -5 17 -10 25
-5 8 -10 11 -10 5z"/>
<path d="M4045 4970 c-3 -5 -1 -10 4 -10 6 0 11 5 11 10 0 6 -2 10 -4 10 -3 0
-8 -4 -11 -10z"/>
<path d="M2950 4929 c0 -5 5 -7 10 -4 6 3 10 8 10 11 0 2 -4 4 -10 4 -5 0 -10
-5 -10 -11z"/>
<path d="M3394 4912 c-1 -15 1 -21 3 -14 6 17 33 15 33 -2 0 -8 5 -16 10 -18
14 -4 25 -78 14 -87 -5 -3 -17 -20 -27 -38 -19 -35 -9 -51 20 -34 10 6 15 11
11 11 -5 0 1 9 12 20 21 21 26 55 10 65 -16 10 -12 25 8 26 12 0 11 3 -7 10
-19 7 -22 14 -17 37 5 19 4 23 -3 12 -8 -12 -13 -10 -31 13 -27 34 -35 34 -36
-1z"/>
<path d="M4018 4893 c-9 -27 -20 -69 -23 -96 -4 -26 -11 -49 -15 -52 -5 -3
-11 -24 -15 -47 -4 -24 -14 -60 -21 -81 -13 -36 -37 -192 -36 -229 0 -10 -3
-20 -9 -23 -5 -4 -9 -18 -9 -33 0 -15 -9 -38 -20 -52 -11 -14 -20 -31 -20 -37
0 -7 -4 -13 -10 -13 -24 0 -8 -72 32 -147 22 -43 53 -114 68 -158 25 -75 27
-78 33 -47 6 29 27 46 27 22 0 -5 -5 -10 -11 -10 -5 0 -7 -5 -4 -11 4 -5 0
-18 -8 -27 -13 -14 -13 -24 -3 -65 11 -43 14 -47 26 -32 7 9 19 14 27 11 7 -3
13 0 13 5 0 6 9 9 20 6 15 -4 20 -1 18 11 -2 10 5 18 17 20 17 4 18 2 6 -12
-7 -8 -11 -20 -9 -25 4 -14 50 10 56 29 4 11 -2 9 -18 -5 -13 -11 -20 -14 -16
-7 4 7 2 20 -5 29 -11 13 -10 18 9 33 29 24 29 36 0 16 -12 -9 -32 -16 -43
-16 -16 0 -17 2 -5 10 12 7 12 12 2 22 -6 6 -12 21 -12 33 0 13 -3 16 -8 8 -6
-9 -12 -7 -25 7 -22 26 -21 29 5 22 14 -3 19 -2 14 6 -4 7 -14 12 -22 12 -8 0
-14 5 -14 11 0 5 5 7 10 4 6 -3 10 3 10 15 0 18 -5 20 -28 17 -20 -3 -29 0
-29 9 0 10 4 11 13 3 8 -7 14 -7 19 1 3 6 11 8 16 5 5 -4 9 -1 9 5 0 7 -8 9
-19 5 -26 -8 -37 12 -17 34 14 16 14 19 0 33 -14 14 -13 15 13 12 21 -3 24 -2
9 4 -25 11 -35 51 -21 85 4 10 3 17 -4 17 -6 0 -11 4 -11 10 0 5 6 7 14 4 8
-3 17 -1 20 5 4 5 -3 12 -14 16 -11 4 -18 11 -14 16 3 5 10 7 15 4 5 -4 9 1 9
9 0 9 5 16 12 16 6 0 5 7 -5 18 -15 16 -15 21 -2 38 14 19 14 18 15 -3 0 -24
15 -39 24 -24 4 5 2 12 -4 16 -6 4 -8 10 -5 15 3 5 -5 18 -17 29 -19 18 -19
21 -4 21 9 0 14 5 11 10 -3 6 1 10 9 10 8 0 18 4 21 10 3 5 0 7 -8 5 -7 -3
-22 4 -33 16 -17 20 -17 22 -1 16 12 -5 17 -1 17 13 0 14 -5 18 -17 15 -10 -3
-2 2 17 12 19 9 38 16 43 15 4 -1 7 8 7 19 0 18 -2 19 -15 9 -21 -18 -29 -6
-14 19 7 11 9 24 5 28 -5 4 -11 2 -13 -4 -3 -7 -9 -13 -14 -13 -6 0 -3 10 5
22 21 30 20 54 -4 78 -12 12 -18 25 -15 30 3 5 1 19 -5 31 -9 15 -9 24 -1 32
6 6 11 19 11 29 0 11 7 32 15 48 10 19 12 30 5 30 -7 0 -9 8 -5 20 14 43 -11
17 -27 -27z m-28 -533 c0 -5 -4 -10 -10 -10 -5 0 -10 5 -10 10 0 6 5 10 10 10
6 0 10 -4 10 -10z m0 -40 c0 -5 -4 -10 -9 -10 -6 0 -13 5 -16 10 -3 6 1 10 9
10 9 0 16 -4 16 -10z m60 -430 c0 -5 -2 -10 -4 -10 -3 0 -8 5 -11 10 -3 6 -1
10 4 10 6 0 11 -4 11 -10z m30 -64 c0 -3 -4 -8 -10 -11 -5 -3 -10 -1 -10 4 0
6 5 11 10 11 6 0 10 -2 10 -4z m-65 -42 c-9 -9 -19 -13 -23 -10 -3 4 0 11 8
16 24 15 33 11 15 -6z"/>
<path d="M2950 4900 c0 -5 5 -10 10 -10 6 0 10 5 10 10 0 6 -4 10 -10 10 -5 0
-10 -4 -10 -10z"/>
<path d="M2958 4798 c2 -46 7 -86 11 -91 7 -7 7 11 2 136 0 20 -4 37 -9 37 -4
0 -6 -37 -4 -82z"/>
<path d="M3528 4744 c2 -13 8 -21 13 -18 14 8 11 31 -4 37 -10 4 -13 -2 -9
-19z"/>
<path d="M3022 4642 c2 -48 7 -81 13 -79 11 4 16 67 7 82 -4 6 -7 22 -8 38 -1
15 -4 30 -8 34 -3 4 -5 -30 -4 -75z"/>
<path d="M3525 4690 c3 -5 8 -10 11 -10 2 0 4 5 4 10 0 6 -5 10 -11 10 -5 0
-7 -4 -4 -10z"/>
<path d="M3372 4604 c-6 -11 -13 -18 -16 -16 -18 7 -17 -1 4 -23 13 -14 22
-26 19 -28 -51 -39 -60 -47 -50 -47 6 0 11 -6 11 -14 0 -9 7 -12 20 -9 14 4
20 0 20 -12 0 -11 -5 -15 -14 -12 -10 4 -13 1 -9 -9 3 -8 -1 -14 -11 -14 -9 0
-16 5 -16 12 0 6 -3 9 -6 5 -3 -3 -2 -12 2 -19 5 -7 9 -19 9 -27 0 -22 32 -38
46 -24 9 9 7 11 -10 6 -12 -3 -21 -1 -21 6 0 6 5 11 11 11 6 0 9 6 6 14 -7 17
11 36 35 36 23 0 23 -26 1 -39 -12 -7 -13 -10 -4 -11 9 0 12 -10 9 -35 -2 -19
0 -35 4 -35 4 0 8 5 8 11 0 6 7 9 15 5 8 -3 15 -1 15 4 0 6 -5 10 -11 10 -5 0
-8 4 -5 9 4 5 1 11 -4 13 -7 2 -8 12 -3 25 8 21 10 22 36 8 15 -7 27 -10 27
-5 0 4 3 15 6 24 3 9 1 16 -4 16 -6 0 -12 -7 -14 -15 -2 -13 -9 -11 -38 9 -19
14 -39 29 -45 34 -5 4 -19 11 -30 16 -18 6 -17 9 13 38 31 28 34 29 46 13 9
-12 15 -14 20 -7 8 14 -30 36 -49 28 -8 -3 -17 -1 -20 4 -3 5 3 10 13 12 15 3
16 6 6 27 -11 22 -12 22 -22 5z"/>
<path d="M3432 4572 c6 -7 17 -11 24 -8 18 7 25 -5 12 -21 -16 -19 -2 -28 24
-15 13 6 18 11 11 11 -7 1 -10 8 -7 16 4 8 11 12 18 8 6 -3 6 0 -2 8 -7 7 -30
14 -52 14 -31 0 -37 -2 -28 -13z"/>
<path d="M3532 4558 c3 -7 13 -15 24 -17 16 -3 17 -1 5 13 -16 19 -34 21 -29
4z"/>
<path d="M1317 4549 c9 -9 10 -16 1 -26 -17 -21 -3 -26 15 -5 15 16 15 19 -6
31 -17 10 -19 10 -10 0z"/>
<path d="M4075 4520 c3 -5 8 -10 11 -10 2 0 4 5 4 10 0 6 -5 10 -11 10 -5 0
-7 -4 -4 -10z"/>
<path d="M2883 4508 c4 -11 1 -18 -6 -18 -12 0 12 -20 25 -20 11 0 3 29 -12
43 -10 10 -12 9 -7 -5z"/>
<path d="M3393 4509 c-13 -5 -23 -11 -23 -14 0 -9 79 1 88 10 4 5 -2 5 -12 1
-11 -4 -22 -3 -25 2 -4 6 -16 6 -28 1z"/>
<path d="M3491 4498 c-11 -18 -11 -22 3 -30 9 -5 16 -16 16 -23 0 -8 5 -15 11
-15 6 0 3 -7 -5 -16 -9 -8 -16 -22 -16 -30 0 -12 -4 -12 -24 1 -15 10 -27 12
-30 6 -4 -5 -2 -12 4 -16 5 -3 10 -17 10 -30 0 -16 -7 -25 -24 -29 -32 -8 -37
-26 -19 -64 19 -40 30 -40 38 -2 4 17 11 30 15 30 12 0 -15 -63 -30 -68 -6 -2
-17 3 -23 12 -11 15 -13 14 -25 -5 -9 -14 -10 -19 -2 -14 9 5 10 1 5 -15 -5
-15 -3 -20 3 -16 6 3 13 2 17 -4 3 -5 12 -10 18 -10 7 0 4 7 -6 14 -10 8 -14
17 -9 20 12 7 46 -30 38 -43 -9 -14 7 -21 24 -11 12 7 12 12 2 22 -17 17 -15
39 6 54 16 13 16 13 -1 14 -15 0 -16 3 -6 22 10 18 13 19 17 8 6 -21 43 -60
57 -60 6 0 12 14 12 30 0 30 -19 41 -32 19 -4 -6 -13 1 -21 16 -17 34 -17 35
1 35 8 0 15 7 15 15 0 20 -6 19 -30 -5 -11 -11 -29 -20 -40 -20 -11 0 -20 -7
-20 -15 0 -8 -4 -15 -10 -15 -5 0 -10 9 -10 20 0 13 7 20 20 20 11 0 23 7 26
15 4 8 10 12 15 10 8 -6 49 29 49 41 0 4 -11 -1 -24 -10 -15 -10 -27 -12 -31
-6 -3 6 1 10 10 10 8 0 18 7 21 15 4 8 15 15 26 15 18 0 19 -5 13 -40 -5 -32
-4 -40 8 -40 18 0 42 28 33 37 -4 4 -11 1 -15 -6 -6 -9 -11 -10 -15 -2 -4 6
-2 11 3 11 6 0 11 8 11 18 0 14 2 15 10 2 5 -8 12 -11 16 -7 9 9 -16 38 -27
31 -5 -3 -9 4 -9 15 0 10 6 22 13 24 6 3 -4 6 -23 7 l-35 1 31 17 c20 11 29
23 26 32 -12 35 -61 41 -81 8z m54 -8 c-3 -5 -18 -10 -33 -9 -24 0 -25 1 -7 9
28 12 47 12 40 0z"/>
<path d="M4050 4512 c0 -4 9 -13 20 -20 11 -7 20 -22 20 -34 0 -12 3 -19 6
-15 11 11 -5 52 -26 65 -11 7 -20 9 -20 4z"/>
<path d="M3420 4470 c0 -5 6 -10 14 -10 8 0 18 5 21 10 3 6 -3 10 -14 10 -12
0 -21 -4 -21 -10z"/>
<path d="M3260 4431 c0 -5 7 -12 16 -15 8 -3 12 -10 9 -16 -7 -11 8 -14 18 -4
10 10 -12 44 -28 44 -8 0 -15 -4 -15 -9z"/>
<path d="M3756 4392 c0 -26 6 -58 14 -72 12 -23 14 -23 20 -5 4 11 5 29 2 40
-3 11 -7 14 -10 7 -2 -6 -8 -12 -13 -12 -16 0 -10 25 11 40 18 13 18 15 3 32
-24 27 -28 23 -27 -30z"/>
<path d="M4060 4410 c0 -5 5 -10 11 -10 5 0 7 5 4 10 -3 6 -8 10 -11 10 -2 0
-4 -4 -4 -10z"/>
<path d="M3284 4365 c11 -8 22 -12 25 -9 6 6 -19 24 -34 24 -5 -1 -1 -7 9 -15z"/>
<path d="M3380 4340 c-10 -18 -14 -20 -21 -9 -6 11 -9 8 -9 -8 0 -16 4 -21 15
-17 17 7 40 43 32 51 -3 2 -11 -5 -17 -17z"/>
<path d="M3142 4283 c-1 -19 2 -32 7 -29 14 9 19 55 7 59 -6 3 -12 -10 -14
-30z"/>
<path d="M3048 4287 c-7 -34 0 -38 32 -21 24 13 24 14 3 14 -12 0 -23 7 -25
18 -3 12 -6 8 -10 -11z"/>
<path d="M3260 4300 c0 -5 5 -10 10 -10 6 0 10 5 10 10 0 6 -4 10 -10 10 -5 0
-10 -4 -10 -10z"/>
<path d="M3575 4300 c-4 -6 -15 -8 -26 -5 -33 11 -21 -12 12 -24 39 -13 49
-14 30 -2 -12 8 -12 12 -2 25 8 10 9 16 3 16 -6 0 -14 -5 -17 -10z"/>
<path d="M1300 4270 c0 -16 4 -30 8 -30 5 0 7 14 4 30 -2 17 -6 30 -8 30 -2 0
-4 -13 -4 -30z"/>
<path d="M3375 4290 c-3 -5 -1 -10 4 -10 6 0 11 5 11 10 0 6 -2 10 -4 10 -3 0
-8 -4 -11 -10z"/>
<path d="M1324 4266 c1 -14 13 -22 46 -31 25 -7 53 -16 63 -20 13 -6 16 -4 11
9 -4 10 -12 15 -19 12 -8 -3 -16 2 -19 10 -3 9 -10 12 -16 9 -5 -3 -7 0 -4 8
4 11 -4 16 -29 19 -29 3 -34 1 -33 -16z"/>
<path d="M3173 4255 c0 -8 4 -12 9 -9 5 3 6 10 3 15 -9 13 -12 11 -12 -6z"/>
<path d="M3105 4235 c17 -14 35 -25 40 -24 6 0 4 3 -2 6 -7 2 -13 11 -13 19 0
9 -4 13 -9 9 -5 -3 -12 -1 -16 5 -3 5 -12 10 -18 10 -7 -1 2 -12 18 -25z"/>
<path d="M3260 4256 c0 -2 7 -7 16 -10 8 -3 12 -2 9 4 -6 10 -25 14 -25 6z"/>
<path d="M3580 4224 c0 -13 5 -24 11 -24 6 0 9 6 6 13 -2 6 5 17 16 23 19 11
19 12 -6 12 -22 0 -27 -5 -27 -24z"/>
<path d="M3060 4240 c-1 -3 -4 -16 -5 -30 -2 -14 -5 -35 -8 -47 -3 -13 -2 -25
4 -28 5 -4 10 1 10 9 1 9 3 21 4 26 1 6 3 15 4 20 0 6 6 10 12 10 5 0 7 -4 4
-10 -3 -5 -2 -10 4 -10 15 0 21 14 11 29 -4 8 -12 11 -18 7 -6 -3 -13 2 -15
11 -3 10 -6 16 -7 13z"/>
<path d="M1336 4221 c-6 -9 26 -26 62 -34 12 -3 22 -1 22 4 0 5 -2 9 -4 9 -2
0 -20 7 -39 15 -20 8 -38 11 -41 6z"/>
<path d="M1302 4165 c1 -28 6 -44 12 -42 13 4 17 47 4 47 -5 0 -6 9 -3 20 4
12 2 20 -4 20 -7 0 -10 -19 -9 -45z"/>
<path d="M2915 4200 c3 -5 8 -10 11 -10 2 0 4 5 4 10 0 6 -5 10 -11 10 -5 0
-7 -4 -4 -10z"/>
<path d="M3496 4201 c-10 -15 4 -38 30 -49 26 -13 31 -4 12 18 -7 8 -4 7 8 -3
22 -18 34 -22 34 -9 0 7 -64 52 -74 52 -3 0 -7 -4 -10 -9z"/>
<path d="M3600 4183 c0 -5 5 -15 10 -23 8 -12 10 -11 10 8 0 12 -4 22 -10 22
-5 0 -10 -3 -10 -7z"/>
<path d="M3110 4170 c-8 -5 -10 -10 -5 -10 6 0 17 5 25 10 8 5 11 10 5 10 -5
0 -17 -5 -25 -10z"/>
<path d="M3630 4170 c0 -5 5 -10 11 -10 5 0 7 5 4 10 -3 6 -8 10 -11 10 -2 0
-4 -4 -4 -10z"/>
<path d="M3361 4151 c13 -11 28 -17 33 -14 5 3 -2 12 -15 19 -35 20 -45 17
-18 -5z"/>
<path d="M3506 4124 c-11 -7 -17 -17 -13 -20 3 -4 14 1 23 10 21 22 15 28 -10
10z"/>
<path d="M3055 4068 c9 -72 11 -77 33 -71 24 6 19 48 -10 80 -19 20 -19 21 -1
32 17 10 16 10 -5 11 -22 0 -22 -3 -17 -52z m30 -28 c3 -5 1 -10 -4 -10 -6 0
-11 5 -11 10 0 6 2 10 4 10 3 0 8 -4 11 -10z"/>
<path d="M3535 4110 c-3 -5 1 -10 10 -10 9 0 13 5 10 10 -3 6 -8 10 -10 10 -2
0 -7 -4 -10 -10z"/>
<path d="M3116 4097 c3 -10 9 -15 12 -12 3 3 0 11 -7 18 -10 9 -11 8 -5 -6z"/>
<path d="M3425 4089 c-4 -6 -5 -12 -2 -15 2 -3 7 2 10 11 7 17 1 20 -8 4z"/>
<path d="M3593 4076 c7 -14 13 -23 15 -21 7 6 -9 45 -18 45 -4 0 -3 -11 3 -24z"/>
<path d="M3630 4085 c0 -8 2 -15 4 -15 2 0 6 7 10 15 3 8 1 15 -4 15 -6 0 -10
-7 -10 -15z"/>
<path d="M4105 4090 c3 -5 8 -10 11 -10 2 0 4 5 4 10 0 6 -5 10 -11 10 -5 0
-7 -4 -4 -10z"/>
<path d="M3500 4080 c0 -6 7 -10 15 -10 8 0 15 2 15 4 0 2 -7 6 -15 10 -8 3
-15 1 -15 -4z"/>
<path d="M3110 4049 c0 -11 5 -17 10 -14 6 3 10 13 10 21 0 8 -4 14 -10 14 -5
0 -10 -9 -10 -21z"/>
<path d="M3146 4048 c4 -34 4 -34 15 -15 5 9 7 22 4 27 -11 18 -22 11 -19 -12z"/>
<path d="M3653 4037 c-2 -30 -1 -31 9 -9 7 14 8 26 2 32 -6 6 -10 -2 -11 -23z"/>
<path d="M3527 4049 c-9 -6 -15 -14 -12 -19 6 -10 45 9 45 22 0 11 -11 10 -33
-3z"/>
<path d="M4070 4050 c0 -5 5 -10 10 -10 6 0 10 5 10 10 0 6 -4 10 -10 10 -5 0
-10 -4 -10 -10z"/>
<path d="M3575 4040 c-3 -5 -1 -10 4 -10 6 0 11 5 11 10 0 6 -2 10 -4 10 -3 0
-8 -4 -11 -10z"/>
<path d="M4052 4020 c13 -38 26 -47 23 -15 -4 28 -13 45 -25 45 -5 0 -4 -14 2
-30z"/>
<path d="M3160 4010 c-9 -6 -10 -10 -3 -10 6 0 15 5 18 10 8 12 4 12 -15 0z"/>
<path d="M3576 3998 c-2 -13 -4 -33 -4 -46 -1 -20 1 -20 14 -7 10 10 12 20 6
32 -5 10 -7 24 -5 31 3 6 2 12 -1 12 -3 0 -8 -10 -10 -22z"/>
<path d="M3527 3993 c3 -7 6 -13 8 -13 2 0 5 6 8 13 3 8 -1 14 -8 14 -7 0 -11
-6 -8 -14z"/>
<path d="M3600 4000 c0 -5 5 -10 11 -10 5 0 8 -4 5 -9 -3 -5 1 -11 9 -15 18
-6 19 -1 5 25 -11 20 -30 26 -30 9z"/>
<path d="M3115 3990 c-19 -8 -19 -9 3 -9 12 -1 22 4 22 9 0 6 -1 10 -2 9 -2 0
-12 -4 -23 -9z"/>
<path d="M3069 3975 c-9 -8 3 -75 13 -75 5 0 7 9 3 20 -5 16 -3 19 12 14 16
-6 16 -5 -2 10 -11 10 -14 15 -8 11 9 -4 11 -1 7 9 -6 16 -16 20 -25 11z"/>
<path d="M3460 3971 c0 -5 5 -13 10 -16 6 -3 10 -2 10 4 0 5 -4 13 -10 16 -5
3 -10 2 -10 -4z"/>
<path d="M3170 3946 c0 -9 5 -16 10 -16 6 0 10 4 10 9 0 6 -4 13 -10 16 -5 3
-10 -1 -10 -9z"/>
<path d="M3652 3948 c-14 -14 -16 -28 -3 -28 5 0 11 9 14 20 6 23 5 24 -11 8z"/>
<path d="M3607 3943 c-4 -3 -7 -11 -7 -17 0 -6 5 -5 12 2 6 6 9 14 7 17 -3 3
-9 2 -12 -2z"/>
<path d="M3230 3931 c0 -6 5 -13 10 -16 6 -3 10 1 10 9 0 9 -4 16 -10 16 -5 0
-10 -4 -10 -9z"/>
<path d="M3520 3926 c0 -9 5 -16 10 -16 6 0 10 4 10 9 0 6 -4 13 -10 16 -5 3
-10 -1 -10 -9z"/>
<path d="M4090 3933 c1 -17 29 -45 39 -39 6 4 3 14 -9 26 -21 21 -30 25 -30
13z"/>
<path d="M3185 3890 c3 -5 8 -10 11 -10 2 0 4 5 4 10 0 6 -5 10 -11 10 -5 0
-7 -4 -4 -10z"/>
<path d="M3520 3874 c0 -8 5 -12 10 -9 6 4 8 11 5 16 -9 14 -15 11 -15 -7z"/>
<path d="M3590 3845 c0 -8 2 -15 4 -15 2 0 6 7 10 15 3 8 1 15 -4 15 -6 0 -10
-7 -10 -15z"/>
<path d="M3540 3830 c0 -5 5 -10 10 -10 6 0 10 5 10 10 0 6 -4 10 -10 10 -5 0
-10 -4 -10 -10z"/>
<path d="M4130 3830 c-9 -6 -10 -10 -3 -10 6 0 15 5 18 10 8 12 4 12 -15 0z"/>
<path d="M3080 3810 c0 -21 15 -34 30 -25 12 7 2 32 -16 39 -9 3 -14 -1 -14
-14z"/>
<path d="M3262 3810 c0 -14 2 -19 5 -12 2 6 2 18 0 25 -3 6 -5 1 -5 -13z"/>
<path d="M3175 3810 c3 -5 8 -10 11 -10 2 0 4 5 4 10 0 6 -5 10 -11 10 -5 0
-7 -4 -4 -10z"/>
<path d="M3470 3801 c0 -5 6 -14 14 -20 12 -10 13 -8 9 8 -5 21 -23 30 -23 12z"/>
<path d="M3560 3800 c-8 -5 -11 -12 -8 -16 4 -3 14 1 23 10 18 17 9 21 -15 6z"/>
<path d="M3406 3757 c3 -10 9 -15 12 -12 3 3 0 11 -7 18 -10 9 -11 8 -5 -6z"/>
<path d="M4140 3761 c0 -5 5 -13 10 -16 6 -3 10 -2 10 4 0 5 -4 13 -10 16 -5
3 -10 2 -10 -4z"/>
<path d="M3083 3741 c1 -12 10 -21 24 -24 28 -5 29 3 3 26 -26 22 -29 21 -27
-2z"/>
<path d="M3182 3748 c-7 -7 -12 -19 -12 -27 0 -11 5 -9 20 7 11 12 20 24 20
27 0 9 -16 5 -28 -7z"/>
<path d="M3518 3735 c2 -14 6 -25 8 -25 2 0 4 11 4 25 0 14 -4 25 -9 25 -4 0
-6 -11 -3 -25z"/>
<path d="M3565 3750 c3 -5 8 -10 11 -10 2 0 4 5 4 10 0 6 -5 10 -11 10 -5 0
-7 -4 -4 -10z"/>
<path d="M3420 3714 c-13 -13 -21 -24 -17 -24 11 0 52 39 46 44 -2 2 -15 -7
-29 -20z"/>
<path d="M4105 3729 c4 -5 11 -9 16 -9 5 0 19 -9 31 -20 30 -28 43 -25 21 4
-10 13 -21 22 -25 19 -5 -2 -8 0 -8 4 0 5 -9 9 -20 10 -11 1 -18 -2 -15 -8z"/>
<path d="M3476 3713 c5 -5 12 -12 16 -18 4 -6 8 -2 8 8 0 9 -7 17 -17 17 -9 0
-12 -3 -7 -7z"/>
<path d="M3183 3696 c-10 -11 -9 -15 2 -20 10 -4 15 1 15 14 0 23 -1 24 -17 6z"/>
<path d="M3087 3680 c6 -24 26 -21 31 3 2 11 -3 17 -16 17 -15 0 -19 -5 -15
-20z"/>
<path d="M3400 3640 c0 -5 5 -10 11 -10 5 0 7 5 4 10 -3 6 -8 10 -11 10 -2 0
-4 -4 -4 -10z"/>
<path d="M4120 3639 c0 -5 5 -7 10 -4 6 3 10 8 10 11 0 2 -4 4 -10 4 -5 0 -10
-5 -10 -11z"/>
<path d="M3510 3633 c0 -4 5 -15 10 -23 8 -13 10 -13 10 2 0 9 -4 20 -10 23
-5 3 -10 3 -10 -2z"/>
<path d="M3095 3610 c4 -6 11 -8 16 -5 14 9 11 15 -7 15 -8 0 -12 -5 -9 -10z"/>
<path d="M3109 3593 c-11 -3 -14 -12 -11 -33 2 -17 8 -28 12 -25 5 3 6 15 2
28 -5 20 -4 21 12 8 9 -8 19 -11 23 -8 3 4 -2 9 -11 13 -9 3 -13 10 -10 15 3
5 4 8 2 8 -2 -1 -10 -3 -19 -6z"/>
<path d="M3220 3576 c0 -8 4 -17 8 -20 4 -2 8 4 8 15 0 10 -4 19 -8 19 -4 0
-8 -6 -8 -14z"/>
<path d="M4155 3570 c-3 -5 -2 -10 4 -10 5 0 13 5 16 10 3 6 2 10 -4 10 -5 0
-13 -4 -16 -10z"/>
<path d="M4130 3504 c0 -8 3 -14 8 -14 9 0 39 19 32 21 -3 0 -13 2 -22 4 -10
2 -18 -3 -18 -11z"/>
<path d="M3107 3491 c3 -12 10 -21 15 -21 13 0 6 32 -9 37 -7 3 -9 -3 -6 -16z"/>
<path d="M3440 3491 c0 -6 4 -13 10 -16 6 -3 7 1 4 9 -7 18 -14 21 -14 7z"/>
<path d="M3110 3440 c0 -5 5 -10 11 -10 5 0 7 5 4 10 -3 6 -8 10 -11 10 -2 0
-4 -4 -4 -10z"/>
<path d="M3185 3439 c-4 -6 -5 -12 -2 -15 2 -3 7 2 10 11 7 17 1 20 -8 4z"/>
<path d="M3350 3431 c0 -6 4 -13 10 -16 6 -3 7 1 4 9 -7 18 -14 21 -14 7z"/>
<path d="M3477 3429 c7 -7 15 -10 18 -7 3 3 -2 9 -12 12 -14 6 -15 5 -6 -5z"/>
<path d="M3110 3366 c4 -19 5 -37 3 -40 -3 -3 -2 -13 2 -23 4 -10 9 -40 11
-67 2 -26 7 -52 10 -57 8 -14 21 -11 28 7 3 8 2 12 -4 9 -14 -9 -12 8 3 24 10
11 10 13 0 7 -15 -9 -18 20 -3 29 6 3 10 12 9 18 0 9 -2 9 -6 0 -10 -26 -22
-12 -19 22 2 19 1 35 -3 35 -4 0 -7 16 -6 35 0 27 -3 35 -16 35 -14 0 -16 -6
-9 -34z"/>
<path d="M3471 3344 c0 -11 3 -14 6 -6 3 7 2 16 -1 19 -3 4 -6 -2 -5 -13z"/>
<path d="M3250 3320 c0 -5 5 -10 10 -10 6 0 10 5 10 10 0 6 -4 10 -10 10 -5 0
-10 -4 -10 -10z"/>
<path d="M3270 3241 c0 -5 -3 -18 -6 -28 -6 -16 -5 -16 9 2 19 23 21 35 7 35
-5 0 -10 -4 -10 -9z"/>
<path d="M4301 3184 c0 -11 3 -14 6 -6 3 7 2 16 -1 19 -3 4 -6 -2 -5 -13z"/>
<path d="M3140 3132 l1 -27 18 22 c10 12 21 20 25 18 3 -3 4 -2 1 2 -3 4 -14
8 -25 10 -16 2 -20 -3 -20 -25z"/>
<path d="M3146 3083 c-11 -11 -6 -23 9 -23 8 0 15 4 15 9 0 13 -16 22 -24 14z"/>
<path d="M4340 3069 c0 -5 5 -7 10 -4 6 3 10 8 10 11 0 2 -4 4 -10 4 -5 0 -10
-5 -10 -11z"/>
<path d="M3145 3040 c3 -5 8 -10 11 -10 2 0 4 5 4 10 0 6 -5 10 -11 10 -5 0
-7 -4 -4 -10z"/>
<path d="M4310 3040 c-8 -5 -12 -12 -9 -15 4 -3 12 1 19 10 14 17 11 19 -10 5z"/>
<path d="M3025 3020 c3 -5 8 -10 11 -10 2 0 4 5 4 10 0 6 -5 10 -11 10 -5 0
-7 -4 -4 -10z"/>
<path d="M4275 3020 c-3 -5 -1 -10 4 -10 6 0 11 5 11 10 0 6 -2 10 -4 10 -3 0
-8 -4 -11 -10z"/>
<path d="M3154 3006 c-8 -20 4 -160 14 -164 4 -1 6 -34 5 -72 -1 -39 2 -70 6
-70 5 0 11 32 13 70 2 39 0 70 -4 70 -4 0 -7 8 -7 18 0 22 -5 44 -13 57 -3 6
-3 29 2 53 7 41 -4 69 -16 38z"/>
<path d="M4330 3000 c0 -11 5 -20 10 -20 6 0 10 9 10 20 0 11 -4 20 -10 20 -5
0 -10 -9 -10 -20z"/>
<path d="M2990 2900 c0 -5 5 -10 10 -10 6 0 10 5 10 10 0 6 -4 10 -10 10 -5 0
-10 -4 -10 -10z"/>
<path d="M4376 2902 c-3 -5 1 -9 9 -9 8 0 12 4 9 9 -3 4 -7 8 -9 8 -2 0 -6 -4
-9 -8z"/>
<path d="M4386 2831 c-5 -8 -3 -16 5 -22 19 -12 29 -11 29 2 0 5 -4 8 -9 4 -5
-3 -11 3 -13 12 -3 14 -5 15 -12 4z"/>
<path d="M2985 2720 c3 -5 8 -10 11 -10 2 0 4 5 4 10 0 6 -5 10 -11 10 -5 0
-7 -4 -4 -10z"/>
<path d="M2900 2689 c0 -5 5 -7 10 -4 6 3 10 8 10 11 0 2 -4 4 -10 4 -5 0 -10
-5 -10 -11z"/>
<path d="M3196 2663 c-4 -9 -2 -21 4 -27 7 -7 10 -2 10 17 0 31 -5 34 -14 10z"/>
<path d="M2880 2661 c0 -6 -7 -8 -15 -5 -11 5 -13 2 -9 -10 3 -9 10 -16 16
-16 5 0 6 -10 3 -21 -5 -15 -4 -19 5 -14 6 4 9 17 6 30 -4 14 -1 25 6 27 9 3
9 6 0 12 -7 4 -12 3 -12 -3z"/>
<path d="M2925 2659 c-4 -6 -5 -12 -2 -15 2 -3 7 2 10 11 7 17 1 20 -8 4z"/>
<path d="M4444 2647 c3 -10 6 -21 6 -23 0 -11 19 -2 24 12 4 9 2 13 -5 8 -6
-4 -16 0 -21 7 -8 11 -8 10 -4 -4z"/>
<path d="M2930 2630 c-8 -5 -12 -12 -9 -15 4 -3 12 1 19 10 14 17 11 19 -10 5z"/>
<path d="M4530 2565 c0 -8 4 -15 10 -15 5 0 7 7 4 15 -4 8 -8 15 -10 15 -2 0
-4 -7 -4 -15z"/>
<path d="M4710 2377 c0 -19 16 -31 24 -18 3 5 -1 14 -9 21 -12 10 -15 10 -15
-3z"/>
<path d="M4657 2241 c-3 -11 -1 -23 3 -26 14 -8 22 13 12 31 -8 14 -10 14 -15
-5z"/>
<path d="M4698 2233 c7 -3 16 -2 19 1 4 3 -2 6 -13 5 -11 0 -14 -3 -6 -6z"/>
<path d="M4842 2030 c0 -14 2 -19 5 -12 2 6 2 18 0 25 -3 6 -5 1 -5 -13z"/>
<path d="M4873 2002 c-6 -4 -17 -21 -23 -37 l-11 -30 27 26 c26 26 31 56 7 41z"/>
</g>
</svg>
