<?xml version="1.0" standalone="no"?>
<!DOCTYPE svg PUBLIC "-//W3C//DTD SVG 20010904//EN"
 "http://www.w3.org/TR/2001/REC-SVG-20010904/DTD/svg10.dtd">
<svg version="1.0" xmlns="http://www.w3.org/2000/svg"
 width="600.000000pt" height="840.000000pt" viewBox="0 0 600.000000 840.000000"
 preserveAspectRatio="xMidYMid meet">

<g transform="translate(0.000000,840.000000) scale(0.100000,-0.100000)"
fill="#000000" stroke="none">
<path d="M3219 8217 c-139 -58 -261 -147 -332 -245 -52 -71 -154 -262 -209
-392 -26 -63 -52 -122 -57 -131 -25 -44 -49 -202 -52 -344 -2 -87 -12 -114
-57 -160 -17 -17 -40 -51 -53 -75 -12 -25 -51 -89 -85 -142 -35 -53 -72 -114
-82 -135 -11 -21 -30 -47 -42 -58 -12 -11 -31 -38 -41 -60 -17 -34 -31 -45
-94 -74 -42 -19 -74 -35 -73 -37 2 -1 31 1 65 5 35 4 68 4 74 0 7 -4 24 -3 38
2 14 5 47 10 74 12 39 3 47 0 47 -14 0 -13 7 -17 25 -15 14 1 28 6 32 9 3 4
28 7 55 7 51 0 54 3 48 68 -1 16 19 42 69 91 39 38 71 76 71 85 0 8 9 20 20
26 11 6 30 21 43 34 19 19 33 23 62 21 46 -4 52 -10 34 -31 -13 -16 -12 -16 9
-5 13 7 25 11 26 9 1 -2 22 -34 46 -73 44 -70 53 -81 101 -132 37 -39 149
-193 149 -204 0 -6 5 -7 11 -4 6 4 9 0 7 -11 -2 -11 2 -18 9 -17 7 2 10 -3 7
-11 -6 -15 85 -33 229 -43 50 -3 86 -8 79 -11 -17 -5 -15 -32 3 -32 8 0 15 -4
15 -10 0 -5 7 -10 15 -10 8 0 34 40 62 98 60 125 90 173 106 169 7 -1 11 6 9
17 -3 17 -1 18 11 8 12 -10 15 -10 13 5 -2 33 41 27 109 -16 17 -11 36 -20 43
-20 16 -1 43 24 35 33 -3 3 0 14 8 23 13 16 12 17 -3 5 -11 -9 -18 -10 -23 -2
-3 5 -2 10 4 10 6 0 15 18 21 40 6 22 15 40 20 40 5 0 7 -8 4 -17 -4 -13 -3
-14 3 -5 12 16 9 68 -7 147 -18 88 -9 209 19 269 18 40 24 72 28 160 2 61 8
144 14 184 18 143 12 196 -40 388 -71 257 -109 332 -228 455 -91 95 -143 120
-236 118 -40 -1 -83 3 -95 10 -33 18 -102 12 -163 -12z m166 -108 c-4 -11 -4
-36 0 -55 5 -27 13 -37 39 -48 19 -8 50 -31 70 -53 43 -44 107 -166 126 -238
8 -27 22 -63 31 -79 23 -38 17 -47 -24 -35 -38 11 -138 2 -184 -16 -17 -7 -34
-11 -37 -7 -3 3 -6 -15 -6 -40 0 -29 -6 -50 -16 -58 -31 -26 -35 -48 -18 -82
9 -18 22 -36 28 -40 6 -4 49 -8 96 -7 l85 0 -37 17 c-21 9 -38 19 -38 22 0 11
125 4 153 -8 16 -7 32 -12 36 -12 10 0 41 -107 41 -140 0 -12 -7 -59 -15 -104
-55 -290 -55 -290 -153 -390 -83 -85 -101 -132 -106 -260 -4 -111 -21 -166
-72 -223 -22 -26 -36 -33 -65 -33 -34 0 -38 3 -44 31 -4 16 -4 56 0 88 6 57 6
59 -23 80 -17 11 -35 21 -41 21 -6 0 -11 11 -11 25 0 14 -8 29 -20 35 -11 6
-20 20 -20 30 0 13 7 20 20 20 15 0 20 7 20 28 0 23 -6 30 -34 40 -55 20 -111
63 -164 128 -72 86 -94 147 -95 259 -1 50 0 99 2 110 2 11 0 48 -4 81 -11 86
21 191 67 226 43 32 94 28 123 -8 17 -22 27 -25 65 -22 36 2 44 6 42 21 -2 12
4 17 23 17 23 0 25 3 19 23 -19 63 -76 90 -164 78 -36 -5 -75 -12 -87 -16 -18
-6 -22 -2 -28 24 -3 17 -4 35 0 41 10 17 70 11 161 -15 47 -14 88 -25 91 -25
2 0 3 10 1 23 -2 14 -18 30 -48 45 -39 21 -54 23 -122 18 -66 -5 -78 -3 -78
10 0 9 29 75 64 148 51 106 74 141 111 174 47 41 59 46 151 57 49 6 52 8 63
44 6 21 11 46 11 55 0 9 5 16 11 16 6 0 8 -9 4 -21z m278 -564 c23 -10 22 -52
-3 -65 -16 -9 -31 -5 -75 18 -30 16 -52 32 -48 36 3 3 0 7 -8 7 -8 1 0 5 16 9
33 9 91 6 118 -5z m-493 -1242 c0 -17 -10 -16 -32 4 -10 9 -18 25 -18 36 0 20
1 20 25 -3 14 -13 25 -29 25 -37z"/>
<path d="M3418 7217 c8 -9 15 -33 17 -53 4 -36 20 -62 64 -100 33 -28 17 -35
-55 -23 -65 10 -314 32 -381 33 -24 1 -43 5 -43 10 0 4 18 25 39 46 42 41 74
89 49 74 -44 -26 -119 -87 -128 -104 -8 -15 -6 -33 6 -70 20 -61 28 -67 43
-33 l12 26 50 -57 c49 -55 74 -71 63 -41 -7 18 2 19 44 4 50 -17 48 -49 -3
-39 -24 4 13 -18 47 -29 42 -14 101 -6 119 15 6 8 17 14 24 14 8 0 15 3 17 8
2 4 20 22 42 40 35 30 40 32 54 18 13 -13 17 -13 32 7 9 12 22 37 28 55 13 39
6 60 -33 90 -14 11 -25 23 -25 27 0 10 -71 89 -84 94 -6 2 -5 -3 2 -12z m-218
-176 c0 -8 25 -11 123 -13 42 0 77 -5 77 -10 0 -5 5 -6 10 -3 6 4 10 -5 10
-20 0 -18 -7 -28 -26 -35 -14 -6 -30 -8 -35 -4 -5 3 -9 0 -9 -6 0 -5 -15 -10
-32 -10 -90 0 -103 1 -112 10 -6 6 -20 10 -32 10 -27 0 -76 45 -72 67 2 9 11
17 21 19 11 1 21 4 23 7 7 6 54 -4 54 -12z"/>
<path d="M3175 7170 c-4 -6 7 -10 27 -10 25 0 29 3 18 10 -19 13 -37 13 -45 0z"/>
<path d="M3320 7150 c-11 -7 -3 -10 28 -10 26 0 41 4 37 10 -8 13 -45 13 -65
0z"/>
<path d="M3285 7100 c-4 -6 7 -10 25 -10 18 0 29 4 25 10 -3 6 -15 10 -25 10
-10 0 -22 -4 -25 -10z"/>
<path d="M2940 6055 c-24 -13 -48 -21 -52 -19 -4 3 -8 1 -8 -4 0 -15 26 -22
39 -9 6 6 11 8 11 4 0 -4 9 -3 20 3 16 9 22 8 26 -5 4 -10 13 -13 24 -10 10 3
22 0 26 -6 5 -8 3 -9 -6 -4 -9 5 -11 4 -6 -3 5 -8 13 -9 24 -3 9 4 24 7 32 4
8 -2 5 2 -7 8 -13 7 -23 19 -23 27 0 10 -4 12 -12 5 -14 -10 -52 20 -40 31 9
10 0 6 -48 -19z"/>
<path d="M3235 6028 c22 -27 41 -48 43 -48 7 0 -36 56 -59 75 -12 11 -5 -1 16
-27z"/>
<path d="M2847 6043 c-4 -3 -7 -11 -7 -17 0 -6 5 -5 12 2 6 6 9 14 7 17 -3 3
-9 2 -12 -2z"/>
<path d="M2740 6020 c-8 -5 -12 -12 -9 -15 4 -3 12 1 19 10 14 17 11 19 -10 5z"/>
<path d="M2790 6015 c0 -8 2 -15 4 -15 2 0 6 7 10 15 3 8 1 15 -4 15 -6 0 -10
-7 -10 -15z"/>
<path d="M3710 6020 c8 -5 20 -10 25 -10 6 0 3 5 -5 10 -8 5 -19 10 -25 10 -5
0 -3 -5 5 -10z"/>
<path d="M2700 6011 c0 -5 5 -13 10 -16 6 -3 10 -2 10 4 0 5 -4 13 -10 16 -5
3 -10 2 -10 -4z"/>
<path d="M3037 5983 c-4 -3 -7 -13 -7 -22 1 -13 3 -13 11 2 11 19 8 33 -4 20z"/>
<path d="M3667 5983 c-11 -11 -8 -20 8 -20 8 0 15 6 15 14 0 14 -12 17 -23 6z"/>
<path d="M3804 5978 c10 -7 38 -30 62 -50 44 -37 81 -55 91 -44 4 3 -1 6 -9 6
-9 0 -35 16 -59 36 -23 19 -56 42 -73 50 -17 8 -22 9 -12 2z"/>
<path d="M3717 5973 c14 -3 20 -9 16 -19 -3 -8 0 -14 6 -14 6 0 11 -8 11 -17
0 -12 3 -14 11 -6 5 5 7 22 3 37 -5 22 -11 26 -38 25 -22 -1 -25 -3 -9 -6z"/>
<path d="M3782 5946 c3 -19 48 -34 48 -16 0 9 -8 12 -26 9 -4 0 -11 5 -16 13
-7 10 -8 8 -6 -6z"/>
<path d="M3330 5785 c-10 -12 -10 -15 4 -15 9 0 16 7 16 15 0 8 -2 15 -4 15
-2 0 -9 -7 -16 -15z"/>
<path d="M2057 5016 c-10 -27 -29 -177 -23 -183 9 -9 44 76 52 124 5 31 2 46
-9 57 -12 13 -16 13 -20 2z"/>
<path d="M2005 4780 c-3 -5 -1 -10 4 -10 6 0 11 5 11 10 0 6 -2 10 -4 10 -3 0
-8 -4 -11 -10z"/>
<path d="M1880 4756 c0 -2 7 -7 16 -10 8 -3 12 -2 9 4 -6 10 -25 14 -25 6z"/>
<path d="M2129 4681 c9 -6 10 -11 2 -15 -6 -4 -11 -12 -11 -18 0 -6 9 -3 20 7
22 20 18 35 -8 35 -13 0 -14 -2 -3 -9z"/>
<path d="M3580 4591 c0 -12 5 -21 10 -21 6 0 10 6 10 14 0 8 -4 18 -10 21 -5
3 -10 -3 -10 -14z"/>
<path d="M2085 4581 c-6 -11 9 -23 19 -14 9 9 7 23 -3 23 -6 0 -12 -4 -16 -9z"/>
<path d="M2031 4538 c-12 -19 -15 -20 -20 -7 -4 12 -12 14 -26 8 -11 -4 -15
-8 -8 -8 11 -1 9 -26 -5 -61 -3 -8 -6 -17 -7 -20 -12 -35 -18 -39 -37 -29 -16
9 -19 8 -16 -3 3 -7 1 -26 -3 -42 -5 -16 -5 -34 -2 -40 7 -10 7 -22 2 -119 -3
-55 -27 -80 -66 -71 -26 7 -25 -3 5 -64 18 -35 35 -37 40 -4 2 12 8 22 13 22
5 0 9 6 7 13 -3 18 12 57 22 57 5 0 6 7 3 17 -4 11 -3 14 5 9 7 -4 12 -3 12 2
0 16 35 49 48 45 6 -3 12 2 12 10 0 8 15 31 33 50 80 86 81 91 53 237 -5 25
-49 24 -65 -2z m39 -8 c0 -5 -2 -10 -4 -10 -3 0 -8 5 -11 10 -3 6 -1 10 4 10
6 0 11 -4 11 -10z"/>
<path d="M1680 4020 c0 -5 5 -10 11 -10 5 0 7 5 4 10 -3 6 -8 10 -11 10 -2 0
-4 -4 -4 -10z"/>
<path d="M1710 4001 c0 -6 11 -27 25 -47 14 -20 25 -34 25 -30 0 12 61 -24 67
-40 9 -25 19 -15 30 31 6 25 7 45 2 45 -4 0 -9 -6 -12 -12 -3 -9 -11 -7 -27 7
-20 17 -23 18 -17 3 8 -21 3 -23 -15 -5 -30 27 -78 57 -78 48z"/>
<path d="M1860 3984 c0 -8 5 -12 10 -9 6 4 8 11 5 16 -9 14 -15 11 -15 -7z"/>
<path d="M2242 3020 c-7 -11 -17 -20 -22 -20 -6 0 -18 -8 -29 -19 -10 -10 -25
-23 -33 -27 -18 -11 -100 -121 -115 -154 -6 -14 -16 -40 -23 -57 -7 -18 -16
-33 -20 -33 -4 0 -11 -11 -14 -25 -4 -14 -10 -25 -15 -25 -11 0 -47 -72 -56
-112 -6 -24 -4 -28 14 -28 16 0 26 10 36 34 8 19 19 38 25 41 6 4 8 10 5 15
-3 4 2 13 10 20 8 7 12 17 8 24 -3 6 0 6 8 -1 29 -27 39 -15 24 28 -15 41 -14
42 26 120 23 43 45 79 50 79 5 0 9 6 9 13 0 6 16 27 37 46 31 29 41 33 74 28
54 -7 71 15 38 48 -24 24 -24 25 -37 5z"/>
<path d="M2275 2585 c-56 -102 -67 -138 -59 -187 7 -44 24 -61 24 -24 0 14 5
28 12 32 6 4 8 3 5 -3 -3 -5 -7 -34 -8 -64 -1 -30 -6 -63 -11 -74 -7 -16 -7
-15 -3 6 3 17 0 29 -8 32 -11 4 -13 -11 -12 -66 1 -40 0 -57 -2 -38 -3 26 -7
31 -14 20 -6 -9 -7 35 -4 119 3 72 3 132 0 132 -21 0 -38 -38 -42 -93 -3 -34
-13 -95 -23 -134 -10 -40 -15 -73 -11 -73 3 0 1 -4 -6 -8 -15 -10 -92 -310
-100 -392 -3 -36 -15 -81 -25 -101 -24 -47 -40 -146 -35 -223 2 -41 -3 -79
-15 -116 -11 -33 -21 -100 -25 -165 -4 -81 -12 -124 -28 -165 -24 -57 -36
-113 -56 -260 -6 -47 -27 -130 -46 -185 -74 -213 -95 -284 -124 -408 -16 -71
-29 -133 -29 -138 0 -5 29 -9 65 -9 47 0 65 4 65 13 0 7 7 22 15 33 14 18 14
17 5 -9 -5 -16 -10 -30 -10 -33 0 -2 260 -4 578 -4 l578 0 69 202 c82 244 254
730 259 736 6 5 53 -148 60 -196 4 -24 11 -193 16 -375 6 -182 13 -339 16
-349 5 -17 33 -18 469 -18 l463 0 6 48 c4 29 1 68 -8 101 -13 48 -13 57 0 83
8 16 12 33 9 37 -3 5 2 16 10 24 19 20 19 31 0 23 -8 -3 -15 -1 -15 4 0 6 4
10 10 10 6 0 8 30 6 75 -3 45 -1 73 5 70 5 -4 9 5 9 19 0 18 -5 26 -17 26 -15
0 -16 2 -3 10 13 9 13 10 0 10 -12 0 -12 2 -2 9 9 5 14 41 16 115 2 59 7 110
11 114 5 4 5 -3 2 -16 -3 -12 -1 -22 4 -22 5 0 9 -16 9 -35 0 -19 4 -35 9 -35
5 0 8 16 7 36 -1 20 2 38 6 40 5 3 8 28 8 55 0 29 4 48 10 44 13 -8 33 73 27
112 -5 27 -3 31 7 21 14 -15 13 -59 -2 -133 -7 -33 -7 -54 0 -62 5 -7 6 -22 2
-35 -4 -13 -6 -37 -5 -54 1 -18 -2 -49 -7 -70 -6 -22 -13 -82 -17 -134 -3 -52
-8 -104 -10 -115 -2 -11 -6 -47 -9 -80 -16 -191 -17 -219 -7 -205 10 16 31
132 34 187 1 17 5 29 9 27 3 -2 9 20 12 48 10 84 27 206 41 303 7 50 23 196
35 325 11 129 32 343 46 476 13 132 24 263 24 292 l0 51 -52 -24 c-29 -13 -69
-26 -88 -29 -20 -3 -5 5 32 18 37 12 75 29 85 37 10 7 20 14 21 15 9 6 11 94
2 94 -6 0 -6 9 0 26 6 14 10 38 10 54 0 23 -4 28 -19 25 -17 -3 -18 0 -11 23
9 32 27 79 39 107 5 11 24 65 42 120 17 55 42 126 55 157 28 68 29 78 8 78
-10 0 -14 -6 -11 -14 4 -10 -6 -16 -34 -20 -21 -3 -39 -10 -39 -14 0 -10 -66
-44 -95 -49 -10 -2 -22 -7 -25 -11 -14 -20 -60 -40 -79 -35 -12 3 -21 1 -21
-6 0 -19 -83 -54 -134 -56 -35 -1 -53 -7 -62 -20 -9 -12 -14 -14 -14 -6 0 11
-3 11 -14 1 -8 -6 -28 -10 -43 -9 -15 2 -37 -2 -48 -8 -18 -10 -101 -23 -177
-29 -16 -1 -29 -3 -30 -4 -2 -2 -46 -4 -98 -5 -52 -2 -102 -5 -110 -8 -33 -11
-60 -15 -60 -7 0 4 -19 4 -42 -1 -27 -7 -45 -6 -52 1 -12 12 -56 13 -56 1 0
-10 -19 -9 -37 2 -7 5 -13 5 -13 1 0 -4 -9 1 -19 10 -12 11 -21 14 -26 7 -11
-18 -44 -12 -55 9 -8 15 -15 18 -28 11 -10 -6 -24 -5 -36 1 -15 8 -21 8 -24
-1 -6 -17 -22 -13 -22 6 0 13 -3 14 -12 5 -17 -17 -31 -15 -24 4 4 11 2 14 -6
11 -7 -3 -21 -8 -30 -12 -13 -5 -18 -2 -18 9 0 9 -8 16 -21 16 -12 0 -17 4
-13 11 4 8 0 8 -15 0 -17 -10 -21 -9 -21 4 0 12 -3 13 -19 4 -15 -10 -22 -8
-40 10 -14 14 -30 21 -42 18 -12 -3 -19 0 -19 10 0 10 -6 12 -20 8 -20 -6
-120 33 -120 47 0 5 -9 8 -19 8 -11 0 -22 4 -26 10 -3 5 -12 7 -20 3 -8 -3
-15 0 -15 6 0 6 -6 8 -13 5 -7 -2 -22 4 -34 15 -11 11 -24 17 -27 14 -3 -4
-14 3 -23 13 -10 11 -29 21 -42 21 -13 1 -28 8 -32 15 -5 7 -9 10 -9 5 0 -4
-10 -1 -22 7 -13 8 -37 17 -53 20 -17 4 -36 17 -42 29 -32 60 -47 93 -45 100
6 24 -13 -3 -53 -78z m40 -3 c-8 -8 -25 10 -19 20 4 6 9 5 15 -3 4 -7 6 -15 4
-17z m13 -37 c-6 -14 -15 -25 -20 -25 -5 0 -1 11 8 25 9 14 18 25 20 25 2 0
-2 -11 -8 -25z m1827 -367 c-4 -35 -18 -131 -31 -215 -29 -181 -30 -225 -9
-217 10 4 15 0 15 -11 0 -9 -4 -13 -10 -10 -5 3 -10 -4 -10 -16 0 -19 4 -21
38 -15 26 4 31 3 17 -4 -11 -5 -32 -9 -46 -9 -22 -1 -26 4 -27 27 0 15 -1 47
-2 72 -1 25 10 115 23 200 14 85 29 179 32 208 4 28 9 52 12 52 3 0 2 -28 -2
-62z m-968 -65 c-3 -10 -5 -4 -5 12 0 17 2 24 5 18 2 -7 2 -21 0 -30z m440
-45 c-3 -7 -5 -2 -5 12 0 14 2 19 5 13 2 -7 2 -19 0 -25z m-440 -30 c-3 -8 -6
-5 -6 6 -1 11 2 17 5 13 3 -3 4 -12 1 -19z m423 -53 c-7 -25 -15 -44 -17 -42
-2 3 2 25 9 50 6 26 14 44 16 42 3 -2 -1 -25 -8 -50z m-413 -17 c-3 -7 -5 -2
-5 12 0 14 2 19 5 13 2 -7 2 -19 0 -25z m1313 2 c-6 -11 -13 -20 -16 -20 -2 0
0 9 6 20 6 11 13 20 16 20 2 0 0 -9 -6 -20z m-1313 -247 c-1 -43 -3 -8 -3 77
0 85 2 120 3 78 2 -43 2 -113 0 -155z m1325 195 c-8 -8 -9 -4 -5 13 4 13 8 18
11 10 2 -7 -1 -18 -6 -23z m4 -63 c-26 -19 -42 -19 -26 0 7 8 20 15 29 15 13
-1 13 -3 -3 -15z m9 -34 c-3 -6 -14 -11 -23 -11 -15 1 -15 2 2 15 21 16 32 13
21 -4z m-65 -21 c0 -5 -5 -10 -11 -10 -5 0 -7 5 -4 10 3 6 8 10 11 10 2 0 4
-4 4 -10z m-2286 -52 c-4 -13 -11 -41 -15 -63 -6 -36 -7 -37 -8 -9 -1 30 16
94 26 94 2 0 1 -10 -3 -22z m81 -28 c3 -5 1 -10 -4 -10 -6 0 -11 5 -11 10 0 6
2 10 4 10 3 0 8 -4 11 -10z m2050 0 c-16 -4 -41 -8 -55 -8 -22 0 -22 1 5 8 17
4 41 8 55 8 22 0 22 -1 -5 -8z m-2015 -10 c0 -5 -5 -10 -11 -10 -5 0 -7 5 -4
10 3 6 8 10 11 10 2 0 4 -4 4 -10z m-80 -10 c0 -5 -7 -7 -15 -4 -8 4 -15 8
-15 10 0 2 7 4 15 4 8 0 15 -4 15 -10z m130 0 c0 -5 -4 -10 -10 -10 -5 0 -10
5 -10 10 0 6 5 10 10 10 6 0 10 -4 10 -10z m1873 3 c-7 -2 -19 -2 -25 0 -7 3
-2 5 12 5 14 0 19 -2 13 -5z m-1838 -13 c3 -5 1 -10 -4 -10 -6 0 -11 5 -11 10
0 6 2 10 4 10 3 0 8 -4 11 -10z m45 0 c0 -5 -5 -10 -11 -10 -5 0 -7 5 -4 10 3
6 8 10 11 10 2 0 4 -4 4 -10z m-167 -7 c-7 -2 -19 -2 -25 0 -7 3 -2 5 12 5 14
0 19 -2 13 -5z m437 -7 c0 -3 -4 -8 -10 -11 -5 -3 -10 -1 -10 4 0 6 5 11 10
11 6 0 10 -2 10 -4z m35 -6 c3 -5 1 -10 -4 -10 -6 0 -11 5 -11 10 0 6 2 10 4
10 3 0 8 -4 11 -10z m32 -12 c-3 -8 -6 -5 -6 6 -1 11 2 17 5 13 3 -3 4 -12 1
-19z m-414 5 c-7 -2 -21 -2 -30 0 -10 3 -4 5 12 5 17 0 24 -2 18 -5z m2138
-85 c2 -121 -1 -177 -11 -203 -7 -17 -9 -14 -11 15 -1 19 -1 49 0 65 1 17 3
72 4 123 1 50 5 92 10 92 4 0 8 -42 8 -92z m-1906 67 c6 -2 -23 -4 -63 -4 -40
-1 -71 3 -68 7 5 8 107 5 131 -3z m575 -5 c9 -18 8 -20 -15 -20 -15 0 -24 4
-20 10 4 6 11 7 17 4 7 -5 9 -1 5 9 -9 24 0 21 13 -3z m-400 -8 c0 -4 -21 -6
-47 -4 -76 5 -83 10 -15 11 34 0 62 -2 62 -7z m142 -10 c4 -4 -22 -5 -57 -4
-36 2 -65 7 -65 10 0 9 113 3 122 -6z m284 -40 c-12 -11 -17 7 -9 34 l8 29 3
-28 c2 -16 1 -31 -2 -35z m-1037 -16 c-29 -50 -35 -40 -7 12 13 23 24 38 26
33 2 -5 -7 -25 -19 -45z m819 47 c-10 -2 -26 -2 -35 0 -10 3 -2 5 17 5 19 0
27 -2 18 -5z m59 -9 c-3 -3 -12 -4 -19 -1 -8 3 -5 6 6 6 11 1 17 -2 13 -5z
m70 -10 c-3 -3 -12 -4 -19 -1 -8 3 -5 6 6 6 11 1 17 -2 13 -5z m46 -1 c-7 -2
-19 -2 -25 0 -7 3 -2 5 12 5 14 0 19 -2 13 -5z m-1076 -121 c-9 -10 -18 -28
-20 -40 -4 -24 -17 -42 -17 -23 0 23 29 81 41 81 8 0 6 -6 -4 -18z m-19 -113
c-3 -8 -7 -3 -11 10 -4 17 -3 21 5 13 5 -5 8 -16 6 -23z m2409 -31 c-3 -8 -6
-5 -6 6 -1 11 2 17 5 13 3 -3 4 -12 1 -19z m30 0 c-3 -8 -6 -5 -6 6 -1 11 2
17 5 13 3 -3 4 -12 1 -19z m-141 -145 c-10 -10 -19 5 -10 18 6 11 8 11 12 0 2
-7 1 -15 -2 -18z m129 -28 c0 -14 -3 -25 -7 -25 -10 0 -10 34 -1 43 3 4 7 7 7
7 1 0 1 -11 1 -25z m-130 -6 c11 -17 -1 -21 -15 -4 -8 9 -8 15 -2 15 6 0 14
-5 17 -11z m-11 -64 c-4 -8 -1 -15 6 -15 7 0 6 -5 -4 -15 -18 -19 -33 -20 -17
-2 6 8 8 17 5 20 -3 3 -3 10 1 16 9 16 15 13 9 -4z m83 -37 c-3 -8 -6 -5 -6 6
-1 11 2 17 5 13 3 -3 4 -12 1 -19z m-2400 -60 c-3 -7 -5 -2 -5 12 0 14 2 19 5
13 2 -7 2 -19 0 -25z m2328 -19 c-5 -15 -4 -19 5 -14 8 5 11 1 8 -11 -2 -11
-8 -18 -13 -17 -12 2 -19 29 -11 49 9 22 18 16 11 -7z m32 -11 c-3 -8 -6 -5
-6 6 -1 11 2 17 5 13 3 -3 4 -12 1 -19z m-2370 -30 c-3 -7 -5 -2 -5 12 0 14 2
19 5 13 2 -7 2 -19 0 -25z m2373 -33 c0 -14 -4 -25 -10 -25 -5 0 -10 11 -10
25 0 14 5 25 10 25 6 0 10 -11 10 -25z m-60 -35 c0 -5 -5 -10 -11 -10 -5 0 -7
5 -4 10 3 6 8 10 11 10 2 0 4 -4 4 -10z m-2350 -4 c0 -2 -7 -9 -15 -16 -13
-11 -14 -10 -9 4 5 14 24 23 24 12z m2367 -58 c-3 -8 -6 -5 -6 6 -1 11 2 17 5
13 3 -3 4 -12 1 -19z m-2442 -78 c-11 -44 -13 -49 -14 -23 -1 31 16 90 23 82
3 -2 -2 -29 -9 -59z m-18 -142 c-2 -13 -4 -5 -4 17 -1 22 1 32 4 23 2 -10 2
-28 0 -40z m2400 -230 c-3 -7 -5 -2 -5 12 0 14 2 19 5 13 2 -7 2 -19 0 -25z
m-2401 -54 c-4 -14 -9 -24 -12 -21 -3 2 -2 17 2 31 3 15 9 25 11 22 3 -3 2
-17 -1 -32z m-19 -56 c-3 -8 -6 -5 -6 6 -1 11 2 17 5 13 3 -3 4 -12 1 -19z
m-41 -99 c-8 -21 -15 -27 -15 -16 -1 17 20 59 27 53 1 -2 -4 -19 -12 -37z"/>
<path d="M4321 365 c1 -19 18 -51 18 -35 0 8 -4 22 -9 30 -5 8 -9 11 -9 5z"/>
<path d="M4293 225 c-3 -9 -3 -19 1 -22 3 -4 6 1 6 10 0 8 6 18 13 20 9 4 9 6
-1 6 -7 1 -15 -6 -19 -14z"/>
<path d="M4302 188 c-14 -14 -16 -48 -2 -48 5 0 7 7 4 15 -4 8 -1 22 6 30 15
18 9 20 -8 3z"/>
<path d="M4301 95 c1 -40 1 -40 10 -10 5 18 5 33 -1 39 -7 7 -10 -4 -9 -29z"/>
<path d="M4310 31 c0 -5 5 -13 10 -16 6 -3 10 -2 10 4 0 5 -4 13 -10 16 -5 3
-10 2 -10 -4z"/>
</g>
</svg>
