<?xml version="1.0" encoding="UTF-8"?>
<!DOCTYPE svg PUBLIC "-//W3C//DTD SVG 1.1//EN" "http://www.w3.org/Graphics/SVG/1.1/DTD/svg11.dtd">
<svg xmlns="http://www.w3.org/2000/svg" version="1.1" width="512px" height="512px" style="shape-rendering:geometricPrecision; text-rendering:geometricPrecision; image-rendering:optimizeQuality; fill-rule:evenodd; clip-rule:evenodd" xmlns:xlink="http://www.w3.org/1999/xlink">
<g><path style="opacity:0.984" fill="#000000" d="M 272.5,-0.5 C 282.5,-0.5 292.5,-0.5 302.5,-0.5C 356.064,9.22674 389.564,40.5601 403,93.5C 411.126,153.756 388.293,197.589 334.5,225C 286.236,243.069 242.902,235.069 204.5,201C 169.515,162.818 161.015,119.318 179,70.5C 197.955,30.7071 229.122,7.04045 272.5,-0.5 Z M 283.5,64.5 C 289.988,63.1809 294.488,65.5142 297,71.5C 297.5,83.1619 297.667,94.8286 297.5,106.5C 308.838,106.333 320.172,106.5 331.5,107C 338.912,109.324 341.412,114.157 339,121.5C 337.833,123.333 336.333,124.833 334.5,126C 322.22,127.394 309.886,127.894 297.5,127.5C 297.667,139.171 297.5,150.838 297,162.5C 290.667,171.833 284.333,171.833 278,162.5C 277.5,150.838 277.333,139.171 277.5,127.5C 265.114,127.894 252.78,127.394 240.5,126C 234.566,121.874 233.4,116.707 237,110.5C 238.8,108.683 240.966,107.516 243.5,107C 254.828,106.5 266.162,106.333 277.5,106.5C 277.333,94.8286 277.5,83.1619 278,71.5C 278.967,68.3794 280.8,66.046 283.5,64.5 Z"/></g>
<g><path style="opacity:0.98" fill="#000000" d="M 29.5,41.5 C 49.8361,41.3334 70.1694,41.5 90.5,42C 98.4773,43.9752 103.977,48.8085 107,56.5C 109.734,65.536 112.568,74.536 115.5,83.5C 124.816,84.3321 134.149,84.8321 143.5,85C 146.667,86.1667 148.833,88.3333 150,91.5C 143.589,152.038 165.089,199.538 214.5,234C 249.974,255.189 287.641,260.189 327.5,249C 384.188,228.972 416.688,189.139 425,129.5C 425.639,119.156 425.472,108.823 424.5,98.5C 423.557,92.2169 425.89,87.7169 431.5,85C 441.833,84.3333 452.167,84.3333 462.5,85C 477.667,88.1667 486.833,97.3333 490,112.5C 491.234,121.438 490.234,130.105 487,138.5C 461.727,191.379 436.727,244.379 412,297.5C 405.27,308.946 395.437,316.113 382.5,319C 314.833,319.333 247.167,319.667 179.5,320C 165.833,333.667 152.167,347.333 138.5,361C 238.5,361.333 338.5,361.667 438.5,362C 442.467,362.628 445.301,364.795 447,368.5C 447.667,378.5 447.667,388.5 447,398.5C 445.878,400.624 444.378,402.457 442.5,404C 338.876,405.658 235.21,405.991 131.5,405C 111.648,401.481 99.1484,389.981 94,370.5C 91.9647,359.053 93.9647,348.387 100,338.5C 112.137,325.362 124.637,312.529 137.5,300C 114.626,228.673 92.293,157.173 70.5,85.5C 56.8293,85.6666 43.1626,85.4999 29.5,85C 25.1037,84.2703 22.2704,81.7703 21,77.5C 20.3333,68.1667 20.3333,58.8333 21,49.5C 22.4447,45.218 25.2781,42.5513 29.5,41.5 Z"/></g>
<g><path style="opacity:0.973" fill="#000000" d="M 158.5,511.5 C 152.167,511.5 145.833,511.5 139.5,511.5C 111.108,501.052 100.941,481.052 109,451.5C 121.593,428.632 140.426,421.132 165.5,429C 185.988,439.138 194.488,455.638 191,478.5C 185.984,495.349 175.15,506.349 158.5,511.5 Z"/></g>
<g><path style="opacity:0.973" fill="#000000" d="M 414.5,511.5 C 408.167,511.5 401.833,511.5 395.5,511.5C 367.108,501.052 356.941,481.052 365,451.5C 377.593,428.632 396.426,421.132 421.5,429C 441.988,439.138 450.488,455.638 447,478.5C 441.984,495.349 431.15,506.349 414.5,511.5 Z"/></g>
</svg>
