<svg width="45" height="51" viewBox="0 0 45 51" fill="none" xmlns="http://www.w3.org/2000/svg">
<path d="M19.1057 0C15.603 0 12.7371 2.86586 12.7371 6.36857H6.36857C2.86586 6.36857 0 9.23443 0 12.7371H44.58C44.58 9.23443 41.7141 6.36857 38.2114 6.36857H31.8429C31.8429 2.86586 28.977 0 25.4743 0H19.1057ZM6.36857 19.1057V49.7385C6.36857 50.4391 6.87806 50.9486 7.5786 50.9486H37.0651C37.7656 50.9486 38.2751 50.4391 38.2751 49.7385V19.1057H31.9065V41.3957C31.9065 43.1789 30.5055 44.58 28.7223 44.58C26.9391 44.58 25.538 43.1789 25.538 41.3957V19.1057H19.1694V41.3957C19.1694 43.1789 17.7683 44.58 15.9851 44.58C14.2019 44.58 12.8008 43.1789 12.8008 41.3957V19.1057H6.43226H6.36857Z" fill="black"/>
</svg>
