<svg width="110" height="82" viewBox="0 0 110 82" fill="none" xmlns="http://www.w3.org/2000/svg">
<path d="M6.09738 2.5154C6.17984 2.51562 6.26229 2.51821 6.34464 2.52316L6.53235 2.53444L6.71964 2.51752C6.97813 2.49416 7.2382 2.49416 7.49668 2.51752L7.60896 2.52766H7.72168H34.9642C35.7515 2.54555 36.5191 2.7785 37.1838 3.20145C37.854 3.62799 38.3936 4.23123 38.7431 4.94473L38.7597 4.97864L38.7773 5.01204L43.9581 14.8284L44.6617 16.1615H46.1691H106.537C106.529 16.2083 106.517 16.2616 106.499 16.3213L95.4631 50.384L95.4574 50.4016L95.4519 50.4194C95.3765 50.6646 95.0956 51.1085 94.5478 51.5138C94.0026 51.9173 93.4893 52.063 93.2059 52.063H45.4874C45.2913 52.063 44.7737 51.9324 44.1776 51.4999C43.5836 51.0689 43.304 50.623 43.2414 50.4194L43.2346 50.3973L43.2274 50.3754L37.6375 33.3331L32.0476 16.2908L32.0365 16.2568L32.0244 16.2232L30.7973 12.8147L30.2022 11.1615H28.4451H7.99436H7.79563L7.59939 11.1929C6.44614 11.3774 5.26683 11.0963 4.32088 10.4113C3.37494 9.72627 2.73986 8.69356 2.55534 7.54032C2.37082 6.38707 2.65198 5.20776 3.33697 4.26182C4 3.3462 4.98881 2.72183 6.09738 2.5154ZM44.579 75.0138C44.579 72.577 46.4591 70.6969 48.8959 70.6969C51.3326 70.6969 53.2128 72.577 53.2128 75.0138C53.2128 77.4505 51.3326 79.3307 48.8959 79.3307C46.4591 79.3307 44.579 77.4505 44.579 75.0138ZM85.4805 75.0138C85.4805 72.577 87.3606 70.6969 89.7974 70.6969C92.2342 70.6969 94.1143 72.577 94.1143 75.0138C94.1143 77.4505 92.2342 79.3307 89.7974 79.3307C87.3606 79.3307 85.4805 77.4505 85.4805 75.0138Z" stroke="black" stroke-width="5"/>
</svg>
