<svg width="110" height="82" viewBox="0 0 110 82" fill="none" xmlns="http://www.w3.org/2000/svg">
<path d="M5.81295 0.0276647C4.00499 0.316938 2.38599 1.31257 1.31212 2.79554C0.238244 4.27851 -0.202539 6.12733 0.0867344 7.93529C0.376008 9.74325 1.37164 11.3622 2.85461 12.4361C4.33758 13.51 6.1864 13.9508 7.99436 13.6615H28.4451L29.6722 17.07L35.262 34.1123L40.8519 51.1546C41.3973 52.927 43.715 54.563 45.4874 54.563H93.2059C95.1146 54.563 97.296 52.927 97.8414 51.1546L108.885 17.07C109.43 15.2976 108.612 13.6615 106.703 13.6615H46.1691L40.9883 3.84514C40.4364 2.71843 39.5844 1.76585 38.526 1.0923C37.4675 0.418745 36.2437 0.0503447 34.9894 0.0276647L7.72168 0.0276647C7.3135 -0.00922155 6.90282 -0.00922156 6.49464 0.0276647C6.22221 0.0112893 5.94904 0.0112893 5.67661 0.0276647L5.81295 0.0276647ZM48.8959 68.1969C45.0784 68.1969 42.079 71.1963 42.079 75.0138C42.079 78.8313 45.0784 81.8307 48.8959 81.8307C52.7134 81.8307 55.7128 78.8313 55.7128 75.0138C55.7128 71.1963 52.7134 68.1969 48.8959 68.1969ZM89.7974 68.1969C85.9799 68.1969 82.9805 71.1963 82.9805 75.0138C82.9805 78.8313 85.9799 81.8307 89.7974 81.8307C93.6149 81.8307 96.6143 78.8313 96.6143 75.0138C96.6143 71.1963 93.6149 68.1969 89.7974 68.1969Z" fill="white"/>
</svg>
