<svg width="110" height="110" viewBox="0 0 110 110" fill="none" xmlns="http://www.w3.org/2000/svg">
<path d="M47.5655 0.815175C21.4931 0.815175 0.283913 22.0243 0.283913 48.0968C0.283913 74.1692 21.4931 95.3784 47.5655 95.3784C55.5358 95.3784 63.3711 93.4871 69.9905 89.8397C70.5207 90.4778 71.1086 91.0656 71.7467 91.5958L85.2557 105.105C86.5031 106.508 88.0242 107.642 89.7256 108.437C91.4271 109.231 93.2729 109.67 95.1499 109.725C97.0269 109.78 98.8953 109.451 100.641 108.758C102.386 108.065 103.971 107.023 105.299 105.695C106.627 104.367 107.669 102.782 108.362 101.037C109.055 99.2915 109.384 97.423 109.329 95.5461C109.273 93.6691 108.835 91.8232 108.041 90.1218C107.246 88.4204 106.112 86.8993 104.709 85.6519L91.1997 72.1429C90.5416 71.4846 89.8173 70.896 89.0382 70.3867C92.6857 63.7673 94.9822 56.0671 94.9822 47.9617C94.9822 21.8893 73.773 0.680084 47.7006 0.680084L47.5655 0.815175ZM47.5655 14.3242C66.3431 14.3242 81.3381 29.3192 81.3381 48.0968C81.3381 57.0127 78.0959 65.2532 72.4221 71.3323C72.287 71.4674 72.1519 71.6025 72.0169 71.7376C71.3788 72.2678 70.7909 72.8557 70.2607 73.4938C64.3167 78.8974 56.2113 82.0044 47.4304 82.0044C28.6529 82.0044 13.6579 67.0094 13.6579 48.2319C13.6579 29.4543 28.6529 14.4593 47.4304 14.4593L47.5655 14.3242Z" fill="white"/>
</svg>
