<svg width="68" height="68" viewBox="0 0 68 68" fill="none" xmlns="http://www.w3.org/2000/svg">
<path d="M30.0888 2H29.2604L29.1736 2.08676C14.1115 2.53276 2 14.9204 2 30.0888C2 45.5385 14.5648 58.1033 30.0145 58.1033C34.1829 58.1033 38.3168 57.2258 41.9669 55.4984L49.2983 62.8299C50.1579 63.7844 51.2007 64.5566 52.365 65.1002C53.548 65.6527 54.8316 65.9574 56.1367 65.9959C57.4419 66.0343 58.7411 65.8055 59.9546 65.3237C61.1682 64.8418 62.2704 64.117 63.1937 63.1937C64.117 62.2704 64.8418 61.1682 65.3237 59.9546C65.8055 58.7411 66.0343 57.4418 65.9959 56.1367C65.9574 54.8316 65.6527 53.548 65.1002 52.3649C64.5566 51.2007 63.7844 50.1578 62.8299 49.2983L55.4366 41.9051C55.4091 41.8776 55.3815 41.8503 55.3537 41.8231C57.0549 38.2709 58.1033 34.2468 58.1033 30.0145C58.1033 14.5648 45.5385 2 30.0888 2ZM29.9402 13.5814H30.7686L30.824 13.526C39.6678 13.9415 46.5963 21.1334 46.5963 30.0888C46.5963 34.4955 45.0002 38.5261 42.2513 41.484L42.165 41.5703L42.1147 41.6206C41.7367 41.9414 41.3846 42.2915 41.0616 42.6676C38.1875 45.2359 34.2544 46.7449 29.9402 46.7449C20.7133 46.7449 13.3584 39.39 13.3584 30.1631C13.3584 20.9362 20.7133 13.5814 29.9402 13.5814Z" stroke="black" stroke-width="4"/>
</svg>
