<?xml version="1.0" encoding="UTF-8"?>
<!DOCTYPE svg PUBLIC "-//W3C//DTD SVG 1.1//EN" "http://www.w3.org/Graphics/SVG/1.1/DTD/svg11.dtd">
<svg xmlns="http://www.w3.org/2000/svg" version="1.1" width="512px" height="512px" style="shape-rendering:geometricPrecision; text-rendering:geometricPrecision; image-rendering:optimizeQuality; fill-rule:evenodd; clip-rule:evenodd" xmlns:xlink="http://www.w3.org/1999/xlink">
<g><path style="opacity:0.99" fill="#000000" d="M 511.5,126.5 C 511.5,128.167 511.5,129.833 511.5,131.5C 495.599,203.326 479.933,275.326 464.5,347.5C 350.502,348.5 236.502,348.833 122.5,348.5C 123.903,366.529 125.57,384.529 127.5,402.5C 233.501,402.333 339.501,402.5 445.5,403C 455.522,405.373 460.855,411.706 461.5,422C 460.51,431.325 455.51,437.325 446.5,440C 431.489,440.167 416.489,440.667 401.5,441.5C 409.67,461.656 405.003,478.156 387.5,491C 372.02,498.034 357.354,496.7 343.5,487C 330.468,473.387 327.802,458.054 335.5,441C 295.833,440.333 256.167,440.333 216.5,441C 225.313,460.443 221.313,476.777 204.5,490C 183.73,500.539 166.23,496.705 152,478.5C 145.353,466.405 144.853,454.071 150.5,441.5C 135.511,440.667 120.511,440.167 105.5,440C 95.9488,437.083 91.1154,430.583 91,420.5C 79.235,298.184 67.735,175.851 56.5,53.5C 42.8293,53.6666 29.1626,53.4999 15.5,53C 7.6612,51.9272 2.32786,47.7605 -0.5,40.5C -0.5,36.5 -0.5,32.5 -0.5,28.5C 2.05332,22.1204 6.71998,17.9538 13.5,16C 35.1667,15.3333 56.8333,15.3333 78.5,16C 85.8448,18.6787 90.3448,23.8454 92,31.5C 95.0601,62.8273 98.0601,94.1606 101,125.5C 110.083,126.485 119.249,126.818 128.5,126.5C 128.5,89.5 128.5,52.5 128.5,15.5C 177.833,15.5 227.167,15.5 276.5,15.5C 276.5,27.8333 276.5,40.1667 276.5,52.5C 319.5,52.5 362.5,52.5 405.5,52.5C 405.5,77.1667 405.5,101.833 405.5,126.5C 440.833,126.5 476.167,126.5 511.5,126.5 Z"/></g>
</svg>
